M48
METRIC,LZ,000.000
;FILE_FORMAT=3:3
;TYPE=PLATED
;Layer: PTH_Through
;EasyEDA v6.5.51, 2025-10-19 23:19:45
;7b2d1a5a50ca49e0b1e0c3d03fbfd553,f84f62d461a54663ae58951fd378ab02,10
;Gerber Generator version 0.2
;Holesize 1 = 0.310 mm
T01C0.310
;Holesize 2 = 0.551 mm
T02C0.551
;Holesize 3 = 0.701 mm
T03C0.701
;Holesize 4 = 0.762 mm
T04C0.762
;Holesize 5 = 0.901 mm
T05C0.901
;Holesize 6 = 0.915 mm
T06C0.915
;Holesize 7 = 2.301 mm
T07C2.301
%
G05
G90
T01
X-013573Y-026082
X-013573Y-027457
X-013573Y-030206
X-013573Y-028832
X-013573Y-024708
X-013573Y-031581
X-013573Y-005169
X-013573Y-006544
X-013573Y-007918
X-013573Y-009293
X-013573Y-010667
X-013573Y-012042
X032578Y-020917
X037277Y-027648
X021687Y-038484
X016449Y-038570
X009845Y-033744
X010734Y-033744
X009845Y-034633
X010734Y-034633
X010734Y-035522
X009950Y-036750
X009950Y-037650
X009250Y-036750
X009250Y-037650
X019624Y-024219
X021021Y-024219
X022164Y-025362
X022164Y-026759
X022164Y-028156
X021021Y-029426
X019624Y-029426
X018227Y-029426
X016957Y-028283
X016957Y-026886
X016957Y-025362
X018227Y-024219
X009749Y-017021
X010638Y-017021
X009749Y-016132
X010638Y-016132
X-016317Y001943
X-014000Y-042548
X-010936Y-042548
X-007872Y-042548
X-004808Y-042548
X-001744Y-042548
X001320Y-042548
X004383Y-042548
X007447Y-042548
X010511Y-042548
X013575Y-042548
X016639Y-042548
X019703Y-042548
X022767Y-042548
X025831Y-042548
X028894Y-042548
X031958Y-042548
X035022Y-042548
X038070Y-039325
X038070Y-036262
X038070Y-033198
X038070Y-030134
X038070Y-027070
X038070Y-024006
X038070Y-020942
X038070Y-017878
X038070Y-014814
X038070Y-011751
X038070Y-008687
X038070Y-005623
X038070Y-002559
X038070Y000505
X038070Y003569
X038070Y006633
X038070Y009697
X-014000Y012570
X-010936Y012570
X-007872Y012570
X-004808Y012570
X-001744Y012570
X001320Y012570
X004383Y012570
X007447Y012570
X010511Y012570
X013575Y012570
X016639Y012570
X019703Y012570
X022767Y012570
X025831Y012570
X028894Y012570
X031958Y012570
X035022Y012570
X-017048Y-039500
X-017048Y-036436
X-017048Y-033372
X-017048Y-030308
X-017048Y-027245
X-017048Y-024181
X-017048Y-021117
X-017048Y-018053
X-017048Y-014989
X-017048Y-011925
X-017048Y-008861
X-017048Y-005797
X-017048Y-002734
X-017048Y000330
X-017048Y003394
X-017048Y006458
X-017048Y009522
X-016159Y-041659
X037181Y-041659
X037181Y011554
X-016159Y011681
X011273Y013840
X019528Y-019561
X024481Y-019561
X006701Y-006734
X021433Y-014100
X008479Y-015116
X007336Y-016513
X019782Y-009147
X005685Y-018291
X027940Y-008636
X-003586Y-008004
X-004348Y-008893
X-004729Y-010671
X-004094Y-011687
X007239Y-014097
X000635Y-007239
X001875Y-013338
X002129Y-014862
X006447Y-017529
X-002443Y-005337
X-000919Y-005337
X-005364Y-005972
X-005207Y-011557
X-004318Y-012700
X-009398Y-008636
X000508Y-016764
X004953Y-019050
X018669Y-019812
X020320Y-019050
X005969Y-006096
X005842Y-007239
X006858Y-005715
X006858Y-004826
X010795Y-005461
X010795Y-006350
X010795Y-007239
X006985Y001905
X008001Y001905
X008001Y000889
X-008763Y-017145
X-008763Y-018034
X-008763Y-018923
X-008763Y-019812
X-009652Y-018923
X-009652Y-018034
X-004445Y-025908
X-004445Y-026670
X-005207Y-025908
X-005207Y-026670
X-004064Y-027432
X-004064Y-028194
X002667Y-025781
X003429Y-025781
X002667Y-026543
X003429Y-026543
X002413Y-027305
X002413Y-028067
X003556Y-028575
X003556Y-029337
X003556Y-030099
X003556Y-030861
X034544Y-015367
X031242Y-009271
X032004Y-009271
X027686Y-007239
X022606Y-009271
X019431Y-010287
X019431Y-011049
X019431Y-011811
X022860Y-014097
X026924Y-011176
X027813Y-012192
X019685Y-005334
X023495Y-019558
X025400Y-019558
X020574Y-014224
X020574Y-013462
X029210Y-035433
X026416Y-035433
X027051Y-032639
X028321Y-032639
X024638Y-035433
X023368Y-035433
X017526Y-014478
X017526Y-011494
X017526Y-008128
X017526Y-005525
X017526Y-002540
X017526Y000445
X017526Y003429
X020701Y003429
X023749Y003429
X026797Y003429
X029845Y000667
X029845Y-002096
X033782Y-013589
X033782Y-010605
X033782Y-007620
X029845Y-007620
X031814Y-007620
X029845Y-004858
X029845Y003429
X006550Y-011250
X006550Y-012000
X009500Y-011700
X010250Y-011700
X025300Y-006750
X026100Y-006750
X026900Y-006750
T02
X-001000Y000008
X000000Y001008
X001000Y000008
T03
X022286Y000011G85X022281Y000011
X021016Y001281G85X021011Y001281
X019746Y000011G85X019741Y000011
T04
X-005502Y010791
X-005502Y005691
X-005502Y008231
T05
X-008366Y-024458G85X-008366Y-024958
X-008366Y-031458G85X-008366Y-031958
X-008386Y-004847G85X-008386Y-005347
X-008386Y-011847G85X-008386Y-012347
T06
X-008366Y-027208
X-008366Y-029208
X-008386Y-007597
X-008386Y-009597
T07
X-010766Y-034783
X-010766Y-021633
X-010786Y-015172
X-010786Y-002022
M30
