G04 Layer: TopSilkscreenLayer*
G04 EasyEDA v6.5.51, 2025-10-19 23:19:45*
G04 7b2d1a5a50ca49e0b1e0c3d03fbfd553,f84f62d461a54663ae58951fd378ab02,10*
G04 Gerber Generator version 0.2*
G04 Scale: 100 percent, Rotated: No, Reflected: No *
G04 Dimensions in millimeters *
G04 leading zeros omitted , absolute positions ,4 integer and 5 decimal *
%FSLAX45Y45*%
%MOMM*%

%ADD10C,0.2032*%
%ADD11C,0.1500*%
%ADD12C,0.1524*%
%ADD13C,0.2540*%
%ADD14C,0.1900*%
%ADD15C,0.0127*%
%ADD16C,0.2030*%
%ADD17C,0.1199*%
%ADD18C,0.1200*%
%ADD19C,0.1800*%

%LPD*%
D10*
X3221611Y-698888D02*
G01*
X3351151Y-698888D01*
X3377059Y-690252D01*
X3394331Y-672980D01*
X3402967Y-647072D01*
X3402967Y-629800D01*
X3394331Y-603892D01*
X3377059Y-586620D01*
X3351151Y-577984D01*
X3221611Y-577984D01*
X3221611Y-520834D02*
G01*
X3402967Y-477654D01*
X3221611Y-434474D02*
G01*
X3402967Y-477654D01*
X3221611Y-434474D02*
G01*
X3402967Y-391294D01*
X3221611Y-348114D02*
G01*
X3402967Y-391294D01*
X3221611Y-222130D02*
G01*
X3402967Y-291218D01*
X3221611Y-222130D02*
G01*
X3402967Y-153042D01*
X3342515Y-265310D02*
G01*
X3342515Y-178950D01*
X3518748Y-569346D02*
G01*
X3501476Y-577982D01*
X3484204Y-595254D01*
X3475568Y-612526D01*
X3475568Y-647070D01*
X3484204Y-664342D01*
X3501476Y-681614D01*
X3518748Y-690250D01*
X3544656Y-698886D01*
X3587836Y-698886D01*
X3613744Y-690250D01*
X3631016Y-681614D01*
X3648288Y-664342D01*
X3656924Y-647070D01*
X3656924Y-612526D01*
X3648288Y-595254D01*
X3631016Y-577982D01*
X3613744Y-569346D01*
X3587836Y-569346D01*
X3587836Y-612526D02*
G01*
X3587836Y-569346D01*
X3536020Y-512450D02*
G01*
X3656924Y-512450D01*
X3587836Y-512450D02*
G01*
X3561928Y-503814D01*
X3544656Y-486542D01*
X3536020Y-469270D01*
X3536020Y-443362D01*
X3536020Y-343032D02*
G01*
X3544656Y-360304D01*
X3561928Y-377576D01*
X3587836Y-386466D01*
X3605108Y-386466D01*
X3631016Y-377576D01*
X3648288Y-360304D01*
X3656924Y-343032D01*
X3656924Y-317124D01*
X3648288Y-299852D01*
X3631016Y-282580D01*
X3605108Y-273944D01*
X3587836Y-273944D01*
X3561928Y-282580D01*
X3544656Y-299852D01*
X3536020Y-317124D01*
X3536020Y-343032D01*
X3536020Y-217048D02*
G01*
X3622380Y-217048D01*
X3648288Y-208412D01*
X3656924Y-191140D01*
X3656924Y-165232D01*
X3648288Y-147960D01*
X3622380Y-122052D01*
X3536020Y-122052D02*
G01*
X3656924Y-122052D01*
X3536020Y-65156D02*
G01*
X3717376Y-65156D01*
X3561928Y-65156D02*
G01*
X3544656Y-47884D01*
X3536020Y-30612D01*
X3536020Y-4704D01*
X3544656Y12567D01*
X3561928Y29839D01*
X3587836Y38475D01*
X3605108Y38475D01*
X3631016Y29839D01*
X3648288Y12567D01*
X3656924Y-4704D01*
X3656924Y-30612D01*
X3648288Y-47884D01*
X3631016Y-65156D01*
X3518748Y237103D02*
G01*
X3510112Y237103D01*
X3492840Y245739D01*
X3484204Y254375D01*
X3475568Y271647D01*
X3475568Y306191D01*
X3484204Y323463D01*
X3492840Y332099D01*
X3510112Y340735D01*
X3527384Y340735D01*
X3544656Y332099D01*
X3570564Y314827D01*
X3656924Y228467D01*
X3656924Y349371D01*
X3475568Y527425D02*
G01*
X3656924Y441065D01*
X3475568Y406521D02*
G01*
X3475568Y527425D01*
X244988Y1111724D02*
G01*
X244988Y982184D01*
X253624Y956276D01*
X270896Y939004D01*
X296804Y930368D01*
X314076Y930368D01*
X339984Y939004D01*
X357256Y956276D01*
X365892Y982184D01*
X365892Y1111724D01*
X543946Y1085816D02*
G01*
X526674Y1103088D01*
X500766Y1111724D01*
X466222Y1111724D01*
X440314Y1103088D01*
X423042Y1085816D01*
X423042Y1068544D01*
X431678Y1051272D01*
X440314Y1042636D01*
X457586Y1034000D01*
X509402Y1016728D01*
X526674Y1008092D01*
X535310Y999456D01*
X543946Y982184D01*
X543946Y956276D01*
X526674Y939004D01*
X500766Y930368D01*
X466222Y930368D01*
X440314Y939004D01*
X423042Y956276D01*
X600842Y1111724D02*
G01*
X600842Y930368D01*
X600842Y1111724D02*
G01*
X678566Y1111724D01*
X704474Y1103088D01*
X713110Y1094452D01*
X721746Y1077180D01*
X721746Y1059908D01*
X713110Y1042636D01*
X704474Y1034000D01*
X678566Y1025364D01*
X600842Y1025364D02*
G01*
X678566Y1025364D01*
X704474Y1016728D01*
X713110Y1008092D01*
X721746Y990820D01*
X721746Y964912D01*
X713110Y947640D01*
X704474Y939004D01*
X678566Y930368D01*
X600842Y930368D01*
X778642Y1008092D02*
G01*
X934090Y1008092D01*
X991240Y1111724D02*
G01*
X991240Y930368D01*
X991240Y1111724D02*
G01*
X1103508Y1111724D01*
X991240Y1025364D02*
G01*
X1060328Y1025364D01*
X1281308Y1085816D02*
G01*
X1264036Y1103088D01*
X1238128Y1111724D01*
X1203584Y1111724D01*
X1177676Y1103088D01*
X1160404Y1085816D01*
X1160404Y1068544D01*
X1169040Y1051272D01*
X1177676Y1042636D01*
X1194948Y1034000D01*
X1246764Y1016728D01*
X1264036Y1008092D01*
X1272672Y999456D01*
X1281308Y982184D01*
X1281308Y956276D01*
X1264036Y939004D01*
X1238128Y930368D01*
X1203584Y930368D01*
X1177676Y939004D01*
X1160404Y956276D01*
X1390274Y1111724D02*
G01*
X1373002Y1103088D01*
X1355730Y1085816D01*
X1347094Y1068544D01*
X1338458Y1042636D01*
X1338458Y999456D01*
X1347094Y973548D01*
X1355730Y956276D01*
X1373002Y939004D01*
X1390274Y930368D01*
X1424818Y930368D01*
X1442090Y939004D01*
X1459362Y956276D01*
X1467998Y973548D01*
X1476634Y999456D01*
X1476634Y1042636D01*
X1467998Y1068544D01*
X1459362Y1085816D01*
X1442090Y1103088D01*
X1424818Y1111724D01*
X1390274Y1111724D01*
X1666626Y1111724D02*
G01*
X1666626Y930368D01*
X1666626Y930368D02*
G01*
X1770258Y930368D01*
X1827154Y1111724D02*
G01*
X1835790Y1103088D01*
X1844426Y1111724D01*
X1835790Y1120360D01*
X1827154Y1111724D01*
X1835790Y1051272D02*
G01*
X1835790Y930368D01*
X1901576Y1051272D02*
G01*
X1901576Y930368D01*
X1901576Y1016728D02*
G01*
X1927484Y1042636D01*
X1944756Y1051272D01*
X1970664Y1051272D01*
X1987936Y1042636D01*
X1996572Y1016728D01*
X1996572Y930368D01*
X2053468Y1111724D02*
G01*
X2053468Y930368D01*
X2139828Y1051272D02*
G01*
X2053468Y964912D01*
X2088012Y999456D02*
G01*
X2148464Y930368D01*
X-1028776Y-4024376D02*
G01*
X-977722Y-4157979D01*
X-926922Y-4024376D02*
G01*
X-977722Y-4157979D01*
X-884758Y-4106926D02*
G01*
X-808558Y-4106926D01*
X-808558Y-4094226D01*
X-814908Y-4081526D01*
X-821258Y-4075176D01*
X-833958Y-4068826D01*
X-853008Y-4068826D01*
X-865708Y-4075176D01*
X-878408Y-4087876D01*
X-884758Y-4106926D01*
X-884758Y-4119879D01*
X-878408Y-4138929D01*
X-865708Y-4151629D01*
X-853008Y-4157979D01*
X-833958Y-4157979D01*
X-821258Y-4151629D01*
X-808558Y-4138929D01*
X-766394Y-4068826D02*
G01*
X-766394Y-4157979D01*
X-766394Y-4106926D02*
G01*
X-760044Y-4087876D01*
X-747344Y-4075176D01*
X-734644Y-4068826D01*
X-715594Y-4068826D01*
X-673684Y-4202429D02*
G01*
X-559130Y-4202429D01*
X-504266Y-4024376D02*
G01*
X-434416Y-4024376D01*
X-472516Y-4075176D01*
X-453466Y-4075176D01*
X-440766Y-4081526D01*
X-434416Y-4087876D01*
X-428066Y-4106926D01*
X-428066Y-4119879D01*
X-434416Y-4138929D01*
X-447116Y-4151629D01*
X-466166Y-4157979D01*
X-485216Y-4157979D01*
X-504266Y-4151629D01*
X-510616Y-4145279D01*
X-516966Y-4132579D01*
X-379552Y-4126229D02*
G01*
X-385902Y-4132579D01*
X-379552Y-4138929D01*
X-373202Y-4132579D01*
X-379552Y-4126229D01*
X-292938Y-4024376D02*
G01*
X-312242Y-4030726D01*
X-324942Y-4049776D01*
X-331292Y-4081526D01*
X-331292Y-4100576D01*
X-324942Y-4132579D01*
X-312242Y-4151629D01*
X-292938Y-4157979D01*
X-280238Y-4157979D01*
X-261188Y-4151629D01*
X-248488Y-4132579D01*
X-242138Y-4100576D01*
X-242138Y-4081526D01*
X-248488Y-4049776D01*
X-261188Y-4030726D01*
X-280238Y-4024376D01*
X-292938Y-4024376D01*
D11*
X-1419136Y638817D02*
G01*
X-1524038Y638817D01*
X-1419136Y638817D02*
G01*
X-1419136Y593859D01*
X-1424216Y578873D01*
X-1429042Y573793D01*
X-1439202Y568713D01*
X-1454188Y568713D01*
X-1464094Y573793D01*
X-1469174Y578873D01*
X-1474000Y593859D01*
X-1474000Y638817D01*
X-1419136Y505721D02*
G01*
X-1424216Y515881D01*
X-1434122Y525787D01*
X-1444028Y530867D01*
X-1459014Y535693D01*
X-1484160Y535693D01*
X-1499146Y530867D01*
X-1509052Y525787D01*
X-1519212Y515881D01*
X-1524038Y505721D01*
X-1524038Y485909D01*
X-1519212Y475749D01*
X-1509052Y465843D01*
X-1499146Y460763D01*
X-1484160Y455683D01*
X-1459014Y455683D01*
X-1444028Y460763D01*
X-1434122Y465843D01*
X-1424216Y475749D01*
X-1419136Y485909D01*
X-1419136Y505721D01*
X-1419136Y422917D02*
G01*
X-1524038Y397771D01*
X-1419136Y372879D02*
G01*
X-1524038Y397771D01*
X-1419136Y372879D02*
G01*
X-1524038Y347733D01*
X-1419136Y322841D02*
G01*
X-1524038Y347733D01*
X-1419136Y289821D02*
G01*
X-1524038Y289821D01*
X-1419136Y289821D02*
G01*
X-1419136Y224797D01*
X-1469174Y289821D02*
G01*
X-1469174Y249689D01*
X-1524038Y289821D02*
G01*
X-1524038Y224797D01*
X-1419136Y191777D02*
G01*
X-1524038Y191777D01*
X-1419136Y191777D02*
G01*
X-1419136Y146819D01*
X-1424216Y131833D01*
X-1429042Y126753D01*
X-1439202Y121673D01*
X-1449108Y121673D01*
X-1459014Y126753D01*
X-1464094Y131833D01*
X-1469174Y146819D01*
X-1469174Y191777D01*
X-1469174Y156725D02*
G01*
X-1524038Y121673D01*
X2206782Y-3661232D02*
G01*
X2206782Y-3766134D01*
X2206782Y-3661232D02*
G01*
X2251740Y-3661232D01*
X2266726Y-3666312D01*
X2271806Y-3671138D01*
X2276886Y-3681298D01*
X2276886Y-3691204D01*
X2271806Y-3701110D01*
X2266726Y-3706190D01*
X2251740Y-3711270D01*
X2206782Y-3711270D01*
X2241834Y-3711270D02*
G01*
X2276886Y-3766134D01*
X2379756Y-3676218D02*
G01*
X2369850Y-3666312D01*
X2354864Y-3661232D01*
X2334798Y-3661232D01*
X2319812Y-3666312D01*
X2309906Y-3676218D01*
X2309906Y-3686124D01*
X2314732Y-3696284D01*
X2319812Y-3701110D01*
X2329718Y-3706190D01*
X2359690Y-3716096D01*
X2369850Y-3721176D01*
X2374930Y-3726256D01*
X2379756Y-3736162D01*
X2379756Y-3751148D01*
X2369850Y-3761308D01*
X2354864Y-3766134D01*
X2334798Y-3766134D01*
X2319812Y-3761308D01*
X2309906Y-3751148D01*
X2447828Y-3661232D02*
G01*
X2447828Y-3766134D01*
X2412776Y-3661232D02*
G01*
X2482880Y-3661232D01*
X3432335Y-2032012D02*
G01*
X3537237Y-2032012D01*
X3432335Y-2032012D02*
G01*
X3432335Y-1987054D01*
X3437415Y-1972068D01*
X3442241Y-1966988D01*
X3452401Y-1961908D01*
X3462307Y-1961908D01*
X3472213Y-1966988D01*
X3477293Y-1972068D01*
X3482373Y-1987054D01*
X3482373Y-2032012D02*
G01*
X3482373Y-1987054D01*
X3487199Y-1972068D01*
X3492279Y-1966988D01*
X3502185Y-1961908D01*
X3517171Y-1961908D01*
X3527331Y-1966988D01*
X3532411Y-1972068D01*
X3537237Y-1987054D01*
X3537237Y-2032012D01*
X3432335Y-1898916D02*
G01*
X3437415Y-1909076D01*
X3447321Y-1918982D01*
X3457227Y-1924062D01*
X3472213Y-1928888D01*
X3497359Y-1928888D01*
X3512345Y-1924062D01*
X3522251Y-1918982D01*
X3532411Y-1909076D01*
X3537237Y-1898916D01*
X3537237Y-1879104D01*
X3532411Y-1868944D01*
X3522251Y-1859038D01*
X3512345Y-1853958D01*
X3497359Y-1848878D01*
X3472213Y-1848878D01*
X3457227Y-1853958D01*
X3447321Y-1859038D01*
X3437415Y-1868944D01*
X3432335Y-1879104D01*
X3432335Y-1898916D01*
X3432335Y-1785886D02*
G01*
X3437415Y-1796046D01*
X3447321Y-1805952D01*
X3457227Y-1811032D01*
X3472213Y-1816112D01*
X3497359Y-1816112D01*
X3512345Y-1811032D01*
X3522251Y-1805952D01*
X3532411Y-1796046D01*
X3537237Y-1785886D01*
X3537237Y-1766074D01*
X3532411Y-1755914D01*
X3522251Y-1746008D01*
X3512345Y-1740928D01*
X3497359Y-1736102D01*
X3472213Y-1736102D01*
X3457227Y-1740928D01*
X3447321Y-1746008D01*
X3437415Y-1755914D01*
X3432335Y-1766074D01*
X3432335Y-1785886D01*
X3432335Y-1668030D02*
G01*
X3537237Y-1668030D01*
X3432335Y-1703082D02*
G01*
X3432335Y-1632978D01*
X3508535Y-2717812D02*
G01*
X3613437Y-2717812D01*
X3508535Y-2717812D02*
G01*
X3508535Y-2672854D01*
X3513615Y-2657868D01*
X3518441Y-2652788D01*
X3528601Y-2647708D01*
X3543587Y-2647708D01*
X3553493Y-2652788D01*
X3558573Y-2657868D01*
X3563399Y-2672854D01*
X3563399Y-2717812D01*
X3508535Y-2614688D02*
G01*
X3613437Y-2614688D01*
X3508535Y-2614688D02*
G01*
X3508535Y-2569730D01*
X3513615Y-2554744D01*
X3518441Y-2549664D01*
X3528601Y-2544838D01*
X3538507Y-2544838D01*
X3548413Y-2549664D01*
X3553493Y-2554744D01*
X3558573Y-2569730D01*
X3558573Y-2614688D01*
X3558573Y-2579890D02*
G01*
X3613437Y-2544838D01*
X3533427Y-2436888D02*
G01*
X3523521Y-2441714D01*
X3513615Y-2451874D01*
X3508535Y-2461780D01*
X3508535Y-2481846D01*
X3513615Y-2491752D01*
X3523521Y-2501912D01*
X3533427Y-2506738D01*
X3548413Y-2511818D01*
X3573559Y-2511818D01*
X3588545Y-2506738D01*
X3598451Y-2501912D01*
X3608611Y-2491752D01*
X3613437Y-2481846D01*
X3613437Y-2461780D01*
X3608611Y-2451874D01*
X3598451Y-2441714D01*
X3588545Y-2436888D01*
X3573559Y-2436888D01*
X3573559Y-2461780D02*
G01*
X3573559Y-2436888D01*
X428459Y596933D02*
G01*
X323557Y596933D01*
X323557Y596933D02*
G01*
X323557Y536989D01*
X428459Y463837D02*
G01*
X323557Y503969D01*
X428459Y463837D02*
G01*
X323557Y423959D01*
X358609Y488983D02*
G01*
X358609Y438945D01*
X413473Y320835D02*
G01*
X423379Y330995D01*
X428459Y345981D01*
X428459Y365793D01*
X423379Y381033D01*
X413473Y390939D01*
X403567Y390939D01*
X393407Y385859D01*
X388581Y381033D01*
X383501Y370873D01*
X373595Y340901D01*
X368515Y330995D01*
X363435Y325915D01*
X353529Y320835D01*
X338543Y320835D01*
X328383Y330995D01*
X323557Y345981D01*
X323557Y365793D01*
X328383Y381033D01*
X338543Y390939D01*
X428459Y287815D02*
G01*
X323557Y287815D01*
X428459Y287815D02*
G01*
X428459Y222791D01*
X378421Y287815D02*
G01*
X378421Y247937D01*
X323557Y287815D02*
G01*
X323557Y222791D01*
X428459Y190025D02*
G01*
X323557Y190025D01*
X428459Y190025D02*
G01*
X428459Y144813D01*
X423379Y129827D01*
X418553Y125001D01*
X408393Y119921D01*
X398487Y119921D01*
X388581Y125001D01*
X383501Y129827D01*
X378421Y144813D01*
X378421Y190025D01*
X378421Y154973D02*
G01*
X323557Y119921D01*
X1616235Y-444512D02*
G01*
X1721137Y-444512D01*
X1616235Y-444512D02*
G01*
X1616235Y-399554D01*
X1621315Y-384568D01*
X1626141Y-379488D01*
X1636301Y-374408D01*
X1651287Y-374408D01*
X1661193Y-379488D01*
X1666273Y-384568D01*
X1671099Y-399554D01*
X1671099Y-444512D01*
X1616235Y-341388D02*
G01*
X1721137Y-341388D01*
X1616235Y-271538D02*
G01*
X1721137Y-271538D01*
X1666273Y-341388D02*
G01*
X1666273Y-271538D01*
X1616235Y-208546D02*
G01*
X1621315Y-218452D01*
X1631221Y-228612D01*
X1641127Y-233438D01*
X1656113Y-238518D01*
X1681259Y-238518D01*
X1696245Y-233438D01*
X1706151Y-228612D01*
X1716311Y-218452D01*
X1721137Y-208546D01*
X1721137Y-188480D01*
X1716311Y-178574D01*
X1706151Y-168414D01*
X1696245Y-163588D01*
X1681259Y-158508D01*
X1656113Y-158508D01*
X1641127Y-163588D01*
X1631221Y-168414D01*
X1621315Y-178574D01*
X1616235Y-188480D01*
X1616235Y-208546D01*
X1616235Y-90436D02*
G01*
X1721137Y-90436D01*
X1616235Y-125488D02*
G01*
X1616235Y-55384D01*
X1616235Y7607D02*
G01*
X1621315Y-2552D01*
X1631221Y-12458D01*
X1641127Y-17538D01*
X1656113Y-22364D01*
X1681259Y-22364D01*
X1696245Y-17538D01*
X1706151Y-12458D01*
X1716311Y-2552D01*
X1721137Y7607D01*
X1721137Y27419D01*
X1716311Y37579D01*
X1706151Y47485D01*
X1696245Y52565D01*
X1681259Y57391D01*
X1656113Y57391D01*
X1641127Y52565D01*
X1631221Y47485D01*
X1621315Y37579D01*
X1616235Y27419D01*
X1616235Y7607D01*
X1616235Y90411D02*
G01*
X1721137Y90411D01*
X1616235Y90411D02*
G01*
X1616235Y125463D01*
X1621315Y140449D01*
X1631221Y150609D01*
X1641127Y155435D01*
X1656113Y160515D01*
X1681259Y160515D01*
X1696245Y155435D01*
X1706151Y150609D01*
X1716311Y140449D01*
X1721137Y125463D01*
X1721137Y90411D01*
X1616235Y193535D02*
G01*
X1721137Y193535D01*
X1616235Y256527D02*
G01*
X1621315Y246621D01*
X1631221Y236461D01*
X1641127Y231635D01*
X1656113Y226555D01*
X1681259Y226555D01*
X1696245Y231635D01*
X1706151Y236461D01*
X1716311Y246621D01*
X1721137Y256527D01*
X1721137Y276593D01*
X1716311Y286499D01*
X1706151Y296405D01*
X1696245Y301485D01*
X1681259Y306565D01*
X1656113Y306565D01*
X1641127Y301485D01*
X1631221Y296405D01*
X1621315Y286499D01*
X1616235Y276593D01*
X1616235Y256527D01*
X1616235Y339585D02*
G01*
X1721137Y339585D01*
X1616235Y339585D02*
G01*
X1616235Y374383D01*
X1621315Y389623D01*
X1631221Y399529D01*
X1641127Y404609D01*
X1656113Y409435D01*
X1681259Y409435D01*
X1696245Y404609D01*
X1706151Y399529D01*
X1716311Y389623D01*
X1721137Y374383D01*
X1721137Y339585D01*
X1616235Y442455D02*
G01*
X1721137Y442455D01*
X1616235Y442455D02*
G01*
X1616235Y507479D01*
X1666273Y442455D02*
G01*
X1666273Y482587D01*
X1721137Y442455D02*
G01*
X1721137Y507479D01*
X-987247Y634974D02*
G01*
X-882345Y634974D01*
X-882345Y634974D02*
G01*
X-882345Y694918D01*
X-952195Y787882D02*
G01*
X-882345Y787882D01*
X-937209Y787882D02*
G01*
X-947369Y777976D01*
X-952195Y768070D01*
X-952195Y753084D01*
X-947369Y742924D01*
X-937209Y733018D01*
X-922223Y727938D01*
X-912317Y727938D01*
X-897331Y733018D01*
X-887425Y742924D01*
X-882345Y753084D01*
X-882345Y768070D01*
X-887425Y777976D01*
X-897331Y787882D01*
X-937209Y876020D02*
G01*
X-947369Y870940D01*
X-952195Y855954D01*
X-952195Y840968D01*
X-947369Y825982D01*
X-937209Y820902D01*
X-927303Y825982D01*
X-922223Y835888D01*
X-917397Y861034D01*
X-912317Y870940D01*
X-902411Y876020D01*
X-897331Y876020D01*
X-887425Y870940D01*
X-882345Y855954D01*
X-882345Y840968D01*
X-887425Y825982D01*
X-897331Y820902D01*
X-922223Y909040D02*
G01*
X-922223Y968984D01*
X-932383Y968984D01*
X-942289Y963904D01*
X-947369Y959078D01*
X-952195Y948918D01*
X-952195Y933932D01*
X-947369Y924026D01*
X-937209Y914120D01*
X-922223Y909040D01*
X-912317Y909040D01*
X-897331Y914120D01*
X-887425Y924026D01*
X-882345Y933932D01*
X-882345Y948918D01*
X-887425Y959078D01*
X-897331Y968984D01*
X-952195Y1002004D02*
G01*
X-882345Y1002004D01*
X-922223Y1002004D02*
G01*
X-937209Y1007084D01*
X-947369Y1016990D01*
X-952195Y1026896D01*
X-952195Y1041882D01*
X-847293Y1074902D02*
G01*
X-847293Y1165072D01*
X-987247Y1198092D02*
G01*
X-882345Y1198092D01*
X2819968Y-864438D02*
G01*
X2845368Y-931240D01*
X2871022Y-864438D02*
G01*
X2845368Y-931240D01*
X2891850Y-953338D02*
G01*
X2949254Y-953338D01*
X2970082Y-886536D02*
G01*
X2970082Y-931240D01*
X2970082Y-905840D02*
G01*
X2973384Y-896188D01*
X2979734Y-889838D01*
X2986084Y-886536D01*
X2995736Y-886536D01*
X3016564Y-905840D02*
G01*
X3054918Y-905840D01*
X3054918Y-899236D01*
X3051616Y-892886D01*
X3048568Y-889838D01*
X3041964Y-886536D01*
X3032566Y-886536D01*
X3026216Y-889838D01*
X3019866Y-896188D01*
X3016564Y-905840D01*
X3016564Y-912190D01*
X3019866Y-921588D01*
X3026216Y-927938D01*
X3032566Y-931240D01*
X3041964Y-931240D01*
X3048568Y-927938D01*
X3054918Y-921588D01*
X3101146Y-864438D02*
G01*
X3094796Y-864438D01*
X3088446Y-867486D01*
X3085398Y-877138D01*
X3085398Y-931240D01*
X3075746Y-886536D02*
G01*
X3098098Y-886536D01*
D12*
X2389464Y-353763D02*
G01*
X2389464Y-420565D01*
X2389464Y-353763D02*
G01*
X2418166Y-353763D01*
X2427564Y-356811D01*
X2430866Y-360113D01*
X2433914Y-366463D01*
X2433914Y-372813D01*
X2430866Y-379163D01*
X2427564Y-382211D01*
X2418166Y-385513D01*
X2389464Y-385513D01*
X2411816Y-385513D02*
G01*
X2433914Y-420565D01*
X2461346Y-353763D02*
G01*
X2496398Y-353763D01*
X2477348Y-379163D01*
X2486746Y-379163D01*
X2493096Y-382211D01*
X2496398Y-385513D01*
X2499700Y-395165D01*
X2499700Y-401515D01*
X2496398Y-410913D01*
X2490048Y-417263D01*
X2480396Y-420565D01*
X2470998Y-420565D01*
X2461346Y-417263D01*
X2458298Y-414215D01*
X2454996Y-407865D01*
X975931Y-1266563D02*
G01*
X968565Y-1270119D01*
X961199Y-1277485D01*
X957643Y-1284851D01*
X957643Y-1299329D01*
X961199Y-1306441D01*
X968565Y-1313807D01*
X975931Y-1317363D01*
X986853Y-1321173D01*
X1004887Y-1321173D01*
X1015809Y-1317363D01*
X1023175Y-1313807D01*
X1030287Y-1306441D01*
X1034097Y-1299329D01*
X1034097Y-1284851D01*
X1030287Y-1277485D01*
X1023175Y-1270119D01*
X1015809Y-1266563D01*
X972121Y-1242433D02*
G01*
X968565Y-1235321D01*
X957643Y-1224399D01*
X1034097Y-1224399D01*
X957643Y-1178425D02*
G01*
X961199Y-1189347D01*
X972121Y-1196713D01*
X990409Y-1200269D01*
X1001331Y-1200269D01*
X1019619Y-1196713D01*
X1030287Y-1189347D01*
X1034097Y-1178425D01*
X1034097Y-1171313D01*
X1030287Y-1160391D01*
X1019619Y-1153025D01*
X1001331Y-1149469D01*
X990409Y-1149469D01*
X972121Y-1153025D01*
X961199Y-1160391D01*
X957643Y-1171313D01*
X957643Y-1178425D01*
X-331226Y-626031D02*
G01*
X-323860Y-622475D01*
X-316494Y-615109D01*
X-312938Y-607743D01*
X-312938Y-593265D01*
X-316494Y-586153D01*
X-323860Y-578787D01*
X-331226Y-575231D01*
X-342148Y-571421D01*
X-360182Y-571421D01*
X-371104Y-575231D01*
X-378470Y-578787D01*
X-385582Y-586153D01*
X-389392Y-593265D01*
X-389392Y-607743D01*
X-385582Y-615109D01*
X-378470Y-622475D01*
X-371104Y-626031D01*
X-327416Y-650161D02*
G01*
X-323860Y-657273D01*
X-312938Y-668195D01*
X-389392Y-668195D01*
X-312938Y-710359D02*
G01*
X-316494Y-699437D01*
X-323860Y-695881D01*
X-331226Y-695881D01*
X-338338Y-699437D01*
X-342148Y-706803D01*
X-345704Y-721281D01*
X-349260Y-732203D01*
X-356626Y-739569D01*
X-363992Y-743125D01*
X-374914Y-743125D01*
X-382026Y-739569D01*
X-385582Y-735759D01*
X-389392Y-724837D01*
X-389392Y-710359D01*
X-385582Y-699437D01*
X-382026Y-695881D01*
X-374914Y-692325D01*
X-363992Y-692325D01*
X-356626Y-695881D01*
X-349260Y-703247D01*
X-345704Y-714169D01*
X-342148Y-728647D01*
X-338338Y-735759D01*
X-331226Y-739569D01*
X-323860Y-739569D01*
X-316494Y-735759D01*
X-312938Y-724837D01*
X-312938Y-710359D01*
X-255968Y-504563D02*
G01*
X-263334Y-508119D01*
X-270700Y-515485D01*
X-274256Y-522851D01*
X-274256Y-537329D01*
X-270700Y-544441D01*
X-263334Y-551807D01*
X-255968Y-555363D01*
X-245046Y-559173D01*
X-227012Y-559173D01*
X-216090Y-555363D01*
X-208724Y-551807D01*
X-201612Y-544441D01*
X-197802Y-537329D01*
X-197802Y-522851D01*
X-201612Y-515485D01*
X-208724Y-508119D01*
X-216090Y-504563D01*
X-259778Y-480433D02*
G01*
X-263334Y-473321D01*
X-274256Y-462399D01*
X-197802Y-462399D01*
X-248856Y-391025D02*
G01*
X-237934Y-394835D01*
X-230568Y-401947D01*
X-227012Y-412869D01*
X-227012Y-416425D01*
X-230568Y-427347D01*
X-237934Y-434713D01*
X-248856Y-438269D01*
X-252412Y-438269D01*
X-263334Y-434713D01*
X-270700Y-427347D01*
X-274256Y-416425D01*
X-274256Y-412869D01*
X-270700Y-401947D01*
X-263334Y-394835D01*
X-248856Y-391025D01*
X-230568Y-391025D01*
X-212280Y-394835D01*
X-201612Y-401947D01*
X-197802Y-412869D01*
X-197802Y-420235D01*
X-201612Y-431157D01*
X-208724Y-434713D01*
X-128968Y-504563D02*
G01*
X-136334Y-508119D01*
X-143700Y-515485D01*
X-147256Y-522851D01*
X-147256Y-537329D01*
X-143700Y-544441D01*
X-136334Y-551807D01*
X-128968Y-555363D01*
X-118046Y-559173D01*
X-100012Y-559173D01*
X-89090Y-555363D01*
X-81724Y-551807D01*
X-74612Y-544441D01*
X-70802Y-537329D01*
X-70802Y-522851D01*
X-74612Y-515485D01*
X-81724Y-508119D01*
X-89090Y-504563D01*
X-128968Y-476877D02*
G01*
X-132778Y-476877D01*
X-139890Y-473321D01*
X-143700Y-469765D01*
X-147256Y-462399D01*
X-147256Y-447921D01*
X-143700Y-440555D01*
X-139890Y-436999D01*
X-132778Y-433189D01*
X-125412Y-433189D01*
X-118046Y-436999D01*
X-107124Y-444111D01*
X-70802Y-480433D01*
X-70802Y-429633D01*
X-147256Y-383913D02*
G01*
X-143700Y-394835D01*
X-132778Y-401947D01*
X-114490Y-405757D01*
X-103568Y-405757D01*
X-85280Y-401947D01*
X-74612Y-394835D01*
X-70802Y-383913D01*
X-70802Y-376547D01*
X-74612Y-365625D01*
X-85280Y-358259D01*
X-103568Y-354703D01*
X-114490Y-354703D01*
X-132778Y-358259D01*
X-143700Y-365625D01*
X-147256Y-376547D01*
X-147256Y-383913D01*
X242765Y-1279448D02*
G01*
X239209Y-1272082D01*
X231843Y-1264970D01*
X224731Y-1261160D01*
X213809Y-1257604D01*
X195521Y-1257604D01*
X184599Y-1261160D01*
X177487Y-1264970D01*
X170121Y-1272082D01*
X166565Y-1279448D01*
X166565Y-1293926D01*
X170121Y-1301292D01*
X177487Y-1308404D01*
X184599Y-1312214D01*
X195521Y-1315770D01*
X213809Y-1315770D01*
X224731Y-1312214D01*
X231843Y-1308404D01*
X239209Y-1301292D01*
X242765Y-1293926D01*
X242765Y-1279448D01*
X181043Y-1290370D02*
G01*
X159199Y-1312214D01*
X224731Y-1343456D02*
G01*
X228287Y-1343456D01*
X235653Y-1347012D01*
X239209Y-1350568D01*
X242765Y-1357934D01*
X242765Y-1372412D01*
X239209Y-1379778D01*
X235653Y-1383334D01*
X228287Y-1387144D01*
X220921Y-1387144D01*
X213809Y-1383334D01*
X202887Y-1376222D01*
X166565Y-1339900D01*
X166565Y-1390700D01*
X242765Y-1469948D02*
G01*
X239209Y-1462582D01*
X231843Y-1455470D01*
X224731Y-1451660D01*
X213809Y-1448104D01*
X195521Y-1448104D01*
X184599Y-1451660D01*
X177487Y-1455470D01*
X170121Y-1462582D01*
X166565Y-1469948D01*
X166565Y-1484426D01*
X170121Y-1491792D01*
X177487Y-1498904D01*
X184599Y-1502714D01*
X195521Y-1506270D01*
X213809Y-1506270D01*
X224731Y-1502714D01*
X231843Y-1498904D01*
X239209Y-1491792D01*
X242765Y-1484426D01*
X242765Y-1469948D01*
X181043Y-1480870D02*
G01*
X159199Y-1502714D01*
X242765Y-1537512D02*
G01*
X242765Y-1577644D01*
X213809Y-1555800D01*
X213809Y-1566722D01*
X209999Y-1573834D01*
X206443Y-1577644D01*
X195521Y-1581200D01*
X188409Y-1581200D01*
X177487Y-1577644D01*
X170121Y-1570278D01*
X166565Y-1559356D01*
X166565Y-1548434D01*
X170121Y-1537512D01*
X173677Y-1533956D01*
X181043Y-1530400D01*
X-286956Y-1473573D02*
G01*
X-210502Y-1473573D01*
X-286956Y-1473573D02*
G01*
X-286956Y-1440807D01*
X-283400Y-1429885D01*
X-279590Y-1426329D01*
X-272478Y-1422519D01*
X-265112Y-1422519D01*
X-257746Y-1426329D01*
X-254190Y-1429885D01*
X-250634Y-1440807D01*
X-250634Y-1473573D01*
X-250634Y-1447919D02*
G01*
X-210502Y-1422519D01*
X-268668Y-1394833D02*
G01*
X-272478Y-1394833D01*
X-279590Y-1391277D01*
X-283400Y-1387721D01*
X-286956Y-1380355D01*
X-286956Y-1365877D01*
X-283400Y-1358511D01*
X-279590Y-1354955D01*
X-272478Y-1351399D01*
X-265112Y-1351399D01*
X-257746Y-1354955D01*
X-246824Y-1362321D01*
X-210502Y-1398643D01*
X-210502Y-1347589D01*
X47726Y-986332D02*
G01*
X47726Y-1062786D01*
X47726Y-986332D02*
G01*
X80492Y-986332D01*
X91414Y-989888D01*
X94970Y-993698D01*
X98780Y-1000810D01*
X98780Y-1008176D01*
X94970Y-1015542D01*
X91414Y-1019098D01*
X80492Y-1022654D01*
X47726Y-1022654D01*
X73380Y-1022654D02*
G01*
X98780Y-1062786D01*
X169900Y-1011732D02*
G01*
X166344Y-1022654D01*
X158978Y-1030020D01*
X148056Y-1033576D01*
X144500Y-1033576D01*
X133578Y-1030020D01*
X126466Y-1022654D01*
X122656Y-1011732D01*
X122656Y-1008176D01*
X126466Y-997254D01*
X133578Y-989888D01*
X144500Y-986332D01*
X148056Y-986332D01*
X158978Y-989888D01*
X166344Y-997254D01*
X169900Y-1011732D01*
X169900Y-1030020D01*
X166344Y-1048308D01*
X158978Y-1058976D01*
X148056Y-1062786D01*
X140944Y-1062786D01*
X130022Y-1058976D01*
X126466Y-1051864D01*
X-204919Y-1310749D02*
G01*
X-204919Y-1256139D01*
X-208729Y-1245217D01*
X-215841Y-1238105D01*
X-226763Y-1234295D01*
X-234129Y-1234295D01*
X-245051Y-1238105D01*
X-252163Y-1245217D01*
X-255973Y-1256139D01*
X-255973Y-1310749D01*
X-298137Y-1310749D02*
G01*
X-287215Y-1307193D01*
X-283659Y-1299827D01*
X-283659Y-1292461D01*
X-287215Y-1285349D01*
X-294327Y-1281539D01*
X-309059Y-1277983D01*
X-319981Y-1274427D01*
X-327093Y-1267061D01*
X-330903Y-1259695D01*
X-330903Y-1248773D01*
X-327093Y-1241661D01*
X-323537Y-1238105D01*
X-312615Y-1234295D01*
X-298137Y-1234295D01*
X-287215Y-1238105D01*
X-283659Y-1241661D01*
X-279849Y-1248773D01*
X-279849Y-1259695D01*
X-283659Y-1267061D01*
X-290771Y-1274427D01*
X-301693Y-1277983D01*
X-316171Y-1281539D01*
X-323537Y-1285349D01*
X-327093Y-1292461D01*
X-327093Y-1299827D01*
X-323537Y-1307193D01*
X-312615Y-1310749D01*
X-298137Y-1310749D01*
X-534692Y-2689915D02*
G01*
X-612670Y-2689915D01*
X-628164Y-2695249D01*
X-638578Y-2705663D01*
X-643658Y-2721157D01*
X-643658Y-2731571D01*
X-638578Y-2747065D01*
X-628164Y-2757479D01*
X-612670Y-2762813D01*
X-534692Y-2762813D01*
X-550186Y-2869747D02*
G01*
X-539772Y-2859333D01*
X-534692Y-2843839D01*
X-534692Y-2823011D01*
X-539772Y-2807517D01*
X-550186Y-2797103D01*
X-560600Y-2797103D01*
X-571014Y-2802183D01*
X-576348Y-2807517D01*
X-581428Y-2817677D01*
X-591842Y-2848919D01*
X-596922Y-2859333D01*
X-602256Y-2864667D01*
X-612670Y-2869747D01*
X-628164Y-2869747D01*
X-638578Y-2859333D01*
X-643658Y-2843839D01*
X-643658Y-2823011D01*
X-638578Y-2807517D01*
X-628164Y-2797103D01*
X-534692Y-2904037D02*
G01*
X-643658Y-2904037D01*
X-534692Y-2904037D02*
G01*
X-534692Y-2950773D01*
X-539772Y-2966267D01*
X-545106Y-2971601D01*
X-555520Y-2976681D01*
X-565934Y-2976681D01*
X-576348Y-2971601D01*
X-581428Y-2966267D01*
X-586508Y-2950773D01*
X-586508Y-2904037D02*
G01*
X-586508Y-2950773D01*
X-591842Y-2966267D01*
X-596922Y-2971601D01*
X-607336Y-2976681D01*
X-623084Y-2976681D01*
X-633498Y-2971601D01*
X-638578Y-2966267D01*
X-643658Y-2950773D01*
X-643658Y-2904037D01*
X-547928Y-1037818D02*
G01*
X-537514Y-1027658D01*
X-532434Y-1011910D01*
X-532434Y-991082D01*
X-537514Y-975588D01*
X-547928Y-965174D01*
X-558342Y-965174D01*
X-568756Y-970508D01*
X-573836Y-975588D01*
X-579170Y-986002D01*
X-589584Y-1017244D01*
X-594664Y-1027658D01*
X-599998Y-1032738D01*
X-610412Y-1037818D01*
X-625906Y-1037818D01*
X-636320Y-1027658D01*
X-641400Y-1011910D01*
X-641400Y-991082D01*
X-636320Y-975588D01*
X-625906Y-965174D01*
X-532434Y-1072108D02*
G01*
X-641400Y-1072108D01*
X-532434Y-1072108D02*
G01*
X-532434Y-1139672D01*
X-584250Y-1072108D02*
G01*
X-584250Y-1113764D01*
X-641400Y-1072108D02*
G01*
X-641400Y-1139672D01*
X-532434Y-1173962D02*
G01*
X-641400Y-1173962D01*
X-532434Y-1173962D02*
G01*
X-532434Y-1220698D01*
X-537514Y-1236446D01*
X-542848Y-1241526D01*
X-553262Y-1246860D01*
X-563422Y-1246860D01*
X-573836Y-1241526D01*
X-579170Y-1236446D01*
X-584250Y-1220698D01*
X-584250Y-1173962D01*
X-584250Y-1210538D02*
G01*
X-641400Y-1246860D01*
X-532434Y-1281150D02*
G01*
X-641400Y-1281150D01*
X-532434Y-1356842D02*
G01*
X-641400Y-1315440D01*
X-532434Y-1356842D02*
G01*
X-641400Y-1398498D01*
X-605078Y-1330934D02*
G01*
X-605078Y-1383004D01*
X-532434Y-1432788D02*
G01*
X-641400Y-1432788D01*
X-641400Y-1432788D02*
G01*
X-641400Y-1495018D01*
X-270466Y-2457383D02*
G01*
X-274022Y-2450271D01*
X-281388Y-2442905D01*
X-288754Y-2439349D01*
X-303232Y-2439349D01*
X-310344Y-2442905D01*
X-317710Y-2450271D01*
X-321266Y-2457383D01*
X-325076Y-2468305D01*
X-325076Y-2486593D01*
X-321266Y-2497515D01*
X-317710Y-2504627D01*
X-310344Y-2511993D01*
X-303232Y-2515549D01*
X-288754Y-2515549D01*
X-281388Y-2511993D01*
X-274022Y-2504627D01*
X-270466Y-2497515D01*
X-246336Y-2453827D02*
G01*
X-239224Y-2450271D01*
X-228302Y-2439349D01*
X-228302Y-2515549D01*
X89540Y-2452387D02*
G01*
X85984Y-2445275D01*
X78618Y-2437909D01*
X71252Y-2434353D01*
X56774Y-2434353D01*
X49662Y-2437909D01*
X42296Y-2445275D01*
X38740Y-2452387D01*
X34930Y-2463309D01*
X34930Y-2481597D01*
X38740Y-2492519D01*
X42296Y-2499631D01*
X49662Y-2506997D01*
X56774Y-2510553D01*
X71252Y-2510553D01*
X78618Y-2506997D01*
X85984Y-2499631D01*
X89540Y-2492519D01*
X120782Y-2434353D02*
G01*
X160914Y-2434353D01*
X139070Y-2463309D01*
X149992Y-2463309D01*
X157104Y-2466865D01*
X160914Y-2470675D01*
X164470Y-2481597D01*
X164470Y-2488709D01*
X160914Y-2499631D01*
X153548Y-2506997D01*
X142626Y-2510553D01*
X131704Y-2510553D01*
X120782Y-2506997D01*
X117226Y-2503441D01*
X113670Y-2496075D01*
X808482Y-1375392D02*
G01*
X812038Y-1382504D01*
X819404Y-1389870D01*
X826770Y-1393426D01*
X841248Y-1393426D01*
X848360Y-1389870D01*
X855726Y-1382504D01*
X859282Y-1375392D01*
X863092Y-1364470D01*
X863092Y-1346182D01*
X859282Y-1335260D01*
X855726Y-1328148D01*
X848360Y-1320782D01*
X841248Y-1317226D01*
X826770Y-1317226D01*
X819404Y-1320782D01*
X812038Y-1328148D01*
X808482Y-1335260D01*
X780796Y-1375392D02*
G01*
X780796Y-1378948D01*
X777240Y-1386314D01*
X773684Y-1389870D01*
X766318Y-1393426D01*
X751840Y-1393426D01*
X744474Y-1389870D01*
X740918Y-1386314D01*
X737108Y-1378948D01*
X737108Y-1371582D01*
X740918Y-1364470D01*
X748030Y-1353548D01*
X784352Y-1317226D01*
X733552Y-1317226D01*
X1220452Y-3902590D02*
G01*
X1224008Y-3909702D01*
X1231374Y-3917068D01*
X1238740Y-3920624D01*
X1253218Y-3920624D01*
X1260330Y-3917068D01*
X1267696Y-3909702D01*
X1271252Y-3902590D01*
X1275062Y-3891668D01*
X1275062Y-3873380D01*
X1271252Y-3862458D01*
X1267696Y-3855346D01*
X1260330Y-3847980D01*
X1253218Y-3844424D01*
X1238740Y-3844424D01*
X1231374Y-3847980D01*
X1224008Y-3855346D01*
X1220452Y-3862458D01*
X1152888Y-3920624D02*
G01*
X1189210Y-3920624D01*
X1192766Y-3888112D01*
X1189210Y-3891668D01*
X1178288Y-3895224D01*
X1167366Y-3895224D01*
X1156444Y-3891668D01*
X1149078Y-3884302D01*
X1145522Y-3873380D01*
X1145522Y-3866268D01*
X1149078Y-3855346D01*
X1156444Y-3847980D01*
X1167366Y-3844424D01*
X1178288Y-3844424D01*
X1189210Y-3847980D01*
X1192766Y-3851536D01*
X1196322Y-3858902D01*
X1740362Y-3902542D02*
G01*
X1744172Y-3909908D01*
X1751284Y-3917020D01*
X1758650Y-3920830D01*
X1773128Y-3920830D01*
X1780494Y-3917020D01*
X1787606Y-3909908D01*
X1791416Y-3902542D01*
X1794972Y-3891620D01*
X1794972Y-3873332D01*
X1791416Y-3862410D01*
X1787606Y-3855298D01*
X1780494Y-3847932D01*
X1773128Y-3844376D01*
X1758650Y-3844376D01*
X1751284Y-3847932D01*
X1744172Y-3855298D01*
X1740362Y-3862410D01*
X1680164Y-3920830D02*
G01*
X1716486Y-3869776D01*
X1661876Y-3869776D01*
X1680164Y-3920830D02*
G01*
X1680164Y-3844376D01*
X1002403Y-3565456D02*
G01*
X995291Y-3569012D01*
X987925Y-3576378D01*
X984369Y-3583744D01*
X984369Y-3598222D01*
X987925Y-3605334D01*
X995291Y-3612700D01*
X1002403Y-3616256D01*
X1013325Y-3620066D01*
X1031613Y-3620066D01*
X1042535Y-3616256D01*
X1049647Y-3612700D01*
X1057013Y-3605334D01*
X1060569Y-3598222D01*
X1060569Y-3583744D01*
X1057013Y-3576378D01*
X1049647Y-3569012D01*
X1042535Y-3565456D01*
X995291Y-3497892D02*
G01*
X987925Y-3501448D01*
X984369Y-3512370D01*
X984369Y-3519736D01*
X987925Y-3530658D01*
X998847Y-3537770D01*
X1016881Y-3541326D01*
X1035169Y-3541326D01*
X1049647Y-3537770D01*
X1057013Y-3530658D01*
X1060569Y-3519736D01*
X1060569Y-3515926D01*
X1057013Y-3505004D01*
X1049647Y-3497892D01*
X1038725Y-3494082D01*
X1035169Y-3494082D01*
X1024247Y-3497892D01*
X1016881Y-3505004D01*
X1013325Y-3515926D01*
X1013325Y-3519736D01*
X1016881Y-3530658D01*
X1024247Y-3537770D01*
X1035169Y-3541326D01*
X2772813Y-775263D02*
G01*
X2769511Y-768913D01*
X2763161Y-762563D01*
X2756811Y-759261D01*
X2744111Y-759261D01*
X2737761Y-762563D01*
X2731411Y-768913D01*
X2728109Y-775263D01*
X2725061Y-784915D01*
X2725061Y-800663D01*
X2728109Y-810315D01*
X2731411Y-816665D01*
X2737761Y-823015D01*
X2744111Y-826063D01*
X2756811Y-826063D01*
X2763161Y-823015D01*
X2769511Y-816665D01*
X2772813Y-810315D01*
X2838345Y-759261D02*
G01*
X2806341Y-826063D01*
X2793641Y-759261D02*
G01*
X2838345Y-759261D01*
X3086950Y-1512536D02*
G01*
X3083140Y-1505170D01*
X3076028Y-1498058D01*
X3068662Y-1494248D01*
X3054184Y-1494248D01*
X3046818Y-1498058D01*
X3039706Y-1505170D01*
X3035896Y-1512536D01*
X3032340Y-1523458D01*
X3032340Y-1541746D01*
X3035896Y-1552668D01*
X3039706Y-1559780D01*
X3046818Y-1567146D01*
X3054184Y-1570702D01*
X3068662Y-1570702D01*
X3076028Y-1567146D01*
X3083140Y-1559780D01*
X3086950Y-1552668D01*
X3129114Y-1494248D02*
G01*
X3118192Y-1498058D01*
X3114382Y-1505170D01*
X3114382Y-1512536D01*
X3118192Y-1519902D01*
X3125304Y-1523458D01*
X3140036Y-1527014D01*
X3150958Y-1530824D01*
X3158070Y-1537936D01*
X3161880Y-1545302D01*
X3161880Y-1556224D01*
X3158070Y-1563336D01*
X3154514Y-1567146D01*
X3143592Y-1570702D01*
X3129114Y-1570702D01*
X3118192Y-1567146D01*
X3114382Y-1563336D01*
X3110826Y-1556224D01*
X3110826Y-1545302D01*
X3114382Y-1537936D01*
X3121748Y-1530824D01*
X3132670Y-1527014D01*
X3147148Y-1523458D01*
X3154514Y-1519902D01*
X3158070Y-1512536D01*
X3158070Y-1505170D01*
X3154514Y-1498058D01*
X3143592Y-1494248D01*
X3129114Y-1494248D01*
X1862439Y-1050353D02*
G01*
X1855073Y-1054163D01*
X1847961Y-1061275D01*
X1844151Y-1068641D01*
X1844151Y-1083119D01*
X1847961Y-1090485D01*
X1855073Y-1097597D01*
X1862439Y-1101407D01*
X1873361Y-1104963D01*
X1891649Y-1104963D01*
X1902571Y-1101407D01*
X1909683Y-1097597D01*
X1917049Y-1090485D01*
X1920605Y-1083119D01*
X1920605Y-1068641D01*
X1917049Y-1061275D01*
X1909683Y-1054163D01*
X1902571Y-1050353D01*
X1869805Y-979233D02*
G01*
X1880727Y-982789D01*
X1887839Y-990155D01*
X1891649Y-1001077D01*
X1891649Y-1004633D01*
X1887839Y-1015555D01*
X1880727Y-1022921D01*
X1869805Y-1026477D01*
X1865995Y-1026477D01*
X1855073Y-1022921D01*
X1847961Y-1015555D01*
X1844151Y-1004633D01*
X1844151Y-1001077D01*
X1847961Y-990155D01*
X1855073Y-982789D01*
X1869805Y-979233D01*
X1887839Y-979233D01*
X1906127Y-982789D01*
X1917049Y-990155D01*
X1920605Y-1001077D01*
X1920605Y-1008189D01*
X1917049Y-1019111D01*
X1909683Y-1022921D01*
X2674752Y-987739D02*
G01*
X2681102Y-984437D01*
X2687452Y-978087D01*
X2690754Y-971737D01*
X2690754Y-959037D01*
X2687452Y-952687D01*
X2681102Y-946337D01*
X2674752Y-943289D01*
X2665100Y-939987D01*
X2649352Y-939987D01*
X2639700Y-943289D01*
X2633350Y-946337D01*
X2627000Y-952687D01*
X2623698Y-959037D01*
X2623698Y-971737D01*
X2627000Y-978087D01*
X2633350Y-984437D01*
X2639700Y-987739D01*
X2677800Y-1008821D02*
G01*
X2681102Y-1015171D01*
X2690754Y-1024569D01*
X2623698Y-1024569D01*
X2677800Y-1045651D02*
G01*
X2681102Y-1052001D01*
X2690754Y-1061653D01*
X2623698Y-1061653D01*
X2112977Y-1293655D02*
G01*
X2116787Y-1301021D01*
X2123899Y-1308133D01*
X2131265Y-1311943D01*
X2145743Y-1311943D01*
X2153109Y-1308133D01*
X2160221Y-1301021D01*
X2164031Y-1293655D01*
X2167587Y-1282733D01*
X2167587Y-1264445D01*
X2164031Y-1253523D01*
X2160221Y-1246411D01*
X2153109Y-1239045D01*
X2145743Y-1235489D01*
X2131265Y-1235489D01*
X2123899Y-1239045D01*
X2116787Y-1246411D01*
X2112977Y-1253523D01*
X2089101Y-1297211D02*
G01*
X2081735Y-1301021D01*
X2070813Y-1311943D01*
X2070813Y-1235489D01*
X2043127Y-1293655D02*
G01*
X2043127Y-1297211D01*
X2039571Y-1304577D01*
X2036015Y-1308133D01*
X2028649Y-1311943D01*
X2014171Y-1311943D01*
X2006805Y-1308133D01*
X2003249Y-1304577D01*
X1999693Y-1297211D01*
X1999693Y-1290099D01*
X2003249Y-1282733D01*
X2010615Y-1271811D01*
X2046937Y-1235489D01*
X1995883Y-1235489D01*
X2730632Y-1477548D02*
G01*
X2733680Y-1483898D01*
X2740030Y-1490248D01*
X2746380Y-1493296D01*
X2759334Y-1493296D01*
X2765684Y-1490248D01*
X2772034Y-1483898D01*
X2775082Y-1477548D01*
X2778384Y-1467896D01*
X2778384Y-1451894D01*
X2775082Y-1442496D01*
X2772034Y-1436146D01*
X2765684Y-1429796D01*
X2759334Y-1426494D01*
X2746380Y-1426494D01*
X2740030Y-1429796D01*
X2733680Y-1436146D01*
X2730632Y-1442496D01*
X2709550Y-1480596D02*
G01*
X2703200Y-1483898D01*
X2693548Y-1493296D01*
X2693548Y-1426494D01*
X2666370Y-1493296D02*
G01*
X2631318Y-1493296D01*
X2650368Y-1467896D01*
X2640970Y-1467896D01*
X2634366Y-1464594D01*
X2631318Y-1461546D01*
X2628016Y-1451894D01*
X2628016Y-1445544D01*
X2631318Y-1436146D01*
X2637668Y-1429796D01*
X2647320Y-1426494D01*
X2656718Y-1426494D01*
X2666370Y-1429796D01*
X2669418Y-1432844D01*
X2672720Y-1439194D01*
X2696862Y-584151D02*
G01*
X2693814Y-577801D01*
X2687464Y-571451D01*
X2681114Y-568403D01*
X2668160Y-568403D01*
X2661810Y-571451D01*
X2655460Y-577801D01*
X2652412Y-584151D01*
X2649110Y-593803D01*
X2649110Y-609805D01*
X2652412Y-619203D01*
X2655460Y-625553D01*
X2661810Y-631903D01*
X2668160Y-635205D01*
X2681114Y-635205D01*
X2687464Y-631903D01*
X2693814Y-625553D01*
X2696862Y-619203D01*
X2717944Y-581103D02*
G01*
X2724294Y-577801D01*
X2733946Y-568403D01*
X2733946Y-635205D01*
X2786524Y-568403D02*
G01*
X2754774Y-612853D01*
X2802526Y-612853D01*
X2786524Y-568403D02*
G01*
X2786524Y-635205D01*
X2163226Y-551246D02*
G01*
X2156876Y-554294D01*
X2150526Y-560644D01*
X2147478Y-566994D01*
X2147478Y-579948D01*
X2150526Y-586298D01*
X2156876Y-592648D01*
X2163226Y-595696D01*
X2172878Y-598998D01*
X2188880Y-598998D01*
X2198278Y-595696D01*
X2204628Y-592648D01*
X2210978Y-586298D01*
X2214280Y-579948D01*
X2214280Y-566994D01*
X2210978Y-560644D01*
X2204628Y-554294D01*
X2198278Y-551246D01*
X2160178Y-530164D02*
G01*
X2156876Y-523814D01*
X2147478Y-514162D01*
X2214280Y-514162D01*
X2147478Y-454980D02*
G01*
X2147478Y-486984D01*
X2176180Y-490032D01*
X2172878Y-486984D01*
X2169830Y-477332D01*
X2169830Y-467934D01*
X2172878Y-458282D01*
X2179228Y-451932D01*
X2188880Y-448630D01*
X2195230Y-448630D01*
X2204628Y-451932D01*
X2210978Y-458282D01*
X2214280Y-467934D01*
X2214280Y-477332D01*
X2210978Y-486984D01*
X2207930Y-490032D01*
X2201580Y-493334D01*
X-354708Y-2968063D02*
G01*
X-361820Y-2971619D01*
X-369186Y-2978985D01*
X-372742Y-2986351D01*
X-372742Y-3000829D01*
X-369186Y-3007941D01*
X-361820Y-3015307D01*
X-354708Y-3018863D01*
X-343786Y-3022673D01*
X-325498Y-3022673D01*
X-314576Y-3018863D01*
X-307464Y-3015307D01*
X-300098Y-3007941D01*
X-296542Y-3000829D01*
X-296542Y-2986351D01*
X-300098Y-2978985D01*
X-307464Y-2971619D01*
X-314576Y-2968063D01*
X-358264Y-2943933D02*
G01*
X-361820Y-2936821D01*
X-372742Y-2925899D01*
X-296542Y-2925899D01*
X-361820Y-2858335D02*
G01*
X-369186Y-2861891D01*
X-372742Y-2872813D01*
X-372742Y-2879925D01*
X-369186Y-2890847D01*
X-358264Y-2898213D01*
X-340230Y-2901769D01*
X-321942Y-2901769D01*
X-307464Y-2898213D01*
X-300098Y-2890847D01*
X-296542Y-2879925D01*
X-296542Y-2876369D01*
X-300098Y-2865447D01*
X-307464Y-2858335D01*
X-318386Y-2854525D01*
X-321942Y-2854525D01*
X-332864Y-2858335D01*
X-340230Y-2865447D01*
X-343786Y-2876369D01*
X-343786Y-2879925D01*
X-340230Y-2890847D01*
X-332864Y-2898213D01*
X-321942Y-2901769D01*
X337609Y-2734533D02*
G01*
X344721Y-2730977D01*
X352087Y-2723611D01*
X355643Y-2716245D01*
X355643Y-2701767D01*
X352087Y-2694655D01*
X344721Y-2687289D01*
X337609Y-2683733D01*
X326687Y-2679923D01*
X308399Y-2679923D01*
X297477Y-2683733D01*
X290365Y-2687289D01*
X282999Y-2694655D01*
X279443Y-2701767D01*
X279443Y-2716245D01*
X282999Y-2723611D01*
X290365Y-2730977D01*
X297477Y-2734533D01*
X341165Y-2758663D02*
G01*
X344721Y-2765775D01*
X355643Y-2776697D01*
X279443Y-2776697D01*
X355643Y-2851627D02*
G01*
X279443Y-2815305D01*
X355643Y-2800827D02*
G01*
X355643Y-2851627D01*
X-216804Y-1781741D02*
G01*
X-209692Y-1778185D01*
X-202326Y-1770819D01*
X-198770Y-1763453D01*
X-198770Y-1748975D01*
X-202326Y-1741863D01*
X-209692Y-1734497D01*
X-216804Y-1730941D01*
X-227726Y-1727131D01*
X-246014Y-1727131D01*
X-256936Y-1730941D01*
X-264048Y-1734497D01*
X-271414Y-1741863D01*
X-274970Y-1748975D01*
X-274970Y-1763453D01*
X-271414Y-1770819D01*
X-264048Y-1778185D01*
X-256936Y-1781741D01*
X-216804Y-1809427D02*
G01*
X-213248Y-1809427D01*
X-205882Y-1812983D01*
X-202326Y-1816539D01*
X-198770Y-1823905D01*
X-198770Y-1838383D01*
X-202326Y-1845749D01*
X-205882Y-1849305D01*
X-213248Y-1853115D01*
X-220614Y-1853115D01*
X-227726Y-1849305D01*
X-238648Y-1842193D01*
X-274970Y-1805871D01*
X-274970Y-1856671D01*
X-216804Y-1884357D02*
G01*
X-213248Y-1884357D01*
X-205882Y-1887913D01*
X-202326Y-1891469D01*
X-198770Y-1898835D01*
X-198770Y-1913313D01*
X-202326Y-1920679D01*
X-205882Y-1924235D01*
X-213248Y-1928045D01*
X-220614Y-1928045D01*
X-227726Y-1924235D01*
X-238648Y-1917123D01*
X-274970Y-1880547D01*
X-274970Y-1931601D01*
X389265Y-181442D02*
G01*
X392821Y-188554D01*
X400187Y-195920D01*
X407299Y-199476D01*
X418221Y-203286D01*
X436509Y-203286D01*
X447431Y-199476D01*
X454543Y-195920D01*
X461909Y-188554D01*
X465465Y-181442D01*
X465465Y-166964D01*
X461909Y-159598D01*
X454543Y-152232D01*
X447431Y-148676D01*
X436509Y-145120D01*
X418221Y-145120D01*
X407299Y-148676D01*
X400187Y-152232D01*
X392821Y-159598D01*
X389265Y-166964D01*
X389265Y-181442D01*
X450987Y-170520D02*
G01*
X472831Y-148676D01*
X403743Y-120990D02*
G01*
X400187Y-113878D01*
X389265Y-102956D01*
X465465Y-102956D01*
X-500529Y249057D02*
G01*
X-500529Y325511D01*
X-500529Y249057D02*
G01*
X-533295Y249057D01*
X-544217Y252867D01*
X-547773Y256423D01*
X-551329Y263789D01*
X-551329Y270901D01*
X-547773Y278267D01*
X-544217Y281823D01*
X-533295Y285633D01*
X-500529Y285633D01*
X-525929Y285633D02*
G01*
X-551329Y325511D01*
X-575459Y263789D02*
G01*
X-582571Y259979D01*
X-593493Y249057D01*
X-593493Y325511D01*
X1564970Y-3885831D02*
G01*
X1564970Y-3809377D01*
X1564970Y-3885831D02*
G01*
X1532204Y-3885831D01*
X1521282Y-3882021D01*
X1517726Y-3878465D01*
X1514170Y-3871099D01*
X1514170Y-3863987D01*
X1517726Y-3856621D01*
X1521282Y-3853065D01*
X1532204Y-3849255D01*
X1564970Y-3849255D01*
X1539570Y-3849255D02*
G01*
X1514170Y-3809377D01*
X1453718Y-3885831D02*
G01*
X1490040Y-3834777D01*
X1435430Y-3834777D01*
X1453718Y-3885831D02*
G01*
X1453718Y-3809377D01*
X3378182Y-2379550D02*
G01*
X3378182Y-2303096D01*
X3378182Y-2379550D02*
G01*
X3345416Y-2379550D01*
X3334494Y-2375740D01*
X3330938Y-2372184D01*
X3327382Y-2364818D01*
X3327382Y-2357706D01*
X3330938Y-2350340D01*
X3334494Y-2346784D01*
X3345416Y-2342974D01*
X3378182Y-2342974D01*
X3352782Y-2342974D02*
G01*
X3327382Y-2303096D01*
X3259564Y-2379550D02*
G01*
X3296140Y-2379550D01*
X3299696Y-2346784D01*
X3296140Y-2350340D01*
X3285218Y-2353896D01*
X3274296Y-2353896D01*
X3263374Y-2350340D01*
X3256008Y-2342974D01*
X3252452Y-2332052D01*
X3252452Y-2324940D01*
X3256008Y-2314018D01*
X3263374Y-2306652D01*
X3274296Y-2303096D01*
X3285218Y-2303096D01*
X3296140Y-2306652D01*
X3299696Y-2310462D01*
X3303252Y-2317574D01*
X2218301Y-353720D02*
G01*
X2218301Y-420522D01*
X2218301Y-353720D02*
G01*
X2247003Y-353720D01*
X2256655Y-356768D01*
X2259703Y-360070D01*
X2263005Y-366420D01*
X2263005Y-372770D01*
X2259703Y-379120D01*
X2256655Y-382422D01*
X2247003Y-385470D01*
X2218301Y-385470D01*
X2240653Y-385470D02*
G01*
X2263005Y-420522D01*
X2322187Y-363118D02*
G01*
X2318885Y-356768D01*
X2309487Y-353720D01*
X2303137Y-353720D01*
X2293485Y-356768D01*
X2287135Y-366420D01*
X2283833Y-382422D01*
X2283833Y-398170D01*
X2287135Y-410870D01*
X2293485Y-417220D01*
X2303137Y-420522D01*
X2306185Y-420522D01*
X2315837Y-417220D01*
X2322187Y-410870D01*
X2325235Y-401472D01*
X2325235Y-398170D01*
X2322187Y-388772D01*
X2315837Y-382422D01*
X2306185Y-379120D01*
X2303137Y-379120D01*
X2293485Y-382422D01*
X2287135Y-388772D01*
X2283833Y-398170D01*
X2079884Y-883696D02*
G01*
X2079884Y-816894D01*
X2079884Y-883696D02*
G01*
X2051182Y-883696D01*
X2041530Y-880648D01*
X2038482Y-877346D01*
X2035180Y-870996D01*
X2035180Y-864646D01*
X2038482Y-858296D01*
X2041530Y-854994D01*
X2051182Y-851946D01*
X2079884Y-851946D01*
X2057532Y-851946D02*
G01*
X2035180Y-816894D01*
X2014352Y-870996D02*
G01*
X2008002Y-874298D01*
X1998350Y-883696D01*
X1998350Y-816894D01*
X1977268Y-870996D02*
G01*
X1970918Y-874298D01*
X1961520Y-883696D01*
X1961520Y-816894D01*
X-1023114Y330662D02*
G01*
X-1023114Y406862D01*
X-1023114Y330662D02*
G01*
X-1055880Y330662D01*
X-1066802Y334218D01*
X-1070358Y337774D01*
X-1074168Y345140D01*
X-1074168Y352506D01*
X-1070358Y359618D01*
X-1066802Y363174D01*
X-1055880Y366984D01*
X-1023114Y366984D01*
X-1048768Y366984D02*
G01*
X-1074168Y406862D01*
X-1098044Y345140D02*
G01*
X-1105410Y341584D01*
X-1116332Y330662D01*
X-1116332Y406862D01*
X-1147574Y330662D02*
G01*
X-1187452Y330662D01*
X-1165862Y359618D01*
X-1176530Y359618D01*
X-1183896Y363174D01*
X-1187452Y366984D01*
X-1191262Y377906D01*
X-1191262Y385018D01*
X-1187452Y395940D01*
X-1180340Y403306D01*
X-1169418Y406862D01*
X-1158496Y406862D01*
X-1147574Y403306D01*
X-1144018Y399750D01*
X-1140208Y392384D01*
X1831403Y-711573D02*
G01*
X1898205Y-711573D01*
X1831403Y-711573D02*
G01*
X1831403Y-682871D01*
X1834451Y-673219D01*
X1837753Y-670171D01*
X1844103Y-666869D01*
X1850453Y-666869D01*
X1856803Y-670171D01*
X1860105Y-673219D01*
X1863153Y-682871D01*
X1863153Y-711573D01*
X1863153Y-689221D02*
G01*
X1898205Y-666869D01*
X1847151Y-642739D02*
G01*
X1844103Y-642739D01*
X1837753Y-639691D01*
X1834451Y-636389D01*
X1831403Y-630039D01*
X1831403Y-617339D01*
X1834451Y-610989D01*
X1837753Y-607687D01*
X1844103Y-604639D01*
X1850453Y-604639D01*
X1856803Y-607687D01*
X1866455Y-614037D01*
X1898205Y-646041D01*
X1898205Y-601337D01*
X1847151Y-577207D02*
G01*
X1844103Y-577207D01*
X1837753Y-574159D01*
X1834451Y-570857D01*
X1831403Y-564507D01*
X1831403Y-551807D01*
X1834451Y-545457D01*
X1837753Y-542155D01*
X1844103Y-539107D01*
X1850453Y-539107D01*
X1856803Y-542155D01*
X1866455Y-548505D01*
X1898205Y-580509D01*
X1898205Y-535805D01*
X2314394Y-1060076D02*
G01*
X2362146Y-1060076D01*
X2371544Y-1056774D01*
X2377894Y-1050424D01*
X2381196Y-1041026D01*
X2381196Y-1034422D01*
X2377894Y-1025024D01*
X2371544Y-1018674D01*
X2362146Y-1015372D01*
X2314394Y-1015372D01*
X2314394Y-988194D02*
G01*
X2314394Y-953142D01*
X2339794Y-972192D01*
X2339794Y-962540D01*
X2343096Y-956190D01*
X2346144Y-953142D01*
X2355796Y-949840D01*
X2362146Y-949840D01*
X2371544Y-953142D01*
X2377894Y-959492D01*
X2381196Y-968890D01*
X2381196Y-978542D01*
X2377894Y-988194D01*
X2374846Y-991242D01*
X2368496Y-994544D01*
X1080640Y-239925D02*
G01*
X1004440Y-239925D01*
X1080640Y-239925D02*
G01*
X1080640Y-272691D01*
X1077084Y-283613D01*
X1073528Y-287169D01*
X1066162Y-290979D01*
X1058796Y-290979D01*
X1051684Y-287169D01*
X1048128Y-283613D01*
X1044318Y-272691D01*
X1044318Y-239925D01*
X1044318Y-265579D02*
G01*
X1004440Y-290979D01*
X1080640Y-365909D02*
G01*
X1004440Y-329333D01*
X1080640Y-314855D02*
G01*
X1080640Y-365909D01*
X-176131Y457634D02*
G01*
X-99931Y457634D01*
X-176131Y457634D02*
G01*
X-176131Y490400D01*
X-172575Y501322D01*
X-169019Y504878D01*
X-161653Y508688D01*
X-154287Y508688D01*
X-147175Y504878D01*
X-143619Y501322D01*
X-139809Y490400D01*
X-139809Y457634D01*
X-139809Y483288D02*
G01*
X-99931Y508688D01*
X-176131Y550852D02*
G01*
X-172575Y539930D01*
X-165209Y536374D01*
X-158097Y536374D01*
X-150731Y539930D01*
X-147175Y547042D01*
X-143619Y561774D01*
X-139809Y572696D01*
X-132697Y579808D01*
X-125331Y583618D01*
X-114409Y583618D01*
X-107043Y579808D01*
X-103487Y576252D01*
X-99931Y565330D01*
X-99931Y550852D01*
X-103487Y539930D01*
X-107043Y536374D01*
X-114409Y532564D01*
X-125331Y532564D01*
X-132697Y536374D01*
X-139809Y543486D01*
X-143619Y554408D01*
X-147175Y568886D01*
X-150731Y576252D01*
X-158097Y579808D01*
X-165209Y579808D01*
X-172575Y576252D01*
X-176131Y565330D01*
X-176131Y550852D01*
X2470073Y-1495600D02*
G01*
X2470073Y-1447848D01*
X2466771Y-1438450D01*
X2460421Y-1432100D01*
X2451023Y-1428798D01*
X2444419Y-1428798D01*
X2435021Y-1432100D01*
X2428671Y-1438450D01*
X2425369Y-1447848D01*
X2425369Y-1495600D01*
X2404541Y-1482900D02*
G01*
X2398191Y-1486202D01*
X2388539Y-1495600D01*
X2388539Y-1428798D01*
X365371Y-3560724D02*
G01*
X365371Y-3506368D01*
X361561Y-3495446D01*
X354449Y-3488080D01*
X343527Y-3484524D01*
X336161Y-3484524D01*
X325239Y-3488080D01*
X318127Y-3495446D01*
X314317Y-3506368D01*
X314317Y-3560724D01*
X286631Y-3542690D02*
G01*
X286631Y-3546246D01*
X283075Y-3553612D01*
X279519Y-3557168D01*
X272153Y-3560724D01*
X257675Y-3560724D01*
X250309Y-3557168D01*
X246753Y-3553612D01*
X243197Y-3546246D01*
X243197Y-3538880D01*
X246753Y-3531768D01*
X254119Y-3520846D01*
X290441Y-3484524D01*
X239387Y-3484524D01*
X831408Y-2595788D02*
G01*
X909386Y-2595788D01*
X924880Y-2590708D01*
X935294Y-2580294D01*
X940374Y-2564546D01*
X940374Y-2554132D01*
X935294Y-2538638D01*
X924880Y-2528224D01*
X909386Y-2523144D01*
X831408Y-2523144D01*
X831408Y-2436784D02*
G01*
X904052Y-2488854D01*
X904052Y-2410876D01*
X831408Y-2436784D02*
G01*
X940374Y-2436784D01*
X-23972Y-2248115D02*
G01*
X-78328Y-2248115D01*
X-89250Y-2251925D01*
X-96616Y-2259037D01*
X-100172Y-2269959D01*
X-100172Y-2277325D01*
X-96616Y-2288247D01*
X-89250Y-2295359D01*
X-78328Y-2299169D01*
X-23972Y-2299169D01*
X-23972Y-2366733D02*
G01*
X-23972Y-2330411D01*
X-56484Y-2326855D01*
X-52928Y-2330411D01*
X-49372Y-2341333D01*
X-49372Y-2352255D01*
X-52928Y-2363177D01*
X-60294Y-2370289D01*
X-71216Y-2374099D01*
X-78328Y-2374099D01*
X-89250Y-2370289D01*
X-96616Y-2363177D01*
X-100172Y-2352255D01*
X-100172Y-2341333D01*
X-96616Y-2330411D01*
X-93060Y-2326855D01*
X-85694Y-2323045D01*
X2232284Y-947196D02*
G01*
X2232284Y-899444D01*
X2228982Y-890046D01*
X2222632Y-883696D01*
X2213234Y-880394D01*
X2206630Y-880394D01*
X2197232Y-883696D01*
X2190882Y-890046D01*
X2187580Y-899444D01*
X2187580Y-947196D01*
X2128398Y-937798D02*
G01*
X2131700Y-944148D01*
X2141098Y-947196D01*
X2147448Y-947196D01*
X2157100Y-944148D01*
X2163450Y-934496D01*
X2166752Y-918494D01*
X2166752Y-902746D01*
X2163450Y-890046D01*
X2157100Y-883696D01*
X2147448Y-880394D01*
X2144400Y-880394D01*
X2134748Y-883696D01*
X2128398Y-890046D01*
X2125350Y-899444D01*
X2125350Y-902746D01*
X2128398Y-912144D01*
X2134748Y-918494D01*
X2144400Y-921796D01*
X2147448Y-921796D01*
X2157100Y-918494D01*
X2163450Y-912144D01*
X2166752Y-902746D01*
X1175621Y-604921D02*
G01*
X1121265Y-604921D01*
X1110343Y-608731D01*
X1102977Y-615843D01*
X1099421Y-626765D01*
X1099421Y-634131D01*
X1102977Y-645053D01*
X1110343Y-652165D01*
X1121265Y-655975D01*
X1175621Y-655975D01*
X1175621Y-730905D02*
G01*
X1099421Y-694329D01*
X1175621Y-679851D02*
G01*
X1175621Y-730905D01*
G36*
X1167028Y-3179419D02*
G01*
X1160373Y-3179826D01*
X1153871Y-3181096D01*
X1147572Y-3183128D01*
X1141526Y-3185972D01*
X1135938Y-3189528D01*
X1130808Y-3193745D01*
X1126286Y-3198571D01*
X1122375Y-3203956D01*
X1119174Y-3209798D01*
X1116736Y-3215944D01*
X1115110Y-3222396D01*
X1114552Y-3225647D01*
X1114145Y-3232302D01*
X1114552Y-3238906D01*
X1115822Y-3245408D01*
X1117854Y-3251758D01*
X1120698Y-3257753D01*
X1124254Y-3263341D01*
X1128471Y-3268472D01*
X1133297Y-3272993D01*
X1138682Y-3276904D01*
X1144524Y-3280105D01*
X1150670Y-3282543D01*
X1153871Y-3283508D01*
X1160373Y-3284728D01*
X1167028Y-3285134D01*
X1173632Y-3284728D01*
X1180134Y-3283508D01*
X1186484Y-3281426D01*
X1192479Y-3278581D01*
X1198067Y-3275025D01*
X1203198Y-3270808D01*
X1207719Y-3265982D01*
X1211630Y-3260598D01*
X1214831Y-3254806D01*
X1217269Y-3248609D01*
X1218946Y-3242208D01*
X1219758Y-3235604D01*
X1219758Y-3228949D01*
X1218946Y-3222396D01*
X1218234Y-3219145D01*
X1216152Y-3212846D01*
X1213307Y-3206800D01*
X1209751Y-3201212D01*
X1205534Y-3196082D01*
X1200708Y-3191560D01*
X1195324Y-3187649D01*
X1189532Y-3184448D01*
X1183335Y-3182010D01*
X1176934Y-3180384D01*
X1170330Y-3179521D01*
G37*
D13*
X-1739993Y-3949992D02*
G01*
X-1739993Y949995D01*
X3499995Y-4289996D02*
G01*
X-1399997Y-4289996D01*
X3839992Y949995D02*
G01*
X3839992Y-3949992D01*
X-1399997Y1289992D02*
G01*
X3499995Y1289992D01*
D12*
X2400134Y-512378D02*
G01*
X2400134Y-440575D01*
X2499855Y-440575D01*
X2499855Y-512378D01*
X2400134Y-557621D02*
G01*
X2400134Y-629424D01*
X2499855Y-629424D01*
X2499855Y-557621D01*
X937745Y-901964D02*
G01*
X937745Y-980973D01*
X1037465Y-980973D02*
G01*
X1037465Y-901964D01*
X1022225Y-886724D02*
G01*
X952985Y-886724D01*
X937745Y-1105225D02*
G01*
X937745Y-1026215D01*
X1037465Y-1026215D02*
G01*
X1037465Y-1105225D01*
X1022225Y-1120465D02*
G01*
X952985Y-1120465D01*
X-410334Y-800425D02*
G01*
X-410334Y-721415D01*
X-510054Y-721415D02*
G01*
X-510054Y-800425D01*
X-494814Y-815665D02*
G01*
X-425574Y-815665D01*
X-410334Y-597164D02*
G01*
X-410334Y-676173D01*
X-510054Y-676173D02*
G01*
X-510054Y-597164D01*
X-494814Y-581924D02*
G01*
X-425574Y-581924D01*
X-141754Y-597164D02*
G01*
X-141754Y-676173D01*
X-42034Y-676173D02*
G01*
X-42034Y-597164D01*
X-57274Y-581924D02*
G01*
X-126514Y-581924D01*
X-141754Y-800425D02*
G01*
X-141754Y-721415D01*
X-42034Y-721415D02*
G01*
X-42034Y-800425D01*
X-57274Y-815665D02*
G01*
X-126514Y-815665D01*
X-194434Y-800425D02*
G01*
X-194434Y-721415D01*
X-294154Y-721415D02*
G01*
X-294154Y-800425D01*
X-278914Y-815665D02*
G01*
X-209674Y-815665D01*
X-194434Y-597164D02*
G01*
X-194434Y-676173D01*
X-294154Y-676173D02*
G01*
X-294154Y-597164D01*
X-278914Y-581924D02*
G01*
X-209674Y-581924D01*
D14*
X45191Y-1276093D02*
G01*
X25019Y-1276093D01*
X125105Y-1276093D02*
G01*
X125018Y-1276093D01*
X-4808Y-1366095D02*
G01*
X-54894Y-1366095D01*
X125105Y-1366095D02*
G01*
X75018Y-1366095D01*
X125105Y-1366095D02*
G01*
X125105Y-1276093D01*
X-54894Y-1366095D02*
G01*
X-54894Y-1276093D01*
X-54808Y-1276093D02*
G01*
X-54894Y-1276093D01*
X45191Y-1479293D02*
G01*
X25019Y-1479293D01*
X125105Y-1479293D02*
G01*
X125018Y-1479293D01*
X-4808Y-1569295D02*
G01*
X-54894Y-1569295D01*
X125105Y-1569295D02*
G01*
X75018Y-1569295D01*
X125105Y-1569295D02*
G01*
X125105Y-1479293D01*
X-54894Y-1569295D02*
G01*
X-54894Y-1479293D01*
X-54808Y-1479293D02*
G01*
X-54894Y-1479293D01*
D12*
X-80134Y-1419915D02*
G01*
X-80134Y-1491719D01*
X-179854Y-1491719D01*
X-179854Y-1419915D01*
X-80134Y-1374673D02*
G01*
X-80134Y-1302870D01*
X-179854Y-1302870D01*
X-179854Y-1374673D01*
X88684Y-1193154D02*
G01*
X16880Y-1193154D01*
X16880Y-1093434D01*
X88684Y-1093434D01*
X133926Y-1193154D02*
G01*
X205729Y-1193154D01*
X205729Y-1093434D01*
X133926Y-1093434D01*
D13*
X-316958Y-879020D02*
G01*
X-356207Y-879020D01*
X-56205Y-1179022D02*
G01*
X-56205Y-1139827D01*
X-56205Y-918601D02*
G01*
X-56205Y-879020D01*
X-356207Y-879020D02*
G01*
X-356207Y-918601D01*
X-356207Y-1139827D02*
G01*
X-356207Y-1179022D01*
X-56205Y-1179022D02*
G01*
X-95732Y-1179022D01*
X-316806Y-1179022D02*
G01*
X-356207Y-1179022D01*
X-56205Y-879020D02*
G01*
X-95732Y-879020D01*
X-903490Y-2165837D02*
G01*
X-689886Y-2165837D01*
X-903490Y-3475835D02*
G01*
X-689886Y-3475835D01*
X-689886Y-2173135D01*
X-2106584Y-3475835D02*
G01*
X-1249682Y-3475835D01*
X-2106584Y-2165837D02*
G01*
X-1249682Y-2165837D01*
X-2106584Y-3475835D02*
G01*
X-2106584Y-2165837D01*
X-905522Y-204703D02*
G01*
X-691918Y-204703D01*
X-905522Y-1514701D02*
G01*
X-691918Y-1514701D01*
X-691918Y-212001D01*
X-2108616Y-1514701D02*
G01*
X-1251714Y-1514701D01*
X-2108616Y-204703D02*
G01*
X-1251714Y-204703D01*
X-2108616Y-1514701D02*
G01*
X-2108616Y-204703D01*
X-297713Y-2687452D02*
G01*
X-377710Y-2687452D01*
X-241668Y-2687497D02*
G01*
X-161670Y-2687497D01*
X-297713Y-2545483D02*
G01*
X-377710Y-2545483D01*
X-241668Y-2545532D02*
G01*
X-161670Y-2545532D01*
X-408685Y-2656469D02*
G01*
X-408685Y-2576464D01*
X-130693Y-2576517D02*
G01*
X-130693Y-2656519D01*
X126624Y-2545537D02*
G01*
X206621Y-2545537D01*
X70578Y-2545491D02*
G01*
X-9418Y-2545491D01*
X126624Y-2687505D02*
G01*
X206621Y-2687505D01*
X70578Y-2687457D02*
G01*
X-9418Y-2687457D01*
X237596Y-2576520D02*
G01*
X237596Y-2656525D01*
X-40396Y-2656471D02*
G01*
X-40396Y-2576469D01*
D12*
X709739Y-911080D02*
G01*
X709739Y-1052080D01*
X890460Y-1052080D02*
G01*
X890460Y-911080D01*
X875220Y-895840D02*
G01*
X724979Y-895840D01*
X709739Y-1273319D02*
G01*
X709739Y-1132319D01*
X890460Y-1132319D02*
G01*
X890460Y-1273319D01*
X875220Y-1288559D02*
G01*
X724979Y-1288559D01*
X1033876Y-3820353D02*
G01*
X1174877Y-3820353D01*
X1174877Y-3639632D02*
G01*
X1033876Y-3639632D01*
X1018636Y-3654872D02*
G01*
X1018636Y-3805113D01*
X1396116Y-3820353D02*
G01*
X1255115Y-3820353D01*
X1255115Y-3639632D02*
G01*
X1396116Y-3639632D01*
X1411356Y-3654872D02*
G01*
X1411356Y-3805113D01*
X1696747Y-3798724D02*
G01*
X1696747Y-3719715D01*
X1597027Y-3719715D02*
G01*
X1597027Y-3798724D01*
X1612267Y-3813964D02*
G01*
X1681507Y-3813964D01*
X1696747Y-3595463D02*
G01*
X1696747Y-3674473D01*
X1597027Y-3674473D02*
G01*
X1597027Y-3595463D01*
X1612267Y-3580223D02*
G01*
X1681507Y-3580223D01*
X1149570Y-3614765D02*
G01*
X1228580Y-3614765D01*
X1228580Y-3515045D02*
G01*
X1149570Y-3515045D01*
X1134330Y-3530285D02*
G01*
X1134330Y-3599525D01*
X1352831Y-3614765D02*
G01*
X1273822Y-3614765D01*
X1273822Y-3515045D02*
G01*
X1352831Y-3515045D01*
X1368071Y-3530285D02*
G01*
X1368071Y-3599525D01*
X2704856Y-906630D02*
G01*
X2704856Y-827620D01*
X2605135Y-827620D02*
G01*
X2605135Y-906630D01*
X2620375Y-921870D02*
G01*
X2689616Y-921870D01*
X2704856Y-703369D02*
G01*
X2704856Y-782378D01*
X2605135Y-782378D02*
G01*
X2605135Y-703369D01*
X2620375Y-688129D02*
G01*
X2689616Y-688129D01*
X3210074Y-1586854D02*
G01*
X3289084Y-1586854D01*
X3289084Y-1487134D02*
G01*
X3210074Y-1487134D01*
X3194834Y-1502374D02*
G01*
X3194834Y-1571614D01*
X3413335Y-1586854D02*
G01*
X3334326Y-1586854D01*
X3334326Y-1487134D02*
G01*
X3413335Y-1487134D01*
X3428575Y-1502374D02*
G01*
X3428575Y-1571614D01*
X2181435Y-979134D02*
G01*
X2102426Y-979134D01*
X2102426Y-1078854D02*
G01*
X2181435Y-1078854D01*
X2196675Y-1063614D02*
G01*
X2196675Y-994374D01*
X1978174Y-979134D02*
G01*
X2057184Y-979134D01*
X2057184Y-1078854D02*
G01*
X1978174Y-1078854D01*
X1962934Y-1063614D02*
G01*
X1962934Y-994374D01*
X2584856Y-906630D02*
G01*
X2584856Y-827620D01*
X2485136Y-827620D02*
G01*
X2485136Y-906630D01*
X2500376Y-921870D02*
G01*
X2569616Y-921870D01*
X2584856Y-703369D02*
G01*
X2584856Y-782378D01*
X2485136Y-782378D02*
G01*
X2485136Y-703369D01*
X2500376Y-688129D02*
G01*
X2569616Y-688129D01*
X2181435Y-1106134D02*
G01*
X2102426Y-1106134D01*
X2102426Y-1205854D02*
G01*
X2181435Y-1205854D01*
X2196675Y-1190614D02*
G01*
X2196675Y-1121374D01*
X1978174Y-1106134D02*
G01*
X2057184Y-1106134D01*
X2057184Y-1205854D02*
G01*
X1978174Y-1205854D01*
X1962934Y-1190614D02*
G01*
X1962934Y-1121374D01*
X2639545Y-1181364D02*
G01*
X2639545Y-1260373D01*
X2739265Y-1260373D02*
G01*
X2739265Y-1181364D01*
X2724025Y-1166124D02*
G01*
X2654785Y-1166124D01*
X2639545Y-1384625D02*
G01*
X2639545Y-1305615D01*
X2739265Y-1305615D02*
G01*
X2739265Y-1384625D01*
X2724025Y-1399865D02*
G01*
X2654785Y-1399865D01*
X2619855Y-626630D02*
G01*
X2619855Y-547621D01*
X2520134Y-547621D02*
G01*
X2520134Y-626630D01*
X2535374Y-641870D02*
G01*
X2604615Y-641870D01*
X2619855Y-423369D02*
G01*
X2619855Y-502378D01*
X2520134Y-502378D02*
G01*
X2520134Y-423369D01*
X2535374Y-408129D02*
G01*
X2604615Y-408129D01*
X2140135Y-633366D02*
G01*
X2140135Y-712376D01*
X2239855Y-712376D02*
G01*
X2239855Y-633366D01*
X2224615Y-618126D02*
G01*
X2155375Y-618126D01*
X2140135Y-836627D02*
G01*
X2140135Y-757618D01*
X2239855Y-757618D02*
G01*
X2239855Y-836627D01*
X2224615Y-851867D02*
G01*
X2155375Y-851867D01*
X-155364Y-2719034D02*
G01*
X-234373Y-2719034D01*
X-234373Y-2818754D02*
G01*
X-155364Y-2818754D01*
X-140124Y-2803514D02*
G01*
X-140124Y-2734274D01*
X-358625Y-2719034D02*
G01*
X-279615Y-2719034D01*
X-279615Y-2818754D02*
G01*
X-358625Y-2818754D01*
X-373865Y-2803514D02*
G01*
X-373865Y-2734274D01*
X-15725Y-2818754D02*
G01*
X63284Y-2818754D01*
X63284Y-2719034D02*
G01*
X-15725Y-2719034D01*
X-30965Y-2734274D02*
G01*
X-30965Y-2803514D01*
X187535Y-2818754D02*
G01*
X108526Y-2818754D01*
X108526Y-2719034D02*
G01*
X187535Y-2719034D01*
X202775Y-2734274D02*
G01*
X202775Y-2803514D01*
X-302440Y-1984121D02*
G01*
X-302440Y-1698879D01*
X-317680Y-1683638D02*
G01*
X-481180Y-1683638D01*
X-481180Y-1999361D02*
G01*
X-317680Y-1999361D01*
X-799919Y-1683638D02*
G01*
X-636419Y-1683638D01*
X-636419Y-1999361D02*
G01*
X-799919Y-1999361D01*
X-815159Y-1984121D02*
G01*
X-815159Y-1698879D01*
D16*
X3767787Y-2579494D02*
G01*
X3689047Y-2579494D01*
D11*
X3654259Y-2593449D02*
G01*
X3654259Y-2698460D01*
X3694269Y-2728455D02*
G01*
X3684254Y-2728455D01*
X3654259Y-2698460D01*
X3694269Y-2728455D02*
G01*
X3764264Y-2728455D01*
X3764264Y-2728455D02*
G01*
X3774267Y-2728455D01*
X3804272Y-2698460D01*
X3804272Y-2593449D02*
G01*
X3804272Y-2698460D01*
X3804041Y-2555448D02*
G01*
X3804041Y-2440447D01*
X3654038Y-2440447D02*
G01*
X3802032Y-2440447D01*
X3654028Y-2555448D02*
G01*
X3654028Y-2440447D01*
D16*
X3727942Y-2579494D02*
G01*
X3727942Y-2597030D01*
D17*
X2259535Y-256105D02*
G01*
X2350772Y-347317D01*
X2449756Y-248307D01*
X2358544Y-157096D01*
D13*
X511205Y63304D02*
G01*
X511205Y149705D01*
X511205Y149705D02*
G01*
X611207Y149705D01*
X651205Y-31691D02*
G01*
X651205Y31102D01*
X511205Y-150294D02*
G01*
X511205Y-63893D01*
X511205Y-150294D02*
G01*
X611207Y-150294D01*
X-588312Y2106805D02*
G01*
X-588312Y2056005D01*
X-793188Y1303111D02*
G01*
X-785568Y1306108D01*
X-290268Y1306108D01*
X-348180Y1246113D01*
X-348213Y436105D01*
X-294332Y363108D01*
X-794204Y363108D01*
X-794212Y2120102D01*
X-397812Y2119505D01*
X-397812Y1306705D01*
D12*
X1457327Y-3661773D02*
G01*
X1457327Y-3589969D01*
X1557047Y-3589969D01*
X1557047Y-3661773D01*
X1457327Y-3707015D02*
G01*
X1457327Y-3778818D01*
X1557047Y-3778818D01*
X1557047Y-3707015D01*
X3345908Y-2174034D02*
G01*
X3417712Y-2174034D01*
X3417712Y-2273754D01*
X3345908Y-2273754D01*
X3300666Y-2174034D02*
G01*
X3228863Y-2174034D01*
X3228863Y-2273754D01*
X3300666Y-2273754D01*
X2280135Y-512378D02*
G01*
X2280135Y-440575D01*
X2379855Y-440575D01*
X2379855Y-512378D01*
X2280135Y-557621D02*
G01*
X2280135Y-629424D01*
X2379855Y-629424D01*
X2379855Y-557621D01*
X1993684Y-786754D02*
G01*
X1921880Y-786754D01*
X1921880Y-687034D01*
X1993684Y-687034D01*
X2038926Y-786754D02*
G01*
X2110729Y-786754D01*
X2110729Y-687034D01*
X2038926Y-687034D01*
X-1075677Y536254D02*
G01*
X-1003874Y536254D01*
X-1003874Y436534D01*
X-1075677Y436534D01*
X-1120919Y536254D02*
G01*
X-1192723Y536254D01*
X-1192723Y436534D01*
X-1120919Y436534D01*
X1993684Y-659754D02*
G01*
X1921880Y-659754D01*
X1921880Y-560034D01*
X1993684Y-560034D01*
X2038926Y-659754D02*
G01*
X2110729Y-659754D01*
X2110729Y-560034D01*
X2038926Y-560034D01*
X2482375Y-1064856D02*
G01*
X2410571Y-1064856D01*
X2410571Y-965136D01*
X2482375Y-965136D01*
X2527617Y-1064856D02*
G01*
X2599420Y-1064856D01*
X2599420Y-965136D01*
X2527617Y-965136D01*
X749485Y-200685D02*
G01*
X620991Y-200685D01*
X620991Y-384103D01*
X749485Y-384103D01*
X844725Y-200685D02*
G01*
X973218Y-200685D01*
X973218Y-384103D01*
X844725Y-384103D01*
X-66060Y482376D02*
G01*
X-66060Y386488D01*
X66060Y386488D01*
X66060Y482376D01*
X-66060Y567618D02*
G01*
X-66060Y663506D01*
X66060Y663506D01*
X66060Y567618D01*
D13*
X3384786Y-1680194D02*
G01*
X3384783Y-1980194D01*
X3134784Y-1680194D02*
G01*
X3134786Y-1980194D01*
X3367902Y-1680194D02*
G01*
X3384786Y-1680194D01*
X3384786Y-1680194D02*
G01*
X3384786Y-1980194D01*
X3384786Y-1980194D02*
G01*
X3367900Y-1980194D01*
X3151672Y-1980194D02*
G01*
X3134786Y-1980194D01*
X3134786Y-1980194D02*
G01*
X3134786Y-1680194D01*
X3134786Y-1680194D02*
G01*
X3151101Y-1680194D01*
X2114387Y-3834792D02*
G01*
X1814388Y-3834790D01*
X2114387Y-3584790D02*
G01*
X1814388Y-3584793D01*
X2114387Y-3817909D02*
G01*
X2114387Y-3834792D01*
X2114387Y-3834792D02*
G01*
X1814388Y-3834792D01*
X1814388Y-3834792D02*
G01*
X1814388Y-3817907D01*
X1814388Y-3601679D02*
G01*
X1814388Y-3584793D01*
X1814388Y-3584793D02*
G01*
X2114387Y-3584793D01*
X2114387Y-3584793D02*
G01*
X2114387Y-3601107D01*
X2332705Y-1089903D02*
G01*
X2512707Y-1089903D01*
X2332705Y-1399905D02*
G01*
X2512707Y-1399905D01*
D12*
X355025Y-3434036D02*
G01*
X-310215Y-3434036D01*
X-310215Y-3139757D01*
X355025Y-3139757D01*
X355025Y-3434036D01*
D13*
X1041476Y-1802571D02*
G01*
X553016Y-1802571D01*
X553016Y-2026091D01*
X1041476Y-2005771D02*
G01*
X553016Y-2005771D01*
X553016Y-2290988D01*
X768916Y-2290988D01*
X768916Y-2544988D01*
X553016Y-2544988D01*
X553016Y-2798988D01*
X768916Y-2798988D01*
X768916Y-3027588D01*
X553016Y-3027588D01*
X553016Y-3256188D01*
X921316Y-3256188D01*
X1041476Y-3432289D02*
G01*
X1041476Y-1630588D01*
X1119400Y-1630588D02*
G01*
X438716Y-1630588D01*
X2991416Y-1765673D02*
G01*
X2991416Y-1630588D01*
X2906631Y-1630588D01*
X2906631Y-3432289D02*
G01*
X2991416Y-3432289D01*
X2991416Y-3298903D01*
X437515Y-3432289D02*
G01*
X1119400Y-3432289D01*
X437515Y-1632287D02*
G01*
X437515Y-3432289D01*
X-536318Y-2223556D02*
G01*
X-536318Y-2211618D01*
X-521332Y-2211618D01*
X-521284Y-2211692D02*
G01*
X-221289Y-2211692D01*
X-521284Y-2411691D02*
G01*
X-536394Y-2411691D01*
X-536394Y-2399809D01*
X-221289Y-2223579D02*
G01*
X-193494Y-2223579D01*
X-221289Y-2399809D02*
G01*
X-193494Y-2399809D01*
X-221289Y-2411691D02*
G01*
X-193494Y-2411691D01*
X-193494Y-2399809D01*
X-221289Y-2211692D02*
G01*
X-193494Y-2211692D01*
X-193494Y-2223579D01*
X-221289Y-2223579D02*
G01*
X-221289Y-2211692D01*
X-221289Y-2411691D02*
G01*
X-221289Y-2399809D01*
X-431632Y-2352337D02*
G01*
X-431632Y-2271052D01*
X-304632Y-2311694D02*
G01*
X-457032Y-2311694D01*
X-431632Y-2271052D02*
G01*
X-330032Y-2311694D01*
X-330032Y-2311694D02*
G01*
X-431632Y-2352337D01*
X-330032Y-2362494D02*
G01*
X-330032Y-2260894D01*
X-221289Y-2411691D02*
G01*
X-521284Y-2411691D01*
D18*
X2255192Y-663483D02*
G01*
X2255192Y-873389D01*
X2467465Y-872487D02*
G01*
X2467465Y-662480D01*
D12*
X760168Y-805616D02*
G01*
X741093Y-805616D01*
X741093Y-490380D01*
X760168Y-490380D01*
X1037254Y-805616D02*
G01*
X1056335Y-805616D01*
X1056335Y-490380D01*
X1037254Y-490380D01*
D13*
X3146061Y-1369570D02*
G01*
X3268362Y-1371119D01*
X3268362Y-1019329D01*
X3234123Y-1018212D01*
X3078025Y-1012537D02*
G01*
X2986585Y-1011598D01*
X2918005Y-1369466D02*
G01*
X2789572Y-1367309D01*
X2785762Y-1015519D01*
X2829676Y-1014851D01*
X-49997Y270797D02*
G01*
X-49997Y240797D01*
X50002Y240797D01*
X50002Y270797D01*
X-279930Y40700D02*
G01*
X-240052Y822D01*
X-279930Y-39309D01*
X280004Y30797D02*
G01*
X249913Y822D01*
X280004Y-29202D01*
D11*
X-1599346Y432236D02*
G01*
X-1599346Y431241D01*
X-1632351Y398236D01*
X-1667349Y432236D02*
G01*
X-1666351Y432236D01*
X-1632351Y398236D01*
X-1667349Y432236D02*
G01*
X-1599346Y432236D01*
X-1707357Y434240D02*
G01*
X-1707357Y549241D01*
X-1557345Y434240D02*
G01*
X-1557345Y549241D01*
X-1707347Y549241D02*
G01*
X-1559354Y549241D01*
X-1557113Y396239D02*
G01*
X-1557113Y291228D01*
X-1597121Y261233D02*
G01*
X-1587118Y261233D01*
X-1557113Y291228D01*
X-1667116Y261233D02*
G01*
X-1597121Y261233D01*
X-1667116Y261233D02*
G01*
X-1677131Y261233D01*
X-1707126Y291228D01*
X-1707126Y396239D02*
G01*
X-1707126Y291228D01*
X-1632351Y432236D02*
G01*
X-1632351Y398236D01*
D13*
G75*
G01*
X-1739994Y949996D02*
G02*
X-1399995Y1289995I339999J0D01*
G75*
G01*
X3499996Y1289995D02*
G02*
X3839995Y949996I0J-339999D01*
G75*
G01*
X3839995Y-3949995D02*
G02*
X3499996Y-4289994I-339999J0D01*
G75*
G01*
X-1399995Y-4289994D02*
G02*
X-1739994Y-3949995I0J339999D01*
G75*
G01*
X-728647Y319580D02*
G03*
X-782653Y-143226I728650J-319581D01*
G75*
G01*
X0Y-800100D02*
G03*
X667771Y-440728I0J800100D01*
G75*
G01*
X2690706Y-533644D02*
G03*
X1853006Y-756775I-590709J533642D01*
G75*
G01*
X-645701Y-465506D02*
G03*
X-552722Y-572821I645700J465507D01*
G75*
G01*
X781787Y-146271D02*
G03*
X-297612Y737565I-781782J146271D01*
D12*
G75*
G01*
X1037466Y-901964D02*
G03*
X1022226Y-886724I-15240J0D01*
G75*
G01*
X952985Y-886724D02*
G03*
X937745Y-901964I0J-15240D01*
G75*
G01*
X1037466Y-1105225D02*
G02*
X1022226Y-1120465I-15240J0D01*
G75*
G01*
X952985Y-1120465D02*
G02*
X937745Y-1105225I0J15240D01*
G75*
G01*
X-510055Y-800425D02*
G03*
X-494815Y-815665I15240J0D01*
G75*
G01*
X-425574Y-815665D02*
G03*
X-410334Y-800425I0J15240D01*
G75*
G01*
X-510055Y-597164D02*
G02*
X-494815Y-581924I15240J0D01*
G75*
G01*
X-425574Y-581924D02*
G02*
X-410334Y-597164I0J-15240D01*
G75*
G01*
X-42034Y-597164D02*
G03*
X-57274Y-581924I-15240J0D01*
G75*
G01*
X-126515Y-581924D02*
G03*
X-141755Y-597164I0J-15240D01*
G75*
G01*
X-42034Y-800425D02*
G02*
X-57274Y-815665I-15240J0D01*
G75*
G01*
X-126515Y-815665D02*
G02*
X-141755Y-800425I0J15240D01*
G75*
G01*
X-294155Y-800425D02*
G03*
X-278915Y-815665I15240J0D01*
G75*
G01*
X-209674Y-815665D02*
G03*
X-194434Y-800425I0J15240D01*
G75*
G01*
X-294155Y-597164D02*
G02*
X-278915Y-581924I15240J0D01*
G75*
G01*
X-209674Y-581924D02*
G02*
X-194434Y-597164I0J-15240D01*
D13*
G75*
G01*
X-161676Y-2545532D02*
G02*
X-130693Y-2576518I0J-30983D01*
G75*
G01*
X-130693Y-2656515D02*
G02*
X-161676Y-2687498I-30983J0D01*
G75*
G01*
X-377706Y-2687452D02*
G02*
X-408686Y-2656469I3J30983D01*
G75*
G01*
X-408686Y-2576472D02*
G02*
X-377706Y-2545484I30983J5D01*
G75*
G01*
X-9413Y-2687457D02*
G02*
X-40396Y-2656472I0J30983D01*
G75*
G01*
X-40396Y-2576474D02*
G02*
X-9413Y-2545491I30983J0D01*
G75*
G01*
X206616Y-2545537D02*
G02*
X237597Y-2576520I-2J-30983D01*
G75*
G01*
X237597Y-2656517D02*
G02*
X206616Y-2687505I-30983J-6D01*
D12*
G75*
G01*
X890461Y-911080D02*
G03*
X875221Y-895840I-15240J0D01*
G75*
G01*
X724980Y-895840D02*
G03*
X709740Y-911080I0J-15240D01*
G75*
G01*
X890461Y-1273320D02*
G02*
X875221Y-1288560I-15240J0D01*
G75*
G01*
X724980Y-1288560D02*
G02*
X709740Y-1273320I0J15240D01*
G75*
G01*
X1033877Y-3639632D02*
G03*
X1018637Y-3654872I0J-15240D01*
G75*
G01*
X1018637Y-3805113D02*
G03*
X1033877Y-3820353I15240J0D01*
G75*
G01*
X1396116Y-3639632D02*
G02*
X1411356Y-3654872I0J-15240D01*
G75*
G01*
X1411356Y-3805113D02*
G02*
X1396116Y-3820353I-15240J0D01*
G75*
G01*
X1597028Y-3798725D02*
G03*
X1612268Y-3813965I15240J0D01*
G75*
G01*
X1681508Y-3813965D02*
G03*
X1696748Y-3798725I0J15240D01*
G75*
G01*
X1597028Y-3595464D02*
G02*
X1612268Y-3580224I15240J0D01*
G75*
G01*
X1681508Y-3580224D02*
G02*
X1696748Y-3595464I0J-15240D01*
G75*
G01*
X1149571Y-3515045D02*
G03*
X1134331Y-3530285I0J-15240D01*
G75*
G01*
X1134331Y-3599525D02*
G03*
X1149571Y-3614765I15240J0D01*
G75*
G01*
X1352832Y-3515045D02*
G02*
X1368072Y-3530285I0J-15240D01*
G75*
G01*
X1368072Y-3599525D02*
G02*
X1352832Y-3614765I-15240J0D01*
G75*
G01*
X2605136Y-906630D02*
G03*
X2620376Y-921870I15240J0D01*
G75*
G01*
X2689616Y-921870D02*
G03*
X2704856Y-906630I0J15240D01*
G75*
G01*
X2605136Y-703369D02*
G02*
X2620376Y-688129I15240J0D01*
G75*
G01*
X2689616Y-688129D02*
G02*
X2704856Y-703369I0J-15240D01*
G75*
G01*
X3210075Y-1487134D02*
G03*
X3194835Y-1502374I0J-15240D01*
G75*
G01*
X3194835Y-1571615D02*
G03*
X3210075Y-1586855I15240J0D01*
G75*
G01*
X3413336Y-1487134D02*
G02*
X3428576Y-1502374I0J-15240D01*
G75*
G01*
X3428576Y-1571615D02*
G02*
X3413336Y-1586855I-15240J0D01*
G75*
G01*
X2181436Y-1078855D02*
G03*
X2196676Y-1063615I0J15240D01*
G75*
G01*
X2196676Y-994374D02*
G03*
X2181436Y-979134I-15240J0D01*
G75*
G01*
X1978175Y-1078855D02*
G02*
X1962935Y-1063615I0J15240D01*
G75*
G01*
X1962935Y-994374D02*
G02*
X1978175Y-979134I15240J0D01*
G75*
G01*
X2485136Y-906630D02*
G03*
X2500376Y-921870I15240J0D01*
G75*
G01*
X2569616Y-921870D02*
G03*
X2584856Y-906630I0J15240D01*
G75*
G01*
X2485136Y-703369D02*
G02*
X2500376Y-688129I15240J0D01*
G75*
G01*
X2569616Y-688129D02*
G02*
X2584856Y-703369I0J-15240D01*
G75*
G01*
X2181436Y-1205855D02*
G03*
X2196676Y-1190615I0J15240D01*
G75*
G01*
X2196676Y-1121374D02*
G03*
X2181436Y-1106134I-15240J0D01*
G75*
G01*
X1978175Y-1205855D02*
G02*
X1962935Y-1190615I0J15240D01*
G75*
G01*
X1962935Y-1121374D02*
G02*
X1978175Y-1106134I15240J0D01*
G75*
G01*
X2739266Y-1181364D02*
G03*
X2724026Y-1166124I-15240J0D01*
G75*
G01*
X2654785Y-1166124D02*
G03*
X2639545Y-1181364I0J-15240D01*
G75*
G01*
X2739266Y-1384625D02*
G02*
X2724026Y-1399865I-15240J0D01*
G75*
G01*
X2654785Y-1399865D02*
G02*
X2639545Y-1384625I0J15240D01*
G75*
G01*
X2520135Y-626631D02*
G03*
X2535375Y-641871I15240J0D01*
G75*
G01*
X2604615Y-641871D02*
G03*
X2619855Y-626631I0J15240D01*
G75*
G01*
X2520135Y-423370D02*
G02*
X2535375Y-408130I15240J0D01*
G75*
G01*
X2604615Y-408130D02*
G02*
X2619855Y-423370I0J-15240D01*
G75*
G01*
X2239856Y-633367D02*
G03*
X2224616Y-618127I-15240J0D01*
G75*
G01*
X2155375Y-618127D02*
G03*
X2140135Y-633367I0J-15240D01*
G75*
G01*
X2239856Y-836628D02*
G02*
X2224616Y-851868I-15240J0D01*
G75*
G01*
X2155375Y-851868D02*
G02*
X2140135Y-836628I0J15240D01*
G75*
G01*
X-155364Y-2818755D02*
G03*
X-140124Y-2803515I0J15240D01*
G75*
G01*
X-140124Y-2734274D02*
G03*
X-155364Y-2719034I-15240J0D01*
G75*
G01*
X-358625Y-2818755D02*
G02*
X-373865Y-2803515I0J15240D01*
G75*
G01*
X-373865Y-2734274D02*
G02*
X-358625Y-2719034I15240J0D01*
G75*
G01*
X-15725Y-2719034D02*
G03*
X-30965Y-2734274I0J-15240D01*
G75*
G01*
X-30965Y-2803515D02*
G03*
X-15725Y-2818755I15240J0D01*
G75*
G01*
X187536Y-2719034D02*
G02*
X202776Y-2734274I0J-15240D01*
G75*
G01*
X202776Y-2803515D02*
G02*
X187536Y-2818755I-15240J0D01*
G75*
G01*
X-317680Y-1999361D02*
G03*
X-302440Y-1984121I0J15240D01*
G75*
G01*
X-302440Y-1698879D02*
G03*
X-317680Y-1683639I-15240J0D01*
G75*
G01*
X-799920Y-1999361D02*
G02*
X-815160Y-1984121I0J15240D01*
G75*
G01*
X-815160Y-1698879D02*
G02*
X-799920Y-1683639I15240J0D01*
D17*
G75*
G01*
X2259536Y-256106D02*
G02*
X2358520Y-157122I-158245J257229D01*
D13*
G75*
G01*
X-49997Y280797D02*
G03*
X-281567Y41021I50001J-280000D01*
G75*
G01*
X280005Y40797D02*
G03*
X49507Y278016I-269093J-30875D01*
G75*
G01*
X-279997Y-39202D02*
G03*
X280005Y-39202I280001J34330D01*
G75*
G01
X-1219987Y949985D02*
G03X-1219987Y949985I-180010J0D01*
G75*
G01
X3680003Y949985D02*
G03X3680003Y949985I-180010J0D01*
G75*
G01
X-1219987Y-3950005D02*
G03X-1219987Y-3950005I-180010J0D01*
G75*
G01
X3680003Y-3950005D02*
G03X3680003Y-3950005I-180010J0D01*
D14*
G75*
G01
X142824Y-1245108D02*
G03X142824Y-1245108I-6706J0D01*
G75*
G01
X142824Y-1448308D02*
G03X142824Y-1448308I-6706J0D01*
D13*
G75*
G01
X-83693Y-824027D02*
G03X-83693Y-824027I-12497J0D01*
G75*
G01
X3339795Y-1830197D02*
G03X3339795Y-1830197I-80010J0D01*
G75*
G01
X2044395Y-3709797D02*
G03X2044395Y-3709797I-80010J0D01*
G75*
G01
X2575103Y-1410005D02*
G03X2575103Y-1410005I-12700J0D01*
G75*
G01
X2483104Y-627786D02*
G03X2483104Y-627786I-7620J0D01*
D19*
G75*
G01
X755320Y-838505D02*
G03X755320Y-838505I-8992J0D01*
M02*
