G04 Layer: BottomSilkscreenLayer*
G04 EasyEDA v6.5.51, 2025-10-19 23:19:45*
G04 7b2d1a5a50ca49e0b1e0c3d03fbfd553,f84f62d461a54663ae58951fd378ab02,10*
G04 Gerber Generator version 0.2*
G04 Scale: 100 percent, Rotated: No, Reflected: No *
G04 Dimensions in millimeters *
G04 leading zeros omitted , absolute positions ,4 integer and 5 decimal *
%FSLAX45Y45*%
%MOMM*%

%ADD10C,0.2032*%
%ADD11C,0.2540*%
%ADD12C,0.0105*%

%LPD*%
G36*
X2892856Y1106424D02*
G01*
X2886506Y1106322D01*
X2882493Y1105763D01*
X2879902Y1104595D01*
X2878023Y1103172D01*
X2877769Y1102055D01*
X2879394Y1100734D01*
X2883154Y1098702D01*
X2886354Y1096670D01*
X2889402Y1094079D01*
X2892094Y1090930D01*
X2897479Y1083056D01*
X2900934Y1079754D01*
X2904896Y1077366D01*
X2909316Y1075944D01*
X2914192Y1075486D01*
X2919476Y1075994D01*
X2925267Y1077417D01*
X2931515Y1079804D01*
X2936443Y1082903D01*
X2939694Y1086967D01*
X2941116Y1091641D01*
X2940608Y1096670D01*
X2939542Y1099007D01*
X2937814Y1100683D01*
X2934868Y1101953D01*
X2930347Y1103122D01*
X2925368Y1103985D01*
X2910535Y1105509D01*
X2902458Y1106068D01*
G37*
G36*
X2952089Y1098499D02*
G01*
X2950616Y1097686D01*
X2950159Y1096568D01*
X2949498Y1091184D01*
X2949194Y1082751D01*
X2948432Y1079144D01*
X2946704Y1075944D01*
X2941218Y1069289D01*
X2939643Y1066647D01*
X2939084Y1064260D01*
X2939338Y1061720D01*
X2941574Y1057148D01*
X2945993Y1051102D01*
X2951530Y1044854D01*
X2957169Y1039723D01*
X2959303Y1038199D01*
X2960878Y1037742D01*
X2962503Y1038453D01*
X2964891Y1040282D01*
X2970072Y1043533D01*
X2976219Y1045768D01*
X2982214Y1046784D01*
X2987141Y1046276D01*
X2991002Y1045464D01*
X2992729Y1045413D01*
X2993999Y1045616D01*
X2995625Y1047648D01*
X2996336Y1051610D01*
X2996031Y1056487D01*
X2994710Y1061212D01*
X2993136Y1063955D01*
X2990392Y1067460D01*
X2986836Y1071524D01*
X2978048Y1080262D01*
X2973324Y1084529D01*
X2968599Y1088440D01*
X2964180Y1091692D01*
X2957830Y1095959D01*
X2954172Y1098092D01*
G37*
G36*
X2874619Y1095349D02*
G01*
X2869692Y1094943D01*
X2865170Y1092098D01*
X2860954Y1087577D01*
X2856738Y1082141D01*
X2852166Y1075283D01*
X2846679Y1066292D01*
X2841091Y1056132D01*
X2838348Y1049070D01*
X2838297Y1044143D01*
X2840583Y1040231D01*
X2844088Y1036421D01*
X2852928Y1041044D01*
X2857195Y1042924D01*
X2861818Y1044549D01*
X2866491Y1045768D01*
X2876550Y1047191D01*
X2879750Y1049121D01*
X2881934Y1054100D01*
X2884373Y1063904D01*
X2886710Y1074521D01*
X2887421Y1081024D01*
X2886557Y1085291D01*
X2884017Y1089253D01*
X2879547Y1093419D01*
G37*
G36*
X2982315Y1038809D02*
G01*
X2978099Y1038656D01*
X2974035Y1037386D01*
X2970276Y1034846D01*
X2966567Y1030427D01*
X2963926Y1024280D01*
X2962046Y1015746D01*
X2960827Y1004214D01*
X2960471Y993952D01*
X2962198Y988974D01*
X2966923Y988314D01*
X2980994Y992682D01*
X2985871Y993698D01*
X2990951Y994105D01*
X3008122Y993495D01*
X3008122Y1003757D01*
X3007664Y1009802D01*
X3006344Y1015492D01*
X3004261Y1020775D01*
X3001518Y1025601D01*
X2998266Y1029766D01*
X2994609Y1033271D01*
X2990697Y1036015D01*
X2986532Y1037894D01*
G37*
G36*
X2871165Y1038148D02*
G01*
X2865882Y1038098D01*
X2860903Y1037183D01*
X2854299Y1034897D01*
X2848406Y1032002D01*
X2842971Y1028192D01*
X2837586Y1023366D01*
X2832506Y1017371D01*
X2830372Y1012240D01*
X2831185Y1007668D01*
X2834944Y1003198D01*
X2840786Y999794D01*
X2847492Y998829D01*
X2854604Y1000252D01*
X2861716Y1004112D01*
X2866694Y1007110D01*
X2871571Y1008837D01*
X2876346Y1009396D01*
X2881020Y1008735D01*
X2885490Y1006906D01*
X2889758Y1003858D01*
X2893771Y999693D01*
X2897479Y994308D01*
X2899918Y989736D01*
X2901442Y985570D01*
X2902204Y981049D01*
X2902458Y975512D01*
X2902254Y969518D01*
X2901289Y965149D01*
X2899105Y960983D01*
X2892450Y951941D01*
X2889046Y946556D01*
X2888843Y945489D01*
X2892247Y946150D01*
X2897835Y949807D01*
X2903728Y954989D01*
X2907792Y960119D01*
X2910179Y965047D01*
X2912008Y970076D01*
X2913278Y975258D01*
X2913989Y980490D01*
X2914192Y985824D01*
X2913786Y991158D01*
X2912872Y996543D01*
X2911449Y1001877D01*
X2909468Y1007110D01*
X2906928Y1012342D01*
X2903880Y1017422D01*
X2900324Y1022400D01*
X2896412Y1026668D01*
X2891942Y1030325D01*
X2887065Y1033373D01*
X2881884Y1035710D01*
X2876550Y1037336D01*
G37*
G36*
X2986633Y983081D02*
G01*
X2978912Y982522D01*
X2972765Y980846D01*
X2967939Y977442D01*
X2963316Y972413D01*
X2959811Y967028D01*
X2958439Y962456D01*
X2959303Y957275D01*
X2962656Y954024D01*
X2969361Y952093D01*
X2980486Y950976D01*
X2993491Y950010D01*
X3003296Y948791D01*
X3004616Y949706D01*
X3005480Y952449D01*
X3006293Y957630D01*
X3006648Y965453D01*
X3005582Y972058D01*
X3003194Y977239D01*
X2999486Y980795D01*
X2994101Y982471D01*
G37*
G36*
X2967482Y946302D02*
G01*
X2961081Y945794D01*
X2954731Y944626D01*
X2947365Y942340D01*
X2940354Y939241D01*
X2934462Y935685D01*
X2930448Y932027D01*
X2928569Y928116D01*
X2927807Y923188D01*
X2928264Y918565D01*
X2929890Y915416D01*
X2932328Y913942D01*
X2935274Y913841D01*
X2939288Y915263D01*
X2945180Y918260D01*
X2950819Y920851D01*
X2956712Y922477D01*
X2962910Y923036D01*
X2969412Y922578D01*
X2976270Y921156D01*
X2983585Y918667D01*
X2991307Y915162D01*
X3004007Y908100D01*
X3010814Y904544D01*
X3012338Y904036D01*
X3014827Y905916D01*
X3016097Y910793D01*
X3015945Y917498D01*
X3014421Y924864D01*
X3012643Y928674D01*
X3009950Y932230D01*
X3006496Y935431D01*
X3002229Y938326D01*
X2997403Y940816D01*
X2992018Y942898D01*
X2986278Y944473D01*
X2980182Y945642D01*
X2973882Y946251D01*
G37*
G36*
X2959049Y916482D02*
G01*
X2951429Y915466D01*
X2942183Y912926D01*
X2926842Y907948D01*
X2917494Y904494D01*
X2912211Y901750D01*
X2909062Y898906D01*
X2906826Y894842D01*
X2906877Y890778D01*
X2909112Y886764D01*
X2913583Y883005D01*
X2916580Y881278D01*
X2919476Y880668D01*
X2923946Y881176D01*
X2937510Y883818D01*
X2949956Y885393D01*
X2954934Y885698D01*
X2960420Y885545D01*
X2964637Y884885D01*
X2968498Y883462D01*
X2972816Y881075D01*
X2983534Y874572D01*
X2987040Y872794D01*
X2989935Y871880D01*
X2992678Y871829D01*
X2995726Y872439D01*
X3015030Y878890D01*
X3020923Y880313D01*
X3022752Y881075D01*
X3023412Y883158D01*
X3022904Y885799D01*
X3021228Y888542D01*
X3018485Y890778D01*
X3013506Y894029D01*
X2999638Y902004D01*
X2984804Y909624D01*
X2978658Y912469D01*
X2974187Y914146D01*
X2966262Y916025D01*
G37*
G36*
X2865577Y905510D02*
G01*
X2863545Y905205D01*
X2862834Y903732D01*
X2862681Y900684D01*
X2863392Y895502D01*
X2865374Y891082D01*
X2868523Y887577D01*
X2872841Y884986D01*
X2878124Y883310D01*
X2884322Y882650D01*
X2891383Y883005D01*
X2899105Y884428D01*
X2900527Y885240D01*
X2901594Y886866D01*
X2902305Y889609D01*
X2903321Y902055D01*
X2884017Y903427D01*
X2873146Y904494D01*
G37*
G36*
X2852775Y903935D02*
G01*
X2848406Y903681D01*
X2844342Y902411D01*
X2842463Y901039D01*
X2836062Y894842D01*
X2827782Y886155D01*
X2822194Y880973D01*
X2816250Y875944D01*
X2801620Y864565D01*
X2796540Y859231D01*
X2795117Y855065D01*
X2796946Y851611D01*
X2798876Y850188D01*
X2801467Y849274D01*
X2804922Y848766D01*
X2809494Y848614D01*
X2814726Y848868D01*
X2819196Y849782D01*
X2823921Y851763D01*
X2829915Y855065D01*
X2838450Y860501D01*
X2844088Y865327D01*
X2847238Y869848D01*
X2848711Y877062D01*
X2849930Y880668D01*
X2851708Y884834D01*
X2856128Y893114D01*
X2857703Y896772D01*
X2858516Y899668D01*
X2858516Y901446D01*
X2856433Y903173D01*
G37*
G36*
X2937357Y876553D02*
G01*
X2930448Y876096D01*
X2915513Y873760D01*
X2909620Y872286D01*
X2904388Y870000D01*
X2899968Y867156D01*
X2896565Y863955D01*
X2894330Y860602D01*
X2893415Y857300D01*
X2894076Y854252D01*
X2896362Y851611D01*
X2899156Y850595D01*
X2904439Y849731D01*
X2912364Y849071D01*
X2935782Y847902D01*
X2944215Y847090D01*
X2950210Y845718D01*
X2955747Y843534D01*
X2963367Y839368D01*
X2969869Y834440D01*
X2974695Y829360D01*
X2977235Y824534D01*
X2977997Y822553D01*
X2979216Y821029D01*
X2980842Y819912D01*
X2982874Y819200D01*
X2987954Y818896D01*
X2990850Y821436D01*
X2992069Y827938D01*
X2992069Y839520D01*
X2991612Y857097D01*
X2983890Y863092D01*
X2978810Y866495D01*
X2972917Y869442D01*
X2966313Y871982D01*
X2959303Y873963D01*
X2951988Y875436D01*
X2944622Y876300D01*
G37*
G36*
X2851861Y875893D02*
G01*
X2851861Y870254D01*
X2852267Y865733D01*
X2853436Y861771D01*
X2855366Y858316D01*
X2858058Y855471D01*
X2861411Y853186D01*
X2865475Y851560D01*
X2870200Y850544D01*
X2875534Y850239D01*
X2881579Y850696D01*
X2885897Y852627D01*
X2889250Y856589D01*
X2892552Y863346D01*
X2893974Y867105D01*
X2894634Y869746D01*
X2894482Y871575D01*
X2893618Y872845D01*
X2891332Y873658D01*
X2886659Y874369D01*
X2880004Y874928D01*
G37*
G36*
X3036925Y875385D02*
G01*
X3025597Y874979D01*
X3015996Y873658D01*
X3013049Y872794D01*
X3010763Y871677D01*
X3009188Y870305D01*
X3008325Y868680D01*
X3007309Y862126D01*
X3009290Y857605D01*
X3014624Y854811D01*
X3023717Y853338D01*
X3033979Y852881D01*
X3040735Y854100D01*
X3045206Y857453D01*
X3048508Y863396D01*
X3050692Y869696D01*
X3051149Y872083D01*
X3051098Y873506D01*
X3046577Y874928D01*
G37*
G36*
X3058464Y869187D02*
G01*
X3057144Y868629D01*
X3055518Y867054D01*
X3053740Y864717D01*
X3052114Y861872D01*
X3050438Y858266D01*
X3049625Y855421D01*
X3049524Y853135D01*
X3050184Y851204D01*
X3052013Y848309D01*
X3059582Y838200D01*
X3069234Y826160D01*
X3077311Y816762D01*
X3079597Y814527D01*
X3081528Y813104D01*
X3082798Y812850D01*
X3083814Y813866D01*
X3085033Y816356D01*
X3086404Y822350D01*
X3085896Y829564D01*
X3083712Y837539D01*
X3079851Y845819D01*
X3074416Y854252D01*
X3068269Y861720D01*
X3062630Y867156D01*
G37*
G36*
X3007512Y848156D02*
G01*
X3001975Y848055D01*
X2998216Y846277D01*
X2997047Y844600D01*
X2996590Y842416D01*
X2996844Y839266D01*
X2997809Y834644D01*
X3000349Y827125D01*
X3004261Y822706D01*
X3010966Y820623D01*
X3021736Y820115D01*
X3035858Y820115D01*
X3039008Y828548D01*
X3041142Y832764D01*
X3043174Y835710D01*
X3042513Y836879D01*
X3039618Y837844D01*
X3030270Y839673D01*
X3026460Y840892D01*
X3022854Y842314D01*
X3013811Y846734D01*
G37*
G36*
X2870047Y847344D02*
G01*
X2853994Y847191D01*
X2839872Y846683D01*
X2829509Y845870D01*
X2826308Y845312D01*
X2824784Y844702D01*
X2823260Y841552D01*
X2822702Y836676D01*
X2823108Y830478D01*
X2825394Y818641D01*
X2824937Y814730D01*
X2822956Y810869D01*
X2819044Y806094D01*
X2817215Y802538D01*
X2816047Y797306D01*
X2815488Y791108D01*
X2815539Y784504D01*
X2816148Y778256D01*
X2817317Y772922D01*
X2818942Y769264D01*
X2821025Y767892D01*
X2821736Y768400D01*
X2822549Y769772D01*
X2825445Y779018D01*
X2828137Y781913D01*
X2831795Y782929D01*
X2836519Y782167D01*
X2841345Y780796D01*
X2844393Y780796D01*
X2845968Y782167D01*
X2847136Y789584D01*
X2849219Y791616D01*
X2852674Y791260D01*
X2857398Y788517D01*
X2860040Y786688D01*
X2864967Y784199D01*
X2866644Y783793D01*
X2868523Y784301D01*
X2871317Y785672D01*
X2874721Y787704D01*
X2881884Y792784D01*
X2884728Y794461D01*
X2886710Y795223D01*
X2887624Y794918D01*
X2887675Y793953D01*
X2887319Y792784D01*
X2883001Y786841D01*
X2882544Y783742D01*
X2884119Y781456D01*
X2887522Y780288D01*
X2889808Y779830D01*
X2891434Y779068D01*
X2892501Y777951D01*
X2893669Y774750D01*
X2894990Y772769D01*
X2896819Y770737D01*
X2901442Y766673D01*
X2902915Y764794D01*
X2903474Y762965D01*
X2903067Y759256D01*
X2903423Y757377D01*
X2904286Y755497D01*
X2905709Y753618D01*
X2909671Y751027D01*
X2915005Y750011D01*
X2921203Y750570D01*
X2930804Y753668D01*
X2934309Y754481D01*
X2938018Y755040D01*
X2945892Y755396D01*
X2948787Y756208D01*
X2951175Y757986D01*
X2956052Y764032D01*
X2962706Y770839D01*
X2974289Y780846D01*
X2976067Y805383D01*
X2975965Y811326D01*
X2975254Y815797D01*
X2973730Y819810D01*
X2971850Y823620D01*
X2969768Y826617D01*
X2967431Y828852D01*
X2964484Y830529D01*
X2960827Y831646D01*
X2956153Y832358D01*
X2950260Y832713D01*
X2931160Y833119D01*
X2923692Y834288D01*
X2919831Y836472D01*
X2918460Y840943D01*
X2916986Y843432D01*
X2915869Y844550D01*
X2914192Y845210D01*
X2910890Y845769D01*
X2900375Y846632D01*
X2886100Y847140D01*
G37*
G36*
X2785922Y832662D02*
G01*
X2774289Y832002D01*
X2767228Y831189D01*
X2759557Y829868D01*
X2755849Y828141D01*
X2755646Y825449D01*
X2763367Y814882D01*
X2767177Y807770D01*
X2769920Y800100D01*
X2772918Y785063D01*
X2773730Y782929D01*
X2775000Y781558D01*
X2775305Y779932D01*
X2774594Y770788D01*
X2774746Y767384D01*
X2775407Y764133D01*
X2776626Y761034D01*
X2780030Y755294D01*
X2784805Y748690D01*
X2789326Y743254D01*
X2792069Y740968D01*
X2792476Y742137D01*
X2792831Y745286D01*
X2793238Y764133D01*
X2794050Y769467D01*
X2796082Y773734D01*
X2803956Y784250D01*
X2805785Y788365D01*
X2805785Y792175D01*
X2804160Y796493D01*
X2804109Y798220D01*
X2805226Y800912D01*
X2807309Y804468D01*
X2813202Y812749D01*
X2815437Y816457D01*
X2816860Y819403D01*
X2817215Y821232D01*
X2816199Y822604D01*
X2813964Y824433D01*
X2810713Y826414D01*
X2806903Y828344D01*
X2803093Y829970D01*
X2799181Y831138D01*
X2795168Y832002D01*
X2790748Y832510D01*
G37*
G36*
X3049574Y830071D02*
G01*
X3045155Y828040D01*
X3042361Y824128D01*
X3041954Y818896D01*
X3043986Y811580D01*
X3048558Y801522D01*
X3061360Y775004D01*
X3064510Y770585D01*
X3067659Y767486D01*
X3070301Y766318D01*
X3072231Y767029D01*
X3074162Y769213D01*
X3076194Y772972D01*
X3079800Y781862D01*
X3082340Y786739D01*
X3083255Y787755D01*
X3084931Y790397D01*
X3083661Y795070D01*
X3079292Y802081D01*
X3071672Y811682D01*
X3061970Y822401D01*
X3054908Y828344D01*
G37*
G36*
X2730449Y824788D02*
G01*
X2721711Y824077D01*
X2714091Y822502D01*
X2702966Y818235D01*
X2696718Y815492D01*
X2684068Y809193D01*
X2678176Y805992D01*
X2668320Y799846D01*
X2663647Y796290D01*
X2659430Y792530D01*
X2655620Y788466D01*
X2652217Y783945D01*
X2648966Y778865D01*
X2645918Y773023D01*
X2642920Y766419D01*
X2639923Y758799D01*
X2637434Y751789D01*
X2635300Y744931D01*
X2633573Y738276D01*
X2632151Y731774D01*
X2631135Y725525D01*
X2630474Y719531D01*
X2630220Y713790D01*
X2630322Y708355D01*
X2630779Y703275D01*
X2631643Y698601D01*
X2632862Y694283D01*
X2634488Y690372D01*
X2637231Y684784D01*
X2646019Y713638D01*
X2648661Y721156D01*
X2651353Y727964D01*
X2654198Y734060D01*
X2657144Y739444D01*
X2660294Y744270D01*
X2663647Y748538D01*
X2667203Y752348D01*
X2671064Y755650D01*
X2675280Y758545D01*
X2679801Y761136D01*
X2684729Y763371D01*
X2689148Y765098D01*
X2693365Y766368D01*
X2697683Y767232D01*
X2702255Y767689D01*
X2707335Y767842D01*
X2719984Y767029D01*
X2728010Y766114D01*
X2739390Y765200D01*
X2747060Y766013D01*
X2752039Y768756D01*
X2755493Y773836D01*
X2757322Y780592D01*
X2757322Y789076D01*
X2755646Y798525D01*
X2752344Y808278D01*
X2748178Y816508D01*
X2743708Y821588D01*
X2738069Y824128D01*
G37*
G36*
X3102000Y821740D02*
G01*
X3099003Y821486D01*
X3096361Y820623D01*
X3093923Y819150D01*
X3091383Y816864D01*
X3087370Y811428D01*
X3087065Y807161D01*
X3090418Y804062D01*
X3103626Y800404D01*
X3108706Y797864D01*
X3113633Y793800D01*
X3123387Y783082D01*
X3126587Y780288D01*
X3128772Y779221D01*
X3129991Y779932D01*
X3130143Y782269D01*
X3129280Y786333D01*
X3127349Y791921D01*
X3124352Y799134D01*
X3119170Y809244D01*
X3113786Y816305D01*
X3108147Y820369D01*
G37*
G36*
X2984347Y813562D02*
G01*
X2983128Y812596D01*
X2982214Y808024D01*
X2981096Y798728D01*
X2980740Y789127D01*
X2982620Y783031D01*
X2987548Y779272D01*
X2996387Y776579D01*
X3008172Y774496D01*
X3015996Y774700D01*
X3020314Y777341D01*
X3021685Y782523D01*
X3021990Y784809D01*
X3022854Y787552D01*
X3024174Y790498D01*
X3028340Y798576D01*
X3027883Y802284D01*
X3024174Y804722D01*
X3012744Y806856D01*
X3002483Y809142D01*
X2990900Y812596D01*
X2986684Y813562D01*
G37*
G36*
X3037281Y794461D02*
G01*
X3034334Y793648D01*
X3031591Y792226D01*
X3029966Y789686D01*
X3029153Y785266D01*
X3029000Y778205D01*
X3029356Y772210D01*
X3030474Y764997D01*
X3032099Y757072D01*
X3034182Y748842D01*
X3036570Y740816D01*
X3039160Y733450D01*
X3041751Y727252D01*
X3044240Y722680D01*
X3048000Y717905D01*
X3051708Y714654D01*
X3055162Y713079D01*
X3058007Y713384D01*
X3059023Y714349D01*
X3061868Y718566D01*
X3064764Y724052D01*
X3066288Y726287D01*
X3067608Y727760D01*
X3069742Y728726D01*
X3070301Y730046D01*
X3070250Y732282D01*
X3069539Y735584D01*
X3068218Y740054D01*
X3063494Y752652D01*
X3060090Y760984D01*
X3055416Y771601D01*
X3051200Y780288D01*
X3047593Y786688D01*
X3044901Y790295D01*
X3041853Y792988D01*
X3039516Y794308D01*
G37*
G36*
X3093872Y782167D02*
G01*
X3090570Y781558D01*
X3087319Y779932D01*
X3084169Y777290D01*
X3080105Y771804D01*
X3079699Y767486D01*
X3082848Y764133D01*
X3094126Y760222D01*
X3098190Y757986D01*
X3102000Y755040D01*
X3105404Y751382D01*
X3108401Y747166D01*
X3110992Y742289D01*
X3113074Y736955D01*
X3115513Y727608D01*
X3116478Y724611D01*
X3117494Y722528D01*
X3118358Y721664D01*
X3119882Y724103D01*
X3120644Y730859D01*
X3120542Y739394D01*
X3119424Y747268D01*
X3117443Y754329D01*
X3115157Y760628D01*
X3112617Y766216D01*
X3109823Y771042D01*
X3106826Y775004D01*
X3103727Y778154D01*
X3100476Y780440D01*
X3097174Y781761D01*
G37*
G36*
X2841548Y774242D02*
G01*
X2839059Y773988D01*
X2836570Y773226D01*
X2834233Y772058D01*
X2832252Y770483D01*
X2828645Y765911D01*
X2827172Y760831D01*
X2827782Y755650D01*
X2830474Y750620D01*
X2834030Y746607D01*
X2836773Y744778D01*
X2838704Y745134D01*
X2839872Y747623D01*
X2846171Y772515D01*
X2845765Y773582D01*
X2844292Y774090D01*
G37*
G36*
X2982010Y772464D02*
G01*
X2977692Y772109D01*
X2974492Y769061D01*
X2969717Y763625D01*
X2955899Y750316D01*
X2952546Y746455D01*
X2950921Y743254D01*
X2950514Y740105D01*
X2951581Y734314D01*
X2955340Y730351D01*
X2962198Y727913D01*
X2972866Y726643D01*
X2980334Y725982D01*
X2986532Y724916D01*
X2992170Y723239D01*
X3006090Y717753D01*
X3010662Y717854D01*
X3012440Y721614D01*
X3012236Y729488D01*
X3011474Y734771D01*
X3010306Y739851D01*
X3008680Y744728D01*
X3006598Y749401D01*
X3004108Y753770D01*
X3001264Y757885D01*
X2997962Y761695D01*
X2994355Y765149D01*
X2987548Y770128D01*
G37*
G36*
X2718155Y764692D02*
G01*
X2710484Y763016D01*
X2709062Y761898D01*
X2708046Y760222D01*
X2707487Y757834D01*
X2706624Y745337D01*
X2704846Y735787D01*
X2702102Y726948D01*
X2698699Y719886D01*
X2696057Y716330D01*
X2692501Y712317D01*
X2688437Y708406D01*
X2679242Y700836D01*
X2676144Y697636D01*
X2674975Y695350D01*
X2675686Y694029D01*
X2678226Y693775D01*
X2682544Y694537D01*
X2688488Y696417D01*
X2696057Y699414D01*
X2701391Y702157D01*
X2707538Y706018D01*
X2714040Y710793D01*
X2720543Y716127D01*
X2726740Y721614D01*
X2732227Y727049D01*
X2736646Y732078D01*
X2739542Y736346D01*
X2742082Y742188D01*
X2743250Y747776D01*
X2743098Y752805D01*
X2741523Y757072D01*
X2736138Y761238D01*
X2727502Y763930D01*
G37*
G36*
X2883204Y759764D02*
G01*
X2880715Y758596D01*
X2878734Y755345D01*
X2874162Y750062D01*
X2865729Y743204D01*
X2856738Y737209D01*
X2850692Y734669D01*
X2848711Y734212D01*
X2848356Y733094D01*
X2849524Y731774D01*
X2852013Y730656D01*
X2858211Y730046D01*
X2865729Y731164D01*
X2874010Y733806D01*
X2882442Y737870D01*
X2889656Y742594D01*
X2893110Y746709D01*
X2893009Y750925D01*
X2889656Y755802D01*
X2886202Y758850D01*
G37*
G36*
X3081477Y727760D02*
G01*
X3077667Y727100D01*
X3071825Y724204D01*
X3067761Y721258D01*
X3065475Y718261D01*
X3064967Y715213D01*
X3066237Y712114D01*
X3069234Y708964D01*
X3074060Y705866D01*
X3080664Y702767D01*
X3089706Y697992D01*
X3096615Y692099D01*
X3101390Y685038D01*
X3103981Y676910D01*
X3105150Y671779D01*
X3106521Y668477D01*
X3108198Y667054D01*
X3110230Y667359D01*
X3111246Y668883D01*
X3111754Y672185D01*
X3111906Y677722D01*
X3111652Y685749D01*
X3111042Y695045D01*
X3110077Y701497D01*
X3108350Y706577D01*
X3105556Y711860D01*
X3103168Y715619D01*
X3097936Y721969D01*
X3095752Y723798D01*
X3091281Y725932D01*
X3086252Y727303D01*
G37*
G36*
X2962910Y720699D02*
G01*
X2956001Y720191D01*
X2946603Y717956D01*
X2941675Y713892D01*
X2940913Y707542D01*
X2945892Y693216D01*
X2947060Y688136D01*
X2947517Y683056D01*
X2947365Y678027D01*
X2946450Y673100D01*
X2944926Y668375D01*
X2942691Y663854D01*
X2939846Y659688D01*
X2937002Y656945D01*
X2932125Y653135D01*
X2918561Y643686D01*
X2903575Y634288D01*
X2897022Y630529D01*
X2891790Y627938D01*
X2881579Y624078D01*
X2858262Y616661D01*
X2852318Y613765D01*
X2850591Y611174D01*
X2852724Y608634D01*
X2855264Y607517D01*
X2858820Y606806D01*
X2863189Y606450D01*
X2868371Y606501D01*
X2874162Y606856D01*
X2880461Y607517D01*
X2887218Y608533D01*
X2901492Y611428D01*
X2916072Y615391D01*
X2932684Y621182D01*
X2941218Y624484D01*
X2955594Y630885D01*
X2961741Y634085D01*
X2967228Y637286D01*
X2972206Y640638D01*
X2976778Y644093D01*
X2981147Y647852D01*
X2985109Y651713D01*
X2988665Y655777D01*
X2991866Y660044D01*
X2994863Y664718D01*
X2997606Y669747D01*
X3000197Y675335D01*
X3002737Y681482D01*
X3005582Y690372D01*
X3006496Y697534D01*
X3005480Y703529D01*
X3002534Y708914D01*
X2999587Y711809D01*
X2995320Y714400D01*
X2989935Y716635D01*
X2983788Y718413D01*
X2977032Y719734D01*
X2970022Y720496D01*
G37*
G36*
X2924149Y702868D02*
G01*
X2916123Y701497D01*
X2906318Y697890D01*
X2900426Y694994D01*
X2894533Y691540D01*
X2888742Y687628D01*
X2883154Y683310D01*
X2877870Y678738D01*
X2872994Y673963D01*
X2868574Y669137D01*
X2864764Y664311D01*
X2861665Y659638D01*
X2859278Y655167D01*
X2857804Y651002D01*
X2857296Y647293D01*
X2857398Y644855D01*
X2857906Y643686D01*
X2859125Y643686D01*
X2861360Y644601D01*
X2863748Y645972D01*
X2871419Y651510D01*
X2880258Y658571D01*
X2884474Y661517D01*
X2888386Y663803D01*
X2892298Y665530D01*
X2896362Y666800D01*
X2900680Y667613D01*
X2905506Y668070D01*
X2920187Y668629D01*
X2926892Y670102D01*
X2931922Y672947D01*
X2936240Y677519D01*
X2939440Y683260D01*
X2940405Y689152D01*
X2939237Y694588D01*
X2935935Y699109D01*
X2930702Y702106D01*
G37*
D10*
X3105386Y-3927894D02*
G01*
X2939130Y-3927894D01*
X2878170Y-3817058D02*
G01*
X2878170Y-4011020D01*
X2748861Y-3817058D02*
G01*
X2878170Y-3946367D01*
X2831990Y-3900185D02*
G01*
X2748861Y-4011020D01*
X2577066Y-3881711D02*
G01*
X2577066Y-4011020D01*
X2577066Y-3909420D02*
G01*
X2595539Y-3890949D01*
X2614010Y-3881711D01*
X2641721Y-3881711D01*
X2660192Y-3890949D01*
X2678666Y-3909420D01*
X2687901Y-3937129D01*
X2687901Y-3955602D01*
X2678666Y-3983311D01*
X2660192Y-4001785D01*
X2641721Y-4011020D01*
X2614010Y-4011020D01*
X2595539Y-4001785D01*
X2577066Y-3983311D01*
X2516106Y-3881711D02*
G01*
X2516106Y-3974076D01*
X2506870Y-4001785D01*
X2488397Y-4011020D01*
X2460688Y-4011020D01*
X2442215Y-4001785D01*
X2414506Y-3974076D01*
X2414506Y-3881711D02*
G01*
X2414506Y-4011020D01*
X2251946Y-3909420D02*
G01*
X2261181Y-3890949D01*
X2288890Y-3881711D01*
X2316601Y-3881711D01*
X2344310Y-3890949D01*
X2353546Y-3909420D01*
X2344310Y-3927894D01*
X2325837Y-3937129D01*
X2279655Y-3946367D01*
X2261181Y-3955602D01*
X2251946Y-3974076D01*
X2251946Y-3983311D01*
X2261181Y-4001785D01*
X2288890Y-4011020D01*
X2316601Y-4011020D01*
X2344310Y-4001785D01*
X2353546Y-3983311D01*
X2190986Y-3817058D02*
G01*
X2190986Y-4011020D01*
X2190986Y-3918658D02*
G01*
X2163277Y-3890949D01*
X2144803Y-3881711D01*
X2117095Y-3881711D01*
X2098621Y-3890949D01*
X2089386Y-3918658D01*
X2089386Y-4011020D01*
X2028426Y-3817058D02*
G01*
X2019190Y-3826294D01*
X2009952Y-3817058D01*
X2019190Y-3807820D01*
X2028426Y-3817058D01*
X2019190Y-3881711D02*
G01*
X2019190Y-4011020D01*
X1948992Y-3817058D02*
G01*
X1948992Y-4011020D01*
X1856630Y-3881711D02*
G01*
X1948992Y-3974076D01*
X1912048Y-3937129D02*
G01*
X1847392Y-4011020D01*
X1675597Y-3881711D02*
G01*
X1675597Y-4011020D01*
X1675597Y-3909420D02*
G01*
X1694070Y-3890949D01*
X1712541Y-3881711D01*
X1740250Y-3881711D01*
X1758723Y-3890949D01*
X1777197Y-3909420D01*
X1786432Y-3937129D01*
X1786432Y-3955602D01*
X1777197Y-3983311D01*
X1758723Y-4001785D01*
X1740250Y-4011020D01*
X1712541Y-4011020D01*
X1694070Y-4001785D01*
X1675597Y-3983311D01*
X1472397Y-3817058D02*
G01*
X1472397Y-4011020D01*
X1343088Y-3817058D02*
G01*
X1343088Y-4011020D01*
X1472397Y-3909420D02*
G01*
X1343088Y-3909420D01*
X1282128Y-3937129D02*
G01*
X1171290Y-3937129D01*
X1171290Y-3918658D01*
X1180528Y-3900185D01*
X1189763Y-3890949D01*
X1208237Y-3881711D01*
X1235946Y-3881711D01*
X1254419Y-3890949D01*
X1272890Y-3909420D01*
X1282128Y-3937129D01*
X1282128Y-3955602D01*
X1272890Y-3983311D01*
X1254419Y-4001785D01*
X1235946Y-4011020D01*
X1208237Y-4011020D01*
X1189763Y-4001785D01*
X1171290Y-3983311D01*
X1110330Y-3881711D02*
G01*
X1073386Y-4011020D01*
X1036441Y-3881711D02*
G01*
X1073386Y-4011020D01*
X1036441Y-3881711D02*
G01*
X999495Y-4011020D01*
X962550Y-3881711D02*
G01*
X999495Y-4011020D01*
X790752Y-3881711D02*
G01*
X790752Y-4011020D01*
X790752Y-3909420D02*
G01*
X809226Y-3890949D01*
X827699Y-3881711D01*
X855408Y-3881711D01*
X873881Y-3890949D01*
X892352Y-3909420D01*
X901590Y-3937129D01*
X901590Y-3955602D01*
X892352Y-3983311D01*
X873881Y-4001785D01*
X855408Y-4011020D01*
X827699Y-4011020D01*
X809226Y-4001785D01*
X790752Y-3983311D01*
X587552Y-3817058D02*
G01*
X587552Y-4011020D01*
X587552Y-3817058D02*
G01*
X504426Y-3817058D01*
X476717Y-3826294D01*
X467481Y-3835529D01*
X458243Y-3854002D01*
X458243Y-3881711D01*
X467481Y-3900185D01*
X476717Y-3909420D01*
X504426Y-3918658D01*
X587552Y-3918658D01*
X286448Y-3881711D02*
G01*
X286448Y-4011020D01*
X286448Y-3909420D02*
G01*
X304921Y-3890949D01*
X323392Y-3881711D01*
X351101Y-3881711D01*
X369575Y-3890949D01*
X388048Y-3909420D01*
X397283Y-3937129D01*
X397283Y-3955602D01*
X388048Y-3983311D01*
X369575Y-4001785D01*
X351101Y-4011020D01*
X323392Y-4011020D01*
X304921Y-4001785D01*
X286448Y-3983311D01*
X225488Y-3881711D02*
G01*
X225488Y-4011020D01*
X225488Y-3918658D02*
G01*
X197779Y-3890949D01*
X179306Y-3881711D01*
X151597Y-3881711D01*
X133123Y-3890949D01*
X123888Y-3918658D01*
X123888Y-4011020D01*
X62928Y-3881711D02*
G01*
X7510Y-4011020D01*
X-47909Y-3881711D02*
G01*
X7510Y-4011020D01*
X-108869Y-3817058D02*
G01*
X-118104Y-3826294D01*
X-127340Y-3817058D01*
X-118104Y-3807820D01*
X-108869Y-3817058D01*
X-118104Y-3881711D02*
G01*
X-118104Y-4011020D01*
X-188300Y-3817058D02*
G01*
X-188300Y-4011020D01*
X-360098Y-3881711D02*
G01*
X-360098Y-4011020D01*
X-360098Y-3909420D02*
G01*
X-341624Y-3890949D01*
X-323151Y-3881711D01*
X-295442Y-3881711D01*
X-276969Y-3890949D01*
X-258498Y-3909420D01*
X-249260Y-3937129D01*
X-249260Y-3955602D01*
X-258498Y-3983311D01*
X-276969Y-4001785D01*
X-295442Y-4011020D01*
X-323151Y-4011020D01*
X-341624Y-4001785D01*
X-360098Y-3983311D01*
X3105393Y-3459314D02*
G01*
X2939138Y-3459314D01*
X2878178Y-3348479D02*
G01*
X2878178Y-3487023D01*
X2868942Y-3514732D01*
X2850469Y-3533206D01*
X2822760Y-3542441D01*
X2804289Y-3542441D01*
X2776578Y-3533206D01*
X2758107Y-3514732D01*
X2748869Y-3487023D01*
X2748869Y-3348479D01*
X2577073Y-3348479D02*
G01*
X2577073Y-3542441D01*
X2577073Y-3440841D02*
G01*
X2595547Y-3422370D01*
X2614018Y-3413132D01*
X2641729Y-3413132D01*
X2660200Y-3422370D01*
X2678673Y-3440841D01*
X2687909Y-3468550D01*
X2687909Y-3487023D01*
X2678673Y-3514732D01*
X2660200Y-3533206D01*
X2641729Y-3542441D01*
X2614018Y-3542441D01*
X2595547Y-3533206D01*
X2577073Y-3514732D01*
X2405278Y-3413132D02*
G01*
X2405278Y-3542441D01*
X2405278Y-3440841D02*
G01*
X2423749Y-3422370D01*
X2442222Y-3413132D01*
X2469931Y-3413132D01*
X2488404Y-3422370D01*
X2506878Y-3440841D01*
X2516113Y-3468550D01*
X2516113Y-3487023D01*
X2506878Y-3514732D01*
X2488404Y-3533206D01*
X2469931Y-3542441D01*
X2442222Y-3542441D01*
X2423749Y-3533206D01*
X2405278Y-3514732D01*
X2335080Y-3413132D02*
G01*
X2279662Y-3542441D01*
X2224244Y-3413132D02*
G01*
X2279662Y-3542441D01*
X2298136Y-3579388D01*
X2316609Y-3597861D01*
X2335080Y-3607097D01*
X2344318Y-3607097D01*
X2052449Y-3413132D02*
G01*
X2052449Y-3542441D01*
X2052449Y-3440841D02*
G01*
X2070920Y-3422370D01*
X2089393Y-3413132D01*
X2117102Y-3413132D01*
X2135576Y-3422370D01*
X2154049Y-3440841D01*
X2163284Y-3468550D01*
X2163284Y-3487023D01*
X2154049Y-3514732D01*
X2135576Y-3533206D01*
X2117102Y-3542441D01*
X2089393Y-3542441D01*
X2070920Y-3533206D01*
X2052449Y-3514732D01*
X1849249Y-3348479D02*
G01*
X1849249Y-3542441D01*
X1719938Y-3348479D02*
G01*
X1849249Y-3477788D01*
X1803067Y-3431606D02*
G01*
X1719938Y-3542441D01*
X1658978Y-3413132D02*
G01*
X1658978Y-3542441D01*
X1658978Y-3468550D02*
G01*
X1649742Y-3440841D01*
X1631269Y-3422370D01*
X1612798Y-3413132D01*
X1585089Y-3413132D01*
X1524129Y-3348479D02*
G01*
X1514891Y-3357714D01*
X1505656Y-3348479D01*
X1514891Y-3339241D01*
X1524129Y-3348479D01*
X1514891Y-3413132D02*
G01*
X1514891Y-3542441D01*
X1343096Y-3440841D02*
G01*
X1352331Y-3422370D01*
X1380040Y-3413132D01*
X1407749Y-3413132D01*
X1435458Y-3422370D01*
X1444696Y-3440841D01*
X1435458Y-3459314D01*
X1416987Y-3468550D01*
X1370804Y-3477788D01*
X1352331Y-3487023D01*
X1343096Y-3505497D01*
X1343096Y-3514732D01*
X1352331Y-3533206D01*
X1380040Y-3542441D01*
X1407749Y-3542441D01*
X1435458Y-3533206D01*
X1444696Y-3514732D01*
X1254427Y-3348479D02*
G01*
X1254427Y-3505497D01*
X1245189Y-3533206D01*
X1226718Y-3542441D01*
X1208244Y-3542441D01*
X1282136Y-3413132D02*
G01*
X1217480Y-3413132D01*
X1147284Y-3348479D02*
G01*
X1147284Y-3542441D01*
X1147284Y-3450079D02*
G01*
X1119576Y-3422370D01*
X1101102Y-3413132D01*
X1073393Y-3413132D01*
X1054920Y-3422370D01*
X1045684Y-3450079D01*
X1045684Y-3542441D01*
X938542Y-3413132D02*
G01*
X957016Y-3422370D01*
X975489Y-3440841D01*
X984724Y-3468550D01*
X984724Y-3487023D01*
X975489Y-3514732D01*
X957016Y-3533206D01*
X938542Y-3542441D01*
X910833Y-3542441D01*
X892360Y-3533206D01*
X873889Y-3514732D01*
X864651Y-3487023D01*
X864651Y-3468550D01*
X873889Y-3440841D01*
X892360Y-3422370D01*
X910833Y-3413132D01*
X938542Y-3413132D01*
X803691Y-3348479D02*
G01*
X803691Y-3542441D01*
X803691Y-3440841D02*
G01*
X785218Y-3422370D01*
X766747Y-3413132D01*
X739038Y-3413132D01*
X720564Y-3422370D01*
X702091Y-3440841D01*
X692856Y-3468550D01*
X692856Y-3487023D01*
X702091Y-3514732D01*
X720564Y-3533206D01*
X739038Y-3542441D01*
X766747Y-3542441D01*
X785218Y-3533206D01*
X803691Y-3514732D01*
X631896Y-3413132D02*
G01*
X631896Y-3505497D01*
X622658Y-3533206D01*
X604187Y-3542441D01*
X576478Y-3542441D01*
X558004Y-3533206D01*
X530296Y-3505497D01*
X530296Y-3413132D02*
G01*
X530296Y-3542441D01*
X358498Y-3413132D02*
G01*
X358498Y-3560914D01*
X367736Y-3588623D01*
X376971Y-3597861D01*
X395444Y-3607097D01*
X423153Y-3607097D01*
X441627Y-3597861D01*
X358498Y-3440841D02*
G01*
X376971Y-3422370D01*
X395444Y-3413132D01*
X423153Y-3413132D01*
X441627Y-3422370D01*
X460098Y-3440841D01*
X469336Y-3468550D01*
X469336Y-3487023D01*
X460098Y-3514732D01*
X441627Y-3533206D01*
X423153Y-3542441D01*
X395444Y-3542441D01*
X376971Y-3533206D01*
X358498Y-3514732D01*
X297538Y-3468550D02*
G01*
X186702Y-3468550D01*
X186702Y-3450079D01*
X195938Y-3431606D01*
X205176Y-3422370D01*
X223649Y-3413132D01*
X251358Y-3413132D01*
X269829Y-3422370D01*
X288302Y-3440841D01*
X297538Y-3468550D01*
X297538Y-3487023D01*
X288302Y-3514732D01*
X269829Y-3533206D01*
X251358Y-3542441D01*
X223649Y-3542441D01*
X205176Y-3533206D01*
X186702Y-3514732D01*
X3105386Y-2990733D02*
G01*
X2939130Y-2990733D01*
X2878170Y-2879897D02*
G01*
X2878170Y-3073859D01*
X2878170Y-2879897D02*
G01*
X2795043Y-2879897D01*
X2767335Y-2889133D01*
X2758099Y-2898368D01*
X2748861Y-2916842D01*
X2748861Y-2935315D01*
X2758099Y-2953788D01*
X2767335Y-2963024D01*
X2795043Y-2972259D01*
X2878170Y-2972259D01*
X2813517Y-2972259D02*
G01*
X2748861Y-3073859D01*
X2577066Y-2944550D02*
G01*
X2577066Y-3073859D01*
X2577066Y-2972259D02*
G01*
X2595539Y-2953788D01*
X2614010Y-2944550D01*
X2641721Y-2944550D01*
X2660192Y-2953788D01*
X2678666Y-2972259D01*
X2687901Y-2999968D01*
X2687901Y-3018442D01*
X2678666Y-3046150D01*
X2660192Y-3064624D01*
X2641721Y-3073859D01*
X2614010Y-3073859D01*
X2595539Y-3064624D01*
X2577066Y-3046150D01*
X2516106Y-2879897D02*
G01*
X2516106Y-3073859D01*
X2455146Y-2944550D02*
G01*
X2455146Y-3138515D01*
X2455146Y-2972259D02*
G01*
X2436672Y-2953788D01*
X2418201Y-2944550D01*
X2390490Y-2944550D01*
X2372019Y-2953788D01*
X2353546Y-2972259D01*
X2344310Y-2999968D01*
X2344310Y-3018442D01*
X2353546Y-3046150D01*
X2372019Y-3064624D01*
X2390490Y-3073859D01*
X2418201Y-3073859D01*
X2436672Y-3064624D01*
X2455146Y-3046150D01*
X2283350Y-2879897D02*
G01*
X2283350Y-3073859D01*
X2283350Y-2981497D02*
G01*
X2255641Y-2953788D01*
X2237168Y-2944550D01*
X2209459Y-2944550D01*
X2190986Y-2953788D01*
X2181750Y-2981497D01*
X2181750Y-3073859D01*
X1978550Y-2879897D02*
G01*
X1978550Y-3073859D01*
X1978550Y-2879897D02*
G01*
X1895421Y-2879897D01*
X1867712Y-2889133D01*
X1858477Y-2898368D01*
X1849241Y-2916842D01*
X1849241Y-2944550D01*
X1858477Y-2963024D01*
X1867712Y-2972259D01*
X1895421Y-2981497D01*
X1978550Y-2981497D01*
X1788281Y-2879897D02*
G01*
X1779043Y-2889133D01*
X1769808Y-2879897D01*
X1779043Y-2870659D01*
X1788281Y-2879897D01*
X1779043Y-2944550D02*
G01*
X1779043Y-3073859D01*
X1708848Y-2879897D02*
G01*
X1708848Y-3073859D01*
X1537050Y-2944550D02*
G01*
X1537050Y-3073859D01*
X1537050Y-2972259D02*
G01*
X1555523Y-2953788D01*
X1573997Y-2944550D01*
X1601706Y-2944550D01*
X1620179Y-2953788D01*
X1638650Y-2972259D01*
X1647888Y-2999968D01*
X1647888Y-3018442D01*
X1638650Y-3046150D01*
X1620179Y-3064624D01*
X1601706Y-3073859D01*
X1573997Y-3073859D01*
X1555523Y-3064624D01*
X1537050Y-3046150D01*
X1476090Y-2944550D02*
G01*
X1476090Y-3138515D01*
X1476090Y-2972259D02*
G01*
X1457619Y-2953788D01*
X1439146Y-2944550D01*
X1411437Y-2944550D01*
X1392963Y-2953788D01*
X1374490Y-2972259D01*
X1365255Y-2999968D01*
X1365255Y-3018442D01*
X1374490Y-3046150D01*
X1392963Y-3064624D01*
X1411437Y-3073859D01*
X1439146Y-3073859D01*
X1457619Y-3064624D01*
X1476090Y-3046150D01*
X1304295Y-2879897D02*
G01*
X1295059Y-2889133D01*
X1285821Y-2879897D01*
X1295059Y-2870659D01*
X1304295Y-2879897D01*
X1295059Y-2944550D02*
G01*
X1295059Y-3073859D01*
X1224861Y-2879897D02*
G01*
X1224861Y-3073859D01*
X3105388Y-2522153D02*
G01*
X2939133Y-2522153D01*
X2878173Y-2411318D02*
G01*
X2878173Y-2605280D01*
X2878173Y-2411318D02*
G01*
X2795046Y-2411318D01*
X2767337Y-2420553D01*
X2758102Y-2429789D01*
X2748864Y-2448262D01*
X2748864Y-2466736D01*
X2758102Y-2485209D01*
X2767337Y-2494445D01*
X2795046Y-2503680D01*
X2878173Y-2503680D01*
X2813519Y-2503680D02*
G01*
X2748864Y-2605280D01*
X2687904Y-2411318D02*
G01*
X2678668Y-2420553D01*
X2669433Y-2411318D01*
X2678668Y-2402080D01*
X2687904Y-2411318D01*
X2678668Y-2475971D02*
G01*
X2678668Y-2605280D01*
X2497635Y-2475971D02*
G01*
X2497635Y-2623753D01*
X2506873Y-2651462D01*
X2516108Y-2660700D01*
X2534582Y-2669936D01*
X2562291Y-2669936D01*
X2580764Y-2660700D01*
X2497635Y-2503680D02*
G01*
X2516108Y-2485209D01*
X2534582Y-2475971D01*
X2562291Y-2475971D01*
X2580764Y-2485209D01*
X2599235Y-2503680D01*
X2608473Y-2531389D01*
X2608473Y-2549862D01*
X2599235Y-2577571D01*
X2580764Y-2596045D01*
X2562291Y-2605280D01*
X2534582Y-2605280D01*
X2516108Y-2596045D01*
X2497635Y-2577571D01*
X2335075Y-2475971D02*
G01*
X2436675Y-2605280D01*
X2436675Y-2475971D02*
G01*
X2335075Y-2475971D01*
X2436675Y-2605280D02*
G01*
X2335075Y-2605280D01*
X2274115Y-2411318D02*
G01*
X2264879Y-2420553D01*
X2255644Y-2411318D01*
X2264879Y-2402080D01*
X2274115Y-2411318D01*
X2264879Y-2475971D02*
G01*
X2264879Y-2605280D01*
X2194684Y-2475971D02*
G01*
X2194684Y-2605280D01*
X2194684Y-2512918D02*
G01*
X2166973Y-2485209D01*
X2148502Y-2475971D01*
X2120793Y-2475971D01*
X2102319Y-2485209D01*
X2093084Y-2512918D01*
X2093084Y-2605280D01*
X1921286Y-2475971D02*
G01*
X1921286Y-2623753D01*
X1930524Y-2651462D01*
X1939759Y-2660700D01*
X1958233Y-2669936D01*
X1985942Y-2669936D01*
X2004413Y-2660700D01*
X1921286Y-2503680D02*
G01*
X1939759Y-2485209D01*
X1958233Y-2475971D01*
X1985942Y-2475971D01*
X2004413Y-2485209D01*
X2022886Y-2503680D01*
X2032124Y-2531389D01*
X2032124Y-2549862D01*
X2022886Y-2577571D01*
X2004413Y-2596045D01*
X1985942Y-2605280D01*
X1958233Y-2605280D01*
X1939759Y-2596045D01*
X1921286Y-2577571D01*
X1588777Y-2439027D02*
G01*
X1607251Y-2420553D01*
X1634959Y-2411318D01*
X1671904Y-2411318D01*
X1699613Y-2420553D01*
X1718086Y-2439027D01*
X1718086Y-2457500D01*
X1708851Y-2475971D01*
X1699613Y-2485209D01*
X1681142Y-2494445D01*
X1625724Y-2512918D01*
X1607251Y-2522153D01*
X1598013Y-2531389D01*
X1588777Y-2549862D01*
X1588777Y-2577571D01*
X1607251Y-2596045D01*
X1634959Y-2605280D01*
X1671904Y-2605280D01*
X1699613Y-2596045D01*
X1718086Y-2577571D01*
X1527817Y-2411318D02*
G01*
X1527817Y-2605280D01*
X1527817Y-2512918D02*
G01*
X1500108Y-2485209D01*
X1481635Y-2475971D01*
X1453926Y-2475971D01*
X1435453Y-2485209D01*
X1426217Y-2512918D01*
X1426217Y-2605280D01*
X1365257Y-2531389D02*
G01*
X1254422Y-2531389D01*
X1254422Y-2512918D01*
X1263657Y-2494445D01*
X1272893Y-2485209D01*
X1291366Y-2475971D01*
X1319075Y-2475971D01*
X1337548Y-2485209D01*
X1356022Y-2503680D01*
X1365257Y-2531389D01*
X1365257Y-2549862D01*
X1356022Y-2577571D01*
X1337548Y-2596045D01*
X1319075Y-2605280D01*
X1291366Y-2605280D01*
X1272893Y-2596045D01*
X1254422Y-2577571D01*
X1193462Y-2475971D02*
G01*
X1193462Y-2605280D01*
X1193462Y-2531389D02*
G01*
X1184224Y-2503680D01*
X1165753Y-2485209D01*
X1147279Y-2475971D01*
X1119571Y-2475971D01*
X1058611Y-2475971D02*
G01*
X1058611Y-2669936D01*
X1058611Y-2503680D02*
G01*
X1040137Y-2485209D01*
X1021664Y-2475971D01*
X993955Y-2475971D01*
X975484Y-2485209D01*
X957011Y-2503680D01*
X947773Y-2531389D01*
X947773Y-2549862D01*
X957011Y-2577571D01*
X975484Y-2596045D01*
X993955Y-2605280D01*
X1021664Y-2605280D01*
X1040137Y-2596045D01*
X1058611Y-2577571D01*
X775977Y-2475971D02*
G01*
X775977Y-2605280D01*
X775977Y-2503680D02*
G01*
X794451Y-2485209D01*
X812924Y-2475971D01*
X840633Y-2475971D01*
X859104Y-2485209D01*
X877577Y-2503680D01*
X886813Y-2531389D01*
X886813Y-2549862D01*
X877577Y-2577571D01*
X859104Y-2596045D01*
X840633Y-2605280D01*
X812924Y-2605280D01*
X794451Y-2596045D01*
X775977Y-2577571D01*
X3105393Y-2118232D02*
G01*
X2939138Y-2118232D01*
X2878178Y-2007397D02*
G01*
X2878178Y-2201359D01*
X2748869Y-2007397D02*
G01*
X2878178Y-2136706D01*
X2831998Y-2090524D02*
G01*
X2748869Y-2201359D01*
X2577073Y-2072050D02*
G01*
X2577073Y-2201359D01*
X2577073Y-2099759D02*
G01*
X2595547Y-2081288D01*
X2614018Y-2072050D01*
X2641729Y-2072050D01*
X2660200Y-2081288D01*
X2678673Y-2099759D01*
X2687909Y-2127468D01*
X2687909Y-2145941D01*
X2678673Y-2173650D01*
X2660200Y-2192124D01*
X2641729Y-2201359D01*
X2614018Y-2201359D01*
X2595547Y-2192124D01*
X2577073Y-2173650D01*
X2516113Y-2072050D02*
G01*
X2516113Y-2201359D01*
X2516113Y-2127468D02*
G01*
X2506878Y-2099759D01*
X2488404Y-2081288D01*
X2469931Y-2072050D01*
X2442222Y-2072050D01*
X2381262Y-2072050D02*
G01*
X2381262Y-2201359D01*
X2381262Y-2108997D02*
G01*
X2353553Y-2081288D01*
X2335080Y-2072050D01*
X2307371Y-2072050D01*
X2288898Y-2081288D01*
X2279662Y-2108997D01*
X2279662Y-2201359D01*
X2279662Y-2108997D02*
G01*
X2251953Y-2081288D01*
X2233480Y-2072050D01*
X2205771Y-2072050D01*
X2187298Y-2081288D01*
X2178062Y-2108997D01*
X2178062Y-2201359D01*
X2006267Y-2072050D02*
G01*
X2006267Y-2201359D01*
X2006267Y-2099759D02*
G01*
X2024738Y-2081288D01*
X2043211Y-2072050D01*
X2070920Y-2072050D01*
X2089393Y-2081288D01*
X2107867Y-2099759D01*
X2117102Y-2127468D01*
X2117102Y-2145941D01*
X2107867Y-2173650D01*
X2089393Y-2192124D01*
X2070920Y-2201359D01*
X2043211Y-2201359D01*
X2024738Y-2192124D01*
X2006267Y-2173650D01*
X1803067Y-2007397D02*
G01*
X1803067Y-2201359D01*
X1803067Y-2007397D02*
G01*
X1673758Y-2201359D01*
X1673758Y-2007397D02*
G01*
X1673758Y-2201359D01*
X1566616Y-2072050D02*
G01*
X1585089Y-2081288D01*
X1603560Y-2099759D01*
X1612798Y-2127468D01*
X1612798Y-2145941D01*
X1603560Y-2173650D01*
X1585089Y-2192124D01*
X1566616Y-2201359D01*
X1538907Y-2201359D01*
X1520433Y-2192124D01*
X1501960Y-2173650D01*
X1492724Y-2145941D01*
X1492724Y-2127468D01*
X1501960Y-2099759D01*
X1520433Y-2081288D01*
X1538907Y-2072050D01*
X1566616Y-2072050D01*
X1431764Y-2072050D02*
G01*
X1431764Y-2201359D01*
X1431764Y-2127468D02*
G01*
X1422529Y-2099759D01*
X1404056Y-2081288D01*
X1385582Y-2072050D01*
X1357873Y-2072050D01*
X1296913Y-2007397D02*
G01*
X1296913Y-2201359D01*
X1296913Y-2099759D02*
G01*
X1278440Y-2081288D01*
X1259969Y-2072050D01*
X1232258Y-2072050D01*
X1213787Y-2081288D01*
X1195313Y-2099759D01*
X1186078Y-2127468D01*
X1186078Y-2145941D01*
X1195313Y-2173650D01*
X1213787Y-2192124D01*
X1232258Y-2201359D01*
X1259969Y-2201359D01*
X1278440Y-2192124D01*
X1296913Y-2173650D01*
X1125118Y-2072050D02*
G01*
X1125118Y-2164415D01*
X1115880Y-2192124D01*
X1097409Y-2201359D01*
X1069698Y-2201359D01*
X1051227Y-2192124D01*
X1023518Y-2164415D01*
X1023518Y-2072050D02*
G01*
X1023518Y-2201359D01*
X3105388Y-1658886D02*
G01*
X2939133Y-1658886D01*
X2878173Y-1548051D02*
G01*
X2878173Y-1742013D01*
X2748864Y-1548051D02*
G01*
X2748864Y-1742013D01*
X2878173Y-1640413D02*
G01*
X2748864Y-1640413D01*
X2641724Y-1612704D02*
G01*
X2660195Y-1621942D01*
X2678668Y-1640413D01*
X2687904Y-1668122D01*
X2687904Y-1686595D01*
X2678668Y-1714304D01*
X2660195Y-1732777D01*
X2641724Y-1742013D01*
X2614013Y-1742013D01*
X2595542Y-1732777D01*
X2577068Y-1714304D01*
X2567833Y-1686595D01*
X2567833Y-1668122D01*
X2577068Y-1640413D01*
X2595542Y-1621942D01*
X2614013Y-1612704D01*
X2641724Y-1612704D01*
X2506873Y-1612704D02*
G01*
X2506873Y-1742013D01*
X2506873Y-1649651D02*
G01*
X2479164Y-1621942D01*
X2460691Y-1612704D01*
X2432982Y-1612704D01*
X2414508Y-1621942D01*
X2405273Y-1649651D01*
X2405273Y-1742013D01*
X2233475Y-1612704D02*
G01*
X2233475Y-1760486D01*
X2242713Y-1788195D01*
X2251948Y-1797433D01*
X2270422Y-1806668D01*
X2298131Y-1806668D01*
X2316604Y-1797433D01*
X2233475Y-1640413D02*
G01*
X2251948Y-1621942D01*
X2270422Y-1612704D01*
X2298131Y-1612704D01*
X2316604Y-1621942D01*
X2335075Y-1640413D01*
X2344313Y-1668122D01*
X2344313Y-1686595D01*
X2335075Y-1714304D01*
X2316604Y-1732777D01*
X2298131Y-1742013D01*
X2270422Y-1742013D01*
X2251948Y-1732777D01*
X2233475Y-1714304D01*
X2163279Y-1612704D02*
G01*
X2107862Y-1742013D01*
X2052444Y-1612704D02*
G01*
X2107862Y-1742013D01*
X2126333Y-1778960D01*
X2144806Y-1797433D01*
X2163279Y-1806668D01*
X2172515Y-1806668D01*
X1991484Y-1612704D02*
G01*
X1991484Y-1705068D01*
X1982246Y-1732777D01*
X1963773Y-1742013D01*
X1936064Y-1742013D01*
X1917593Y-1732777D01*
X1889884Y-1705068D01*
X1889884Y-1612704D02*
G01*
X1889884Y-1742013D01*
X1718086Y-1612704D02*
G01*
X1718086Y-1742013D01*
X1718086Y-1640413D02*
G01*
X1736559Y-1621942D01*
X1755033Y-1612704D01*
X1782742Y-1612704D01*
X1801213Y-1621942D01*
X1819686Y-1640413D01*
X1828924Y-1668122D01*
X1828924Y-1686595D01*
X1819686Y-1714304D01*
X1801213Y-1732777D01*
X1782742Y-1742013D01*
X1755033Y-1742013D01*
X1736559Y-1732777D01*
X1718086Y-1714304D01*
X1657126Y-1612704D02*
G01*
X1657126Y-1742013D01*
X1657126Y-1649651D02*
G01*
X1629417Y-1621942D01*
X1610944Y-1612704D01*
X1583235Y-1612704D01*
X1564764Y-1621942D01*
X1555526Y-1649651D01*
X1555526Y-1742013D01*
X1213782Y-1594233D02*
G01*
X1223017Y-1575760D01*
X1241491Y-1557286D01*
X1259964Y-1548051D01*
X1296908Y-1548051D01*
X1315382Y-1557286D01*
X1333853Y-1575760D01*
X1343091Y-1594233D01*
X1352326Y-1621942D01*
X1352326Y-1668122D01*
X1343091Y-1695833D01*
X1333853Y-1714304D01*
X1315382Y-1732777D01*
X1296908Y-1742013D01*
X1259964Y-1742013D01*
X1241491Y-1732777D01*
X1223017Y-1714304D01*
X1213782Y-1695833D01*
X1152822Y-1548051D02*
G01*
X1152822Y-1742013D01*
X1152822Y-1649651D02*
G01*
X1125113Y-1621942D01*
X1106639Y-1612704D01*
X1078931Y-1612704D01*
X1060457Y-1621942D01*
X1051222Y-1649651D01*
X1051222Y-1742013D01*
X990262Y-1668122D02*
G01*
X879424Y-1668122D01*
X879424Y-1649651D01*
X888662Y-1631177D01*
X897897Y-1621942D01*
X916371Y-1612704D01*
X944079Y-1612704D01*
X962553Y-1621942D01*
X981024Y-1640413D01*
X990262Y-1668122D01*
X990262Y-1686595D01*
X981024Y-1714304D01*
X962553Y-1732777D01*
X944079Y-1742013D01*
X916371Y-1742013D01*
X897897Y-1732777D01*
X879424Y-1714304D01*
X818464Y-1612704D02*
G01*
X818464Y-1742013D01*
X818464Y-1649651D02*
G01*
X790755Y-1621942D01*
X772284Y-1612704D01*
X744573Y-1612704D01*
X726102Y-1621942D01*
X716864Y-1649651D01*
X716864Y-1742013D01*
X3105398Y-159458D02*
G01*
X3105398Y-353420D01*
X3105398Y-159458D02*
G01*
X3040743Y-159458D01*
X3013034Y-168694D01*
X2994563Y-187167D01*
X2985325Y-205640D01*
X2976090Y-233349D01*
X2976090Y-279529D01*
X2985325Y-307240D01*
X2994563Y-325711D01*
X3013034Y-344185D01*
X3040743Y-353420D01*
X3105398Y-353420D01*
X2915130Y-279529D02*
G01*
X2804292Y-279529D01*
X2804292Y-261058D01*
X2813530Y-242585D01*
X2822765Y-233349D01*
X2841238Y-224111D01*
X2868947Y-224111D01*
X2887421Y-233349D01*
X2905892Y-251820D01*
X2915130Y-279529D01*
X2915130Y-298002D01*
X2905892Y-325711D01*
X2887421Y-344185D01*
X2868947Y-353420D01*
X2841238Y-353420D01*
X2822765Y-344185D01*
X2804292Y-325711D01*
X2641732Y-251820D02*
G01*
X2650970Y-233349D01*
X2678678Y-224111D01*
X2706387Y-224111D01*
X2734096Y-233349D01*
X2743332Y-251820D01*
X2734096Y-270294D01*
X2715623Y-279529D01*
X2669443Y-288767D01*
X2650970Y-298002D01*
X2641732Y-316476D01*
X2641732Y-325711D01*
X2650970Y-344185D01*
X2678678Y-353420D01*
X2706387Y-353420D01*
X2734096Y-344185D01*
X2743332Y-325711D01*
X2580772Y-159458D02*
G01*
X2571536Y-168694D01*
X2562301Y-159458D01*
X2571536Y-150220D01*
X2580772Y-159458D01*
X2571536Y-224111D02*
G01*
X2571536Y-353420D01*
X2390503Y-224111D02*
G01*
X2390503Y-371894D01*
X2399741Y-399602D01*
X2408976Y-408840D01*
X2427450Y-418076D01*
X2455158Y-418076D01*
X2473632Y-408840D01*
X2390503Y-251820D02*
G01*
X2408976Y-233349D01*
X2427450Y-224111D01*
X2455158Y-224111D01*
X2473632Y-233349D01*
X2492103Y-251820D01*
X2501341Y-279529D01*
X2501341Y-298002D01*
X2492103Y-325711D01*
X2473632Y-344185D01*
X2455158Y-353420D01*
X2427450Y-353420D01*
X2408976Y-344185D01*
X2390503Y-325711D01*
X2329543Y-224111D02*
G01*
X2329543Y-353420D01*
X2329543Y-261058D02*
G01*
X2301834Y-233349D01*
X2283363Y-224111D01*
X2255652Y-224111D01*
X2237181Y-233349D01*
X2227943Y-261058D01*
X2227943Y-353420D01*
X2024743Y-159458D02*
G01*
X2024743Y-353420D01*
X2024743Y-159458D02*
G01*
X1941616Y-159458D01*
X1913907Y-168694D01*
X1904672Y-177929D01*
X1895434Y-196402D01*
X1895434Y-224111D01*
X1904672Y-242585D01*
X1913907Y-251820D01*
X1941616Y-261058D01*
X2024743Y-261058D01*
X1834474Y-224111D02*
G01*
X1834474Y-353420D01*
X1834474Y-279529D02*
G01*
X1825238Y-251820D01*
X1806765Y-233349D01*
X1788292Y-224111D01*
X1760583Y-224111D01*
X1653443Y-224111D02*
G01*
X1671914Y-233349D01*
X1690387Y-251820D01*
X1699623Y-279529D01*
X1699623Y-298002D01*
X1690387Y-325711D01*
X1671914Y-344185D01*
X1653443Y-353420D01*
X1625732Y-353420D01*
X1607261Y-344185D01*
X1588787Y-325711D01*
X1579552Y-298002D01*
X1579552Y-279529D01*
X1588787Y-251820D01*
X1607261Y-233349D01*
X1625732Y-224111D01*
X1653443Y-224111D01*
X1481645Y-159458D02*
G01*
X1472410Y-168694D01*
X1463172Y-159458D01*
X1472410Y-150220D01*
X1481645Y-159458D01*
X1472410Y-224111D02*
G01*
X1472410Y-381129D01*
X1481645Y-408840D01*
X1500118Y-418076D01*
X1518592Y-418076D01*
X1402212Y-279529D02*
G01*
X1291376Y-279529D01*
X1291376Y-261058D01*
X1300612Y-242585D01*
X1309850Y-233349D01*
X1328323Y-224111D01*
X1356032Y-224111D01*
X1374503Y-233349D01*
X1392976Y-251820D01*
X1402212Y-279529D01*
X1402212Y-298002D01*
X1392976Y-325711D01*
X1374503Y-344185D01*
X1356032Y-353420D01*
X1328323Y-353420D01*
X1309850Y-344185D01*
X1291376Y-325711D01*
X1119581Y-251820D02*
G01*
X1138052Y-233349D01*
X1156525Y-224111D01*
X1184234Y-224111D01*
X1202707Y-233349D01*
X1221181Y-251820D01*
X1230416Y-279529D01*
X1230416Y-298002D01*
X1221181Y-325711D01*
X1202707Y-344185D01*
X1184234Y-353420D01*
X1156525Y-353420D01*
X1138052Y-344185D01*
X1119581Y-325711D01*
X1030912Y-159458D02*
G01*
X1030912Y-316476D01*
X1021674Y-344185D01*
X1003203Y-353420D01*
X984730Y-353420D01*
X1058621Y-224111D02*
G01*
X993965Y-224111D01*
X772292Y-205640D02*
G01*
X772292Y-196402D01*
X763056Y-177929D01*
X753821Y-168694D01*
X735347Y-159458D01*
X698403Y-159458D01*
X679930Y-168694D01*
X670692Y-177929D01*
X661456Y-196402D01*
X661456Y-214876D01*
X670692Y-233349D01*
X689165Y-261058D01*
X781530Y-353420D01*
X652221Y-353420D01*
X535843Y-159458D02*
G01*
X563552Y-168694D01*
X582023Y-196402D01*
X591261Y-242585D01*
X591261Y-270294D01*
X582023Y-316476D01*
X563552Y-344185D01*
X535843Y-353420D01*
X517370Y-353420D01*
X489661Y-344185D01*
X471187Y-316476D01*
X461952Y-270294D01*
X461952Y-242585D01*
X471187Y-196402D01*
X489661Y-168694D01*
X517370Y-159458D01*
X535843Y-159458D01*
X391754Y-205640D02*
G01*
X391754Y-196402D01*
X382518Y-177929D01*
X373283Y-168694D01*
X354810Y-159458D01*
X317863Y-159458D01*
X299392Y-168694D01*
X290154Y-177929D01*
X280918Y-196402D01*
X280918Y-214876D01*
X290154Y-233349D01*
X308627Y-261058D01*
X400992Y-353420D01*
X271683Y-353420D01*
X99885Y-159458D02*
G01*
X192250Y-159458D01*
X201485Y-242585D01*
X192250Y-233349D01*
X164541Y-224111D01*
X136832Y-224111D01*
X109123Y-233349D01*
X90650Y-251820D01*
X81412Y-279529D01*
X81412Y-298002D01*
X90650Y-325711D01*
X109123Y-344185D01*
X136832Y-353420D01*
X164541Y-353420D01*
X192250Y-344185D01*
X201485Y-334949D01*
X210723Y-316476D01*
X20452Y-270294D02*
G01*
X-145801Y-270294D01*
X-336069Y-187167D02*
G01*
X-317596Y-168694D01*
X-289887Y-159458D01*
X-252943Y-159458D01*
X-225234Y-168694D01*
X-206761Y-187167D01*
X-206761Y-205640D01*
X-215996Y-224111D01*
X-225234Y-233349D01*
X-243707Y-242585D01*
X-299125Y-261058D01*
X-317596Y-270294D01*
X-326834Y-279529D01*
X-336069Y-298002D01*
X-336069Y-325711D01*
X-317596Y-344185D01*
X-289887Y-353420D01*
X-252943Y-353420D01*
X-225234Y-344185D01*
X-206761Y-325711D01*
X-406267Y-205640D02*
G01*
X-406267Y-196402D01*
X-415503Y-177929D01*
X-424738Y-168694D01*
X-443212Y-159458D01*
X-480156Y-159458D01*
X-498629Y-168694D01*
X-507867Y-177929D01*
X-517103Y-196402D01*
X-517103Y-214876D01*
X-507867Y-233349D01*
X-489394Y-261058D01*
X-397029Y-353420D01*
X-526338Y-353420D01*
X3134959Y-1052548D02*
G01*
X3134959Y-1246510D01*
X3134959Y-1052548D02*
G01*
X3070303Y-1052548D01*
X3042594Y-1061783D01*
X3024124Y-1080256D01*
X3014886Y-1098730D01*
X3005650Y-1126439D01*
X3005650Y-1172618D01*
X3014886Y-1200330D01*
X3024124Y-1218801D01*
X3042594Y-1237274D01*
X3070303Y-1246510D01*
X3134959Y-1246510D01*
X2944690Y-1172618D02*
G01*
X2833855Y-1172618D01*
X2833855Y-1154148D01*
X2843090Y-1135674D01*
X2852326Y-1126439D01*
X2870799Y-1117201D01*
X2898508Y-1117201D01*
X2916981Y-1126439D01*
X2935455Y-1144910D01*
X2944690Y-1172618D01*
X2944690Y-1191092D01*
X2935455Y-1218801D01*
X2916981Y-1237274D01*
X2898508Y-1246510D01*
X2870799Y-1246510D01*
X2852326Y-1237274D01*
X2833855Y-1218801D01*
X2671295Y-1144910D02*
G01*
X2680530Y-1126439D01*
X2708239Y-1117201D01*
X2735948Y-1117201D01*
X2763657Y-1126439D01*
X2772895Y-1144910D01*
X2763657Y-1163383D01*
X2745183Y-1172618D01*
X2699004Y-1181856D01*
X2680530Y-1191092D01*
X2671295Y-1209565D01*
X2671295Y-1218801D01*
X2680530Y-1237274D01*
X2708239Y-1246510D01*
X2735948Y-1246510D01*
X2763657Y-1237274D01*
X2772895Y-1218801D01*
X2610335Y-1052548D02*
G01*
X2601097Y-1061783D01*
X2591861Y-1052548D01*
X2601097Y-1043310D01*
X2610335Y-1052548D01*
X2601097Y-1117201D02*
G01*
X2601097Y-1246510D01*
X2420063Y-1117201D02*
G01*
X2420063Y-1264983D01*
X2429301Y-1292692D01*
X2438537Y-1301930D01*
X2457010Y-1311165D01*
X2484719Y-1311165D01*
X2503192Y-1301930D01*
X2420063Y-1144910D02*
G01*
X2438537Y-1126439D01*
X2457010Y-1117201D01*
X2484719Y-1117201D01*
X2503192Y-1126439D01*
X2521663Y-1144910D01*
X2530901Y-1172618D01*
X2530901Y-1191092D01*
X2521663Y-1218801D01*
X2503192Y-1237274D01*
X2484719Y-1246510D01*
X2457010Y-1246510D01*
X2438537Y-1237274D01*
X2420063Y-1218801D01*
X2359103Y-1117201D02*
G01*
X2359103Y-1246510D01*
X2359103Y-1154148D02*
G01*
X2331394Y-1126439D01*
X2312924Y-1117201D01*
X2285215Y-1117201D01*
X2266741Y-1126439D01*
X2257503Y-1154148D01*
X2257503Y-1246510D01*
X2196543Y-1172618D02*
G01*
X2085708Y-1172618D01*
X2085708Y-1154148D01*
X2094943Y-1135674D01*
X2104181Y-1126439D01*
X2122655Y-1117201D01*
X2150364Y-1117201D01*
X2168834Y-1126439D01*
X2187308Y-1144910D01*
X2196543Y-1172618D01*
X2196543Y-1191092D01*
X2187308Y-1218801D01*
X2168834Y-1237274D01*
X2150364Y-1246510D01*
X2122655Y-1246510D01*
X2104181Y-1237274D01*
X2085708Y-1218801D01*
X1913912Y-1052548D02*
G01*
X1913912Y-1246510D01*
X1913912Y-1144910D02*
G01*
X1932383Y-1126439D01*
X1950857Y-1117201D01*
X1978566Y-1117201D01*
X1997039Y-1126439D01*
X2015512Y-1144910D01*
X2024748Y-1172618D01*
X2024748Y-1191092D01*
X2015512Y-1218801D01*
X1997039Y-1237274D01*
X1978566Y-1246510D01*
X1950857Y-1246510D01*
X1932383Y-1237274D01*
X1913912Y-1218801D01*
X1710712Y-1052548D02*
G01*
X1710712Y-1246510D01*
X1710712Y-1144910D02*
G01*
X1692239Y-1126439D01*
X1673766Y-1117201D01*
X1646057Y-1117201D01*
X1627583Y-1126439D01*
X1609112Y-1144910D01*
X1599874Y-1172618D01*
X1599874Y-1191092D01*
X1609112Y-1218801D01*
X1627583Y-1237274D01*
X1646057Y-1246510D01*
X1673766Y-1246510D01*
X1692239Y-1237274D01*
X1710712Y-1218801D01*
X1529679Y-1117201D02*
G01*
X1474261Y-1246510D01*
X1418844Y-1117201D02*
G01*
X1474261Y-1246510D01*
X1492735Y-1283456D01*
X1511206Y-1301930D01*
X1529679Y-1311165D01*
X1538914Y-1311165D01*
X1339410Y-1209565D02*
G01*
X1348646Y-1218801D01*
X1357884Y-1209565D01*
X1348646Y-1200330D01*
X1339410Y-1209565D01*
X1339410Y-1228039D01*
X1357884Y-1246510D01*
D11*
X-1399997Y1269992D02*
G01*
X3499995Y1269992D01*
X3819999Y949995D02*
G01*
X3819999Y-3949992D01*
X-1719988Y-3949992D02*
G01*
X-1719988Y949995D01*
X3499995Y-4269996D02*
G01*
X-1399997Y-4269996D01*
G75*
G01*
X-1399995Y-4269994D02*
G02*
X-1719994Y-3949995I0J319999D01*
G75*
G01*
X3819995Y-3949995D02*
G02*
X3499996Y-4269994I-319999J0D01*
G75*
G01*
X-1719994Y949996D02*
G02*
X-1399995Y1269995I319999J0D01*
G75*
G01*
X3499996Y1269995D02*
G02*
X3819995Y949996I0J-319999D01*
M02*
