G04 Layer: TopPasteMaskLayer*
G04 EasyEDA v6.5.51, 2025-10-19 23:19:45*
G04 7b2d1a5a50ca49e0b1e0c3d03fbfd553,f84f62d461a54663ae58951fd378ab02,10*
G04 Gerber Generator version 0.2*
G04 Scale: 100 percent, Rotated: No, Reflected: No *
G04 Dimensions in millimeters *
G04 leading zeros omitted , absolute positions ,4 integer and 5 decimal *
%FSLAX45Y45*%
%MOMM*%

%AMMACRO1*21,1,$1,$2,0,0,$3*%
%ADD10R,0.4000X0.5100*%
%ADD11R,0.8000X0.9000*%
%ADD12R,0.8000X0.8000*%
%ADD13R,1.0000X0.8000*%
%ADD14R,1.7000X0.8000*%
%ADD15R,0.0189X0.8000*%
%ADD16R,0.8000X1.7000*%
%ADD17R,1.1000X0.6000*%
%ADD18R,1.1000X2.5000*%
%ADD19MACRO1,3.6X2.34X0.0000*%
%ADD20R,0.9000X1.5000*%
%ADD21R,1.5000X0.9000*%
%ADD22R,0.9000X0.9000*%
%ADD23R,1.3000X1.3000*%
%ADD24R,0.2500X0.5210*%
%ADD25R,1.6000X0.9000*%
%ADD26O,0.489991X0.910006*%
%ADD27MACRO1,1.9X1.2X0.0000*%
%ADD28R,1.3000X1.6000*%
%ADD29R,2.0000X1.6000*%

%LPD*%
G36*
X2427020Y-548487D02*
G01*
X2423007Y-552500D01*
X2423007Y-602538D01*
X2427020Y-606552D01*
X2472994Y-606552D01*
X2477008Y-602538D01*
X2477008Y-552500D01*
X2472994Y-548487D01*
G37*
G36*
X2427020Y-463448D02*
G01*
X2423007Y-467461D01*
X2423007Y-517499D01*
X2427020Y-521512D01*
X2472994Y-521512D01*
X2477008Y-517499D01*
X2477008Y-467461D01*
X2472994Y-463448D01*
G37*
G36*
X965098Y-1021587D02*
G01*
X960119Y-1028598D01*
X960119Y-1076604D01*
X965098Y-1081582D01*
X1010107Y-1081582D01*
X1015085Y-1076604D01*
X1015085Y-1028598D01*
X1010107Y-1021587D01*
G37*
G36*
X965098Y-925576D02*
G01*
X960119Y-930605D01*
X960119Y-978611D01*
X965098Y-985570D01*
X1010107Y-985570D01*
X1015085Y-978611D01*
X1015085Y-930605D01*
X1010107Y-925576D01*
G37*
G36*
X-482701Y-620776D02*
G01*
X-487680Y-625805D01*
X-487680Y-673811D01*
X-482701Y-680770D01*
X-437692Y-680770D01*
X-432714Y-673811D01*
X-432714Y-625805D01*
X-437692Y-620776D01*
G37*
G36*
X-482701Y-716788D02*
G01*
X-487680Y-723798D01*
X-487680Y-771804D01*
X-482701Y-776782D01*
X-437692Y-776782D01*
X-432714Y-771804D01*
X-432714Y-723798D01*
X-437692Y-716788D01*
G37*
G36*
X-114401Y-716788D02*
G01*
X-119380Y-723798D01*
X-119380Y-771804D01*
X-114401Y-776782D01*
X-69392Y-776782D01*
X-64414Y-771804D01*
X-64414Y-723798D01*
X-69392Y-716788D01*
G37*
G36*
X-114401Y-620776D02*
G01*
X-119380Y-625805D01*
X-119380Y-673811D01*
X-114401Y-680770D01*
X-69392Y-680770D01*
X-64414Y-673811D01*
X-64414Y-625805D01*
X-69392Y-620776D01*
G37*
G36*
X-266801Y-620776D02*
G01*
X-271780Y-625805D01*
X-271780Y-673811D01*
X-266801Y-680770D01*
X-221792Y-680770D01*
X-216814Y-673811D01*
X-216814Y-625805D01*
X-221792Y-620776D01*
G37*
G36*
X-266801Y-716788D02*
G01*
X-271780Y-723798D01*
X-271780Y-771804D01*
X-266801Y-776782D01*
X-221792Y-776782D01*
X-216814Y-771804D01*
X-216814Y-723798D01*
X-221792Y-716788D01*
G37*
G36*
X-153009Y-1325727D02*
G01*
X-156972Y-1329740D01*
X-156972Y-1379778D01*
X-153009Y-1383792D01*
X-106984Y-1383792D01*
X-102971Y-1379778D01*
X-102971Y-1329740D01*
X-106984Y-1325727D01*
G37*
G36*
X-153009Y-1410817D02*
G01*
X-156972Y-1414780D01*
X-156972Y-1464868D01*
X-153009Y-1468882D01*
X-106984Y-1468882D01*
X-102971Y-1464868D01*
X-102971Y-1414780D01*
X-106984Y-1410817D01*
G37*
G36*
X128828Y-1116279D02*
G01*
X124815Y-1120292D01*
X124815Y-1166317D01*
X128828Y-1170279D01*
X178866Y-1170279D01*
X182880Y-1166317D01*
X182880Y-1120292D01*
X178866Y-1116279D01*
G37*
G36*
X43738Y-1116279D02*
G01*
X39725Y-1120292D01*
X39725Y-1166317D01*
X43738Y-1170279D01*
X93827Y-1170279D01*
X97790Y-1166317D01*
X97790Y-1120292D01*
X93827Y-1116279D01*
G37*
G36*
X-274218Y-960983D02*
G01*
X-274218Y-1097026D01*
X-138226Y-1097026D01*
X-138226Y-960983D01*
G37*
G36*
X-98704Y-1091488D02*
G01*
X-98704Y-1116482D01*
X-23723Y-1116482D01*
X-23723Y-1091488D01*
G37*
G36*
X-98704Y-1041501D02*
G01*
X-98704Y-1066495D01*
X-23723Y-1066495D01*
X-23723Y-1041501D01*
G37*
G36*
X-98704Y-991514D02*
G01*
X-98704Y-1016508D01*
X-23723Y-1016508D01*
X-23723Y-991514D01*
G37*
G36*
X-98704Y-941527D02*
G01*
X-98704Y-966520D01*
X-23723Y-966520D01*
X-23723Y-941527D01*
G37*
G36*
X-388670Y-1091488D02*
G01*
X-388670Y-1116482D01*
X-313690Y-1116482D01*
X-313690Y-1091488D01*
G37*
G36*
X-388670Y-1041501D02*
G01*
X-388670Y-1066495D01*
X-313690Y-1066495D01*
X-313690Y-1041501D01*
G37*
G36*
X-388670Y-991514D02*
G01*
X-388670Y-1016508D01*
X-313690Y-1016508D01*
X-313690Y-991514D01*
G37*
G36*
X-388670Y-941527D02*
G01*
X-388670Y-966520D01*
X-313690Y-966520D01*
X-313690Y-941527D01*
G37*
G36*
X-143764Y-1136497D02*
G01*
X-143764Y-1211529D01*
X-118770Y-1211529D01*
X-118770Y-1136497D01*
G37*
G36*
X-193751Y-1136497D02*
G01*
X-193751Y-1211529D01*
X-168757Y-1211529D01*
X-168757Y-1136497D01*
G37*
G36*
X-243789Y-1136497D02*
G01*
X-243789Y-1211529D01*
X-218795Y-1211529D01*
X-218795Y-1136497D01*
G37*
G36*
X-293776Y-1136497D02*
G01*
X-293776Y-1211529D01*
X-268782Y-1211529D01*
X-268782Y-1136497D01*
G37*
G36*
X-143865Y-846531D02*
G01*
X-143865Y-921512D01*
X-118872Y-921512D01*
X-118872Y-846531D01*
G37*
G36*
X-193852Y-846531D02*
G01*
X-193852Y-921512D01*
X-168859Y-921512D01*
X-168859Y-846531D01*
G37*
G36*
X-243840Y-846531D02*
G01*
X-243840Y-921512D01*
X-218846Y-921512D01*
X-218846Y-846531D01*
G37*
G36*
X-293827Y-846531D02*
G01*
X-293827Y-921512D01*
X-268833Y-921512D01*
X-268833Y-846531D01*
G37*
G36*
X777087Y-1137208D02*
G01*
X736092Y-1137716D01*
X731113Y-1142695D01*
X731113Y-1257706D01*
X736092Y-1262684D01*
X864108Y-1262684D01*
X869086Y-1257706D01*
X869086Y-1142695D01*
X864108Y-1137716D01*
X822096Y-1138174D01*
X822096Y-1182217D01*
X777087Y-1182217D01*
G37*
G36*
X736092Y-921715D02*
G01*
X731113Y-926693D01*
X731113Y-1041704D01*
X736092Y-1046683D01*
X778103Y-1046226D01*
X778103Y-1002182D01*
X823112Y-1002182D01*
X823112Y-1047191D01*
X864108Y-1046683D01*
X869086Y-1041704D01*
X869086Y-926693D01*
X864108Y-921715D01*
G37*
G36*
X1265478Y-3661003D02*
G01*
X1260500Y-3665982D01*
X1261008Y-3707993D01*
X1305001Y-3707993D01*
X1305001Y-3753002D01*
X1259992Y-3753002D01*
X1260500Y-3793998D01*
X1265478Y-3798976D01*
X1380490Y-3798976D01*
X1385519Y-3793998D01*
X1385519Y-3665982D01*
X1380490Y-3661003D01*
G37*
G36*
X1049477Y-3661003D02*
G01*
X1044498Y-3665982D01*
X1044498Y-3793998D01*
X1049477Y-3798976D01*
X1164488Y-3798976D01*
X1169517Y-3793998D01*
X1169009Y-3751986D01*
X1125016Y-3751986D01*
X1125016Y-3706977D01*
X1170025Y-3706977D01*
X1169517Y-3665982D01*
X1164488Y-3661003D01*
G37*
G36*
X1624380Y-3619093D02*
G01*
X1619402Y-3624072D01*
X1619402Y-3672078D01*
X1624380Y-3679088D01*
X1669389Y-3679088D01*
X1674368Y-3672078D01*
X1674368Y-3624072D01*
X1669389Y-3619093D01*
G37*
G36*
X1624380Y-3715105D02*
G01*
X1619402Y-3722115D01*
X1619402Y-3770071D01*
X1624380Y-3775100D01*
X1669389Y-3775100D01*
X1674368Y-3770071D01*
X1674368Y-3722115D01*
X1669389Y-3715105D01*
G37*
G36*
X1276197Y-3537407D02*
G01*
X1269187Y-3542385D01*
X1269187Y-3587394D01*
X1276197Y-3592423D01*
X1324203Y-3592423D01*
X1329182Y-3587394D01*
X1329182Y-3542385D01*
X1324203Y-3537407D01*
G37*
G36*
X1178204Y-3537407D02*
G01*
X1173226Y-3542385D01*
X1173226Y-3587394D01*
X1178204Y-3592423D01*
X1226210Y-3592423D01*
X1233220Y-3587394D01*
X1233220Y-3542385D01*
X1226210Y-3537407D01*
G37*
G36*
X2632506Y-726998D02*
G01*
X2627477Y-731977D01*
X2627477Y-779983D01*
X2632506Y-786993D01*
X2677515Y-786993D01*
X2682494Y-779983D01*
X2682494Y-731977D01*
X2677515Y-726998D01*
G37*
G36*
X2632506Y-823010D02*
G01*
X2627477Y-830021D01*
X2627477Y-877976D01*
X2632506Y-883005D01*
X2677515Y-883005D01*
X2682494Y-877976D01*
X2682494Y-830021D01*
X2677515Y-823010D01*
G37*
G36*
X3336696Y-1509522D02*
G01*
X3329686Y-1514500D01*
X3329686Y-1559509D01*
X3336696Y-1564487D01*
X3384702Y-1564487D01*
X3389731Y-1559509D01*
X3389731Y-1514500D01*
X3384702Y-1509522D01*
G37*
G36*
X3238703Y-1509522D02*
G01*
X3233724Y-1514500D01*
X3233724Y-1559509D01*
X3238703Y-1564487D01*
X3286709Y-1564487D01*
X3293719Y-1559509D01*
X3293719Y-1514500D01*
X3286709Y-1509522D01*
G37*
G36*
X2006803Y-1001471D02*
G01*
X2001824Y-1006500D01*
X2001824Y-1051509D01*
X2006803Y-1056487D01*
X2054809Y-1056487D01*
X2061819Y-1051509D01*
X2061819Y-1006500D01*
X2054809Y-1001471D01*
G37*
G36*
X2104796Y-1001471D02*
G01*
X2097786Y-1006500D01*
X2097786Y-1051509D01*
X2104796Y-1056487D01*
X2152802Y-1056487D01*
X2157780Y-1051509D01*
X2157780Y-1006500D01*
X2152802Y-1001471D01*
G37*
G36*
X2512517Y-726998D02*
G01*
X2507488Y-731977D01*
X2507488Y-779983D01*
X2512517Y-786993D01*
X2557475Y-786993D01*
X2562504Y-779983D01*
X2562504Y-731977D01*
X2557475Y-726998D01*
G37*
G36*
X2512517Y-823010D02*
G01*
X2507488Y-830021D01*
X2507488Y-877976D01*
X2512517Y-883005D01*
X2557475Y-883005D01*
X2562504Y-877976D01*
X2562504Y-830021D01*
X2557475Y-823010D01*
G37*
G36*
X2006803Y-1128471D02*
G01*
X2001824Y-1133500D01*
X2001824Y-1178509D01*
X2006803Y-1183487D01*
X2054809Y-1183487D01*
X2061819Y-1178509D01*
X2061819Y-1133500D01*
X2054809Y-1128471D01*
G37*
G36*
X2104796Y-1128471D02*
G01*
X2097786Y-1133500D01*
X2097786Y-1178509D01*
X2104796Y-1183487D01*
X2152802Y-1183487D01*
X2157780Y-1178509D01*
X2157780Y-1133500D01*
X2152802Y-1128471D01*
G37*
G36*
X2666898Y-1300988D02*
G01*
X2661920Y-1307998D01*
X2661920Y-1356004D01*
X2666898Y-1360982D01*
X2711907Y-1360982D01*
X2716885Y-1356004D01*
X2716885Y-1307998D01*
X2711907Y-1300988D01*
G37*
G36*
X2666898Y-1204976D02*
G01*
X2661920Y-1210005D01*
X2661920Y-1258011D01*
X2666898Y-1264970D01*
X2711907Y-1264970D01*
X2716885Y-1258011D01*
X2716885Y-1210005D01*
X2711907Y-1204976D01*
G37*
G36*
X2547518Y-446989D02*
G01*
X2542489Y-452018D01*
X2542489Y-499973D01*
X2547518Y-506984D01*
X2592476Y-506984D01*
X2597505Y-499973D01*
X2597505Y-452018D01*
X2592476Y-446989D01*
G37*
G36*
X2547518Y-543001D02*
G01*
X2542489Y-550011D01*
X2542489Y-598017D01*
X2547518Y-602996D01*
X2592476Y-602996D01*
X2597505Y-598017D01*
X2597505Y-550011D01*
X2592476Y-543001D01*
G37*
G36*
X2167483Y-753008D02*
G01*
X2162505Y-760018D01*
X2162505Y-808024D01*
X2167483Y-813003D01*
X2212492Y-813003D01*
X2217470Y-808024D01*
X2217470Y-760018D01*
X2212492Y-753008D01*
G37*
G36*
X2167483Y-656996D02*
G01*
X2162505Y-662025D01*
X2162505Y-709980D01*
X2167483Y-716991D01*
X2212492Y-716991D01*
X2217470Y-709980D01*
X2217470Y-662025D01*
X2212492Y-656996D01*
G37*
G36*
X-329996Y-2741371D02*
G01*
X-334975Y-2746400D01*
X-334975Y-2791409D01*
X-329996Y-2796387D01*
X-281990Y-2796387D01*
X-274980Y-2791409D01*
X-274980Y-2746400D01*
X-281990Y-2741371D01*
G37*
G36*
X-232003Y-2741371D02*
G01*
X-239014Y-2746400D01*
X-239014Y-2791409D01*
X-232003Y-2796387D01*
X-183997Y-2796387D01*
X-179019Y-2791409D01*
X-179019Y-2746400D01*
X-183997Y-2741371D01*
G37*
G36*
X110896Y-2741422D02*
G01*
X103885Y-2746400D01*
X103885Y-2791409D01*
X110896Y-2796387D01*
X158902Y-2796387D01*
X163931Y-2791409D01*
X163931Y-2746400D01*
X158902Y-2741422D01*
G37*
G36*
X12903Y-2741422D02*
G01*
X7924Y-2746400D01*
X7924Y-2791409D01*
X12903Y-2796387D01*
X60909Y-2796387D01*
X67919Y-2791409D01*
X67919Y-2746400D01*
X60909Y-2741422D01*
G37*
G36*
X-478790Y-1706473D02*
G01*
X-488797Y-1716481D01*
X-488797Y-1785620D01*
X-478790Y-1795576D01*
X-443230Y-1795576D01*
X-433222Y-1805584D01*
X-433222Y-1877415D01*
X-443230Y-1887423D01*
X-478790Y-1887423D01*
X-488797Y-1897380D01*
X-488797Y-1966518D01*
X-478790Y-1976526D01*
X-335280Y-1976526D01*
X-325323Y-1966518D01*
X-325323Y-1716481D01*
X-335280Y-1706473D01*
G37*
G36*
X-782320Y-1706473D02*
G01*
X-792276Y-1716481D01*
X-792276Y-1966518D01*
X-782320Y-1976526D01*
X-638810Y-1976526D01*
X-628802Y-1966518D01*
X-628802Y-1897380D01*
X-638810Y-1887423D01*
X-674370Y-1887423D01*
X-684377Y-1877415D01*
X-684377Y-1805584D01*
X-674370Y-1795576D01*
X-638810Y-1795576D01*
X-628802Y-1785620D01*
X-628802Y-1716481D01*
X-638810Y-1706473D01*
G37*
G36*
X1484172Y-3697884D02*
G01*
X1480210Y-3701897D01*
X1480210Y-3751935D01*
X1484172Y-3755948D01*
X1530197Y-3755948D01*
X1534210Y-3751935D01*
X1534210Y-3701897D01*
X1530197Y-3697884D01*
G37*
G36*
X1484172Y-3612845D02*
G01*
X1480210Y-3616807D01*
X1480210Y-3666896D01*
X1484172Y-3670909D01*
X1530197Y-3670909D01*
X1534210Y-3666896D01*
X1534210Y-3616807D01*
X1530197Y-3612845D01*
G37*
G36*
X3255721Y-2196896D02*
G01*
X3251708Y-2200910D01*
X3251708Y-2246884D01*
X3255721Y-2250897D01*
X3305810Y-2250897D01*
X3309772Y-2246884D01*
X3309772Y-2200910D01*
X3305810Y-2196896D01*
G37*
G36*
X3340811Y-2196896D02*
G01*
X3336798Y-2200910D01*
X3336798Y-2246884D01*
X3340811Y-2250897D01*
X3390849Y-2250897D01*
X3394862Y-2246884D01*
X3394862Y-2200910D01*
X3390849Y-2196896D01*
G37*
G36*
X2306980Y-548487D02*
G01*
X2303018Y-552500D01*
X2303018Y-602538D01*
X2306980Y-606552D01*
X2353005Y-606552D01*
X2357018Y-602538D01*
X2357018Y-552500D01*
X2353005Y-548487D01*
G37*
G36*
X2306980Y-463448D02*
G01*
X2303018Y-467461D01*
X2303018Y-517499D01*
X2306980Y-521512D01*
X2353005Y-521512D01*
X2357018Y-517499D01*
X2357018Y-467461D01*
X2353005Y-463448D01*
G37*
G36*
X2033828Y-709879D02*
G01*
X2029815Y-713892D01*
X2029815Y-759917D01*
X2033828Y-763879D01*
X2083866Y-763879D01*
X2087880Y-759917D01*
X2087880Y-713892D01*
X2083866Y-709879D01*
G37*
G36*
X1948738Y-709879D02*
G01*
X1944725Y-713892D01*
X1944725Y-759917D01*
X1948738Y-763879D01*
X1998827Y-763879D01*
X2002789Y-759917D01*
X2002789Y-713892D01*
X1998827Y-709879D01*
G37*
G36*
X-1165860Y513384D02*
G01*
X-1169873Y509371D01*
X-1169873Y463397D01*
X-1165860Y459384D01*
X-1115822Y459384D01*
X-1111808Y463397D01*
X-1111808Y509371D01*
X-1115822Y513384D01*
G37*
G36*
X-1080820Y513384D02*
G01*
X-1084783Y509371D01*
X-1084783Y463397D01*
X-1080820Y459384D01*
X-1030732Y459384D01*
X-1026718Y463397D01*
X-1026718Y509371D01*
X-1030732Y513384D01*
G37*
G36*
X2033828Y-582879D02*
G01*
X2029815Y-586892D01*
X2029815Y-632917D01*
X2033828Y-636879D01*
X2083866Y-636879D01*
X2087880Y-632917D01*
X2087880Y-586892D01*
X2083866Y-582879D01*
G37*
G36*
X1948738Y-582879D02*
G01*
X1944725Y-586892D01*
X1944725Y-632917D01*
X1948738Y-636879D01*
X1998827Y-636879D01*
X2002789Y-632917D01*
X2002789Y-586892D01*
X1998827Y-582879D01*
G37*
G36*
X2522474Y-988009D02*
G01*
X2518511Y-991971D01*
X2518511Y-1037996D01*
X2522474Y-1042009D01*
X2572562Y-1042009D01*
X2576576Y-1037996D01*
X2576576Y-991971D01*
X2572562Y-988009D01*
G37*
G36*
X2437434Y-988009D02*
G01*
X2433421Y-991971D01*
X2433421Y-1037996D01*
X2437434Y-1042009D01*
X2487472Y-1042009D01*
X2491486Y-1037996D01*
X2491486Y-991971D01*
X2487472Y-988009D01*
G37*
G36*
X847090Y-223418D02*
G01*
X842111Y-228396D01*
X842619Y-270408D01*
X886612Y-270408D01*
X886612Y-315366D01*
X841603Y-315366D01*
X842111Y-356412D01*
X847090Y-361391D01*
X962101Y-361391D01*
X967130Y-356412D01*
X967130Y-228396D01*
X962101Y-223418D01*
G37*
G36*
X632104Y-223418D02*
G01*
X627126Y-228396D01*
X627126Y-356412D01*
X632104Y-361391D01*
X747115Y-361391D01*
X752094Y-356412D01*
X751586Y-315366D01*
X707593Y-315366D01*
X707593Y-270408D01*
X752094Y-270408D01*
X752094Y-228396D01*
X747115Y-223418D01*
G37*
G36*
X-39979Y490474D02*
G01*
X-45008Y485495D01*
X-45008Y405485D01*
X-39979Y400507D01*
X39979Y400507D01*
X45008Y405485D01*
X45008Y485495D01*
X39979Y490474D01*
X17221Y490474D01*
X17221Y453491D01*
X-15798Y453491D01*
X-15798Y490474D01*
G37*
G36*
X-39979Y649478D02*
G01*
X-45008Y644499D01*
X-45008Y564489D01*
X-39979Y559511D01*
X-17221Y559511D01*
X-17221Y596493D01*
X15798Y596493D01*
X15798Y559511D01*
X39979Y559511D01*
X45008Y564489D01*
X45008Y644499D01*
X39979Y649478D01*
G37*
D10*
G01*
X35102Y-1386103D03*
G01*
X85115Y-1256106D03*
G01*
X-14884Y-1256106D03*
G01*
X35102Y-1589303D03*
G01*
X85115Y-1459306D03*
G01*
X-14884Y-1459306D03*
D11*
G01*
X-199694Y-2616504D03*
G01*
X-339699Y-2616504D03*
G01*
X28600Y-2616504D03*
G01*
X168605Y-2616504D03*
D12*
G01*
X3729685Y-2659506D03*
G01*
X3729685Y-2499487D03*
D13*
G01*
X696214Y94716D03*
G01*
X466217Y-279D03*
G01*
X696214Y-95300D03*
D14*
G01*
X3259785Y-2000199D03*
G01*
X3259785Y-1660194D03*
D16*
G01*
X1794383Y-3709796D03*
G01*
X2134387Y-3709796D03*
D17*
G01*
X2557703Y-1149908D03*
G01*
X2557703Y-1244904D03*
G01*
X2557703Y-1339900D03*
G01*
X2287701Y-1339900D03*
G01*
X2287701Y-1244904D03*
G01*
X2287701Y-1149908D03*
D18*
G01*
X252399Y-2979902D03*
G01*
X22402Y-2979902D03*
G01*
X-207594Y-2979902D03*
D19*
G01*
X22405Y-3573896D03*
D20*
G01*
X1187526Y-3407282D03*
G01*
X1314526Y-3407282D03*
G01*
X1441526Y-3407282D03*
G01*
X1568526Y-3407282D03*
G01*
X1695526Y-3407282D03*
G01*
X1822526Y-3407282D03*
G01*
X1949526Y-3407282D03*
G01*
X2076526Y-3407282D03*
G01*
X2203526Y-3407282D03*
G01*
X2330526Y-3407282D03*
G01*
X2457526Y-3407282D03*
G01*
X2584526Y-3407282D03*
G01*
X2711526Y-3407282D03*
G01*
X2838526Y-3407282D03*
D21*
G01*
X2966516Y-3230778D03*
G01*
X2966516Y-3103778D03*
G01*
X2966516Y-2976778D03*
G01*
X2966516Y-2849778D03*
G01*
X2966516Y-2722778D03*
G01*
X2966516Y-2595778D03*
G01*
X2966516Y-2468778D03*
G01*
X2966516Y-2341778D03*
G01*
X2966516Y-2214778D03*
G01*
X2966516Y-2087778D03*
G01*
X2966516Y-1960778D03*
G01*
X2963519Y-1833778D03*
D20*
G01*
X2838526Y-1657299D03*
G01*
X2711526Y-1657299D03*
G01*
X2584526Y-1657299D03*
G01*
X2457526Y-1657299D03*
G01*
X2330526Y-1657299D03*
G01*
X2203526Y-1657299D03*
G01*
X2076526Y-1657299D03*
G01*
X1949526Y-1657299D03*
G01*
X1822526Y-1657299D03*
G01*
X1695526Y-1657299D03*
G01*
X1568526Y-1657299D03*
G01*
X1441526Y-1657299D03*
G01*
X1314526Y-1657299D03*
G01*
X1187526Y-1657299D03*
D22*
G01*
X2099538Y-2542311D03*
G01*
X2099538Y-2682290D03*
G01*
X2099538Y-2822295D03*
G01*
X1819529Y-2822295D03*
G01*
X1819529Y-2682290D03*
G01*
X1819529Y-2542311D03*
G01*
X1959533Y-2542311D03*
G01*
X1959533Y-2822295D03*
G01*
X1959533Y-2682290D03*
D23*
G01*
X-201294Y-2311704D03*
G01*
X-541273Y-2311704D03*
D24*
G01*
X2436190Y-672490D03*
G01*
X2386203Y-672490D03*
G01*
X2336190Y-672490D03*
G01*
X2286203Y-672490D03*
G01*
X2286203Y-862482D03*
G01*
X2336190Y-862482D03*
G01*
X2386203Y-862482D03*
G01*
X2436190Y-862482D03*
D25*
G01*
X2361184Y-767486D03*
D26*
G01*
X803732Y-801014D03*
G01*
X898728Y-801014D03*
G01*
X993724Y-801014D03*
G01*
X993724Y-494995D03*
G01*
X898728Y-494995D03*
G01*
X803732Y-494995D03*
D27*
G01*
X898709Y-647997D03*
D28*
G01*
X3157296Y-1049096D03*
G01*
X2907309Y-1049096D03*
D29*
G01*
X3032302Y-1339087D03*
D12*
G01*
X-1631695Y490143D03*
G01*
X-1631695Y330225D03*
M02*
