G04 Layer: BottomLayer*
G04 EasyEDA v6.5.51, 2025-10-19 23:19:45*
G04 7b2d1a5a50ca49e0b1e0c3d03fbfd553,f84f62d461a54663ae58951fd378ab02,10*
G04 Gerber Generator version 0.2*
G04 Scale: 100 percent, Rotated: No, Reflected: No *
G04 Dimensions in millimeters *
G04 leading zeros omitted , absolute positions ,4 integer and 5 decimal *
%FSLAX45Y45*%
%MOMM*%

%ADD10C,0.3000*%
%ADD11C,0.4000*%
%ADD12C,0.2540*%
%ADD13C,0.5000*%
%ADD14O,1.999996X1.999996*%
%ADD15C,1.5240*%
%ADD16C,3.3000*%
%ADD17O,1.599946X1.199896*%
%ADD18C,1.3000*%
%ADD19C,0.0106*%
%ADD20C,1.1000*%
%ADD21O,1.099998X1.099998*%
%ADD22C,0.6200*%

%LPD*%
G36*
X-1399184Y-4309465D02*
G01*
X-1424838Y-4308602D01*
X-1449273Y-4306062D01*
X-1473454Y-4301845D01*
X-1497279Y-4296003D01*
X-1520647Y-4288586D01*
X-1543507Y-4279544D01*
X-1565656Y-4268978D01*
X-1587042Y-4256938D01*
X-1607566Y-4243476D01*
X-1627073Y-4228592D01*
X-1645564Y-4212437D01*
X-1662887Y-4195064D01*
X-1679041Y-4176572D01*
X-1693824Y-4157014D01*
X-1707286Y-4136440D01*
X-1719275Y-4115054D01*
X-1729790Y-4092905D01*
X-1738782Y-4070045D01*
X-1746199Y-4046626D01*
X-1751990Y-4022801D01*
X-1756105Y-3998620D01*
X-1758594Y-3974185D01*
X-1759457Y-3949141D01*
X-1759457Y949147D01*
X-1758543Y974852D01*
X-1756003Y999286D01*
X-1751838Y1023467D01*
X-1745996Y1047292D01*
X-1738528Y1070711D01*
X-1729536Y1093520D01*
X-1718970Y1115669D01*
X-1706930Y1137056D01*
X-1693418Y1157579D01*
X-1678584Y1177086D01*
X-1662480Y1195578D01*
X-1645056Y1212951D01*
X-1626565Y1229055D01*
X-1606956Y1243838D01*
X-1586433Y1257300D01*
X-1565046Y1269288D01*
X-1542846Y1279804D01*
X-1520037Y1288796D01*
X-1496618Y1296212D01*
X-1472742Y1302004D01*
X-1448562Y1306169D01*
X-1424178Y1308608D01*
X-1399184Y1309471D01*
X3499154Y1309471D01*
X3524910Y1308608D01*
X3549294Y1306068D01*
X3573475Y1301851D01*
X3597351Y1296009D01*
X3620719Y1288592D01*
X3643528Y1279550D01*
X3665677Y1268984D01*
X3687064Y1256944D01*
X3707587Y1243431D01*
X3727145Y1228598D01*
X3745636Y1212443D01*
X3762959Y1195070D01*
X3779062Y1176578D01*
X3793896Y1157020D01*
X3807307Y1136446D01*
X3819347Y1115060D01*
X3829862Y1092860D01*
X3838854Y1070051D01*
X3846220Y1046632D01*
X3852011Y1022807D01*
X3856177Y998575D01*
X3858615Y974191D01*
X3859529Y949147D01*
X3859529Y-3949141D01*
X3858615Y-3974846D01*
X3856075Y-3999280D01*
X3851859Y-4023461D01*
X3846068Y-4047286D01*
X3838600Y-4070705D01*
X3829558Y-4093514D01*
X3818991Y-4115663D01*
X3806951Y-4137050D01*
X3793490Y-4157573D01*
X3778656Y-4177131D01*
X3762501Y-4195572D01*
X3745128Y-4212945D01*
X3726586Y-4229049D01*
X3707028Y-4243832D01*
X3686505Y-4257294D01*
X3665067Y-4269282D01*
X3642918Y-4279849D01*
X3620058Y-4288790D01*
X3596690Y-4296206D01*
X3572814Y-4301998D01*
X3548634Y-4306163D01*
X3524199Y-4308652D01*
X3499154Y-4309465D01*
G37*

%LPC*%
G36*
X3504539Y-4125823D02*
G01*
X3522624Y-4124451D01*
X3540404Y-4121200D01*
X3557828Y-4116120D01*
X3574592Y-4109313D01*
X3590544Y-4100779D01*
X3605580Y-4090670D01*
X3619500Y-4079087D01*
X3632149Y-4066133D01*
X3643376Y-4051909D01*
X3653078Y-4036618D01*
X3661206Y-4020464D01*
X3667556Y-4003497D01*
X3672179Y-3985971D01*
X3674973Y-3968089D01*
X3675887Y-3950004D01*
X3674973Y-3931920D01*
X3672179Y-3914038D01*
X3667556Y-3896512D01*
X3661206Y-3879545D01*
X3653078Y-3863390D01*
X3643376Y-3848100D01*
X3632149Y-3833876D01*
X3619500Y-3820922D01*
X3605580Y-3809339D01*
X3590544Y-3799230D01*
X3574592Y-3790696D01*
X3557828Y-3783888D01*
X3540404Y-3778808D01*
X3522624Y-3775557D01*
X3504539Y-3774186D01*
X3486454Y-3774643D01*
X3468471Y-3776979D01*
X3450844Y-3781094D01*
X3433775Y-3787089D01*
X3417366Y-3794760D01*
X3401822Y-3804056D01*
X3387344Y-3814927D01*
X3374034Y-3827221D01*
X3362096Y-3840835D01*
X3351580Y-3855618D01*
X3342690Y-3871366D01*
X3335426Y-3887978D01*
X3329940Y-3905199D01*
X3326231Y-3922928D01*
X3324351Y-3940962D01*
X3324351Y-3959047D01*
X3326231Y-3977081D01*
X3329940Y-3994810D01*
X3335426Y-4012031D01*
X3342690Y-4028643D01*
X3351580Y-4044391D01*
X3362096Y-4059174D01*
X3374034Y-4072788D01*
X3387344Y-4085082D01*
X3401822Y-4095953D01*
X3417366Y-4105249D01*
X3433775Y-4112920D01*
X3450844Y-4118914D01*
X3468471Y-4123029D01*
X3486454Y-4125366D01*
G37*
G36*
X-1395425Y-4125823D02*
G01*
X-1377391Y-4124451D01*
X-1359560Y-4121200D01*
X-1342186Y-4116120D01*
X-1325422Y-4109313D01*
X-1309420Y-4100779D01*
X-1294384Y-4090670D01*
X-1280515Y-4079087D01*
X-1267866Y-4066133D01*
X-1256588Y-4051909D01*
X-1246886Y-4036618D01*
X-1238808Y-4020464D01*
X-1232408Y-4003497D01*
X-1227785Y-3985971D01*
X-1224991Y-3968089D01*
X-1224076Y-3950004D01*
X-1224991Y-3931920D01*
X-1227785Y-3914038D01*
X-1232408Y-3896512D01*
X-1238808Y-3879545D01*
X-1246886Y-3863390D01*
X-1256588Y-3848100D01*
X-1267866Y-3833876D01*
X-1280515Y-3820922D01*
X-1294384Y-3809339D01*
X-1309420Y-3799230D01*
X-1325422Y-3790696D01*
X-1342186Y-3783888D01*
X-1359560Y-3778808D01*
X-1377391Y-3775557D01*
X-1395425Y-3774186D01*
X-1413560Y-3774643D01*
X-1431493Y-3776979D01*
X-1449120Y-3781094D01*
X-1466240Y-3787089D01*
X-1482648Y-3794760D01*
X-1498142Y-3804056D01*
X-1512671Y-3814927D01*
X-1525930Y-3827221D01*
X-1537919Y-3840835D01*
X-1548384Y-3855618D01*
X-1557324Y-3871366D01*
X-1564538Y-3887978D01*
X-1570075Y-3905199D01*
X-1573784Y-3922928D01*
X-1575612Y-3940962D01*
X-1575612Y-3959047D01*
X-1573784Y-3977081D01*
X-1570075Y-3994810D01*
X-1564538Y-4012031D01*
X-1557324Y-4028643D01*
X-1548384Y-4044391D01*
X-1537919Y-4059174D01*
X-1525930Y-4072788D01*
X-1512671Y-4085082D01*
X-1498142Y-4095953D01*
X-1482648Y-4105249D01*
X-1466240Y-4112920D01*
X-1449120Y-4118914D01*
X-1431493Y-4123029D01*
X-1413560Y-4125366D01*
G37*
G36*
X-836574Y-3022904D02*
G01*
X-822960Y-3021990D01*
X-809599Y-3019298D01*
X-796696Y-3014827D01*
X-784555Y-3008680D01*
X-773277Y-3000959D01*
X-763168Y-2991815D01*
X-754430Y-2981401D01*
X-747014Y-2969920D01*
X-741273Y-2957525D01*
X-737260Y-2944520D01*
X-734974Y-2931058D01*
X-734517Y-2917444D01*
X-735888Y-2903880D01*
X-739038Y-2890570D01*
X-743966Y-2877870D01*
X-750519Y-2865882D01*
X-758596Y-2854909D01*
X-768096Y-2845104D01*
X-778764Y-2836672D01*
X-791057Y-2829458D01*
X-794156Y-2826512D01*
X-795832Y-2822498D01*
X-795680Y-2818231D01*
X-793750Y-2814370D01*
X-790397Y-2811627D01*
X-784555Y-2808681D01*
X-773277Y-2800959D01*
X-763168Y-2791815D01*
X-754430Y-2781401D01*
X-747014Y-2769920D01*
X-741273Y-2757525D01*
X-737260Y-2744520D01*
X-734974Y-2731058D01*
X-734517Y-2717444D01*
X-735888Y-2703880D01*
X-739038Y-2690571D01*
X-743966Y-2677871D01*
X-750519Y-2665882D01*
X-758596Y-2654909D01*
X-768096Y-2645105D01*
X-778764Y-2636672D01*
X-790498Y-2629712D01*
X-803097Y-2624378D01*
X-816203Y-2620772D01*
X-829767Y-2618994D01*
X-843381Y-2618994D01*
X-856894Y-2620772D01*
X-870051Y-2624378D01*
X-882599Y-2629712D01*
X-894334Y-2636672D01*
X-905052Y-2645105D01*
X-914501Y-2654909D01*
X-922629Y-2665882D01*
X-929182Y-2677871D01*
X-934059Y-2690571D01*
X-937209Y-2703880D01*
X-938580Y-2717444D01*
X-938123Y-2731058D01*
X-935888Y-2744520D01*
X-931824Y-2757525D01*
X-926084Y-2769920D01*
X-918768Y-2781401D01*
X-909929Y-2791815D01*
X-899820Y-2800959D01*
X-888593Y-2808681D01*
X-882700Y-2811627D01*
X-879398Y-2814370D01*
X-877468Y-2818231D01*
X-877316Y-2822498D01*
X-878992Y-2826512D01*
X-882142Y-2829458D01*
X-894334Y-2836672D01*
X-905052Y-2845104D01*
X-914501Y-2854909D01*
X-922629Y-2865882D01*
X-929182Y-2877870D01*
X-934059Y-2890570D01*
X-937209Y-2903880D01*
X-938580Y-2917444D01*
X-938123Y-2931058D01*
X-935888Y-2944520D01*
X-931824Y-2957525D01*
X-926084Y-2969920D01*
X-918768Y-2981401D01*
X-909929Y-2991815D01*
X-899820Y-3000959D01*
X-888593Y-3008680D01*
X-876401Y-3014827D01*
X-863549Y-3019298D01*
X-850188Y-3021990D01*
G37*
G36*
X-836574Y-2596743D02*
G01*
X-821385Y-2595829D01*
X-806450Y-2593086D01*
X-791921Y-2588564D01*
X-778052Y-2582316D01*
X-765048Y-2574442D01*
X-753059Y-2565044D01*
X-742340Y-2554325D01*
X-732942Y-2542336D01*
X-725068Y-2529332D01*
X-718870Y-2515463D01*
X-714349Y-2500985D01*
X-711606Y-2485999D01*
X-710692Y-2470861D01*
X-711606Y-2455672D01*
X-714349Y-2440686D01*
X-718870Y-2426208D01*
X-725068Y-2412339D01*
X-732942Y-2399334D01*
X-742340Y-2387346D01*
X-753059Y-2376627D01*
X-765048Y-2367229D01*
X-778052Y-2359355D01*
X-791921Y-2353106D01*
X-806450Y-2348585D01*
X-821385Y-2345842D01*
X-836574Y-2344928D01*
X-851712Y-2345842D01*
X-866698Y-2348585D01*
X-881227Y-2353106D01*
X-895045Y-2359355D01*
X-908050Y-2367229D01*
X-920038Y-2376627D01*
X-930808Y-2387346D01*
X-940155Y-2399334D01*
X-948029Y-2412339D01*
X-954278Y-2426208D01*
X-958799Y-2440686D01*
X-961542Y-2455672D01*
X-962507Y-2470861D01*
X-961542Y-2485999D01*
X-958799Y-2500985D01*
X-954278Y-2515463D01*
X-948029Y-2529332D01*
X-940155Y-2542336D01*
X-930808Y-2554325D01*
X-920038Y-2565044D01*
X-908050Y-2574442D01*
X-895045Y-2582316D01*
X-881227Y-2588564D01*
X-866698Y-2593086D01*
X-851712Y-2595829D01*
G37*
G36*
X2450541Y-2012950D02*
G01*
X2460091Y-2011680D01*
X2469337Y-2008886D01*
X2477922Y-2004517D01*
X2485694Y-1998776D01*
X2492400Y-1991817D01*
X2497785Y-1983841D01*
X2501747Y-1975053D01*
X2504186Y-1965706D01*
X2504998Y-1956104D01*
X2504186Y-1946503D01*
X2501646Y-1937004D01*
X2496667Y-1925015D01*
X2494584Y-1915718D01*
X2494127Y-1907387D01*
X2494026Y-1770481D01*
X2493772Y-1765503D01*
X2492400Y-1751177D01*
X2491638Y-1746199D01*
X2488844Y-1732076D01*
X2487625Y-1727200D01*
X2483408Y-1713382D01*
X2481732Y-1708708D01*
X2476195Y-1695348D01*
X2474061Y-1690827D01*
X2467305Y-1678127D01*
X2464714Y-1673809D01*
X2456688Y-1661820D01*
X2453690Y-1657807D01*
X2444496Y-1646682D01*
X2441194Y-1642973D01*
X2209952Y-1411528D01*
X2203754Y-1404416D01*
X2199589Y-1397609D01*
X2196084Y-1388872D01*
X2193036Y-1382318D01*
X2187600Y-1374292D01*
X2180894Y-1367332D01*
X2173122Y-1361592D01*
X2164537Y-1357223D01*
X2155291Y-1354429D01*
X2145741Y-1353159D01*
X2136089Y-1353616D01*
X2126691Y-1355648D01*
X2117699Y-1359204D01*
X2109520Y-1364284D01*
X2102256Y-1370634D01*
X2096211Y-1378153D01*
X2091486Y-1386586D01*
X2088286Y-1395679D01*
X2086660Y-1405178D01*
X2086660Y-1414830D01*
X2088286Y-1424330D01*
X2091486Y-1433423D01*
X2096211Y-1441856D01*
X2102256Y-1449374D01*
X2109520Y-1455724D01*
X2117852Y-1460855D01*
X2130907Y-1466240D01*
X2138984Y-1471422D01*
X2145233Y-1476959D01*
X2374493Y-1706118D01*
X2381758Y-1714906D01*
X2387498Y-1723593D01*
X2392375Y-1732838D01*
X2396286Y-1742439D01*
X2399284Y-1752447D01*
X2401265Y-1762658D01*
X2402230Y-1773021D01*
X2402230Y-1894078D01*
X2402078Y-1907895D01*
X2401417Y-1917293D01*
X2399588Y-1925015D01*
X2395778Y-1934108D01*
X2393086Y-1941779D01*
X2391460Y-1951278D01*
X2391460Y-1960930D01*
X2393086Y-1970430D01*
X2396286Y-1979523D01*
X2401011Y-1987956D01*
X2407056Y-1995474D01*
X2414320Y-2001824D01*
X2422499Y-2006904D01*
X2431491Y-2010460D01*
X2440889Y-2012492D01*
G37*
G36*
X1955241Y-2012950D02*
G01*
X1964791Y-2011680D01*
X1974037Y-2008886D01*
X1982622Y-2004517D01*
X1990394Y-1998776D01*
X1997100Y-1991817D01*
X2002485Y-1983841D01*
X2006447Y-1975053D01*
X2008886Y-1965706D01*
X2009698Y-1956104D01*
X2008886Y-1946503D01*
X2006447Y-1937156D01*
X2002485Y-1928368D01*
X1997100Y-1920392D01*
X1990394Y-1913432D01*
X1982622Y-1907692D01*
X1973681Y-1903171D01*
X1965299Y-1899869D01*
X1958390Y-1895652D01*
X1950923Y-1889150D01*
X736752Y-674928D01*
X730554Y-667816D01*
X726389Y-661009D01*
X722884Y-652272D01*
X719836Y-645718D01*
X714400Y-637692D01*
X707694Y-630732D01*
X699922Y-624992D01*
X691337Y-620623D01*
X682091Y-617829D01*
X672541Y-616559D01*
X662889Y-617016D01*
X653491Y-619048D01*
X644499Y-622604D01*
X636320Y-627684D01*
X629056Y-634034D01*
X623011Y-641553D01*
X618286Y-649986D01*
X615086Y-659079D01*
X613460Y-668578D01*
X613460Y-678230D01*
X615086Y-687730D01*
X618286Y-696823D01*
X623011Y-705256D01*
X629056Y-712774D01*
X636320Y-719124D01*
X644652Y-724255D01*
X657707Y-729640D01*
X665784Y-734822D01*
X672033Y-740359D01*
X1886204Y-1954580D01*
X1892401Y-1961692D01*
X1896567Y-1968550D01*
X1900885Y-1979320D01*
X1905711Y-1987956D01*
X1911756Y-1995474D01*
X1919020Y-2001824D01*
X1927199Y-2006904D01*
X1936191Y-2010460D01*
X1945589Y-2012492D01*
G37*
G36*
X570941Y-1885950D02*
G01*
X580491Y-1884680D01*
X589737Y-1881886D01*
X598322Y-1877517D01*
X606094Y-1871776D01*
X612800Y-1864817D01*
X618185Y-1856841D01*
X622147Y-1848053D01*
X624586Y-1838706D01*
X625398Y-1829104D01*
X624636Y-1819960D01*
X624992Y-1816201D01*
X626719Y-1812848D01*
X629564Y-1810359D01*
X633120Y-1809089D01*
X647141Y-1809750D01*
X656691Y-1808480D01*
X665937Y-1805686D01*
X674522Y-1801317D01*
X682294Y-1795576D01*
X689000Y-1788617D01*
X694385Y-1780641D01*
X698347Y-1771853D01*
X700786Y-1762506D01*
X701598Y-1752904D01*
X700786Y-1743303D01*
X698347Y-1733956D01*
X694385Y-1725168D01*
X689000Y-1717192D01*
X682294Y-1710232D01*
X674522Y-1704492D01*
X665784Y-1700072D01*
X656742Y-1696974D01*
X645617Y-1693519D01*
X640029Y-1691182D01*
X637692Y-1689862D01*
X632358Y-1685696D01*
X627786Y-1681378D01*
X432003Y-1485595D01*
X425399Y-1480159D01*
X406908Y-1467815D01*
X399338Y-1463751D01*
X378815Y-1455267D01*
X370636Y-1452778D01*
X348792Y-1448460D01*
X340309Y-1447596D01*
X275132Y-1447596D01*
X268173Y-1447342D01*
X262483Y-1446580D01*
X259892Y-1445920D01*
X253492Y-1443177D01*
X238302Y-1435252D01*
X234340Y-1433525D01*
X224891Y-1430629D01*
X215341Y-1429359D01*
X205689Y-1429816D01*
X196291Y-1431848D01*
X189230Y-1434642D01*
X185318Y-1435404D01*
X181457Y-1434592D01*
X178206Y-1432407D01*
X176022Y-1429105D01*
X175260Y-1425244D01*
X175260Y-1416812D01*
X175463Y-1414780D01*
X176936Y-1407464D01*
X177546Y-1405382D01*
X180898Y-1397762D01*
X182676Y-1395018D01*
X185216Y-1392986D01*
X188264Y-1391869D01*
X196951Y-1390192D01*
X204673Y-1388008D01*
X208534Y-1386687D01*
X217322Y-1382217D01*
X225094Y-1376476D01*
X231800Y-1369517D01*
X237185Y-1361541D01*
X241147Y-1352753D01*
X243586Y-1343406D01*
X244398Y-1333804D01*
X243586Y-1324203D01*
X241147Y-1314856D01*
X237185Y-1306068D01*
X231800Y-1298092D01*
X225094Y-1291132D01*
X217322Y-1285392D01*
X208737Y-1281023D01*
X199491Y-1278229D01*
X189941Y-1276959D01*
X180289Y-1277416D01*
X170891Y-1279448D01*
X161899Y-1283004D01*
X153720Y-1288084D01*
X146456Y-1294434D01*
X140411Y-1301953D01*
X135636Y-1310487D01*
X131521Y-1321206D01*
X127660Y-1329893D01*
X120954Y-1342796D01*
X114604Y-1356055D01*
X104495Y-1379982D01*
X102006Y-1388160D01*
X98907Y-1403959D01*
X98044Y-1412494D01*
X98044Y-1489557D01*
X98907Y-1498092D01*
X102819Y-1518056D01*
X105359Y-1526235D01*
X113131Y-1545082D01*
X117144Y-1552600D01*
X128473Y-1569516D01*
X133908Y-1576171D01*
X148285Y-1590548D01*
X154940Y-1595983D01*
X171856Y-1607312D01*
X179374Y-1611325D01*
X198221Y-1619097D01*
X206400Y-1621586D01*
X226364Y-1625549D01*
X234899Y-1626412D01*
X285089Y-1626412D01*
X287070Y-1626616D01*
X300431Y-1629257D01*
X302361Y-1629867D01*
X314960Y-1635048D01*
X316687Y-1636014D01*
X328015Y-1643583D01*
X329590Y-1644853D01*
X497179Y-1812442D01*
X501954Y-1817573D01*
X505459Y-1822145D01*
X506780Y-1824431D01*
X509422Y-1830933D01*
X514604Y-1847240D01*
X516635Y-1852371D01*
X521411Y-1860956D01*
X527456Y-1868474D01*
X534720Y-1874824D01*
X542899Y-1879904D01*
X551891Y-1883460D01*
X561289Y-1885492D01*
G37*
G36*
X736041Y-1708150D02*
G01*
X745591Y-1706880D01*
X754837Y-1704086D01*
X763422Y-1699717D01*
X771194Y-1693976D01*
X777900Y-1687017D01*
X783285Y-1679041D01*
X787247Y-1670253D01*
X789686Y-1660906D01*
X790498Y-1651304D01*
X789686Y-1641703D01*
X787247Y-1632356D01*
X783285Y-1623568D01*
X777900Y-1615592D01*
X771042Y-1608480D01*
X766368Y-1604772D01*
X760882Y-1600911D01*
X744677Y-1590954D01*
X737311Y-1586128D01*
X729538Y-1579676D01*
X717194Y-1567535D01*
X715010Y-1564284D01*
X714197Y-1560372D01*
X715010Y-1556512D01*
X717194Y-1553210D01*
X720496Y-1550974D01*
X724357Y-1550212D01*
X785672Y-1550212D01*
X792683Y-1550466D01*
X798372Y-1551228D01*
X800963Y-1551889D01*
X807415Y-1554632D01*
X822401Y-1562455D01*
X831240Y-1565960D01*
X840689Y-1567992D01*
X850341Y-1568450D01*
X859891Y-1567180D01*
X869137Y-1564386D01*
X877722Y-1560017D01*
X885494Y-1554276D01*
X892200Y-1547317D01*
X897585Y-1539341D01*
X901547Y-1530553D01*
X903986Y-1521206D01*
X904798Y-1511604D01*
X903986Y-1502003D01*
X901547Y-1492656D01*
X897585Y-1483868D01*
X892200Y-1475892D01*
X885494Y-1468932D01*
X877722Y-1463192D01*
X869137Y-1458823D01*
X859891Y-1456029D01*
X850341Y-1454759D01*
X840689Y-1455216D01*
X831138Y-1457248D01*
X822452Y-1460703D01*
X806551Y-1468983D01*
X800963Y-1471320D01*
X798372Y-1471980D01*
X791667Y-1472844D01*
X764438Y-1472996D01*
X760272Y-1472133D01*
X756869Y-1469644D01*
X754786Y-1466037D01*
X754329Y-1461820D01*
X755650Y-1457807D01*
X758444Y-1454658D01*
X761492Y-1452372D01*
X768197Y-1445412D01*
X773582Y-1437436D01*
X777544Y-1428648D01*
X779983Y-1419301D01*
X780796Y-1409700D01*
X779983Y-1400098D01*
X777544Y-1390751D01*
X773531Y-1381861D01*
X769924Y-1376172D01*
X761136Y-1364538D01*
X756716Y-1359306D01*
X747572Y-1349603D01*
X725728Y-1328267D01*
X136499Y-739038D01*
X131470Y-733704D01*
X126847Y-728116D01*
X125679Y-726338D01*
X122275Y-719582D01*
X117652Y-706577D01*
X113182Y-696163D01*
X107797Y-688187D01*
X101092Y-681228D01*
X93319Y-675487D01*
X84734Y-671118D01*
X75488Y-668324D01*
X65938Y-667054D01*
X56286Y-667512D01*
X46888Y-669544D01*
X37846Y-673100D01*
X29718Y-678180D01*
X22453Y-684530D01*
X16408Y-692048D01*
X11684Y-700481D01*
X8483Y-709574D01*
X6858Y-719074D01*
X6858Y-728726D01*
X8483Y-738225D01*
X11684Y-747318D01*
X16408Y-755751D01*
X22453Y-763270D01*
X29718Y-769620D01*
X37998Y-774750D01*
X45364Y-777849D01*
X59131Y-782624D01*
X65989Y-786079D01*
X67767Y-787247D01*
X73964Y-792327D01*
X666496Y-1384706D01*
X668578Y-1387703D01*
X669442Y-1391259D01*
X667258Y-1404874D01*
X667258Y-1419758D01*
X665378Y-1423517D01*
X662076Y-1426210D01*
X657961Y-1427327D01*
X653796Y-1426718D01*
X650240Y-1424381D01*
X25654Y-799795D01*
X18999Y-794359D01*
X508Y-782015D01*
X-7010Y-777951D01*
X-27584Y-769467D01*
X-35763Y-766978D01*
X-57607Y-762660D01*
X-66090Y-761796D01*
X-296367Y-761796D01*
X-303326Y-761542D01*
X-309016Y-760780D01*
X-311607Y-760120D01*
X-318008Y-757377D01*
X-333197Y-749452D01*
X-337159Y-747725D01*
X-346608Y-744829D01*
X-356158Y-743559D01*
X-365810Y-744016D01*
X-375208Y-746048D01*
X-384200Y-749604D01*
X-392379Y-754684D01*
X-399643Y-761034D01*
X-405688Y-768553D01*
X-410413Y-776986D01*
X-413613Y-786079D01*
X-415239Y-795578D01*
X-415239Y-805230D01*
X-413613Y-814730D01*
X-411632Y-820267D01*
X-411073Y-824331D01*
X-412191Y-828294D01*
X-414782Y-831494D01*
X-418439Y-833424D01*
X-422503Y-833729D01*
X-432358Y-832459D01*
X-442010Y-832916D01*
X-451408Y-834948D01*
X-460400Y-838504D01*
X-468579Y-843584D01*
X-475843Y-849934D01*
X-481888Y-857453D01*
X-486613Y-865886D01*
X-489407Y-873810D01*
X-491490Y-877316D01*
X-494792Y-879703D01*
X-498754Y-880567D01*
X-502767Y-879856D01*
X-506171Y-877620D01*
X-624687Y-759104D01*
X-631291Y-753668D01*
X-649782Y-741324D01*
X-657352Y-737260D01*
X-672338Y-731062D01*
X-691083Y-722985D01*
X-706069Y-715924D01*
X-718413Y-709625D01*
X-729183Y-703630D01*
X-762101Y-684428D01*
X-776427Y-676706D01*
X-793445Y-668121D01*
X-805078Y-663295D01*
X-818235Y-659638D01*
X-831799Y-657860D01*
X-845413Y-657860D01*
X-858977Y-659638D01*
X-872134Y-663244D01*
X-884631Y-668578D01*
X-896366Y-675538D01*
X-907084Y-683971D01*
X-916584Y-693775D01*
X-924661Y-704748D01*
X-931214Y-716737D01*
X-936091Y-729437D01*
X-939241Y-742746D01*
X-940612Y-756310D01*
X-940155Y-769924D01*
X-937920Y-783386D01*
X-933856Y-796391D01*
X-928116Y-808786D01*
X-920800Y-820267D01*
X-911961Y-830681D01*
X-901852Y-839825D01*
X-890625Y-847547D01*
X-884732Y-850493D01*
X-881430Y-853236D01*
X-879500Y-857097D01*
X-879348Y-861364D01*
X-881024Y-865378D01*
X-884174Y-868324D01*
X-896366Y-875537D01*
X-907084Y-883970D01*
X-916584Y-893775D01*
X-924661Y-904748D01*
X-931214Y-916736D01*
X-936091Y-929436D01*
X-939241Y-942746D01*
X-940612Y-956310D01*
X-940155Y-969924D01*
X-937920Y-983386D01*
X-933856Y-996391D01*
X-928116Y-1008786D01*
X-920800Y-1020267D01*
X-911961Y-1030681D01*
X-901852Y-1039825D01*
X-890625Y-1047546D01*
X-878484Y-1053693D01*
X-865581Y-1058164D01*
X-852220Y-1060856D01*
X-838606Y-1061770D01*
X-824992Y-1060856D01*
X-811631Y-1058164D01*
X-798576Y-1053642D01*
X-792683Y-1050848D01*
X-777494Y-1042568D01*
X-760831Y-1031341D01*
X-740105Y-1015136D01*
X-731469Y-1009040D01*
X-723239Y-1004671D01*
X-714044Y-1001420D01*
X-702056Y-999236D01*
X-685190Y-998321D01*
X-622300Y-998321D01*
X-620318Y-998524D01*
X-606958Y-1001166D01*
X-605078Y-1001725D01*
X-592480Y-1006957D01*
X-590702Y-1007922D01*
X-579374Y-1015492D01*
X-577850Y-1016762D01*
X-544220Y-1050340D01*
X-539394Y-1055522D01*
X-535889Y-1060094D01*
X-534568Y-1062380D01*
X-531926Y-1068882D01*
X-526846Y-1085189D01*
X-524764Y-1090371D01*
X-519988Y-1098956D01*
X-513943Y-1106474D01*
X-506679Y-1112824D01*
X-498500Y-1117904D01*
X-489508Y-1121460D01*
X-480110Y-1123492D01*
X-470458Y-1123950D01*
X-468020Y-1123594D01*
X-463651Y-1124000D01*
X-459892Y-1126185D01*
X-457352Y-1129741D01*
X-456590Y-1134059D01*
X-457657Y-1138275D01*
X-461111Y-1145082D01*
X-464413Y-1154379D01*
X-466039Y-1163878D01*
X-466039Y-1173530D01*
X-464413Y-1183030D01*
X-461213Y-1192123D01*
X-456488Y-1200556D01*
X-450443Y-1208074D01*
X-443179Y-1214424D01*
X-435000Y-1219504D01*
X-426008Y-1223060D01*
X-416610Y-1225092D01*
X-406958Y-1225550D01*
X-397408Y-1224280D01*
X-388162Y-1221486D01*
X-379577Y-1217117D01*
X-371805Y-1211376D01*
X-365099Y-1204417D01*
X-359714Y-1196441D01*
X-355752Y-1187653D01*
X-353314Y-1178306D01*
X-352501Y-1168704D01*
X-353314Y-1159103D01*
X-355854Y-1149654D01*
X-358495Y-1143203D01*
X-366725Y-1127353D01*
X-369062Y-1121714D01*
X-369722Y-1119174D01*
X-370586Y-1112418D01*
X-370738Y-1106170D01*
X-370738Y-1066749D01*
X-371602Y-1058214D01*
X-375920Y-1036421D01*
X-378409Y-1028192D01*
X-386943Y-1007668D01*
X-391007Y-1000099D01*
X-403352Y-981608D01*
X-408736Y-975004D01*
X-423164Y-960628D01*
X-425399Y-957173D01*
X-426110Y-953160D01*
X-425196Y-949147D01*
X-422757Y-945845D01*
X-419201Y-943813D01*
X-412343Y-941527D01*
X-403860Y-937412D01*
X-393446Y-931926D01*
X-387807Y-929589D01*
X-385267Y-928928D01*
X-378510Y-928065D01*
X-372262Y-927912D01*
X-57708Y-927912D01*
X-55727Y-928116D01*
X-42367Y-930757D01*
X-40436Y-931367D01*
X-27838Y-936548D01*
X-26111Y-937514D01*
X-14782Y-945083D01*
X-13208Y-946353D01*
X669137Y-1628698D01*
X673658Y-1633778D01*
X675487Y-1636725D01*
X676198Y-1640078D01*
X676910Y-1655825D01*
X678586Y-1665630D01*
X681786Y-1674723D01*
X686511Y-1683156D01*
X692556Y-1690674D01*
X699820Y-1697024D01*
X707999Y-1702104D01*
X716991Y-1705660D01*
X726389Y-1707692D01*
G37*
G36*
X1980641Y-971550D02*
G01*
X1990191Y-970280D01*
X1999640Y-967384D01*
X2005025Y-966012D01*
X2021789Y-966063D01*
X2032609Y-965606D01*
X2042414Y-964742D01*
X2063496Y-960577D01*
X2072741Y-957884D01*
X2092604Y-949706D01*
X2101138Y-945235D01*
X2118969Y-933348D01*
X2127453Y-926388D01*
X2195474Y-858316D01*
X2205685Y-849934D01*
X2215896Y-843229D01*
X2226665Y-837488D01*
X2237892Y-832866D01*
X2249627Y-829360D01*
X2261616Y-827074D01*
X2273757Y-825906D01*
X2647188Y-825906D01*
X2658008Y-826973D01*
X2667660Y-828954D01*
X2677058Y-831850D01*
X2686151Y-835660D01*
X2694838Y-840333D01*
X2703017Y-845870D01*
X2710586Y-852169D01*
X2738272Y-879805D01*
X2740355Y-882954D01*
X2742031Y-886714D01*
X2746908Y-895451D01*
X2752953Y-902969D01*
X2760218Y-909319D01*
X2768346Y-914400D01*
X2777388Y-917956D01*
X2786786Y-919987D01*
X2796438Y-920445D01*
X2805988Y-919175D01*
X2815234Y-916381D01*
X2823819Y-912012D01*
X2831592Y-906271D01*
X2838297Y-899312D01*
X2843682Y-891336D01*
X2847644Y-882548D01*
X2850083Y-873201D01*
X2850896Y-863600D01*
X2850083Y-853998D01*
X2847644Y-844651D01*
X2843682Y-835863D01*
X2838297Y-827887D01*
X2831592Y-820928D01*
X2823819Y-815187D01*
X2812389Y-809599D01*
X2810560Y-808126D01*
X2780639Y-778205D01*
X2776575Y-774547D01*
X2765450Y-765403D01*
X2761030Y-762152D01*
X2749092Y-754176D01*
X2744419Y-751332D01*
X2731719Y-744575D01*
X2726791Y-742238D01*
X2713532Y-736752D01*
X2708300Y-734872D01*
X2694584Y-730707D01*
X2689250Y-729386D01*
X2675178Y-726592D01*
X2669692Y-725779D01*
X2655417Y-724357D01*
X2649931Y-724103D01*
X2271014Y-724103D01*
X2265527Y-724357D01*
X2248916Y-725982D01*
X2243480Y-726795D01*
X2227072Y-730046D01*
X2221738Y-731418D01*
X2205736Y-736244D01*
X2200605Y-738073D01*
X2185162Y-744474D01*
X2180183Y-746861D01*
X2165451Y-754735D01*
X2160727Y-757529D01*
X2146858Y-766826D01*
X2142439Y-770077D01*
X2129536Y-780694D01*
X2125472Y-784402D01*
X2059330Y-850493D01*
X2057806Y-851763D01*
X2050237Y-856792D01*
X2048459Y-857758D01*
X2040077Y-861212D01*
X2038096Y-861821D01*
X2029002Y-863600D01*
X2027072Y-863803D01*
X2005990Y-863803D01*
X2002129Y-862990D01*
X1999792Y-862025D01*
X1990191Y-859129D01*
X1980641Y-857859D01*
X1970989Y-858316D01*
X1961591Y-860348D01*
X1952599Y-863904D01*
X1944420Y-868984D01*
X1937156Y-875334D01*
X1931111Y-882853D01*
X1926386Y-891286D01*
X1923186Y-900379D01*
X1921560Y-909878D01*
X1921560Y-919530D01*
X1923186Y-929030D01*
X1926386Y-938123D01*
X1931111Y-946556D01*
X1937156Y-954074D01*
X1944420Y-960424D01*
X1952599Y-965504D01*
X1961591Y-969060D01*
X1970989Y-971092D01*
G37*
G36*
X-838606Y-635609D02*
G01*
X-823417Y-634695D01*
X-808482Y-631952D01*
X-794004Y-627430D01*
X-780084Y-621182D01*
X-767130Y-613308D01*
X-755091Y-603910D01*
X-744372Y-593191D01*
X-734974Y-581202D01*
X-727100Y-568198D01*
X-720902Y-554329D01*
X-716381Y-539851D01*
X-713638Y-524865D01*
X-712724Y-509727D01*
X-713638Y-494538D01*
X-716381Y-479551D01*
X-720902Y-465074D01*
X-727100Y-451205D01*
X-734974Y-438200D01*
X-744372Y-426212D01*
X-755091Y-415493D01*
X-767130Y-406095D01*
X-780084Y-398221D01*
X-794004Y-391972D01*
X-808482Y-387451D01*
X-823417Y-384708D01*
X-838606Y-383794D01*
X-853744Y-384708D01*
X-868730Y-387451D01*
X-883259Y-391972D01*
X-897077Y-398221D01*
X-910082Y-406095D01*
X-922070Y-415493D01*
X-932840Y-426212D01*
X-942187Y-438200D01*
X-950061Y-451205D01*
X-956310Y-465074D01*
X-960831Y-479551D01*
X-963574Y-494538D01*
X-964488Y-509727D01*
X-963574Y-524865D01*
X-960831Y-539851D01*
X-956310Y-554329D01*
X-950061Y-568198D01*
X-942187Y-581202D01*
X-932840Y-593191D01*
X-922070Y-603910D01*
X-910082Y-613308D01*
X-897077Y-621182D01*
X-883259Y-627430D01*
X-868730Y-631952D01*
X-853744Y-634695D01*
G37*
G36*
X2208682Y-84785D02*
G01*
X2248001Y-84785D01*
X2260549Y-83870D01*
X2272538Y-81280D01*
X2284018Y-77012D01*
X2294788Y-71120D01*
X2304592Y-63804D01*
X2313228Y-55117D01*
X2320594Y-45313D01*
X2326487Y-34544D01*
X2330754Y-23063D01*
X2333345Y-11125D01*
X2334209Y1117D01*
X2333345Y13360D01*
X2330754Y25298D01*
X2326487Y36779D01*
X2320594Y47548D01*
X2313228Y57353D01*
X2304592Y66040D01*
X2294788Y73355D01*
X2284018Y79248D01*
X2272538Y83515D01*
X2260549Y86106D01*
X2248001Y87020D01*
X2208682Y87020D01*
X2196134Y86106D01*
X2184146Y83515D01*
X2172665Y79248D01*
X2161895Y73355D01*
X2152091Y66040D01*
X2143455Y57353D01*
X2136089Y47548D01*
X2130247Y36779D01*
X2125929Y25298D01*
X2123338Y13360D01*
X2122474Y1117D01*
X2123338Y-11125D01*
X2125929Y-23063D01*
X2130247Y-34544D01*
X2136089Y-45313D01*
X2143455Y-55117D01*
X2152091Y-63804D01*
X2161895Y-71120D01*
X2172665Y-77012D01*
X2184146Y-81280D01*
X2196134Y-83870D01*
G37*
G36*
X-102920Y-80010D02*
G01*
X-91135Y-79603D01*
X-79502Y-77470D01*
X-68326Y-73660D01*
X-57861Y-68224D01*
X-48209Y-61366D01*
X-39725Y-53187D01*
X-32512Y-43840D01*
X-26720Y-33528D01*
X-22504Y-22504D01*
X-19964Y-10972D01*
X-19100Y812D01*
X-19761Y9753D01*
X-19100Y14122D01*
X-16662Y17780D01*
X-12954Y20116D01*
X-8534Y20574D01*
X-2946Y19964D01*
X9245Y20421D01*
X13614Y19608D01*
X17170Y17018D01*
X19354Y13208D01*
X19659Y8788D01*
X19354Y6705D01*
X19354Y-5130D01*
X21082Y-16764D01*
X24485Y-28092D01*
X29514Y-38811D01*
X36017Y-48615D01*
X43891Y-57404D01*
X52984Y-64973D01*
X63042Y-71120D01*
X73914Y-75742D01*
X85344Y-78740D01*
X97078Y-80010D01*
X108864Y-79603D01*
X120497Y-77470D01*
X131622Y-73660D01*
X142138Y-68224D01*
X151790Y-61366D01*
X160274Y-53187D01*
X167487Y-43840D01*
X173278Y-33528D01*
X177495Y-22504D01*
X180035Y-10972D01*
X180898Y812D01*
X180035Y12598D01*
X177495Y24079D01*
X173278Y35102D01*
X167487Y45415D01*
X160274Y54762D01*
X151790Y62941D01*
X142138Y69850D01*
X131622Y75234D01*
X120497Y79044D01*
X108864Y81178D01*
X97078Y81635D01*
X91490Y81026D01*
X87122Y81483D01*
X83312Y83820D01*
X80822Y87477D01*
X80264Y91846D01*
X80924Y100787D01*
X80060Y112572D01*
X77419Y124104D01*
X73253Y135128D01*
X67462Y145440D01*
X60248Y154787D01*
X51765Y162966D01*
X42164Y169824D01*
X31648Y175260D01*
X20472Y179070D01*
X8890Y181203D01*
X-2946Y181610D01*
X-14681Y180340D01*
X-26111Y177342D01*
X-36931Y172720D01*
X-47040Y166573D01*
X-56134Y159004D01*
X-64008Y150215D01*
X-70510Y140360D01*
X-75539Y129692D01*
X-78892Y118364D01*
X-80619Y106680D01*
X-80619Y94894D01*
X-80314Y92811D01*
X-80670Y88392D01*
X-82804Y84531D01*
X-86410Y81991D01*
X-90728Y81178D01*
X-102920Y81635D01*
X-114655Y80314D01*
X-126085Y77368D01*
X-137007Y72745D01*
X-147015Y66598D01*
X-156108Y59029D01*
X-163982Y50241D01*
X-170484Y40386D01*
X-175514Y29667D01*
X-178917Y18389D01*
X-180644Y6705D01*
X-180644Y-5130D01*
X-178917Y-16764D01*
X-175514Y-28092D01*
X-170484Y-38811D01*
X-163982Y-48615D01*
X-156108Y-57404D01*
X-147015Y-64973D01*
X-137007Y-71120D01*
X-126085Y-75742D01*
X-114655Y-78740D01*
G37*
G36*
X-557022Y467258D02*
G01*
X-543407Y467258D01*
X-529844Y469087D01*
X-516686Y472643D01*
X-504139Y477977D01*
X-492404Y484936D01*
X-481685Y493369D01*
X-472236Y503174D01*
X-464159Y514146D01*
X-457606Y526135D01*
X-452678Y538835D01*
X-449529Y552145D01*
X-448157Y565708D01*
X-448614Y579323D01*
X-450900Y592785D01*
X-454914Y605790D01*
X-460654Y618185D01*
X-468020Y629666D01*
X-476808Y640080D01*
X-486918Y649224D01*
X-498144Y656945D01*
X-510336Y663092D01*
X-523240Y667562D01*
X-536600Y670255D01*
X-550164Y671169D01*
X-563778Y670255D01*
X-577138Y667562D01*
X-590042Y663092D01*
X-602234Y656945D01*
X-613460Y649224D01*
X-623570Y640080D01*
X-632358Y629666D01*
X-639724Y618185D01*
X-645464Y605790D01*
X-649478Y592785D01*
X-651764Y579323D01*
X-652221Y565708D01*
X-650849Y552145D01*
X-647700Y538835D01*
X-642772Y526135D01*
X-636219Y514146D01*
X-628142Y503174D01*
X-618642Y493369D01*
X-607974Y484936D01*
X-596239Y477977D01*
X-583692Y472643D01*
X-570534Y469087D01*
G37*
G36*
X-557022Y721258D02*
G01*
X-543407Y721258D01*
X-529844Y723087D01*
X-516686Y726643D01*
X-504139Y731977D01*
X-492404Y738936D01*
X-481685Y747369D01*
X-472236Y757174D01*
X-464159Y768146D01*
X-457606Y780135D01*
X-452678Y792835D01*
X-449529Y806145D01*
X-448157Y819708D01*
X-448614Y833323D01*
X-450900Y846785D01*
X-454914Y859790D01*
X-460654Y872185D01*
X-468020Y883666D01*
X-476808Y894080D01*
X-486918Y903224D01*
X-498144Y910945D01*
X-510336Y917092D01*
X-523240Y921562D01*
X-536600Y924255D01*
X-550164Y925169D01*
X-563778Y924255D01*
X-577138Y921562D01*
X-590042Y917092D01*
X-602234Y910945D01*
X-613460Y903224D01*
X-623570Y894080D01*
X-632358Y883666D01*
X-639724Y872185D01*
X-645464Y859790D01*
X-649478Y846785D01*
X-651764Y833323D01*
X-652221Y819708D01*
X-650849Y806145D01*
X-647700Y792835D01*
X-642772Y780135D01*
X-636219Y768146D01*
X-628142Y757174D01*
X-618642Y747369D01*
X-607974Y738936D01*
X-596239Y731977D01*
X-583692Y726643D01*
X-570534Y723087D01*
G37*
G36*
X3504539Y774141D02*
G01*
X3522624Y775563D01*
X3540404Y778814D01*
X3557828Y783844D01*
X3574592Y790702D01*
X3590544Y799185D01*
X3605580Y809294D01*
X3619500Y820877D01*
X3632149Y833882D01*
X3643376Y848055D01*
X3653078Y863346D01*
X3661206Y879551D01*
X3667556Y896518D01*
X3672179Y913993D01*
X3674973Y931875D01*
X3675887Y949960D01*
X3674973Y968095D01*
X3672179Y985977D01*
X3667556Y1003452D01*
X3661206Y1020419D01*
X3653078Y1036624D01*
X3643376Y1051915D01*
X3632149Y1066088D01*
X3619500Y1079093D01*
X3605580Y1090676D01*
X3590544Y1100785D01*
X3574592Y1109268D01*
X3557828Y1116126D01*
X3540404Y1121156D01*
X3522624Y1124407D01*
X3504539Y1125829D01*
X3486454Y1125372D01*
X3468471Y1123035D01*
X3450844Y1118870D01*
X3433775Y1112926D01*
X3417366Y1105255D01*
X3401822Y1095908D01*
X3387344Y1085037D01*
X3374034Y1072743D01*
X3362096Y1059129D01*
X3351580Y1044397D01*
X3342690Y1028649D01*
X3335426Y1012037D01*
X3329940Y994765D01*
X3326231Y977036D01*
X3324351Y959053D01*
X3324351Y940917D01*
X3326231Y922934D01*
X3329940Y905205D01*
X3335426Y887933D01*
X3342690Y871321D01*
X3351580Y855573D01*
X3362096Y840841D01*
X3374034Y827227D01*
X3387344Y814933D01*
X3401822Y804062D01*
X3417366Y794715D01*
X3433775Y787044D01*
X3450844Y781100D01*
X3468471Y776935D01*
X3486454Y774598D01*
G37*
G36*
X-1395425Y774141D02*
G01*
X-1377391Y775563D01*
X-1359560Y778814D01*
X-1342186Y783844D01*
X-1325422Y790702D01*
X-1309420Y799185D01*
X-1294384Y809294D01*
X-1280515Y820877D01*
X-1267866Y833882D01*
X-1256588Y848055D01*
X-1246886Y863346D01*
X-1238808Y879551D01*
X-1232408Y896518D01*
X-1227785Y913993D01*
X-1224991Y931875D01*
X-1224076Y949960D01*
X-1224991Y968095D01*
X-1227785Y985977D01*
X-1232408Y1003452D01*
X-1238808Y1020419D01*
X-1246886Y1036624D01*
X-1256588Y1051915D01*
X-1267866Y1066088D01*
X-1280515Y1079093D01*
X-1294384Y1090676D01*
X-1309420Y1100785D01*
X-1325422Y1109268D01*
X-1342186Y1116126D01*
X-1359560Y1121156D01*
X-1377391Y1124407D01*
X-1395425Y1125829D01*
X-1413560Y1125372D01*
X-1431493Y1123035D01*
X-1449120Y1118870D01*
X-1466240Y1112926D01*
X-1482648Y1105255D01*
X-1498142Y1095908D01*
X-1512671Y1085037D01*
X-1525930Y1072743D01*
X-1537919Y1059129D01*
X-1548384Y1044397D01*
X-1557324Y1028649D01*
X-1564538Y1012037D01*
X-1570075Y994765D01*
X-1573784Y977036D01*
X-1575612Y959053D01*
X-1575612Y940917D01*
X-1573784Y922934D01*
X-1570075Y905205D01*
X-1564538Y887933D01*
X-1557324Y871321D01*
X-1548384Y855573D01*
X-1537919Y840841D01*
X-1525930Y827227D01*
X-1512671Y814933D01*
X-1498142Y804062D01*
X-1482648Y794715D01*
X-1466240Y787044D01*
X-1449120Y781100D01*
X-1431493Y776935D01*
X-1413560Y774598D01*
G37*
G36*
X-557022Y977239D02*
G01*
X-543407Y977239D01*
X-529844Y979068D01*
X-516686Y982675D01*
X-504139Y988009D01*
X-492404Y994968D01*
X-481685Y1003401D01*
X-472236Y1013206D01*
X-464159Y1024178D01*
X-457606Y1036116D01*
X-452678Y1048867D01*
X-449529Y1062126D01*
X-448157Y1075690D01*
X-448614Y1089304D01*
X-450900Y1102766D01*
X-454914Y1115822D01*
X-460654Y1128166D01*
X-468020Y1139647D01*
X-476808Y1150061D01*
X-486918Y1159205D01*
X-498144Y1166926D01*
X-510336Y1173073D01*
X-523240Y1177544D01*
X-536600Y1180287D01*
X-550164Y1181201D01*
X-563778Y1180287D01*
X-577138Y1177544D01*
X-590042Y1173073D01*
X-602234Y1166926D01*
X-613460Y1159205D01*
X-623570Y1150061D01*
X-632358Y1139647D01*
X-639724Y1128166D01*
X-645464Y1115822D01*
X-649478Y1102766D01*
X-651764Y1089304D01*
X-652221Y1075690D01*
X-650849Y1062126D01*
X-647700Y1048867D01*
X-642772Y1036116D01*
X-636219Y1024178D01*
X-628142Y1013206D01*
X-618642Y1003401D01*
X-607974Y994968D01*
X-596239Y988009D01*
X-583692Y982675D01*
X-570534Y979068D01*
G37*

%LPD*%
G36*
X1991715Y-886815D02*
G01*
X1962708Y-914704D01*
X1991715Y-942594D01*
X1995728Y-941120D01*
X2000097Y-940308D01*
X2004872Y-940003D01*
X2022093Y-940155D01*
X2029002Y-939901D01*
X2036622Y-939190D01*
X2044954Y-937869D01*
X2035200Y-888796D01*
X2028393Y-890016D01*
X2022195Y-890778D01*
X2016556Y-891184D01*
X2011375Y-891235D01*
X2006701Y-890930D01*
X2002434Y-890320D01*
X1998573Y-889406D01*
G37*
G36*
X2767838Y-802081D02*
G01*
X2732481Y-837437D01*
X2755341Y-859688D01*
X2758440Y-863244D01*
X2761081Y-866698D01*
X2763164Y-870153D01*
X2764739Y-873760D01*
X2804972Y-874572D01*
X2804160Y-834339D01*
X2800553Y-832764D01*
X2797098Y-830681D01*
X2793644Y-828040D01*
X2790088Y-824941D01*
G37*
G36*
X707440Y-1346606D02*
G01*
X686206Y-1367840D01*
X689762Y-1371701D01*
X692505Y-1375359D01*
X694486Y-1378864D01*
X695756Y-1382268D01*
X696366Y-1385722D01*
X696468Y-1389227D01*
X696061Y-1392885D01*
X695299Y-1396796D01*
X694131Y-1401013D01*
X726490Y-1424990D01*
X749147Y-1391716D01*
X744677Y-1385570D01*
X736803Y-1375867D01*
X729030Y-1367739D01*
G37*
G36*
X52527Y-712927D02*
G01*
X53340Y-753160D01*
X69138Y-758698D01*
X73456Y-760577D01*
X77622Y-762762D01*
X81838Y-765403D01*
X86309Y-768756D01*
X91186Y-773023D01*
X96723Y-778357D01*
X117957Y-757123D01*
X112623Y-751586D01*
X108407Y-746709D01*
X105003Y-742238D01*
X102362Y-738022D01*
X100177Y-733856D01*
X98298Y-729538D01*
X92760Y-713740D01*
G37*
G36*
X2428087Y-1894078D02*
G01*
X2427782Y-1914042D01*
X2426665Y-1923897D01*
X2425649Y-1928418D01*
X2424277Y-1932889D01*
X2422499Y-1937562D01*
X2420213Y-1942592D01*
X2448102Y-1971598D01*
X2475992Y-1942592D01*
X2473706Y-1937562D01*
X2471928Y-1932889D01*
X2470556Y-1928418D01*
X2469540Y-1923897D01*
X2468422Y-1914042D01*
X2468118Y-1894078D01*
G37*
G36*
X2132330Y-1399032D02*
G01*
X2133142Y-1439265D01*
X2138324Y-1441196D01*
X2142896Y-1443228D01*
X2147011Y-1445412D01*
X2150872Y-1447901D01*
X2154732Y-1450797D01*
X2162860Y-1458010D01*
X2173020Y-1467967D01*
X2201265Y-1439722D01*
X2191308Y-1429562D01*
X2184095Y-1421434D01*
X2181199Y-1417574D01*
X2178761Y-1413713D01*
X2176526Y-1409598D01*
X2174544Y-1405026D01*
X2172614Y-1399844D01*
G37*
G36*
X533603Y-1776323D02*
G01*
X515620Y-1794256D01*
X520954Y-1799894D01*
X525068Y-1804924D01*
X528218Y-1809496D01*
X530606Y-1813915D01*
X532434Y-1818233D01*
X539242Y-1839315D01*
X579475Y-1840026D01*
X578612Y-1799793D01*
X557530Y-1793087D01*
X553212Y-1791207D01*
X548843Y-1788871D01*
X544220Y-1785721D01*
X539191Y-1781606D01*
G37*
G36*
X198475Y-1322832D02*
G01*
X158242Y-1323594D01*
X155752Y-1330299D01*
X151079Y-1340967D01*
X141071Y-1360474D01*
X134620Y-1374952D01*
X158089Y-1384655D01*
X161137Y-1378661D01*
X164490Y-1374241D01*
X168249Y-1371193D01*
X172313Y-1369110D01*
X176682Y-1367739D01*
X191922Y-1364742D01*
X197612Y-1363116D01*
G37*
G36*
X1923084Y-1898142D02*
G01*
X1894839Y-1926386D01*
X1904796Y-1936496D01*
X1912010Y-1944674D01*
X1914906Y-1948535D01*
X1917344Y-1952396D01*
X1919579Y-1956511D01*
X1921611Y-1961083D01*
X1923542Y-1966264D01*
X1963775Y-1967077D01*
X1962962Y-1926793D01*
X1957781Y-1924862D01*
X1953209Y-1922830D01*
X1949094Y-1920646D01*
X1945182Y-1918207D01*
X1937461Y-1912010D01*
G37*
G36*
X659130Y-662432D02*
G01*
X659942Y-702665D01*
X665124Y-704596D01*
X669696Y-706628D01*
X673811Y-708812D01*
X677672Y-711301D01*
X681532Y-714197D01*
X689660Y-721410D01*
X699820Y-731367D01*
X728065Y-703122D01*
X718108Y-692962D01*
X710895Y-684834D01*
X707999Y-680974D01*
X705561Y-677113D01*
X703326Y-672998D01*
X701344Y-668426D01*
X699414Y-663244D01*
G37*
G36*
X-805383Y-691134D02*
G01*
X-876706Y-759714D01*
X-805383Y-828294D01*
X-790498Y-819556D01*
X-777900Y-809701D01*
X-756767Y-789940D01*
X-746709Y-781659D01*
X-735939Y-775563D01*
X-723747Y-772464D01*
X-709371Y-773125D01*
X-691997Y-778459D01*
X-682294Y-754989D01*
X-701598Y-746658D01*
X-717346Y-739292D01*
X-730504Y-732536D01*
X-741934Y-726186D01*
X-775106Y-706831D01*
X-788822Y-699465D01*
G37*
G36*
X-422097Y-1106678D02*
G01*
X-422300Y-1114399D01*
X-422960Y-1120851D01*
X-423976Y-1126337D01*
X-425399Y-1131112D01*
X-427177Y-1135532D01*
X-437286Y-1155192D01*
X-409397Y-1184198D01*
X-381508Y-1155192D01*
X-391617Y-1135532D01*
X-393395Y-1131112D01*
X-394817Y-1126337D01*
X-395833Y-1120851D01*
X-396494Y-1114399D01*
X-396697Y-1106678D01*
G37*
G36*
X226415Y-1458315D02*
G01*
X197408Y-1486204D01*
X226415Y-1514094D01*
X246075Y-1503984D01*
X250494Y-1502206D01*
X255270Y-1500784D01*
X260705Y-1499768D01*
X267157Y-1499108D01*
X274929Y-1498904D01*
X274929Y-1473504D01*
X267157Y-1473301D01*
X260756Y-1472641D01*
X255270Y-1471625D01*
X250494Y-1470202D01*
X246075Y-1468424D01*
G37*
G36*
X609854Y-1700072D02*
G01*
X591870Y-1718056D01*
X597204Y-1723643D01*
X601319Y-1728673D01*
X604418Y-1733296D01*
X606806Y-1737664D01*
X608685Y-1742033D01*
X615442Y-1763064D01*
X655675Y-1763877D01*
X654862Y-1723593D01*
X633780Y-1716836D01*
X629462Y-1715007D01*
X625043Y-1712620D01*
X620471Y-1709470D01*
X615442Y-1705406D01*
G37*
G36*
X834390Y-1483715D02*
G01*
X814730Y-1493824D01*
X810310Y-1495602D01*
X805535Y-1497025D01*
X800100Y-1498041D01*
X793648Y-1498701D01*
X785926Y-1498904D01*
X785926Y-1524304D01*
X793648Y-1524508D01*
X800100Y-1525168D01*
X805535Y-1526184D01*
X810310Y-1527606D01*
X814730Y-1529384D01*
X834390Y-1539494D01*
X863396Y-1511604D01*
G37*
G36*
X-345084Y-772515D02*
G01*
X-374091Y-800404D01*
X-345084Y-828294D01*
X-325424Y-818184D01*
X-321005Y-816406D01*
X-316230Y-814984D01*
X-310794Y-813968D01*
X-304342Y-813308D01*
X-296570Y-813104D01*
X-296570Y-787704D01*
X-304342Y-787501D01*
X-310743Y-786841D01*
X-316230Y-785825D01*
X-321005Y-784402D01*
X-325424Y-782624D01*
G37*
G36*
X706018Y-1593088D02*
G01*
X688086Y-1611020D01*
X692658Y-1615948D01*
X696112Y-1620418D01*
X698601Y-1624634D01*
X700278Y-1628749D01*
X701395Y-1632864D01*
X702005Y-1637131D01*
X702614Y-1652574D01*
X740918Y-1664970D01*
X751840Y-1626209D01*
X745896Y-1622094D01*
X727100Y-1610563D01*
X722579Y-1607464D01*
X717702Y-1603705D01*
X712266Y-1599031D01*
G37*
G36*
X-421284Y-861415D02*
G01*
X-450291Y-889304D01*
X-421284Y-917194D01*
X-401624Y-907084D01*
X-397205Y-905306D01*
X-392430Y-903884D01*
X-386994Y-902868D01*
X-380542Y-902208D01*
X-372770Y-902004D01*
X-372770Y-876604D01*
X-380542Y-876401D01*
X-386943Y-875741D01*
X-392430Y-874725D01*
X-397205Y-873302D01*
X-401624Y-871524D01*
G37*
G36*
X-805383Y-891133D02*
G01*
X-876706Y-959713D01*
X-805383Y-1028293D01*
X-789736Y-1019708D01*
X-776935Y-1011072D01*
X-755904Y-994613D01*
X-745845Y-987399D01*
X-734771Y-981303D01*
X-721817Y-976528D01*
X-705916Y-973480D01*
X-686206Y-972413D01*
X-686206Y-947013D01*
X-705916Y-945896D01*
X-721817Y-942848D01*
X-734771Y-938123D01*
X-745845Y-932027D01*
X-755904Y-924814D01*
X-776935Y-908354D01*
X-789736Y-899668D01*
G37*
G36*
X-507746Y-1014272D02*
G01*
X-525729Y-1032256D01*
X-520395Y-1037844D01*
X-516280Y-1042873D01*
X-513181Y-1047496D01*
X-510793Y-1051864D01*
X-508914Y-1056233D01*
X-502158Y-1077264D01*
X-461924Y-1078077D01*
X-462737Y-1037793D01*
X-483819Y-1031036D01*
X-488137Y-1029208D01*
X-492556Y-1026820D01*
X-497128Y-1023670D01*
X-502158Y-1019606D01*
G37*
D10*
X723905Y-1409697D02*
G01*
X723905Y-1384305D01*
X63500Y-723900D01*
D11*
X2143302Y-1410007D02*
G01*
X2408895Y-1675599D01*
X2418361Y-1687134D01*
X2426652Y-1699541D01*
X2433685Y-1712701D01*
X2439398Y-1726488D01*
X2443728Y-1740768D01*
X2446639Y-1755406D01*
X2448102Y-1770255D01*
X2448102Y-1956104D01*
D12*
X187426Y-1333804D02*
G01*
X155986Y-1365244D01*
X146497Y-1379448D01*
X139959Y-1395229D01*
X136626Y-1411983D01*
X136626Y-1490080D01*
X140792Y-1511023D01*
X148963Y-1530751D01*
X160827Y-1548505D01*
X175925Y-1563603D01*
X193680Y-1575468D01*
X213408Y-1583639D01*
X234350Y-1587804D01*
X289880Y-1587804D01*
X312671Y-1592338D01*
X334142Y-1601231D01*
X353463Y-1614142D01*
X568426Y-1829104D01*
D11*
X1952800Y-1956104D02*
G01*
X1952800Y-1956104D01*
X670102Y-673407D01*
D12*
X-838616Y-759701D02*
G01*
X-715937Y-759701D01*
X-693145Y-764235D01*
X-671675Y-773127D01*
X-652353Y-786038D01*
X-435734Y-1002657D01*
X-422823Y-1021979D01*
X-413931Y-1043449D01*
X-409397Y-1066241D01*
X-409397Y-1168704D01*
X644702Y-1752904D02*
G01*
X404342Y-1512544D01*
X385020Y-1499633D01*
X363550Y-1490741D01*
X340758Y-1486207D01*
X212902Y-1486207D01*
X-358597Y-800404D02*
G01*
X-65633Y-800404D01*
X-42842Y-804938D01*
X-21371Y-813831D01*
X-2049Y-826742D01*
X656478Y-1485270D01*
X675800Y-1498180D01*
X697270Y-1507073D01*
X720062Y-1511607D01*
X847902Y-1511607D01*
X733602Y-1651304D02*
G01*
X733602Y-1638594D01*
X10652Y-915644D01*
X-8669Y-902733D01*
X-30139Y-893841D01*
X-52931Y-889307D01*
X-434797Y-889307D01*
X-838616Y-959703D02*
G01*
X-617545Y-959703D01*
X-594753Y-964237D01*
X-573283Y-973129D01*
X-553961Y-986040D01*
X-472897Y-1067104D01*
D13*
X2794000Y-863600D02*
G01*
X2744442Y-814042D01*
X2732953Y-804613D01*
X2720596Y-796358D01*
X2707490Y-789353D01*
X2693761Y-783663D01*
X2679537Y-779350D01*
X2664962Y-776452D01*
X2650172Y-774994D01*
X2270729Y-774994D01*
X2253609Y-776681D01*
X2236734Y-780036D01*
X2220272Y-785032D01*
X2204377Y-791616D01*
X2189203Y-799726D01*
X2174897Y-809284D01*
X2161598Y-820199D01*
X2091060Y-890737D01*
X2073483Y-902482D01*
X2053955Y-910569D01*
X2033221Y-914694D01*
X1978202Y-914694D01*
D14*
G01*
X-836574Y-2470861D03*
D15*
G01*
X-836574Y-2720847D03*
G01*
X-836574Y-2920847D03*
D14*
G01*
X-836574Y-3170859D03*
D16*
G01*
X-1076578Y-3478352D03*
G01*
X-1076578Y-2163343D03*
D14*
G01*
X-838606Y-509727D03*
D15*
G01*
X-838606Y-759713D03*
G01*
X-838606Y-959713D03*
D14*
G01*
X-838606Y-1209725D03*
D16*
G01*
X-1078610Y-1517218D03*
G01*
X-1078610Y-202209D03*
D17*
G01*
X2228316Y1117D03*
D18*
G01*
X2101316Y128117D03*
G01*
X1974316Y1117D03*
D15*
G01*
X-550214Y1079093D03*
G01*
X-550214Y569087D03*
G01*
X-550214Y823087D03*
D20*
G01*
X-99999Y787D03*
D21*
G01*
X0Y100787D03*
D20*
G01*
X99999Y787D03*
D22*
G01*
X-1357299Y-2608249D03*
G01*
X-1357299Y-2745714D03*
G01*
X-1357299Y-3020644D03*
G01*
X-1357299Y-2883179D03*
G01*
X-1357299Y-2470810D03*
G01*
X-1357299Y-3158109D03*
G01*
X-1357299Y-516915D03*
G01*
X-1357299Y-654354D03*
G01*
X-1357299Y-791819D03*
G01*
X-1357299Y-929284D03*
G01*
X-1357299Y-1066749D03*
G01*
X-1357299Y-1204213D03*
G01*
X3257804Y-2091715D03*
G01*
X3727704Y-2764815D03*
G01*
X2168702Y-3848404D03*
G01*
X1644904Y-3857015D03*
G01*
X984504Y-3374415D03*
G01*
X1073404Y-3374415D03*
G01*
X984504Y-3463315D03*
G01*
X1073404Y-3463315D03*
G01*
X1073404Y-3552215D03*
G01*
X994994Y-3674998D03*
G01*
X994994Y-3764991D03*
G01*
X924991Y-3674998D03*
G01*
X924991Y-3764991D03*
G01*
X1962404Y-2421915D03*
G01*
X2102104Y-2421915D03*
G01*
X2216404Y-2536215D03*
G01*
X2216404Y-2675915D03*
G01*
X2216404Y-2815615D03*
G01*
X2102104Y-2942615D03*
G01*
X1962404Y-2942615D03*
G01*
X1822704Y-2942615D03*
G01*
X1695704Y-2828315D03*
G01*
X1695704Y-2688615D03*
G01*
X1695704Y-2536215D03*
G01*
X1822704Y-2421915D03*
G01*
X974902Y-1702104D03*
G01*
X1063802Y-1702104D03*
G01*
X974902Y-1613204D03*
G01*
X1063802Y-1613204D03*
G01*
X-1631695Y194284D03*
G01*
X-1399997Y-4254804D03*
G01*
X-1093596Y-4254804D03*
G01*
X-787222Y-4254804D03*
G01*
X-480821Y-4254804D03*
G01*
X-174447Y-4254804D03*
G01*
X131953Y-4254804D03*
G01*
X438327Y-4254804D03*
G01*
X744728Y-4254804D03*
G01*
X1051102Y-4254804D03*
G01*
X1357503Y-4254804D03*
G01*
X1663877Y-4254804D03*
G01*
X1970278Y-4254804D03*
G01*
X2276652Y-4254804D03*
G01*
X2583053Y-4254804D03*
G01*
X2889427Y-4254804D03*
G01*
X3195828Y-4254804D03*
G01*
X3502202Y-4254804D03*
G01*
X3807002Y-3932529D03*
G01*
X3807002Y-3626154D03*
G01*
X3807002Y-3319754D03*
G01*
X3807002Y-3013379D03*
G01*
X3807002Y-2706979D03*
G01*
X3807002Y-2400604D03*
G01*
X3807002Y-2094204D03*
G01*
X3807002Y-1787829D03*
G01*
X3807002Y-1481429D03*
G01*
X3807002Y-1175054D03*
G01*
X3807002Y-868654D03*
G01*
X3807002Y-562279D03*
G01*
X3807002Y-255879D03*
G01*
X3807002Y50495D03*
G01*
X3807002Y356895D03*
G01*
X3807002Y663270D03*
G01*
X3807002Y969670D03*
G01*
X-1399997Y1256995D03*
G01*
X-1093596Y1256995D03*
G01*
X-787222Y1256995D03*
G01*
X-480821Y1256995D03*
G01*
X-174447Y1256995D03*
G01*
X131953Y1256995D03*
G01*
X438327Y1256995D03*
G01*
X744728Y1256995D03*
G01*
X1051102Y1256995D03*
G01*
X1357503Y1256995D03*
G01*
X1663877Y1256995D03*
G01*
X1970278Y1256995D03*
G01*
X2276652Y1256995D03*
G01*
X2583053Y1256995D03*
G01*
X2889427Y1256995D03*
G01*
X3195828Y1256995D03*
G01*
X3502202Y1256995D03*
G01*
X-1704797Y-3950004D03*
G01*
X-1704797Y-3643604D03*
G01*
X-1704797Y-3337229D03*
G01*
X-1704797Y-3030829D03*
G01*
X-1704797Y-2724454D03*
G01*
X-1704797Y-2418054D03*
G01*
X-1704797Y-2111679D03*
G01*
X-1704797Y-1805279D03*
G01*
X-1704797Y-1498904D03*
G01*
X-1704797Y-1192504D03*
G01*
X-1704797Y-886129D03*
G01*
X-1704797Y-579729D03*
G01*
X-1704797Y-273354D03*
G01*
X-1704797Y33045D03*
G01*
X-1704797Y339420D03*
G01*
X-1704797Y645820D03*
G01*
X-1704797Y952195D03*
G01*
X-1615897Y-4165904D03*
G01*
X3718102Y-4165904D03*
G01*
X3718102Y1155395D03*
G01*
X-1615897Y1168095D03*
G01*
X1127302Y1383995D03*
G01*
X1952802Y-1956104D03*
G01*
X2448102Y-1956104D03*
G01*
X670102Y-673404D03*
G01*
X2143302Y-1410004D03*
G01*
X847902Y-1511604D03*
G01*
X733602Y-1651304D03*
G01*
X1978202Y-914704D03*
G01*
X568502Y-1829104D03*
G01*
X2794000Y-863600D03*
G01*
X-358597Y-800404D03*
G01*
X-434797Y-889304D03*
G01*
X-472897Y-1067104D03*
G01*
X-409397Y-1168704D03*
G01*
X723900Y-1409700D03*
G01*
X63500Y-723900D03*
G01*
X187502Y-1333804D03*
G01*
X212902Y-1486204D03*
G01*
X644702Y-1752904D03*
G01*
X-244297Y-533704D03*
G01*
X-91897Y-533704D03*
G01*
X-536397Y-597204D03*
G01*
X-520700Y-1155700D03*
G01*
X-431800Y-1270000D03*
G01*
X-939800Y-863600D03*
G01*
X50800Y-1676400D03*
G01*
X495300Y-1905000D03*
G01*
X1866900Y-1981200D03*
G01*
X2032000Y-1905000D03*
G01*
X596900Y-609600D03*
G01*
X584200Y-723900D03*
G01*
X685800Y-571500D03*
G01*
X685800Y-482600D03*
G01*
X1079500Y-546100D03*
G01*
X1079500Y-635000D03*
G01*
X1079500Y-723900D03*
G01*
X698500Y190500D03*
G01*
X800100Y190500D03*
G01*
X800100Y88900D03*
G01*
X-876300Y-1714500D03*
G01*
X-876300Y-1803400D03*
G01*
X-876300Y-1892300D03*
G01*
X-876300Y-1981200D03*
G01*
X-965200Y-1892300D03*
G01*
X-965200Y-1803400D03*
G01*
X-444500Y-2590800D03*
G01*
X-444500Y-2667000D03*
G01*
X-520700Y-2590800D03*
G01*
X-520700Y-2667000D03*
G01*
X-406400Y-2743200D03*
G01*
X-406400Y-2819400D03*
G01*
X266700Y-2578100D03*
G01*
X342900Y-2578100D03*
G01*
X266700Y-2654300D03*
G01*
X342900Y-2654300D03*
G01*
X241300Y-2730500D03*
G01*
X241300Y-2806700D03*
G01*
X355600Y-2857500D03*
G01*
X355600Y-2933700D03*
G01*
X355600Y-3009900D03*
G01*
X355600Y-3086100D03*
G01*
X3454400Y-1536700D03*
G01*
X3124200Y-927100D03*
G01*
X3200400Y-927100D03*
G01*
X2768600Y-723900D03*
G01*
X2260600Y-927100D03*
G01*
X1943100Y-1028700D03*
G01*
X1943100Y-1104900D03*
G01*
X1943100Y-1181100D03*
G01*
X2286000Y-1409700D03*
G01*
X2692400Y-1117600D03*
G01*
X2781300Y-1219200D03*
G01*
X1968500Y-533400D03*
G01*
X2349500Y-1955800D03*
G01*
X2540000Y-1955800D03*
G01*
X2057400Y-1422400D03*
G01*
X2057400Y-1346200D03*
G01*
X2921000Y-3543300D03*
G01*
X2641600Y-3543300D03*
G01*
X2705100Y-3263900D03*
G01*
X2832100Y-3263900D03*
G01*
X2463800Y-3543300D03*
G01*
X2336800Y-3543300D03*
G01*
X1752600Y-1447800D03*
G01*
X1752600Y-1149350D03*
G01*
X1752600Y-812800D03*
G01*
X1752600Y-552450D03*
G01*
X1752600Y-254000D03*
G01*
X1752600Y44450D03*
G01*
X1752600Y342900D03*
G01*
X2070100Y342900D03*
G01*
X2374900Y342900D03*
G01*
X2679700Y342900D03*
G01*
X2984500Y66675D03*
G01*
X2984500Y-209550D03*
G01*
X3378200Y-1358900D03*
G01*
X3378200Y-1060450D03*
G01*
X3378200Y-762000D03*
G01*
X2984500Y-762000D03*
G01*
X3181350Y-762000D03*
G01*
X2984500Y-485775D03*
G01*
X2984500Y342900D03*
G01*
X654989Y-1124991D03*
G01*
X654989Y-1199997D03*
G01*
X949985Y-1170000D03*
G01*
X1024991Y-1170000D03*
G01*
X2529992Y-675004D03*
G01*
X2610002Y-675004D03*
G01*
X2689987Y-675004D03*
M02*
