G04 Layer: TopLayer*
G04 EasyEDA v6.5.51, 2025-10-19 23:19:45*
G04 7b2d1a5a50ca49e0b1e0c3d03fbfd553,f84f62d461a54663ae58951fd378ab02,10*
G04 Gerber Generator version 0.2*
G04 Scale: 100 percent, Rotated: No, Reflected: No *
G04 Dimensions in millimeters *
G04 leading zeros omitted , absolute positions ,4 integer and 5 decimal *
%FSLAX45Y45*%
%MOMM*%

%AMMACRO1*21,1,$1,$2,0,0,$3*%
%ADD10C,0.5000*%
%ADD11C,0.8000*%
%ADD12C,0.2000*%
%ADD13C,0.4000*%
%ADD14C,0.2540*%
%ADD15C,0.0126*%
%ADD16C,0.3000*%
%ADD17C,0.7000*%
%ADD18MACRO1,0.54X0.5656X0.0000*%
%ADD19R,0.5400X0.5657*%
%ADD20MACRO1,0.54X0.7901X0.0000*%
%ADD21R,0.5400X0.7901*%
%ADD22R,0.4000X0.5100*%
%ADD23MACRO1,0.54X0.5656X90.0000*%
%ADD24R,0.2500X0.7500*%
%ADD25R,0.7500X0.2500*%
%ADD26R,1.7000X1.7000*%
%ADD27R,0.8000X0.9000*%
%ADD28MACRO1,1.35X1.41X0.0000*%
%ADD29R,1.3500X1.4100*%
%ADD30MACRO1,1.35X1.41X-90.0000*%
%ADD31MACRO1,0.54X0.7901X-90.0000*%
%ADD32MACRO1,0.54X0.7901X90.0000*%
%ADD33MACRO1,2.7X1.635X90.0000*%
%ADD34R,0.8000X0.8000*%
%ADD35R,1.0000X0.8000*%
%ADD36MACRO1,0.54X0.5656X-90.0000*%
%ADD37MACRO1,1.377X1.1325X-90.0000*%
%ADD38MACRO1,0.864X0.8065X0.0000*%
%ADD39R,0.8640X0.8065*%
%ADD40R,1.7000X0.8000*%
%ADD41R,0.8000X1.7000*%
%ADD42R,1.1000X0.6000*%
%ADD43R,1.1000X2.5000*%
%ADD44MACRO1,3.6X2.34X0.0000*%
%ADD45R,0.9000X1.5000*%
%ADD46R,1.5000X0.9000*%
%ADD47R,0.9000X0.9000*%
%ADD48R,1.3000X1.3000*%
%ADD49R,0.2500X0.5210*%
%ADD50R,1.6000X0.9000*%
%ADD51O,0.489991X0.910006*%
%ADD52MACRO1,1.9X1.2X0.0000*%
%ADD53R,1.3000X1.6000*%
%ADD54R,2.0000X1.6000*%
%ADD55O,1.999996X1.999996*%
%ADD56C,1.5240*%
%ADD57C,3.3000*%
%ADD58O,1.599946X1.199896*%
%ADD59C,1.3000*%
%ADD60C,1.1000*%
%ADD61O,1.099998X1.099998*%
%ADD62C,0.6200*%

%LPD*%
G36*
X-1399184Y-4309465D02*
G01*
X-1424838Y-4308602D01*
X-1449273Y-4306062D01*
X-1473454Y-4301845D01*
X-1497279Y-4296003D01*
X-1520647Y-4288586D01*
X-1543507Y-4279544D01*
X-1565656Y-4268978D01*
X-1587042Y-4256938D01*
X-1607566Y-4243476D01*
X-1627073Y-4228592D01*
X-1645564Y-4212437D01*
X-1662887Y-4195064D01*
X-1679041Y-4176572D01*
X-1693824Y-4157014D01*
X-1707286Y-4136440D01*
X-1719275Y-4115054D01*
X-1729790Y-4092905D01*
X-1738782Y-4070045D01*
X-1746199Y-4046626D01*
X-1751990Y-4022801D01*
X-1756105Y-3998620D01*
X-1758594Y-3974185D01*
X-1759457Y-3949141D01*
X-1759457Y949147D01*
X-1758543Y974852D01*
X-1756003Y999286D01*
X-1751838Y1023467D01*
X-1745996Y1047292D01*
X-1738528Y1070711D01*
X-1729536Y1093520D01*
X-1718970Y1115669D01*
X-1706930Y1137056D01*
X-1693418Y1157579D01*
X-1678584Y1177086D01*
X-1662480Y1195578D01*
X-1645056Y1212951D01*
X-1626565Y1229055D01*
X-1606956Y1243838D01*
X-1586433Y1257300D01*
X-1565046Y1269288D01*
X-1542846Y1279804D01*
X-1520037Y1288796D01*
X-1496618Y1296212D01*
X-1472742Y1302004D01*
X-1448562Y1306169D01*
X-1424178Y1308608D01*
X-1399184Y1309471D01*
X3499154Y1309471D01*
X3524910Y1308608D01*
X3549294Y1306068D01*
X3573475Y1301851D01*
X3597351Y1296009D01*
X3620719Y1288592D01*
X3643528Y1279550D01*
X3665677Y1268984D01*
X3687064Y1256944D01*
X3707587Y1243431D01*
X3727145Y1228598D01*
X3745636Y1212443D01*
X3762959Y1195070D01*
X3779062Y1176578D01*
X3793896Y1157020D01*
X3807307Y1136446D01*
X3819347Y1115060D01*
X3829862Y1092860D01*
X3838854Y1070051D01*
X3846220Y1046632D01*
X3852011Y1022807D01*
X3856177Y998575D01*
X3858615Y974191D01*
X3859529Y949147D01*
X3859529Y-3949141D01*
X3858615Y-3974846D01*
X3856075Y-3999280D01*
X3851859Y-4023461D01*
X3846068Y-4047286D01*
X3838600Y-4070705D01*
X3829558Y-4093514D01*
X3818991Y-4115663D01*
X3806951Y-4137050D01*
X3793490Y-4157573D01*
X3778656Y-4177131D01*
X3762501Y-4195572D01*
X3745128Y-4212945D01*
X3726586Y-4229049D01*
X3707028Y-4243832D01*
X3686505Y-4257294D01*
X3665067Y-4269282D01*
X3642918Y-4279849D01*
X3620058Y-4288790D01*
X3596690Y-4296206D01*
X3572814Y-4301998D01*
X3548634Y-4306163D01*
X3524199Y-4308652D01*
X3499154Y-4309465D01*
G37*

%LPC*%
G36*
X34696Y-4166412D02*
G01*
X2397607Y-4166412D01*
X2406142Y-4165549D01*
X2427935Y-4161231D01*
X2436114Y-4158742D01*
X2456688Y-4150258D01*
X2464206Y-4146194D01*
X2482748Y-4133850D01*
X2489352Y-4128414D01*
X2839059Y-3778707D01*
X2844495Y-3772103D01*
X2856839Y-3753612D01*
X2860903Y-3746042D01*
X2869387Y-3725468D01*
X2871876Y-3717290D01*
X2876194Y-3695496D01*
X2877058Y-3686962D01*
X2877058Y-3517950D01*
X2877718Y-3514293D01*
X2879648Y-3511194D01*
X2882544Y-3508908D01*
X2886100Y-3507841D01*
X2889300Y-3507486D01*
X2894736Y-3505555D01*
X2899664Y-3502507D01*
X2903728Y-3498392D01*
X2906826Y-3493515D01*
X2908757Y-3488029D01*
X2909468Y-3481730D01*
X2909468Y-3332835D01*
X2908757Y-3326536D01*
X2906826Y-3321050D01*
X2904439Y-3317240D01*
X2902966Y-3313226D01*
X2903321Y-3308959D01*
X2905404Y-3305149D01*
X2908808Y-3302609D01*
X2913024Y-3301695D01*
X3040989Y-3301695D01*
X3047288Y-3300984D01*
X3052775Y-3299053D01*
X3057652Y-3296005D01*
X3061766Y-3291890D01*
X3064814Y-3287014D01*
X3066745Y-3281527D01*
X3067456Y-3275228D01*
X3067456Y-3186379D01*
X3066745Y-3180029D01*
X3064814Y-3174593D01*
X3063646Y-3172714D01*
X3062274Y-3169158D01*
X3062274Y-3165398D01*
X3063646Y-3161893D01*
X3064814Y-3160014D01*
X3066745Y-3154527D01*
X3067456Y-3148228D01*
X3067456Y-3059379D01*
X3066745Y-3053029D01*
X3064814Y-3047593D01*
X3063646Y-3045714D01*
X3062274Y-3042158D01*
X3062274Y-3038398D01*
X3063646Y-3034893D01*
X3064814Y-3033014D01*
X3066745Y-3027527D01*
X3067456Y-3021228D01*
X3067456Y-2932379D01*
X3066745Y-2926029D01*
X3064814Y-2920593D01*
X3063646Y-2918714D01*
X3062274Y-2915158D01*
X3062274Y-2911398D01*
X3063646Y-2907893D01*
X3064814Y-2906014D01*
X3066745Y-2900527D01*
X3067456Y-2894228D01*
X3067456Y-2805379D01*
X3066745Y-2799029D01*
X3064814Y-2793593D01*
X3063646Y-2791714D01*
X3062274Y-2788158D01*
X3062274Y-2784398D01*
X3063646Y-2780893D01*
X3064814Y-2779014D01*
X3066745Y-2773527D01*
X3067456Y-2767228D01*
X3067456Y-2678379D01*
X3066745Y-2672029D01*
X3064814Y-2666593D01*
X3063646Y-2664714D01*
X3062274Y-2661158D01*
X3062274Y-2657398D01*
X3063646Y-2653893D01*
X3064814Y-2652014D01*
X3066745Y-2646527D01*
X3067456Y-2640228D01*
X3067456Y-2551379D01*
X3066745Y-2545029D01*
X3064814Y-2539593D01*
X3063646Y-2537714D01*
X3062274Y-2534158D01*
X3062274Y-2530398D01*
X3063646Y-2526893D01*
X3064814Y-2525014D01*
X3066745Y-2519527D01*
X3067456Y-2513228D01*
X3067456Y-2424379D01*
X3066745Y-2418029D01*
X3064814Y-2412593D01*
X3063646Y-2410714D01*
X3062274Y-2407158D01*
X3062274Y-2403398D01*
X3063646Y-2399893D01*
X3064814Y-2398014D01*
X3066745Y-2392527D01*
X3067456Y-2386228D01*
X3067456Y-2297379D01*
X3066745Y-2291029D01*
X3064814Y-2285593D01*
X3063595Y-2283612D01*
X3062224Y-2280158D01*
X3062224Y-2276449D01*
X3063544Y-2272944D01*
X3065526Y-2269693D01*
X3067812Y-2267051D01*
X3070809Y-2265375D01*
X3074212Y-2264816D01*
X3225139Y-2264816D01*
X3229000Y-2265578D01*
X3232302Y-2267762D01*
X3235655Y-2271115D01*
X3240532Y-2274163D01*
X3246018Y-2276094D01*
X3252317Y-2276805D01*
X3307740Y-2276805D01*
X3314090Y-2276094D01*
X3319932Y-2274011D01*
X3323336Y-2273452D01*
X3326688Y-2274011D01*
X3332581Y-2276094D01*
X3338880Y-2276805D01*
X3394303Y-2276805D01*
X3400653Y-2276094D01*
X3406089Y-2274163D01*
X3410965Y-2271115D01*
X3414369Y-2267712D01*
X3417671Y-2265527D01*
X3421583Y-2264714D01*
X3612438Y-2264714D01*
X3614369Y-2264918D01*
X3628542Y-2267762D01*
X3630523Y-2268321D01*
X3643884Y-2273858D01*
X3645662Y-2274824D01*
X3657650Y-2282901D01*
X3659225Y-2284171D01*
X3669436Y-2294432D01*
X3670706Y-2295956D01*
X3678732Y-2308047D01*
X3679698Y-2309774D01*
X3685235Y-2323236D01*
X3685794Y-2325116D01*
X3688638Y-2339390D01*
X3688842Y-2341321D01*
X3688842Y-2425395D01*
X3687978Y-2429459D01*
X3685590Y-2432812D01*
X3682034Y-2434996D01*
X3678478Y-2436215D01*
X3673601Y-2439314D01*
X3669487Y-2443378D01*
X3666439Y-2448306D01*
X3664508Y-2453741D01*
X3663797Y-2460040D01*
X3663797Y-2538933D01*
X3664508Y-2545232D01*
X3666439Y-2550718D01*
X3669487Y-2555595D01*
X3673601Y-2559710D01*
X3678478Y-2562758D01*
X3683965Y-2564688D01*
X3690264Y-2565400D01*
X3769156Y-2565400D01*
X3775456Y-2564688D01*
X3780942Y-2562758D01*
X3785819Y-2559710D01*
X3789934Y-2555595D01*
X3792982Y-2550718D01*
X3794912Y-2545232D01*
X3795623Y-2538933D01*
X3795623Y-2460040D01*
X3794912Y-2453741D01*
X3792982Y-2448306D01*
X3789934Y-2443378D01*
X3785819Y-2439314D01*
X3780942Y-2436215D01*
X3777437Y-2434996D01*
X3773881Y-2432862D01*
X3771493Y-2429459D01*
X3770629Y-2425395D01*
X3770629Y-2336850D01*
X3769715Y-2327859D01*
X3765194Y-2304745D01*
X3762552Y-2296160D01*
X3753561Y-2274366D01*
X3749344Y-2266442D01*
X3736289Y-2246833D01*
X3730599Y-2239873D01*
X3713937Y-2223160D01*
X3706977Y-2217470D01*
X3687419Y-2204313D01*
X3679494Y-2200046D01*
X3657701Y-2191054D01*
X3649065Y-2188413D01*
X3625951Y-2183790D01*
X3617010Y-2182926D01*
X3421430Y-2182926D01*
X3417519Y-2182164D01*
X3414217Y-2179929D01*
X3410965Y-2176678D01*
X3406089Y-2173630D01*
X3400653Y-2171700D01*
X3394303Y-2170988D01*
X3338880Y-2170988D01*
X3332581Y-2171700D01*
X3326688Y-2173782D01*
X3323336Y-2174341D01*
X3319932Y-2173782D01*
X3314090Y-2171700D01*
X3307740Y-2170988D01*
X3252317Y-2170988D01*
X3246018Y-2171700D01*
X3240532Y-2173630D01*
X3235655Y-2176678D01*
X3232302Y-2180031D01*
X3229000Y-2182215D01*
X3225139Y-2182977D01*
X3077565Y-2182977D01*
X3073704Y-2182215D01*
X3070402Y-2180031D01*
X3068218Y-2176729D01*
X3067456Y-2172817D01*
X3067456Y-2170379D01*
X3066745Y-2164029D01*
X3064814Y-2158593D01*
X3063646Y-2156714D01*
X3062274Y-2153158D01*
X3062274Y-2149398D01*
X3063646Y-2145893D01*
X3064814Y-2144014D01*
X3066745Y-2138527D01*
X3067456Y-2132228D01*
X3067456Y-2043379D01*
X3066745Y-2037029D01*
X3064814Y-2031593D01*
X3063646Y-2029714D01*
X3062274Y-2026157D01*
X3062274Y-2022398D01*
X3063646Y-2018893D01*
X3064814Y-2017014D01*
X3066745Y-2011527D01*
X3067456Y-2005228D01*
X3067456Y-1916379D01*
X3066745Y-1910029D01*
X3064814Y-1904593D01*
X3062122Y-1900326D01*
X3060903Y-1897481D01*
X3060598Y-1894433D01*
X3061208Y-1891385D01*
X3063748Y-1884476D01*
X3064459Y-1878228D01*
X3064459Y-1789379D01*
X3063748Y-1783029D01*
X3061817Y-1777593D01*
X3058769Y-1772666D01*
X3054654Y-1768602D01*
X3049778Y-1765503D01*
X3044291Y-1763572D01*
X3037992Y-1762861D01*
X2913024Y-1762861D01*
X2908808Y-1761947D01*
X2905404Y-1759407D01*
X2903321Y-1755648D01*
X2902966Y-1751380D01*
X2904439Y-1747316D01*
X2906826Y-1743506D01*
X2908757Y-1738020D01*
X2909468Y-1731721D01*
X2909468Y-1711248D01*
X2910230Y-1707388D01*
X2912414Y-1704086D01*
X2915716Y-1701901D01*
X2919628Y-1701088D01*
X3140710Y-1701088D01*
X3144774Y-1701952D01*
X3148177Y-1704339D01*
X3150311Y-1707896D01*
X3151530Y-1711401D01*
X3154629Y-1716328D01*
X3158642Y-1720392D01*
X3163620Y-1723491D01*
X3169056Y-1725371D01*
X3175406Y-1726082D01*
X3344265Y-1726082D01*
X3350564Y-1725371D01*
X3356051Y-1723491D01*
X3360928Y-1720392D01*
X3365042Y-1716328D01*
X3368090Y-1711401D01*
X3370021Y-1705965D01*
X3370732Y-1699615D01*
X3370732Y-1620774D01*
X3370021Y-1614424D01*
X3368090Y-1608988D01*
X3365042Y-1604060D01*
X3360928Y-1599996D01*
X3356051Y-1596898D01*
X3350564Y-1595018D01*
X3344265Y-1594307D01*
X3326434Y-1594307D01*
X3322218Y-1593392D01*
X3318764Y-1590802D01*
X3316681Y-1587042D01*
X3316325Y-1582775D01*
X3317798Y-1578711D01*
X3320034Y-1575206D01*
X3321913Y-1569770D01*
X3322624Y-1563420D01*
X3322624Y-1510588D01*
X3321913Y-1504238D01*
X3320034Y-1498803D01*
X3316935Y-1493875D01*
X3312820Y-1489811D01*
X3307943Y-1486712D01*
X3302457Y-1484782D01*
X3296158Y-1484071D01*
X3218281Y-1484071D01*
X3211982Y-1484782D01*
X3206496Y-1486712D01*
X3201619Y-1489811D01*
X3197504Y-1493875D01*
X3194456Y-1498803D01*
X3192526Y-1504238D01*
X3191814Y-1510588D01*
X3191814Y-1563420D01*
X3192526Y-1569770D01*
X3194456Y-1575206D01*
X3196640Y-1578711D01*
X3198114Y-1582775D01*
X3197758Y-1587042D01*
X3195675Y-1590802D01*
X3192221Y-1593392D01*
X3188055Y-1594307D01*
X3175406Y-1594307D01*
X3169056Y-1595018D01*
X3163620Y-1596898D01*
X3158642Y-1599996D01*
X3154629Y-1604060D01*
X3151530Y-1608988D01*
X3150311Y-1612493D01*
X3148177Y-1616049D01*
X3144774Y-1618437D01*
X3140710Y-1619300D01*
X2919628Y-1619300D01*
X2915716Y-1618538D01*
X2912414Y-1616303D01*
X2910230Y-1613001D01*
X2909468Y-1609140D01*
X2909468Y-1582877D01*
X2908757Y-1576527D01*
X2906826Y-1571091D01*
X2903728Y-1566164D01*
X2899664Y-1562100D01*
X2894736Y-1559001D01*
X2889300Y-1557070D01*
X2882950Y-1556359D01*
X2794101Y-1556359D01*
X2787802Y-1557070D01*
X2782316Y-1559001D01*
X2780436Y-1560169D01*
X2776931Y-1561592D01*
X2773172Y-1561592D01*
X2769616Y-1560169D01*
X2767736Y-1559001D01*
X2762300Y-1557070D01*
X2755950Y-1556359D01*
X2667101Y-1556359D01*
X2660802Y-1557070D01*
X2655316Y-1559001D01*
X2653436Y-1560169D01*
X2649931Y-1561592D01*
X2646172Y-1561592D01*
X2642616Y-1560169D01*
X2640736Y-1559001D01*
X2635300Y-1557070D01*
X2628950Y-1556359D01*
X2540101Y-1556359D01*
X2533802Y-1557070D01*
X2528316Y-1559001D01*
X2526436Y-1560169D01*
X2522931Y-1561592D01*
X2519172Y-1561592D01*
X2515616Y-1560169D01*
X2513736Y-1559001D01*
X2508300Y-1557070D01*
X2501950Y-1556359D01*
X2413101Y-1556359D01*
X2406802Y-1557070D01*
X2401316Y-1559001D01*
X2399436Y-1560169D01*
X2395931Y-1561592D01*
X2392172Y-1561592D01*
X2388616Y-1560169D01*
X2386736Y-1559001D01*
X2381300Y-1557070D01*
X2374950Y-1556359D01*
X2286101Y-1556359D01*
X2279802Y-1557070D01*
X2274316Y-1559001D01*
X2272436Y-1560169D01*
X2268931Y-1561592D01*
X2265172Y-1561592D01*
X2261616Y-1560169D01*
X2259736Y-1559001D01*
X2254300Y-1557070D01*
X2247950Y-1556359D01*
X2159101Y-1556359D01*
X2152802Y-1557070D01*
X2147316Y-1559001D01*
X2145436Y-1560169D01*
X2141931Y-1561592D01*
X2138172Y-1561592D01*
X2134616Y-1560169D01*
X2132736Y-1559001D01*
X2127300Y-1557070D01*
X2120950Y-1556359D01*
X2032101Y-1556359D01*
X2025802Y-1557070D01*
X2020316Y-1559001D01*
X2018436Y-1560169D01*
X2014931Y-1561592D01*
X2011172Y-1561592D01*
X2007616Y-1560169D01*
X2005736Y-1559001D01*
X2000300Y-1557070D01*
X1993950Y-1556359D01*
X1905101Y-1556359D01*
X1898802Y-1557070D01*
X1893316Y-1559001D01*
X1891436Y-1560169D01*
X1887931Y-1561592D01*
X1884172Y-1561592D01*
X1880616Y-1560169D01*
X1878736Y-1559001D01*
X1873300Y-1557070D01*
X1866950Y-1556359D01*
X1778101Y-1556359D01*
X1771802Y-1557070D01*
X1766316Y-1559001D01*
X1764436Y-1560169D01*
X1760931Y-1561592D01*
X1757172Y-1561592D01*
X1753616Y-1560169D01*
X1751736Y-1559001D01*
X1746300Y-1557070D01*
X1743710Y-1556816D01*
X1740001Y-1555648D01*
X1737004Y-1553108D01*
X1735124Y-1549654D01*
X1733143Y-1543100D01*
X1724507Y-1522171D01*
X1720494Y-1514652D01*
X1715058Y-1508099D01*
X1699056Y-1492097D01*
X1692503Y-1486662D01*
X1684985Y-1482648D01*
X1664055Y-1474012D01*
X1655927Y-1471523D01*
X1647443Y-1470710D01*
X910234Y-1470710D01*
X902919Y-1470507D01*
X895705Y-1469796D01*
X893622Y-1469390D01*
X886460Y-1467002D01*
X869238Y-1458874D01*
X864362Y-1457401D01*
X860806Y-1455420D01*
X858266Y-1452168D01*
X857199Y-1448206D01*
X857808Y-1444142D01*
X859942Y-1440688D01*
X863346Y-1438351D01*
X867359Y-1437487D01*
X1101445Y-1437487D01*
X1108405Y-1437182D01*
X1131824Y-1434846D01*
X1138732Y-1433830D01*
X1161796Y-1429258D01*
X1168603Y-1427530D01*
X1191158Y-1420723D01*
X1197711Y-1418386D01*
X1219454Y-1409344D01*
X1225753Y-1406347D01*
X1246530Y-1395272D01*
X1252474Y-1391666D01*
X1272082Y-1378610D01*
X1277670Y-1374444D01*
X1295857Y-1359509D01*
X1301038Y-1354836D01*
X1628749Y-1027125D01*
X1643075Y-1015339D01*
X1657705Y-1005636D01*
X1673250Y-997407D01*
X1689506Y-990701D01*
X1706321Y-985672D01*
X1723542Y-982268D01*
X1741068Y-980592D01*
X1977745Y-980592D01*
X1988464Y-979779D01*
X1998522Y-977341D01*
X2008073Y-973378D01*
X2016861Y-967994D01*
X2022602Y-963117D01*
X2025599Y-961339D01*
X2029104Y-960678D01*
X2064359Y-960628D01*
X2069287Y-961390D01*
X2074011Y-963168D01*
X2077872Y-965453D01*
X2080920Y-968705D01*
X2082342Y-972921D01*
X2081784Y-977341D01*
X2079396Y-981100D01*
X2074621Y-985875D01*
X2071522Y-990803D01*
X2069642Y-996238D01*
X2068931Y-1002588D01*
X2068931Y-1055420D01*
X2069642Y-1061770D01*
X2071522Y-1067206D01*
X2074621Y-1072083D01*
X2078736Y-1076198D01*
X2083612Y-1079296D01*
X2086610Y-1080312D01*
X2090166Y-1082497D01*
X2092604Y-1085850D01*
X2093417Y-1089914D01*
X2093417Y-1095044D01*
X2092604Y-1099108D01*
X2090166Y-1102512D01*
X2086610Y-1104646D01*
X2083612Y-1105712D01*
X2078736Y-1108811D01*
X2074621Y-1112875D01*
X2071522Y-1117803D01*
X2069642Y-1123238D01*
X2068931Y-1129588D01*
X2068931Y-1182420D01*
X2069642Y-1188770D01*
X2071522Y-1194206D01*
X2074621Y-1199083D01*
X2078736Y-1203198D01*
X2083612Y-1206296D01*
X2089099Y-1208176D01*
X2095398Y-1208887D01*
X2128012Y-1208887D01*
X2131923Y-1209700D01*
X2135225Y-1211884D01*
X2137410Y-1215186D01*
X2138172Y-1219098D01*
X2137410Y-1222959D01*
X2135174Y-1226261D01*
X2125726Y-1235710D01*
X2119731Y-1242872D01*
X2112822Y-1253236D01*
X2108352Y-1261465D01*
X2103577Y-1272946D01*
X2100834Y-1281887D01*
X2098395Y-1294079D01*
X2097430Y-1304036D01*
X2097278Y-1361795D01*
X2096617Y-1371193D01*
X2094788Y-1378915D01*
X2090978Y-1388008D01*
X2088286Y-1395679D01*
X2086660Y-1405178D01*
X2086660Y-1414830D01*
X2088286Y-1424330D01*
X2091486Y-1433423D01*
X2096211Y-1441856D01*
X2102256Y-1449374D01*
X2109520Y-1455724D01*
X2117699Y-1460804D01*
X2126691Y-1464360D01*
X2136089Y-1466392D01*
X2145741Y-1466850D01*
X2155291Y-1465580D01*
X2164537Y-1462786D01*
X2173122Y-1458417D01*
X2180894Y-1452676D01*
X2187600Y-1445717D01*
X2192985Y-1437741D01*
X2196947Y-1428953D01*
X2199386Y-1419606D01*
X2200198Y-1410004D01*
X2199386Y-1400403D01*
X2196846Y-1390904D01*
X2191867Y-1378915D01*
X2189784Y-1369618D01*
X2189327Y-1361287D01*
X2189226Y-1309065D01*
X2189784Y-1305356D01*
X2190800Y-1302512D01*
X2192426Y-1299413D01*
X2194915Y-1296365D01*
X2197658Y-1294130D01*
X2201621Y-1292148D01*
X2205583Y-1291132D01*
X2209088Y-1290828D01*
X2212441Y-1291793D01*
X2216607Y-1295095D01*
X2221484Y-1298194D01*
X2226970Y-1300073D01*
X2233269Y-1300784D01*
X2342134Y-1300784D01*
X2348484Y-1300073D01*
X2353919Y-1298194D01*
X2358847Y-1295095D01*
X2362911Y-1290980D01*
X2366010Y-1286103D01*
X2367889Y-1280617D01*
X2368600Y-1274318D01*
X2368600Y-1215440D01*
X2367889Y-1209141D01*
X2366010Y-1203655D01*
X2364079Y-1199286D01*
X2364079Y-1195527D01*
X2366010Y-1191107D01*
X2367889Y-1185672D01*
X2368600Y-1179322D01*
X2368600Y-1120444D01*
X2367889Y-1114145D01*
X2366010Y-1108659D01*
X2362911Y-1103782D01*
X2358847Y-1099667D01*
X2353919Y-1096619D01*
X2348484Y-1094689D01*
X2342134Y-1093978D01*
X2233269Y-1093978D01*
X2226970Y-1094689D01*
X2221484Y-1096619D01*
X2216607Y-1099667D01*
X2209952Y-1106779D01*
X2207006Y-1108405D01*
X2203602Y-1108964D01*
X2193188Y-1108964D01*
X2190394Y-1108608D01*
X2185060Y-1105712D01*
X2182063Y-1104646D01*
X2178507Y-1102512D01*
X2176068Y-1099108D01*
X2175256Y-1095044D01*
X2175256Y-1089914D01*
X2176068Y-1085850D01*
X2178507Y-1082497D01*
X2182063Y-1080312D01*
X2185060Y-1079296D01*
X2189937Y-1076198D01*
X2194052Y-1072083D01*
X2197150Y-1067206D01*
X2199030Y-1061770D01*
X2199741Y-1055420D01*
X2199741Y-1002588D01*
X2199030Y-996238D01*
X2197150Y-990803D01*
X2194052Y-985875D01*
X2189937Y-981811D01*
X2184146Y-978103D01*
X2181148Y-975258D01*
X2179574Y-971448D01*
X2176729Y-956868D01*
X2174087Y-947928D01*
X2168804Y-935228D01*
X2164435Y-926947D01*
X2156815Y-915517D01*
X2150922Y-908253D01*
X2141169Y-898550D01*
X2134006Y-892556D01*
X2122576Y-884936D01*
X2114397Y-880465D01*
X2101697Y-875233D01*
X2092756Y-872439D01*
X2079294Y-869746D01*
X2069998Y-868781D01*
X2029104Y-868730D01*
X2025599Y-868070D01*
X2022551Y-866292D01*
X2017623Y-862025D01*
X2015083Y-858774D01*
X2014067Y-854760D01*
X2013966Y-799134D01*
X2014829Y-795020D01*
X2017318Y-791565D01*
X2021027Y-789482D01*
X2025243Y-789076D01*
X2031898Y-789787D01*
X2087321Y-789787D01*
X2093671Y-789076D01*
X2099106Y-787196D01*
X2103983Y-784098D01*
X2108098Y-779983D01*
X2111197Y-775106D01*
X2113076Y-769670D01*
X2113788Y-763320D01*
X2113788Y-725271D01*
X2114600Y-721360D01*
X2116785Y-718058D01*
X2120087Y-715873D01*
X2123948Y-715111D01*
X2127554Y-715111D01*
X2131161Y-715772D01*
X2134311Y-717702D01*
X2136597Y-720598D01*
X2137765Y-725728D01*
X2139696Y-731215D01*
X2142794Y-736092D01*
X2146909Y-740206D01*
X2151786Y-743305D01*
X2157272Y-745185D01*
X2163572Y-745896D01*
X2216454Y-745896D01*
X2222754Y-745185D01*
X2228240Y-743305D01*
X2233117Y-740206D01*
X2237232Y-736092D01*
X2240280Y-731266D01*
X2242616Y-724204D01*
X2244394Y-720953D01*
X2247138Y-718616D01*
X2250592Y-717346D01*
X2254250Y-717397D01*
X2257653Y-718769D01*
X2262530Y-721817D01*
X2267966Y-723747D01*
X2274316Y-724458D01*
X2298141Y-724458D01*
X2304491Y-723747D01*
X2307844Y-722528D01*
X2311146Y-721969D01*
X2314600Y-722528D01*
X2317953Y-723747D01*
X2324303Y-724458D01*
X2348128Y-724458D01*
X2354478Y-723747D01*
X2357882Y-722528D01*
X2361234Y-721969D01*
X2364587Y-722528D01*
X2367991Y-723747D01*
X2374290Y-724458D01*
X2398115Y-724458D01*
X2404465Y-723747D01*
X2407869Y-722528D01*
X2411222Y-721969D01*
X2414574Y-722528D01*
X2417978Y-723747D01*
X2424277Y-724458D01*
X2448153Y-724458D01*
X2454452Y-723747D01*
X2459939Y-721817D01*
X2464816Y-718718D01*
X2468930Y-714654D01*
X2472029Y-709726D01*
X2473909Y-704291D01*
X2474620Y-697992D01*
X2474620Y-646988D01*
X2474163Y-642975D01*
X2474468Y-639114D01*
X2476195Y-635660D01*
X2479090Y-633069D01*
X2488234Y-629869D01*
X2493111Y-626770D01*
X2497734Y-622147D01*
X2501036Y-619963D01*
X2504948Y-619201D01*
X2508656Y-619201D01*
X2512720Y-620014D01*
X2516124Y-622452D01*
X2518257Y-626008D01*
X2519730Y-630224D01*
X2522829Y-635101D01*
X2526893Y-639216D01*
X2531821Y-642315D01*
X2537256Y-644194D01*
X2543606Y-644906D01*
X2596438Y-644906D01*
X2602788Y-644194D01*
X2608224Y-642315D01*
X2613152Y-639216D01*
X2617216Y-635101D01*
X2620314Y-630224D01*
X2622194Y-624738D01*
X2622905Y-618439D01*
X2622905Y-540562D01*
X2622194Y-534263D01*
X2620162Y-528370D01*
X2619603Y-525018D01*
X2620162Y-521665D01*
X2622194Y-515772D01*
X2622905Y-509422D01*
X2622905Y-431546D01*
X2622194Y-425246D01*
X2620314Y-419760D01*
X2617216Y-414883D01*
X2613152Y-410768D01*
X2608224Y-407720D01*
X2602788Y-405790D01*
X2596438Y-405079D01*
X2543606Y-405079D01*
X2537256Y-405790D01*
X2531821Y-407720D01*
X2526893Y-410768D01*
X2522829Y-414883D01*
X2519730Y-419760D01*
X2517800Y-425246D01*
X2517089Y-431546D01*
X2517089Y-440639D01*
X2516327Y-444550D01*
X2514142Y-447852D01*
X2510840Y-450037D01*
X2506929Y-450799D01*
X2504948Y-450799D01*
X2501036Y-450037D01*
X2497734Y-447852D01*
X2493924Y-443992D01*
X2491740Y-440740D01*
X2490927Y-436829D01*
X2490927Y-267665D01*
X2490724Y-263194D01*
X2489504Y-251104D01*
X2488844Y-246634D01*
X2486507Y-234746D01*
X2485390Y-230378D01*
X2481884Y-218744D01*
X2480360Y-214477D01*
X2475687Y-203250D01*
X2473756Y-199186D01*
X2468067Y-188468D01*
X2465730Y-184607D01*
X2458974Y-174498D01*
X2456281Y-170891D01*
X2448610Y-161493D01*
X2445562Y-158140D01*
X2342743Y-55321D01*
X2335326Y-47193D01*
X2333904Y-45262D01*
X2331313Y-40386D01*
X2329180Y-35763D01*
X2328265Y-31902D01*
X2328926Y-27990D01*
X2330754Y-23063D01*
X2333345Y-11125D01*
X2334209Y1117D01*
X2333345Y13360D01*
X2330754Y25298D01*
X2326487Y36779D01*
X2320594Y47548D01*
X2313228Y57353D01*
X2304592Y66040D01*
X2294788Y73355D01*
X2284018Y79248D01*
X2272538Y83515D01*
X2260549Y86106D01*
X2248001Y87020D01*
X2208682Y87020D01*
X2196134Y86106D01*
X2184146Y83515D01*
X2172665Y79248D01*
X2161895Y73355D01*
X2152091Y66040D01*
X2143455Y57353D01*
X2136089Y47548D01*
X2130247Y36779D01*
X2125929Y25298D01*
X2123338Y13360D01*
X2122474Y1117D01*
X2123338Y-11125D01*
X2125929Y-23063D01*
X2130247Y-34544D01*
X2136089Y-45313D01*
X2143455Y-55117D01*
X2152091Y-63804D01*
X2161895Y-71120D01*
X2172665Y-77012D01*
X2184146Y-81280D01*
X2196134Y-83870D01*
X2208682Y-84785D01*
X2214880Y-84785D01*
X2217115Y-85039D01*
X2228748Y-87630D01*
X2247950Y-91236D01*
X2255316Y-93116D01*
X2261565Y-95504D01*
X2267915Y-99009D01*
X2271877Y-102412D01*
X2277262Y-109626D01*
X2280970Y-116636D01*
X2284222Y-124612D01*
X2286660Y-132892D01*
X2288336Y-141376D01*
X2289098Y-149910D01*
X2289098Y-436829D01*
X2288336Y-440690D01*
X2286152Y-443992D01*
X2282799Y-447344D01*
X2279751Y-452221D01*
X2277821Y-457708D01*
X2277110Y-464007D01*
X2277110Y-519430D01*
X2277821Y-525729D01*
X2279904Y-531622D01*
X2280462Y-535025D01*
X2279904Y-538378D01*
X2277821Y-544271D01*
X2277110Y-550570D01*
X2277110Y-605993D01*
X2277567Y-609955D01*
X2277211Y-613867D01*
X2275382Y-617423D01*
X2272385Y-619963D01*
X2267966Y-621233D01*
X2262530Y-623163D01*
X2257602Y-626211D01*
X2254605Y-629208D01*
X2251659Y-631291D01*
X2248103Y-632155D01*
X2244496Y-631748D01*
X2241296Y-630123D01*
X2238857Y-627430D01*
X2237232Y-624890D01*
X2233117Y-620776D01*
X2228240Y-617677D01*
X2222754Y-615797D01*
X2216454Y-615086D01*
X2163572Y-615086D01*
X2157272Y-615797D01*
X2151786Y-617677D01*
X2146909Y-620776D01*
X2142794Y-624890D01*
X2140508Y-628548D01*
X2138273Y-631088D01*
X2135276Y-632714D01*
X2131923Y-633272D01*
X2123948Y-633272D01*
X2120087Y-632510D01*
X2116785Y-630326D01*
X2114600Y-627024D01*
X2113788Y-623112D01*
X2113788Y-583488D01*
X2113076Y-577138D01*
X2111197Y-571703D01*
X2108098Y-566775D01*
X2103983Y-562711D01*
X2099106Y-559612D01*
X2093671Y-557682D01*
X2087321Y-556971D01*
X2031898Y-556971D01*
X2025599Y-557682D01*
X2020112Y-559612D01*
X2015236Y-562711D01*
X2011121Y-566775D01*
X2008022Y-571703D01*
X2006142Y-577138D01*
X2005431Y-583488D01*
X2005431Y-636320D01*
X2006142Y-642670D01*
X2008022Y-648106D01*
X2011121Y-652983D01*
X2015743Y-657606D01*
X2017928Y-660908D01*
X2018690Y-664819D01*
X2018690Y-674624D01*
X2017826Y-678789D01*
X2015286Y-682193D01*
X2011629Y-684326D01*
X2007412Y-684733D01*
X2000757Y-683971D01*
X1945335Y-683971D01*
X1939036Y-684682D01*
X1933549Y-686612D01*
X1928672Y-689711D01*
X1924557Y-693775D01*
X1921459Y-698703D01*
X1919579Y-704138D01*
X1918868Y-710488D01*
X1918868Y-763320D01*
X1919579Y-769670D01*
X1921459Y-775106D01*
X1924557Y-779983D01*
X1929180Y-784606D01*
X1931365Y-787908D01*
X1932127Y-791768D01*
X1932127Y-838657D01*
X1931365Y-842518D01*
X1929180Y-845819D01*
X1925878Y-848004D01*
X1921967Y-848817D01*
X1737563Y-848817D01*
X1730603Y-849121D01*
X1707184Y-851458D01*
X1700275Y-852474D01*
X1677162Y-857046D01*
X1670405Y-858774D01*
X1647901Y-865581D01*
X1641348Y-867918D01*
X1619554Y-876960D01*
X1613255Y-879957D01*
X1592478Y-891032D01*
X1586534Y-894638D01*
X1566926Y-907694D01*
X1561338Y-911860D01*
X1543151Y-926795D01*
X1537919Y-931468D01*
X1210310Y-1259179D01*
X1195933Y-1270965D01*
X1181303Y-1280668D01*
X1165758Y-1288897D01*
X1149553Y-1295603D01*
X1132687Y-1300632D01*
X1115415Y-1304036D01*
X1097940Y-1305712D01*
X780186Y-1305763D01*
X772160Y-1306525D01*
X754684Y-1309979D01*
X747115Y-1312316D01*
X730656Y-1319123D01*
X723646Y-1322882D01*
X708863Y-1332738D01*
X702614Y-1337868D01*
X45466Y-1994966D01*
X40792Y-2000097D01*
X25857Y-2018334D01*
X21691Y-2023922D01*
X8636Y-2043480D01*
X5029Y-2049475D01*
X-6045Y-2070252D01*
X-9042Y-2076551D01*
X-18084Y-2098294D01*
X-20421Y-2104847D01*
X-27228Y-2127402D01*
X-28956Y-2134158D01*
X-33528Y-2157272D01*
X-34544Y-2164130D01*
X-36880Y-2187549D01*
X-37185Y-2194509D01*
X-37287Y-2660904D01*
X-36576Y-2667254D01*
X-34645Y-2672689D01*
X-32664Y-2676601D01*
X-32258Y-2679395D01*
X-32258Y-2731566D01*
X-33274Y-2736138D01*
X-33985Y-2742488D01*
X-33985Y-2795320D01*
X-33274Y-2801670D01*
X-29870Y-2810205D01*
X-29464Y-2812999D01*
X-29464Y-2819603D01*
X-30124Y-2823210D01*
X-32004Y-2826308D01*
X-34848Y-2828594D01*
X-43789Y-2831592D01*
X-48666Y-2834690D01*
X-52781Y-2838805D01*
X-55829Y-2843682D01*
X-57759Y-2849168D01*
X-58470Y-2855468D01*
X-58470Y-3104337D01*
X-57759Y-3110636D01*
X-55829Y-3116122D01*
X-52781Y-3120999D01*
X-48666Y-3125114D01*
X-43230Y-3128518D01*
X-40690Y-3130804D01*
X-39065Y-3133750D01*
X-38455Y-3137154D01*
X-38455Y-3420821D01*
X-39268Y-3424732D01*
X-41452Y-3428034D01*
X-44754Y-3430219D01*
X-48615Y-3430981D01*
X-157022Y-3430981D01*
X-163322Y-3431692D01*
X-168757Y-3433622D01*
X-173685Y-3436670D01*
X-177749Y-3440785D01*
X-180848Y-3445662D01*
X-182778Y-3451148D01*
X-183489Y-3457448D01*
X-183489Y-3690315D01*
X-182778Y-3696665D01*
X-180848Y-3702100D01*
X-177749Y-3707028D01*
X-173685Y-3711092D01*
X-168757Y-3714191D01*
X-163322Y-3716070D01*
X-157022Y-3716782D01*
X74980Y-3716782D01*
X78892Y-3717594D01*
X82143Y-3719779D01*
X285394Y-3923029D01*
X290169Y-3927348D01*
X306628Y-3940860D01*
X311810Y-3944721D01*
X329488Y-3956507D01*
X335076Y-3959860D01*
X353822Y-3969867D01*
X359664Y-3972661D01*
X379272Y-3980789D01*
X385419Y-3982974D01*
X405790Y-3989120D01*
X412038Y-3990695D01*
X432917Y-3994861D01*
X439318Y-3995826D01*
X460501Y-3997909D01*
X466953Y-3998214D01*
X1175004Y-3998214D01*
X1181455Y-3997909D01*
X1195324Y-3996537D01*
X1201775Y-3995572D01*
X1215440Y-3992879D01*
X1221740Y-3991305D01*
X1235049Y-3987241D01*
X1241145Y-3985056D01*
X1253998Y-3979722D01*
X1259890Y-3976979D01*
X1272184Y-3970375D01*
X1277721Y-3967073D01*
X1289354Y-3959301D01*
X1294536Y-3955440D01*
X1305306Y-3946601D01*
X1310081Y-3942283D01*
X1320139Y-3932224D01*
X1324457Y-3927449D01*
X1333246Y-3916730D01*
X1337157Y-3911498D01*
X1344828Y-3899966D01*
X1348181Y-3894429D01*
X1354734Y-3882186D01*
X1357477Y-3876344D01*
X1362811Y-3863492D01*
X1364996Y-3857396D01*
X1369009Y-3844137D01*
X1370584Y-3837838D01*
X1371803Y-3831590D01*
X1373073Y-3828338D01*
X1375359Y-3825697D01*
X1378356Y-3823970D01*
X1381810Y-3823411D01*
X1384960Y-3823411D01*
X1391259Y-3822700D01*
X1396746Y-3820769D01*
X1401622Y-3817721D01*
X1405737Y-3813606D01*
X1408785Y-3808729D01*
X1410716Y-3803243D01*
X1411427Y-3796944D01*
X1411427Y-3781044D01*
X1412189Y-3777183D01*
X1414424Y-3773881D01*
X1417726Y-3771696D01*
X1421587Y-3770884D01*
X1454607Y-3770884D01*
X1458518Y-3771696D01*
X1461820Y-3773881D01*
X1464106Y-3776167D01*
X1468983Y-3779265D01*
X1474419Y-3781145D01*
X1480769Y-3781856D01*
X1533652Y-3781856D01*
X1539951Y-3781145D01*
X1545437Y-3779265D01*
X1550314Y-3776167D01*
X1554429Y-3772052D01*
X1557477Y-3767175D01*
X1559407Y-3761689D01*
X1560118Y-3755390D01*
X1560118Y-3699967D01*
X1559458Y-3694023D01*
X1559864Y-3689756D01*
X1561998Y-3686098D01*
X1565452Y-3683558D01*
X1569669Y-3682746D01*
X1585874Y-3682898D01*
X1589887Y-3683762D01*
X1593240Y-3686200D01*
X1595374Y-3689705D01*
X1596644Y-3693312D01*
X1599692Y-3698189D01*
X1603806Y-3702304D01*
X1608683Y-3705402D01*
X1614119Y-3707282D01*
X1620469Y-3707993D01*
X1673352Y-3707993D01*
X1679651Y-3707282D01*
X1685137Y-3705402D01*
X1690014Y-3702304D01*
X1694129Y-3698189D01*
X1697177Y-3693312D01*
X1698243Y-3690365D01*
X1700377Y-3686810D01*
X1703730Y-3684422D01*
X1707794Y-3683558D01*
X1718360Y-3683558D01*
X1722221Y-3684371D01*
X1725523Y-3686556D01*
X1727707Y-3689858D01*
X1728520Y-3693718D01*
X1728520Y-3794201D01*
X1729232Y-3800551D01*
X1731111Y-3805986D01*
X1734210Y-3810914D01*
X1738274Y-3814978D01*
X1743202Y-3818077D01*
X1748637Y-3820007D01*
X1754987Y-3820718D01*
X1833829Y-3820718D01*
X1840179Y-3820007D01*
X1845614Y-3818077D01*
X1850542Y-3814978D01*
X1854606Y-3810914D01*
X1857705Y-3805986D01*
X1859584Y-3800551D01*
X1860296Y-3794201D01*
X1860296Y-3625342D01*
X1859584Y-3619042D01*
X1857705Y-3613556D01*
X1854606Y-3608679D01*
X1850542Y-3604564D01*
X1845614Y-3601516D01*
X1840179Y-3599586D01*
X1833829Y-3598875D01*
X1754987Y-3598875D01*
X1748637Y-3599586D01*
X1744065Y-3601212D01*
X1740763Y-3601770D01*
X1707845Y-3601770D01*
X1703781Y-3600907D01*
X1700428Y-3598519D01*
X1698294Y-3594963D01*
X1697177Y-3591864D01*
X1694129Y-3586987D01*
X1690014Y-3582873D01*
X1685137Y-3579774D01*
X1679651Y-3577894D01*
X1673352Y-3577183D01*
X1620469Y-3577183D01*
X1614119Y-3577894D01*
X1608683Y-3579774D01*
X1603806Y-3582873D01*
X1599692Y-3586987D01*
X1596644Y-3591864D01*
X1595780Y-3594303D01*
X1593596Y-3597859D01*
X1590192Y-3600297D01*
X1586077Y-3601110D01*
X1562506Y-3600856D01*
X1558645Y-3600043D01*
X1555343Y-3597808D01*
X1550263Y-3592576D01*
X1545437Y-3589528D01*
X1539951Y-3587648D01*
X1533652Y-3586937D01*
X1515059Y-3586937D01*
X1511198Y-3586124D01*
X1507896Y-3583940D01*
X1499057Y-3575100D01*
X1497787Y-3573576D01*
X1491132Y-3563569D01*
X1490167Y-3561842D01*
X1485595Y-3550716D01*
X1484985Y-3548786D01*
X1482648Y-3537000D01*
X1482445Y-3535019D01*
X1482445Y-3517646D01*
X1483106Y-3514039D01*
X1485036Y-3510889D01*
X1487932Y-3508654D01*
X1492300Y-3507486D01*
X1497736Y-3505555D01*
X1499616Y-3504387D01*
X1503172Y-3503015D01*
X1506931Y-3503015D01*
X1510436Y-3504387D01*
X1512316Y-3505555D01*
X1517802Y-3507486D01*
X1524101Y-3508197D01*
X1612950Y-3508197D01*
X1619300Y-3507486D01*
X1624736Y-3505555D01*
X1626616Y-3504387D01*
X1630172Y-3503015D01*
X1633931Y-3503015D01*
X1637436Y-3504387D01*
X1639316Y-3505555D01*
X1644802Y-3507486D01*
X1651101Y-3508197D01*
X1739950Y-3508197D01*
X1746300Y-3507486D01*
X1751736Y-3505555D01*
X1753616Y-3504387D01*
X1757172Y-3503015D01*
X1760931Y-3503015D01*
X1764436Y-3504387D01*
X1766316Y-3505555D01*
X1771802Y-3507486D01*
X1778101Y-3508197D01*
X1866950Y-3508197D01*
X1873300Y-3507486D01*
X1878736Y-3505555D01*
X1880616Y-3504387D01*
X1884172Y-3503015D01*
X1887931Y-3503015D01*
X1891436Y-3504387D01*
X1893316Y-3505555D01*
X1898802Y-3507486D01*
X1905101Y-3508197D01*
X1993950Y-3508197D01*
X2000300Y-3507486D01*
X2005736Y-3505555D01*
X2007616Y-3504387D01*
X2011172Y-3503015D01*
X2014931Y-3503015D01*
X2018436Y-3504387D01*
X2020316Y-3505555D01*
X2025802Y-3507486D01*
X2032101Y-3508197D01*
X2120950Y-3508197D01*
X2127300Y-3507486D01*
X2132736Y-3505555D01*
X2134616Y-3504387D01*
X2138172Y-3503015D01*
X2141931Y-3503015D01*
X2145436Y-3504387D01*
X2147316Y-3505555D01*
X2152802Y-3507486D01*
X2159101Y-3508197D01*
X2247950Y-3508197D01*
X2254300Y-3507486D01*
X2259736Y-3505555D01*
X2261616Y-3504387D01*
X2265172Y-3503015D01*
X2268931Y-3503015D01*
X2272436Y-3504387D01*
X2274316Y-3505555D01*
X2279802Y-3507486D01*
X2286101Y-3508197D01*
X2374950Y-3508197D01*
X2381300Y-3507486D01*
X2386736Y-3505555D01*
X2388616Y-3504387D01*
X2392172Y-3503015D01*
X2395931Y-3503015D01*
X2399436Y-3504387D01*
X2401316Y-3505555D01*
X2406802Y-3507486D01*
X2413101Y-3508197D01*
X2501950Y-3508197D01*
X2508300Y-3507486D01*
X2513736Y-3505555D01*
X2515616Y-3504387D01*
X2519172Y-3503015D01*
X2522931Y-3503015D01*
X2526436Y-3504387D01*
X2528316Y-3505555D01*
X2533802Y-3507486D01*
X2540101Y-3508197D01*
X2628950Y-3508197D01*
X2635300Y-3507486D01*
X2640736Y-3505555D01*
X2642616Y-3504387D01*
X2646172Y-3503015D01*
X2649931Y-3503015D01*
X2653436Y-3504387D01*
X2655316Y-3505555D01*
X2660802Y-3507486D01*
X2663799Y-3507841D01*
X2667355Y-3508908D01*
X2670251Y-3511143D01*
X2672181Y-3514293D01*
X2672842Y-3517900D01*
X2672842Y-3735222D01*
X2672638Y-3737203D01*
X2669997Y-3750614D01*
X2669387Y-3752494D01*
X2664206Y-3765092D01*
X2663240Y-3766870D01*
X2655671Y-3778199D01*
X2654401Y-3779723D01*
X2418435Y-4015892D01*
X2416911Y-4017162D01*
X2405583Y-4024731D01*
X2403856Y-4025696D01*
X2391257Y-4030878D01*
X2389327Y-4031487D01*
X2375966Y-4034129D01*
X2373985Y-4034332D01*
X60350Y-4034332D01*
X58369Y-4034129D01*
X45008Y-4031487D01*
X43078Y-4030878D01*
X30480Y-4025696D01*
X28752Y-4024731D01*
X17322Y-4017162D01*
X15849Y-4015892D01*
X-418693Y-3581349D01*
X-419963Y-3579825D01*
X-427532Y-3568446D01*
X-428498Y-3566718D01*
X-433679Y-3554120D01*
X-434289Y-3552190D01*
X-436930Y-3538829D01*
X-437134Y-3536848D01*
X-437134Y-3018739D01*
X-437997Y-3010204D01*
X-442315Y-2988411D01*
X-444804Y-2980232D01*
X-453288Y-2959658D01*
X-457352Y-2952140D01*
X-469696Y-2933598D01*
X-475132Y-2926994D01*
X-668375Y-2733751D01*
X-684276Y-2717495D01*
X-708101Y-2691942D01*
X-719277Y-2680258D01*
X-730351Y-2669590D01*
X-742188Y-2659634D01*
X-755599Y-2649982D01*
X-771296Y-2640228D01*
X-790244Y-2629814D01*
X-803097Y-2624378D01*
X-816203Y-2620772D01*
X-829767Y-2618994D01*
X-843381Y-2618994D01*
X-856894Y-2620772D01*
X-870051Y-2624378D01*
X-882599Y-2629712D01*
X-894334Y-2636672D01*
X-905052Y-2645105D01*
X-914501Y-2654909D01*
X-922629Y-2665882D01*
X-929182Y-2677871D01*
X-934059Y-2690571D01*
X-937209Y-2703880D01*
X-938580Y-2717444D01*
X-938123Y-2731058D01*
X-935888Y-2744520D01*
X-931824Y-2757525D01*
X-926084Y-2769920D01*
X-918768Y-2781401D01*
X-909929Y-2791815D01*
X-899820Y-2800959D01*
X-888593Y-2808681D01*
X-882700Y-2811627D01*
X-879398Y-2814370D01*
X-877468Y-2818231D01*
X-877316Y-2822498D01*
X-878992Y-2826512D01*
X-882142Y-2829458D01*
X-894334Y-2836672D01*
X-905052Y-2845104D01*
X-914501Y-2854909D01*
X-922629Y-2865882D01*
X-929182Y-2877870D01*
X-934059Y-2890570D01*
X-937209Y-2903880D01*
X-938580Y-2917444D01*
X-938123Y-2931058D01*
X-935888Y-2944520D01*
X-931824Y-2957525D01*
X-926084Y-2969920D01*
X-918768Y-2981401D01*
X-909929Y-2991815D01*
X-899820Y-3000959D01*
X-888593Y-3008680D01*
X-876401Y-3014827D01*
X-863549Y-3019298D01*
X-850188Y-3021990D01*
X-836574Y-3022904D01*
X-822960Y-3021990D01*
X-809599Y-3019298D01*
X-796544Y-3014776D01*
X-790600Y-3011982D01*
X-772972Y-3002178D01*
X-758748Y-2992475D01*
X-738022Y-2976219D01*
X-729437Y-2970174D01*
X-721207Y-2965754D01*
X-712012Y-2962554D01*
X-700024Y-2960319D01*
X-683158Y-2959404D01*
X-655218Y-2959404D01*
X-653237Y-2959608D01*
X-639876Y-2962249D01*
X-637946Y-2962859D01*
X-625348Y-2968040D01*
X-623620Y-2969006D01*
X-612241Y-2976575D01*
X-610717Y-2977845D01*
X-593496Y-2995066D01*
X-592277Y-2996590D01*
X-584657Y-3007969D01*
X-583692Y-3009696D01*
X-578510Y-3022295D01*
X-577900Y-3024225D01*
X-575259Y-3037586D01*
X-575056Y-3039567D01*
X-575056Y-3556660D01*
X-574192Y-3565194D01*
X-569874Y-3586987D01*
X-567385Y-3595166D01*
X-558901Y-3615740D01*
X-554837Y-3623259D01*
X-542493Y-3641801D01*
X-537057Y-3648405D01*
X-57048Y-4128414D01*
X-50444Y-4133850D01*
X-32004Y-4146194D01*
X-24384Y-4150258D01*
X-3810Y-4158742D01*
X4368Y-4161231D01*
X26162Y-4165549D01*
G37*
G36*
X3504539Y-4125823D02*
G01*
X3522624Y-4124451D01*
X3540404Y-4121200D01*
X3557828Y-4116120D01*
X3574592Y-4109313D01*
X3590544Y-4100779D01*
X3605580Y-4090670D01*
X3619500Y-4079087D01*
X3632149Y-4066133D01*
X3643376Y-4051909D01*
X3653078Y-4036618D01*
X3661206Y-4020464D01*
X3667556Y-4003497D01*
X3672179Y-3985971D01*
X3674973Y-3968089D01*
X3675887Y-3950004D01*
X3674973Y-3931920D01*
X3672179Y-3914038D01*
X3667556Y-3896512D01*
X3661206Y-3879545D01*
X3653078Y-3863390D01*
X3643376Y-3848100D01*
X3632149Y-3833876D01*
X3619500Y-3820922D01*
X3605580Y-3809339D01*
X3590544Y-3799230D01*
X3574592Y-3790696D01*
X3557828Y-3783888D01*
X3540404Y-3778808D01*
X3522624Y-3775557D01*
X3504539Y-3774186D01*
X3486454Y-3774643D01*
X3468471Y-3776979D01*
X3450844Y-3781094D01*
X3433775Y-3787089D01*
X3417366Y-3794760D01*
X3401822Y-3804056D01*
X3387344Y-3814927D01*
X3374034Y-3827221D01*
X3362096Y-3840835D01*
X3351580Y-3855618D01*
X3342690Y-3871366D01*
X3335426Y-3887978D01*
X3329940Y-3905199D01*
X3326231Y-3922928D01*
X3324351Y-3940962D01*
X3324351Y-3959047D01*
X3326231Y-3977081D01*
X3329940Y-3994810D01*
X3335426Y-4012031D01*
X3342690Y-4028643D01*
X3351580Y-4044391D01*
X3362096Y-4059174D01*
X3374034Y-4072788D01*
X3387344Y-4085082D01*
X3401822Y-4095953D01*
X3417366Y-4105249D01*
X3433775Y-4112920D01*
X3450844Y-4118914D01*
X3468471Y-4123029D01*
X3486454Y-4125366D01*
G37*
G36*
X-1395425Y-4125823D02*
G01*
X-1377391Y-4124451D01*
X-1359560Y-4121200D01*
X-1342186Y-4116120D01*
X-1325422Y-4109313D01*
X-1309420Y-4100779D01*
X-1294384Y-4090670D01*
X-1280515Y-4079087D01*
X-1267866Y-4066133D01*
X-1256588Y-4051909D01*
X-1246886Y-4036618D01*
X-1238808Y-4020464D01*
X-1232408Y-4003497D01*
X-1227785Y-3985971D01*
X-1224991Y-3968089D01*
X-1224076Y-3950004D01*
X-1224991Y-3931920D01*
X-1227785Y-3914038D01*
X-1232408Y-3896512D01*
X-1238808Y-3879545D01*
X-1246886Y-3863390D01*
X-1256588Y-3848100D01*
X-1267866Y-3833876D01*
X-1280515Y-3820922D01*
X-1294384Y-3809339D01*
X-1309420Y-3799230D01*
X-1325422Y-3790696D01*
X-1342186Y-3783888D01*
X-1359560Y-3778808D01*
X-1377391Y-3775557D01*
X-1395425Y-3774186D01*
X-1413560Y-3774643D01*
X-1431493Y-3776979D01*
X-1449120Y-3781094D01*
X-1466240Y-3787089D01*
X-1482648Y-3794760D01*
X-1498142Y-3804056D01*
X-1512671Y-3814927D01*
X-1525930Y-3827221D01*
X-1537919Y-3840835D01*
X-1548384Y-3855618D01*
X-1557324Y-3871366D01*
X-1564538Y-3887978D01*
X-1570075Y-3905199D01*
X-1573784Y-3922928D01*
X-1575612Y-3940962D01*
X-1575612Y-3959047D01*
X-1573784Y-3977081D01*
X-1570075Y-3994810D01*
X-1564538Y-4012031D01*
X-1557324Y-4028643D01*
X-1548384Y-4044391D01*
X-1537919Y-4059174D01*
X-1525930Y-4072788D01*
X-1512671Y-4085082D01*
X-1498142Y-4095953D01*
X-1482648Y-4105249D01*
X-1466240Y-4112920D01*
X-1449120Y-4118914D01*
X-1431493Y-4123029D01*
X-1413560Y-4125366D01*
G37*
G36*
X-261975Y-3130804D02*
G01*
X-153162Y-3130804D01*
X-146812Y-3130092D01*
X-141427Y-3128162D01*
X-136448Y-3125114D01*
X-132384Y-3120999D01*
X-129285Y-3116122D01*
X-127355Y-3110636D01*
X-126644Y-3104337D01*
X-126644Y-2855468D01*
X-127355Y-2849168D01*
X-129285Y-2843682D01*
X-132384Y-2838805D01*
X-139344Y-2832201D01*
X-140970Y-2829255D01*
X-141528Y-2825851D01*
X-141528Y-2812999D01*
X-141173Y-2810205D01*
X-139649Y-2807106D01*
X-137769Y-2801670D01*
X-137058Y-2795320D01*
X-137058Y-2742488D01*
X-137769Y-2736138D01*
X-141173Y-2727604D01*
X-141528Y-2724759D01*
X-141528Y-2683814D01*
X-141173Y-2681020D01*
X-140004Y-2678430D01*
X-136398Y-2672689D01*
X-134467Y-2667254D01*
X-133756Y-2660904D01*
X-133756Y-2572054D01*
X-134467Y-2565755D01*
X-136398Y-2560269D01*
X-138633Y-2555951D01*
X-139039Y-2553157D01*
X-139750Y-2412085D01*
X-139090Y-2408428D01*
X-137210Y-2405278D01*
X-134264Y-2402992D01*
X-125069Y-2399995D01*
X-120142Y-2396896D01*
X-116078Y-2392832D01*
X-112979Y-2387904D01*
X-111048Y-2382469D01*
X-110337Y-2376119D01*
X-110337Y-2247290D01*
X-111048Y-2240940D01*
X-112979Y-2235504D01*
X-116078Y-2230577D01*
X-120142Y-2226513D01*
X-125069Y-2223414D01*
X-128574Y-2222195D01*
X-132130Y-2220061D01*
X-134518Y-2216658D01*
X-135382Y-2212594D01*
X-135382Y-2183993D01*
X-133604Y-2165502D01*
X-130048Y-2148281D01*
X-124917Y-2131517D01*
X-118160Y-2115261D01*
X-109829Y-2099818D01*
X-100025Y-2085238D01*
X-88849Y-2071674D01*
X373989Y-1608886D01*
X378663Y-1603705D01*
X393598Y-1585518D01*
X397713Y-1579880D01*
X410819Y-1560322D01*
X414375Y-1554327D01*
X425500Y-1533601D01*
X428498Y-1527251D01*
X437489Y-1505508D01*
X439826Y-1498955D01*
X446684Y-1476451D01*
X448360Y-1469644D01*
X452983Y-1446580D01*
X453999Y-1439672D01*
X456285Y-1416253D01*
X456641Y-1409293D01*
X456641Y-1084630D01*
X457555Y-1078128D01*
X458520Y-1075131D01*
X460908Y-1070508D01*
X462737Y-1067917D01*
X466445Y-1064260D01*
X468985Y-1062380D01*
X473659Y-1059992D01*
X476656Y-1059027D01*
X483412Y-1058062D01*
X697179Y-1058062D01*
X700786Y-1058773D01*
X703935Y-1060653D01*
X706221Y-1063599D01*
X707440Y-1068425D01*
X709320Y-1073912D01*
X712419Y-1078788D01*
X716534Y-1082903D01*
X721410Y-1086002D01*
X726897Y-1087882D01*
X733196Y-1088593D01*
X867054Y-1088593D01*
X873353Y-1087882D01*
X878840Y-1086002D01*
X883716Y-1082903D01*
X887831Y-1078788D01*
X890930Y-1073912D01*
X892810Y-1068425D01*
X893521Y-1062126D01*
X893521Y-1005179D01*
X894283Y-1001268D01*
X896518Y-997966D01*
X899820Y-995781D01*
X903681Y-995019D01*
X928725Y-995019D01*
X932078Y-995578D01*
X935024Y-997203D01*
X937310Y-999744D01*
X940409Y-1004722D01*
X944524Y-1008786D01*
X949401Y-1011885D01*
X954887Y-1013764D01*
X961186Y-1014526D01*
X1014069Y-1014526D01*
X1020368Y-1013764D01*
X1025855Y-1011885D01*
X1030732Y-1008786D01*
X1034796Y-1004722D01*
X1037894Y-999794D01*
X1039825Y-994359D01*
X1040536Y-988009D01*
X1040536Y-910132D01*
X1039672Y-901700D01*
X1039672Y-844499D01*
X1043330Y-830732D01*
X1044092Y-821537D01*
X1044092Y-780440D01*
X1043330Y-771245D01*
X1041044Y-762762D01*
X1037336Y-754786D01*
X1032306Y-747623D01*
X1026109Y-741426D01*
X1018895Y-736396D01*
X1010970Y-732688D01*
X1002487Y-730402D01*
X993749Y-729640D01*
X985012Y-730402D01*
X976528Y-732688D01*
X968552Y-736396D01*
X961339Y-741426D01*
X955141Y-747623D01*
X950112Y-754786D01*
X946403Y-762762D01*
X944118Y-771245D01*
X943305Y-780440D01*
X943305Y-821537D01*
X944118Y-830732D01*
X947826Y-844550D01*
X947826Y-881837D01*
X947064Y-885748D01*
X944880Y-889050D01*
X940409Y-893470D01*
X937310Y-898448D01*
X935024Y-900937D01*
X932078Y-902614D01*
X928725Y-903173D01*
X889355Y-903173D01*
X886561Y-902766D01*
X883869Y-901598D01*
X878840Y-898398D01*
X873353Y-896518D01*
X867054Y-895807D01*
X733196Y-895807D01*
X726897Y-896518D01*
X721410Y-898398D01*
X716534Y-901496D01*
X712419Y-905560D01*
X709320Y-910488D01*
X707440Y-915924D01*
X706221Y-920750D01*
X703935Y-923696D01*
X700786Y-925576D01*
X697179Y-926287D01*
X483412Y-926287D01*
X476656Y-925321D01*
X473659Y-924356D01*
X469036Y-921969D01*
X466445Y-920089D01*
X462737Y-916432D01*
X460908Y-913841D01*
X458520Y-909218D01*
X457555Y-906221D01*
X456590Y-899464D01*
X456590Y-892251D01*
X456234Y-885291D01*
X454202Y-864666D01*
X453186Y-857758D01*
X449122Y-837437D01*
X447446Y-830681D01*
X441401Y-810818D01*
X439064Y-804265D01*
X431139Y-785114D01*
X428142Y-778814D01*
X418388Y-760526D01*
X414782Y-754532D01*
X403250Y-737311D01*
X399135Y-731723D01*
X385978Y-715670D01*
X381254Y-710539D01*
X-437743Y108508D01*
X-449529Y122834D01*
X-459232Y137464D01*
X-467461Y153009D01*
X-474167Y169265D01*
X-479196Y186080D01*
X-482600Y203301D01*
X-484327Y220827D01*
X-484327Y416559D01*
X-483971Y434746D01*
X-483108Y449529D01*
X-481736Y461670D01*
X-479806Y471932D01*
X-477316Y481126D01*
X-474065Y490169D01*
X-469950Y500024D01*
X-457708Y525881D01*
X-452678Y538835D01*
X-449529Y552145D01*
X-448157Y565708D01*
X-448614Y579323D01*
X-450900Y592785D01*
X-454914Y605790D01*
X-460654Y618185D01*
X-468020Y629666D01*
X-476808Y640080D01*
X-486918Y649224D01*
X-498144Y656945D01*
X-510336Y663092D01*
X-523240Y667562D01*
X-536600Y670255D01*
X-550164Y671169D01*
X-563778Y670255D01*
X-577138Y667562D01*
X-590194Y663041D01*
X-595934Y660349D01*
X-613257Y650849D01*
X-627278Y641553D01*
X-648004Y626110D01*
X-656691Y620369D01*
X-665022Y616153D01*
X-674420Y613054D01*
X-686612Y610920D01*
X-703478Y610057D01*
X-931214Y610057D01*
X-940155Y609193D01*
X-964031Y604418D01*
X-972667Y601827D01*
X-995171Y592480D01*
X-1003096Y588213D01*
X-1023315Y574649D01*
X-1030274Y568960D01*
X-1056843Y542290D01*
X-1060145Y540054D01*
X-1064107Y539292D01*
X-1082700Y539292D01*
X-1089050Y538581D01*
X-1094892Y536549D01*
X-1098296Y535940D01*
X-1101648Y536549D01*
X-1107541Y538581D01*
X-1113840Y539292D01*
X-1169263Y539292D01*
X-1175613Y538581D01*
X-1181049Y536702D01*
X-1185926Y533603D01*
X-1189278Y530301D01*
X-1192580Y528066D01*
X-1196441Y527304D01*
X-1556461Y527304D01*
X-1560576Y528167D01*
X-1563979Y530656D01*
X-1566113Y534314D01*
X-1568450Y541426D01*
X-1571498Y546252D01*
X-1575562Y550367D01*
X-1580489Y553415D01*
X-1585925Y555345D01*
X-1592275Y556056D01*
X-1671116Y556056D01*
X-1677416Y555345D01*
X-1682902Y553415D01*
X-1687779Y550367D01*
X-1691893Y546252D01*
X-1694992Y541375D01*
X-1696872Y535889D01*
X-1697634Y529590D01*
X-1697634Y450697D01*
X-1696872Y444398D01*
X-1694992Y438912D01*
X-1691893Y434035D01*
X-1687779Y429920D01*
X-1682902Y426872D01*
X-1677416Y424942D01*
X-1671116Y424230D01*
X-1592275Y424230D01*
X-1585925Y424942D01*
X-1580489Y426872D01*
X-1575562Y429920D01*
X-1571498Y434035D01*
X-1566214Y442366D01*
X-1562862Y444703D01*
X-1558899Y445516D01*
X-1196492Y445516D01*
X-1192580Y444703D01*
X-1189278Y442518D01*
X-1185926Y439166D01*
X-1181049Y436118D01*
X-1175613Y434187D01*
X-1169263Y433476D01*
X-1113840Y433476D01*
X-1107541Y434187D01*
X-1101648Y436270D01*
X-1098296Y436829D01*
X-1094892Y436270D01*
X-1089050Y434187D01*
X-1082700Y433476D01*
X-1027277Y433476D01*
X-1020978Y434187D01*
X-1015492Y436118D01*
X-1010615Y439166D01*
X-1006500Y443280D01*
X-1003401Y448157D01*
X-1001521Y453643D01*
X-1000810Y459943D01*
X-1000810Y478434D01*
X-1000048Y482346D01*
X-997813Y485597D01*
X-975563Y507949D01*
X-974039Y509219D01*
X-961339Y517702D01*
X-959612Y518668D01*
X-945489Y524510D01*
X-943610Y525068D01*
X-928624Y528066D01*
X-926642Y528269D01*
X-703529Y528269D01*
X-686612Y527405D01*
X-674420Y525272D01*
X-665073Y522173D01*
X-655777Y517398D01*
X-647700Y511962D01*
X-632002Y500227D01*
X-630072Y498348D01*
X-628751Y496011D01*
X-626059Y489610D01*
X-622808Y480364D01*
X-620369Y471119D01*
X-618490Y460959D01*
X-617169Y448970D01*
X-616356Y434340D01*
X-616051Y416407D01*
X-616051Y217322D01*
X-615746Y210362D01*
X-613410Y186944D01*
X-612394Y180035D01*
X-607822Y156921D01*
X-606094Y150164D01*
X-599287Y127660D01*
X-596950Y121107D01*
X-587908Y99314D01*
X-584962Y93014D01*
X-573836Y72237D01*
X-570280Y66294D01*
X-557174Y46685D01*
X-553008Y41097D01*
X-538073Y22910D01*
X-533400Y17729D01*
X285597Y-801268D01*
X295605Y-813460D01*
X303784Y-825753D01*
X310692Y-838809D01*
X316280Y-852474D01*
X320548Y-866597D01*
X323392Y-881075D01*
X324764Y-895756D01*
X324815Y-1405788D01*
X322986Y-1424279D01*
X319532Y-1441500D01*
X314401Y-1458315D01*
X307594Y-1474520D01*
X299262Y-1489964D01*
X289458Y-1504594D01*
X285445Y-1509471D01*
X282448Y-1511960D01*
X278739Y-1513128D01*
X274828Y-1512773D01*
X271322Y-1511046D01*
X268782Y-1508048D01*
X267512Y-1504340D01*
X267766Y-1500479D01*
X268986Y-1495806D01*
X269798Y-1486204D01*
X268986Y-1476603D01*
X266547Y-1467256D01*
X262585Y-1458468D01*
X258419Y-1452270D01*
X256946Y-1449120D01*
X256692Y-1445615D01*
X257606Y-1442262D01*
X259638Y-1439418D01*
X269392Y-1429613D01*
X273862Y-1424279D01*
X277672Y-1417167D01*
X283972Y-1402130D01*
X286004Y-1395476D01*
X286867Y-1387449D01*
X286867Y-1273606D01*
X286054Y-1265631D01*
X282244Y-1246225D01*
X279908Y-1238554D01*
X272338Y-1220266D01*
X268579Y-1213205D01*
X257606Y-1196746D01*
X252526Y-1190548D01*
X211785Y-1149705D01*
X209550Y-1146403D01*
X208788Y-1142492D01*
X208788Y-1116888D01*
X208076Y-1110538D01*
X206197Y-1105103D01*
X203098Y-1100175D01*
X198983Y-1096111D01*
X194106Y-1093012D01*
X188671Y-1091082D01*
X182321Y-1090371D01*
X126898Y-1090371D01*
X120599Y-1091082D01*
X114706Y-1093165D01*
X111353Y-1093724D01*
X107950Y-1093165D01*
X102108Y-1091082D01*
X95758Y-1090371D01*
X69799Y-1090371D01*
X66294Y-1089761D01*
X63246Y-1087983D01*
X59283Y-1084681D01*
X52222Y-1080820D01*
X34747Y-1073607D01*
X27025Y-1071270D01*
X15036Y-1068882D01*
X11430Y-1068527D01*
X7823Y-1067460D01*
X4876Y-1065225D01*
X2946Y-1062075D01*
X2235Y-1058418D01*
X2235Y-1042060D01*
X1524Y-1035761D01*
X355Y-1032306D01*
X-254Y-1028953D01*
X355Y-1025601D01*
X1524Y-1022248D01*
X2235Y-1015898D01*
X2235Y-992073D01*
X1524Y-985723D01*
X355Y-982370D01*
X-254Y-979017D01*
X355Y-975664D01*
X1524Y-972261D01*
X2235Y-965911D01*
X2235Y-942086D01*
X1524Y-935736D01*
X-355Y-930300D01*
X-3454Y-925372D01*
X-7569Y-921308D01*
X-12446Y-918210D01*
X-17932Y-916330D01*
X-24231Y-915619D01*
X-82804Y-915619D01*
X-86664Y-914806D01*
X-89966Y-912621D01*
X-92151Y-909319D01*
X-92913Y-905459D01*
X-92913Y-847039D01*
X-93624Y-840740D01*
X-94843Y-837285D01*
X-95402Y-833932D01*
X-95402Y-828852D01*
X-94640Y-824992D01*
X-92456Y-821690D01*
X-89154Y-819505D01*
X-85242Y-818692D01*
X-65430Y-818692D01*
X-59131Y-817981D01*
X-53644Y-816102D01*
X-48768Y-813003D01*
X-44704Y-808939D01*
X-41605Y-804011D01*
X-39827Y-798830D01*
X-37642Y-795274D01*
X-34239Y-792886D01*
X-30175Y-792022D01*
X22809Y-792022D01*
X39319Y-790448D01*
X47091Y-789076D01*
X54457Y-787247D01*
X61467Y-785063D01*
X84734Y-776681D01*
X93319Y-772312D01*
X101092Y-766572D01*
X107797Y-759612D01*
X113182Y-751636D01*
X117144Y-742848D01*
X119583Y-733501D01*
X120396Y-723900D01*
X119583Y-714298D01*
X117144Y-704951D01*
X113182Y-696163D01*
X107797Y-688187D01*
X101092Y-681228D01*
X93319Y-675487D01*
X84734Y-671118D01*
X75488Y-668324D01*
X65938Y-667054D01*
X56286Y-667512D01*
X46888Y-669544D01*
X37846Y-673100D01*
X29718Y-678180D01*
X22453Y-684530D01*
X16408Y-692048D01*
X11684Y-700532D01*
X8940Y-708101D01*
X6756Y-711606D01*
X3403Y-713994D01*
X-609Y-714806D01*
X-30073Y-714806D01*
X-34137Y-713943D01*
X-37541Y-711555D01*
X-39674Y-707999D01*
X-41605Y-702564D01*
X-44704Y-697687D01*
X-48768Y-693572D01*
X-53644Y-690524D01*
X-59131Y-688594D01*
X-65430Y-687882D01*
X-118313Y-687882D01*
X-124612Y-688594D01*
X-130098Y-690524D01*
X-134975Y-693572D01*
X-139090Y-697687D01*
X-142138Y-702564D01*
X-144068Y-708050D01*
X-144830Y-714349D01*
X-144830Y-752652D01*
X-145237Y-755599D01*
X-146507Y-758291D01*
X-153263Y-768400D01*
X-157022Y-775462D01*
X-161747Y-786790D01*
X-164033Y-794512D01*
X-166471Y-806551D01*
X-167284Y-814527D01*
X-167284Y-833882D01*
X-167792Y-837234D01*
X-169062Y-840740D01*
X-169773Y-847039D01*
X-169773Y-920902D01*
X-169062Y-927252D01*
X-167132Y-932687D01*
X-164033Y-937615D01*
X-159969Y-941679D01*
X-155041Y-944778D01*
X-149606Y-946708D01*
X-143256Y-947419D01*
X-134721Y-947419D01*
X-130860Y-948182D01*
X-127558Y-950366D01*
X-125323Y-953668D01*
X-124561Y-957580D01*
X-124561Y-965911D01*
X-123850Y-972261D01*
X-122682Y-975614D01*
X-122123Y-978966D01*
X-122682Y-982319D01*
X-123901Y-985723D01*
X-124612Y-992073D01*
X-124612Y-1015898D01*
X-123901Y-1022248D01*
X-122682Y-1025702D01*
X-122123Y-1029055D01*
X-122682Y-1032408D01*
X-123850Y-1035761D01*
X-124561Y-1042060D01*
X-124561Y-1065936D01*
X-123850Y-1072235D01*
X-122682Y-1075588D01*
X-122123Y-1078941D01*
X-122682Y-1082294D01*
X-123901Y-1085748D01*
X-124612Y-1092047D01*
X-124612Y-1100429D01*
X-125374Y-1104341D01*
X-127558Y-1107643D01*
X-130860Y-1109827D01*
X-134772Y-1110589D01*
X-143154Y-1110589D01*
X-149504Y-1111300D01*
X-152806Y-1112469D01*
X-156159Y-1113078D01*
X-159512Y-1112469D01*
X-162915Y-1111300D01*
X-169265Y-1110589D01*
X-193090Y-1110589D01*
X-199440Y-1111300D01*
X-202793Y-1112469D01*
X-206146Y-1113028D01*
X-209499Y-1112469D01*
X-212902Y-1111300D01*
X-219202Y-1110589D01*
X-243078Y-1110589D01*
X-249377Y-1111300D01*
X-252780Y-1112469D01*
X-256184Y-1113078D01*
X-259537Y-1112469D01*
X-262940Y-1111300D01*
X-269240Y-1110589D01*
X-277571Y-1110589D01*
X-281482Y-1109827D01*
X-284784Y-1107592D01*
X-286969Y-1104290D01*
X-287731Y-1100429D01*
X-287731Y-1092098D01*
X-288442Y-1085748D01*
X-289661Y-1082344D01*
X-290220Y-1078992D01*
X-289661Y-1075639D01*
X-288493Y-1072286D01*
X-287782Y-1065936D01*
X-287782Y-1042111D01*
X-288493Y-1035761D01*
X-289661Y-1032408D01*
X-290220Y-1029055D01*
X-289661Y-1025702D01*
X-288442Y-1022248D01*
X-287731Y-1015949D01*
X-287731Y-992073D01*
X-288442Y-985774D01*
X-289661Y-982319D01*
X-290220Y-978966D01*
X-289661Y-975614D01*
X-288493Y-972261D01*
X-287782Y-965962D01*
X-287782Y-957580D01*
X-287020Y-953668D01*
X-284784Y-950366D01*
X-281482Y-948182D01*
X-277622Y-947419D01*
X-269392Y-947419D01*
X-263042Y-946708D01*
X-259689Y-945489D01*
X-256336Y-944930D01*
X-252984Y-945489D01*
X-249580Y-946708D01*
X-243281Y-947419D01*
X-219405Y-947419D01*
X-213106Y-946708D01*
X-207619Y-944778D01*
X-202742Y-941679D01*
X-198628Y-937615D01*
X-195630Y-932687D01*
X-193649Y-927252D01*
X-192938Y-920902D01*
X-192938Y-847039D01*
X-193649Y-840740D01*
X-194919Y-837133D01*
X-195478Y-833780D01*
X-195478Y-809345D01*
X-195122Y-806551D01*
X-192074Y-798576D01*
X-191363Y-792226D01*
X-191363Y-714349D01*
X-192074Y-708050D01*
X-194005Y-702564D01*
X-197104Y-697687D01*
X-201168Y-693572D01*
X-206044Y-690524D01*
X-211531Y-688594D01*
X-217830Y-687882D01*
X-269392Y-687882D01*
X-273304Y-687120D01*
X-276606Y-684936D01*
X-278790Y-681634D01*
X-279552Y-677722D01*
X-279552Y-605739D01*
X-280466Y-596798D01*
X-284327Y-577291D01*
X-286918Y-568655D01*
X-294538Y-550316D01*
X-298805Y-542340D01*
X-309829Y-525830D01*
X-315569Y-518871D01*
X-329590Y-504799D01*
X-336600Y-499059D01*
X-353110Y-488035D01*
X-361035Y-483768D01*
X-379425Y-476199D01*
X-388061Y-473557D01*
X-407517Y-469696D01*
X-416509Y-468782D01*
X-637590Y-468782D01*
X-661974Y-467359D01*
X-678992Y-463804D01*
X-691997Y-458774D01*
X-703122Y-452323D01*
X-714298Y-444093D01*
X-726643Y-433984D01*
X-743000Y-421182D01*
X-762101Y-408228D01*
X-782116Y-397205D01*
X-793902Y-392023D01*
X-808482Y-387451D01*
X-823417Y-384708D01*
X-838606Y-383794D01*
X-853744Y-384708D01*
X-868730Y-387451D01*
X-883259Y-391972D01*
X-897077Y-398221D01*
X-910082Y-406095D01*
X-922070Y-415493D01*
X-932840Y-426212D01*
X-942187Y-438200D01*
X-950061Y-451205D01*
X-956310Y-465074D01*
X-960831Y-479551D01*
X-963574Y-494538D01*
X-964488Y-509727D01*
X-963574Y-524865D01*
X-960831Y-539851D01*
X-956310Y-554329D01*
X-950061Y-568198D01*
X-942187Y-581202D01*
X-932840Y-593191D01*
X-922070Y-603910D01*
X-910082Y-613308D01*
X-897077Y-621182D01*
X-883259Y-627430D01*
X-868730Y-631952D01*
X-853744Y-634695D01*
X-838352Y-635609D01*
X-817625Y-634847D01*
X-801420Y-633984D01*
X-787806Y-633628D01*
X-776427Y-634238D01*
X-766927Y-636016D01*
X-758494Y-639216D01*
X-749858Y-644398D01*
X-740054Y-652678D01*
X-728370Y-665480D01*
X-725932Y-668528D01*
X-716229Y-683158D01*
X-707948Y-698652D01*
X-701294Y-714908D01*
X-696214Y-731774D01*
X-692861Y-748995D01*
X-691184Y-766470D01*
X-691184Y-1396593D01*
X-690829Y-1403553D01*
X-688543Y-1426972D01*
X-687527Y-1433880D01*
X-682904Y-1456944D01*
X-681228Y-1463751D01*
X-674370Y-1486255D01*
X-672033Y-1492808D01*
X-663041Y-1514551D01*
X-660044Y-1520901D01*
X-648919Y-1541627D01*
X-645363Y-1547622D01*
X-632307Y-1567180D01*
X-628142Y-1572818D01*
X-613257Y-1591005D01*
X-608533Y-1596186D01*
X-515874Y-1688795D01*
X-513740Y-1691893D01*
X-512927Y-1695602D01*
X-513994Y-1700733D01*
X-514705Y-1707083D01*
X-514705Y-1975916D01*
X-513994Y-1982266D01*
X-512064Y-1987702D01*
X-508965Y-1992630D01*
X-504901Y-1996693D01*
X-499973Y-1999792D01*
X-494538Y-2001672D01*
X-488188Y-2002383D01*
X-483108Y-2002383D01*
X-479196Y-2003196D01*
X-475894Y-2005380D01*
X-473709Y-2008682D01*
X-472948Y-2012543D01*
X-472948Y-2084374D01*
X-474776Y-2102866D01*
X-478231Y-2120087D01*
X-483362Y-2136902D01*
X-490169Y-2153107D01*
X-498500Y-2168601D01*
X-508304Y-2183180D01*
X-519480Y-2196693D01*
X-540562Y-2217826D01*
X-543864Y-2220010D01*
X-547827Y-2220772D01*
X-605688Y-2220772D01*
X-611987Y-2221484D01*
X-617474Y-2223414D01*
X-622350Y-2226513D01*
X-626465Y-2230577D01*
X-629564Y-2235504D01*
X-631444Y-2240940D01*
X-632155Y-2247290D01*
X-632155Y-2305253D01*
X-632917Y-2309164D01*
X-635152Y-2312416D01*
X-695604Y-2373020D01*
X-705205Y-2381046D01*
X-707237Y-2382367D01*
X-711657Y-2384501D01*
X-716940Y-2385822D01*
X-719734Y-2385923D01*
X-725424Y-2385110D01*
X-733247Y-2382520D01*
X-743254Y-2377846D01*
X-769975Y-2363368D01*
X-783742Y-2356561D01*
X-791921Y-2353106D01*
X-806450Y-2348585D01*
X-821385Y-2345842D01*
X-836574Y-2344928D01*
X-851712Y-2345842D01*
X-866698Y-2348585D01*
X-881227Y-2353106D01*
X-895045Y-2359355D01*
X-908050Y-2367229D01*
X-920038Y-2376627D01*
X-930808Y-2387346D01*
X-940155Y-2399334D01*
X-948029Y-2412339D01*
X-954278Y-2426208D01*
X-958799Y-2440686D01*
X-961542Y-2455672D01*
X-962507Y-2470861D01*
X-961542Y-2485999D01*
X-958799Y-2500985D01*
X-954278Y-2515463D01*
X-948029Y-2529332D01*
X-940155Y-2542336D01*
X-930808Y-2554325D01*
X-920038Y-2565044D01*
X-908050Y-2574442D01*
X-895045Y-2582316D01*
X-881227Y-2588564D01*
X-866698Y-2593086D01*
X-851712Y-2595829D01*
X-836574Y-2596743D01*
X-821385Y-2595829D01*
X-806450Y-2593086D01*
X-791921Y-2588514D01*
X-778357Y-2582519D01*
X-755700Y-2570988D01*
X-718159Y-2552801D01*
X-699668Y-2543200D01*
X-682294Y-2533091D01*
X-664616Y-2521102D01*
X-646074Y-2506624D01*
X-625805Y-2488844D01*
X-615645Y-2479040D01*
X-610971Y-2474823D01*
X-541934Y-2405583D01*
X-538581Y-2403398D01*
X-534670Y-2402586D01*
X-476808Y-2402586D01*
X-470509Y-2401874D01*
X-465023Y-2399995D01*
X-460146Y-2396896D01*
X-456031Y-2392832D01*
X-453034Y-2387904D01*
X-451104Y-2382469D01*
X-450342Y-2376119D01*
X-450342Y-2318207D01*
X-449630Y-2314346D01*
X-447395Y-2311044D01*
X-423773Y-2287473D01*
X-419100Y-2282291D01*
X-404164Y-2264105D01*
X-400050Y-2258466D01*
X-386943Y-2238908D01*
X-383387Y-2232914D01*
X-372262Y-2212187D01*
X-369265Y-2205888D01*
X-360273Y-2184095D01*
X-357936Y-2177542D01*
X-351078Y-2155037D01*
X-349402Y-2148230D01*
X-344779Y-2125167D01*
X-343763Y-2118258D01*
X-341477Y-2094839D01*
X-341122Y-2087880D01*
X-341122Y-2012543D01*
X-340360Y-2008682D01*
X-338175Y-2005380D01*
X-334873Y-2003196D01*
X-330962Y-2002383D01*
X-325831Y-2002383D01*
X-319532Y-2001672D01*
X-314045Y-1999792D01*
X-309168Y-1996693D01*
X-305054Y-1992630D01*
X-302006Y-1987702D01*
X-300075Y-1982266D01*
X-299364Y-1975916D01*
X-299364Y-1707083D01*
X-300075Y-1700733D01*
X-302006Y-1695297D01*
X-305054Y-1690370D01*
X-309168Y-1686306D01*
X-314045Y-1683207D01*
X-319532Y-1681327D01*
X-325831Y-1680616D01*
X-339039Y-1680616D01*
X-342442Y-1680006D01*
X-345490Y-1678279D01*
X-347726Y-1675688D01*
X-353771Y-1665681D01*
X-360730Y-1657553D01*
X-363524Y-1654606D01*
X-366522Y-1650695D01*
X-367842Y-1648409D01*
X-369722Y-1643888D01*
X-370382Y-1641348D01*
X-371144Y-1635150D01*
X-371144Y-1420063D01*
X-370941Y-1418082D01*
X-368655Y-1406652D01*
X-368096Y-1404721D01*
X-363575Y-1393901D01*
X-362661Y-1392174D01*
X-356158Y-1382420D01*
X-354888Y-1380896D01*
X-278333Y-1304340D01*
X-273202Y-1298092D01*
X-262890Y-1282649D01*
X-259130Y-1275588D01*
X-252018Y-1258417D01*
X-249682Y-1250696D01*
X-248666Y-1245565D01*
X-247396Y-1242364D01*
X-245110Y-1239723D01*
X-242112Y-1237996D01*
X-238658Y-1237386D01*
X-219202Y-1237386D01*
X-212902Y-1236675D01*
X-209499Y-1235506D01*
X-206146Y-1234948D01*
X-202793Y-1235506D01*
X-199440Y-1236675D01*
X-196291Y-1237030D01*
X-192684Y-1238148D01*
X-189738Y-1240536D01*
X-187858Y-1243787D01*
X-187299Y-1247546D01*
X-188112Y-1251204D01*
X-190246Y-1254302D01*
X-207771Y-1271828D01*
X-212852Y-1278026D01*
X-223824Y-1294485D01*
X-227634Y-1301546D01*
X-235204Y-1319834D01*
X-237490Y-1327505D01*
X-241350Y-1346911D01*
X-242163Y-1354886D01*
X-242163Y-1398270D01*
X-241554Y-1405280D01*
X-239166Y-1413052D01*
X-231597Y-1431290D01*
X-228295Y-1437538D01*
X-223164Y-1443786D01*
X-209092Y-1457756D01*
X-203809Y-1462125D01*
X-196697Y-1465986D01*
X-187452Y-1469745D01*
X-183946Y-1472184D01*
X-181762Y-1475790D01*
X-180238Y-1480058D01*
X-177190Y-1484985D01*
X-173075Y-1489049D01*
X-168198Y-1492148D01*
X-162712Y-1494078D01*
X-156413Y-1494790D01*
X-108610Y-1494790D01*
X-103784Y-1495196D01*
X-64262Y-1495196D01*
X-60909Y-1495806D01*
X-57912Y-1497431D01*
X-55067Y-1500886D01*
X-51054Y-1505000D01*
X-46075Y-1508099D01*
X-40640Y-1509979D01*
X-34290Y-1510690D01*
X4572Y-1510690D01*
X10871Y-1509979D01*
X16357Y-1508099D01*
X21234Y-1505000D01*
X25349Y-1500886D01*
X26517Y-1499006D01*
X29362Y-1496060D01*
X33070Y-1494485D01*
X37185Y-1494485D01*
X40894Y-1496060D01*
X43738Y-1499006D01*
X44907Y-1500886D01*
X49022Y-1505000D01*
X53898Y-1508099D01*
X59385Y-1509979D01*
X65684Y-1510690D01*
X104546Y-1510690D01*
X108712Y-1510233D01*
X112826Y-1510639D01*
X116484Y-1512620D01*
X118922Y-1515922D01*
X119989Y-1519936D01*
X119278Y-1524050D01*
X116992Y-1527505D01*
X106070Y-1538478D01*
X104495Y-1539748D01*
X97739Y-1544269D01*
X95961Y-1545234D01*
X88442Y-1548333D01*
X83566Y-1549501D01*
X80213Y-1549603D01*
X77063Y-1548638D01*
X74371Y-1546707D01*
X71221Y-1543608D01*
X66344Y-1540510D01*
X60858Y-1538579D01*
X54559Y-1537868D01*
X15697Y-1537868D01*
X9398Y-1538579D01*
X3911Y-1540510D01*
X-965Y-1543608D01*
X-5130Y-1547672D01*
X-8178Y-1552600D01*
X-10058Y-1558036D01*
X-10769Y-1564386D01*
X-10769Y-1614220D01*
X-10058Y-1620570D01*
X-8178Y-1626006D01*
X-5130Y-1630933D01*
X-965Y-1634998D01*
X3911Y-1638096D01*
X9398Y-1639976D01*
X15697Y-1640687D01*
X54559Y-1640687D01*
X60858Y-1639976D01*
X66344Y-1638096D01*
X71221Y-1634998D01*
X75488Y-1630781D01*
X78333Y-1628749D01*
X81686Y-1627835D01*
X89408Y-1627073D01*
X105765Y-1623822D01*
X114046Y-1621332D01*
X129489Y-1614881D01*
X137058Y-1610868D01*
X150977Y-1601571D01*
X157632Y-1596136D01*
X196189Y-1557528D01*
X201371Y-1552702D01*
X205892Y-1549247D01*
X208229Y-1547926D01*
X214680Y-1545285D01*
X228295Y-1541018D01*
X232765Y-1540611D01*
X236931Y-1542186D01*
X240029Y-1545437D01*
X241452Y-1549654D01*
X240944Y-1554073D01*
X238556Y-1557883D01*
X-184505Y-1980946D01*
X-189179Y-1986076D01*
X-204114Y-2004314D01*
X-208330Y-2009902D01*
X-221386Y-2029460D01*
X-224942Y-2035454D01*
X-236067Y-2056231D01*
X-239014Y-2062530D01*
X-248056Y-2084273D01*
X-250393Y-2090826D01*
X-257200Y-2113381D01*
X-258927Y-2120138D01*
X-263499Y-2143201D01*
X-264515Y-2150110D01*
X-266852Y-2173528D01*
X-267157Y-2180488D01*
X-267157Y-2212594D01*
X-268020Y-2216658D01*
X-270408Y-2220061D01*
X-273964Y-2222195D01*
X-277469Y-2223414D01*
X-282397Y-2226513D01*
X-286461Y-2230577D01*
X-289560Y-2235504D01*
X-291439Y-2240940D01*
X-292150Y-2247290D01*
X-292150Y-2376119D01*
X-291439Y-2382469D01*
X-289560Y-2387904D01*
X-286461Y-2392832D01*
X-282397Y-2396896D01*
X-277469Y-2399995D01*
X-272034Y-2401874D01*
X-267106Y-2403094D01*
X-264160Y-2405380D01*
X-262280Y-2408478D01*
X-261569Y-2412085D01*
X-260858Y-2553970D01*
X-261264Y-2556814D01*
X-262940Y-2560269D01*
X-264871Y-2565755D01*
X-265582Y-2572054D01*
X-265582Y-2660904D01*
X-264871Y-2667254D01*
X-264007Y-2669946D01*
X-263347Y-2673299D01*
X-263347Y-2724759D01*
X-263753Y-2727553D01*
X-265277Y-2730703D01*
X-267157Y-2736138D01*
X-267868Y-2742488D01*
X-267868Y-2795320D01*
X-267157Y-2801670D01*
X-263753Y-2810205D01*
X-263347Y-2813050D01*
X-263347Y-2820771D01*
X-264210Y-2824835D01*
X-266598Y-2828188D01*
X-270154Y-2830372D01*
X-273761Y-2831592D01*
X-278688Y-2834690D01*
X-282752Y-2838805D01*
X-285851Y-2843682D01*
X-287782Y-2849168D01*
X-288493Y-2855468D01*
X-288493Y-3104337D01*
X-287782Y-3110636D01*
X-285851Y-3116122D01*
X-282752Y-3120999D01*
X-278688Y-3125114D01*
X-273761Y-3128162D01*
X-268325Y-3130092D01*
G37*
G36*
X2932887Y-1445006D02*
G01*
X3131769Y-1445006D01*
X3138068Y-1444294D01*
X3143554Y-1442364D01*
X3148431Y-1439316D01*
X3152546Y-1435201D01*
X3155594Y-1430324D01*
X3157524Y-1424838D01*
X3158236Y-1418539D01*
X3158236Y-1259636D01*
X3157524Y-1253337D01*
X3155594Y-1247902D01*
X3152546Y-1242974D01*
X3148431Y-1238910D01*
X3143554Y-1235811D01*
X3138068Y-1233881D01*
X3131769Y-1233170D01*
X2932887Y-1233170D01*
X2926588Y-1233881D01*
X2921101Y-1235811D01*
X2916224Y-1238910D01*
X2912110Y-1242974D01*
X2909062Y-1247902D01*
X2907131Y-1253337D01*
X2906420Y-1259636D01*
X2906420Y-1282446D01*
X2905658Y-1286357D01*
X2903423Y-1289659D01*
X2900121Y-1291844D01*
X2896209Y-1292606D01*
X2748534Y-1291945D01*
X2745181Y-1291386D01*
X2742234Y-1289761D01*
X2739999Y-1287221D01*
X2736596Y-1281887D01*
X2732532Y-1277772D01*
X2727655Y-1274724D01*
X2722168Y-1272794D01*
X2715869Y-1272082D01*
X2662986Y-1272082D01*
X2656687Y-1272794D01*
X2651201Y-1274724D01*
X2646324Y-1277772D01*
X2642209Y-1281887D01*
X2640330Y-1284884D01*
X2637637Y-1287780D01*
X2633980Y-1289405D01*
X2630017Y-1289507D01*
X2626309Y-1288084D01*
X2623972Y-1286611D01*
X2618486Y-1284681D01*
X2612186Y-1283970D01*
X2503322Y-1283970D01*
X2496972Y-1284681D01*
X2491536Y-1286611D01*
X2486609Y-1289659D01*
X2482545Y-1293774D01*
X2479446Y-1298651D01*
X2477566Y-1304137D01*
X2476855Y-1310436D01*
X2476855Y-1369314D01*
X2477566Y-1375613D01*
X2479446Y-1381099D01*
X2482545Y-1385976D01*
X2486609Y-1390091D01*
X2491536Y-1393139D01*
X2496972Y-1395069D01*
X2503322Y-1395780D01*
X2612186Y-1395780D01*
X2618486Y-1395069D01*
X2623972Y-1393139D01*
X2628493Y-1390345D01*
X2631592Y-1389024D01*
X2635097Y-1388821D01*
X2638399Y-1389837D01*
X2641193Y-1391869D01*
X2646375Y-1397254D01*
X2651201Y-1400302D01*
X2656687Y-1402181D01*
X2662986Y-1402892D01*
X2715869Y-1402892D01*
X2722168Y-1402181D01*
X2727655Y-1400302D01*
X2732532Y-1397203D01*
X2736596Y-1393139D01*
X2739491Y-1388516D01*
X2741777Y-1385976D01*
X2744774Y-1384350D01*
X2748178Y-1383792D01*
X2896311Y-1384452D01*
X2900172Y-1385214D01*
X2903474Y-1387449D01*
X2905658Y-1390700D01*
X2906420Y-1394612D01*
X2906420Y-1418539D01*
X2907131Y-1424838D01*
X2909062Y-1430324D01*
X2912110Y-1435201D01*
X2916224Y-1439316D01*
X2921101Y-1442364D01*
X2926588Y-1444294D01*
G37*
G36*
X2503322Y-1205788D02*
G01*
X2612186Y-1205788D01*
X2618486Y-1205077D01*
X2623972Y-1203198D01*
X2628849Y-1200099D01*
X2632964Y-1195984D01*
X2636012Y-1191107D01*
X2637942Y-1185672D01*
X2638653Y-1179322D01*
X2638653Y-1120444D01*
X2637942Y-1114145D01*
X2636012Y-1108659D01*
X2632964Y-1103782D01*
X2628849Y-1099667D01*
X2623972Y-1096619D01*
X2618486Y-1094689D01*
X2612186Y-1093978D01*
X2608783Y-1093978D01*
X2604922Y-1093216D01*
X2601620Y-1091031D01*
X2599385Y-1087729D01*
X2598623Y-1083818D01*
X2598623Y-1058113D01*
X2599232Y-1054608D01*
X2601772Y-1047699D01*
X2602484Y-1041450D01*
X2602484Y-988568D01*
X2601772Y-982268D01*
X2599842Y-976782D01*
X2596794Y-971905D01*
X2592679Y-967790D01*
X2587802Y-964692D01*
X2582265Y-962812D01*
X2576017Y-962101D01*
X2520594Y-962101D01*
X2514244Y-962812D01*
X2508402Y-964844D01*
X2504998Y-965453D01*
X2501646Y-964844D01*
X2495753Y-962812D01*
X2489454Y-962101D01*
X2434031Y-962101D01*
X2427681Y-962812D01*
X2422245Y-964692D01*
X2417368Y-967790D01*
X2415489Y-969670D01*
X2412644Y-971651D01*
X2409291Y-972616D01*
X2405837Y-972362D01*
X2402636Y-970940D01*
X2399182Y-968400D01*
X2387244Y-956411D01*
X2385974Y-954887D01*
X2380030Y-945997D01*
X2379065Y-944219D01*
X2375001Y-934364D01*
X2373223Y-926592D01*
X2373376Y-922121D01*
X2375357Y-918159D01*
X2378862Y-915416D01*
X2383231Y-914450D01*
X2398115Y-914450D01*
X2404465Y-913739D01*
X2407869Y-912520D01*
X2411222Y-911961D01*
X2414574Y-912520D01*
X2417978Y-913739D01*
X2424277Y-914450D01*
X2448153Y-914450D01*
X2454452Y-913739D01*
X2459939Y-911809D01*
X2464816Y-908710D01*
X2467762Y-905814D01*
X2471166Y-903579D01*
X2475179Y-902817D01*
X2479141Y-903732D01*
X2482443Y-906119D01*
X2484729Y-910234D01*
X2487828Y-915111D01*
X2491892Y-919226D01*
X2496769Y-922274D01*
X2502255Y-924204D01*
X2508605Y-924915D01*
X2561437Y-924915D01*
X2567787Y-924204D01*
X2573223Y-922274D01*
X2578150Y-919226D01*
X2584500Y-912621D01*
X2587447Y-910996D01*
X2590800Y-910437D01*
X2599232Y-910437D01*
X2602585Y-910996D01*
X2605532Y-912621D01*
X2611932Y-919226D01*
X2616809Y-922274D01*
X2622245Y-924204D01*
X2628595Y-924915D01*
X2681427Y-924915D01*
X2687777Y-924204D01*
X2693212Y-922274D01*
X2698140Y-919226D01*
X2704490Y-912621D01*
X2707436Y-910996D01*
X2710789Y-910437D01*
X2752648Y-910437D01*
X2759964Y-910844D01*
X2764383Y-912164D01*
X2768346Y-914400D01*
X2781604Y-919886D01*
X2789682Y-925017D01*
X2795930Y-930554D01*
X2815640Y-950163D01*
X2817774Y-953262D01*
X2818638Y-956970D01*
X2818079Y-960678D01*
X2817164Y-963371D01*
X2816453Y-969670D01*
X2816453Y-1128522D01*
X2817164Y-1134872D01*
X2819044Y-1140307D01*
X2822092Y-1145235D01*
X2826207Y-1149299D01*
X2831134Y-1152398D01*
X2836570Y-1154277D01*
X2842920Y-1154988D01*
X2971749Y-1154988D01*
X2978099Y-1154277D01*
X2983534Y-1152398D01*
X2988462Y-1149299D01*
X2992526Y-1145235D01*
X2995625Y-1140307D01*
X2997555Y-1134872D01*
X2998266Y-1128522D01*
X2998266Y-969670D01*
X2997555Y-963371D01*
X2995625Y-957884D01*
X2992526Y-953008D01*
X2988462Y-948893D01*
X2983534Y-945794D01*
X2978099Y-943914D01*
X2971749Y-943203D01*
X2938983Y-943203D01*
X2935732Y-942644D01*
X2932785Y-941069D01*
X2930550Y-938682D01*
X2926334Y-932383D01*
X2919984Y-924661D01*
X2860649Y-865124D01*
X2854452Y-858012D01*
X2850286Y-851204D01*
X2846781Y-842467D01*
X2843733Y-835914D01*
X2838297Y-827887D01*
X2831592Y-820928D01*
X2823819Y-815187D01*
X2815234Y-810818D01*
X2805988Y-808024D01*
X2796438Y-806754D01*
X2786786Y-807212D01*
X2779115Y-808583D01*
X2710789Y-808583D01*
X2707487Y-808024D01*
X2704490Y-806399D01*
X2698140Y-799795D01*
X2693212Y-796696D01*
X2687777Y-794816D01*
X2681427Y-794105D01*
X2628595Y-794105D01*
X2622245Y-794816D01*
X2616809Y-796696D01*
X2611932Y-799795D01*
X2605532Y-806399D01*
X2602585Y-808024D01*
X2599232Y-808583D01*
X2590800Y-808583D01*
X2587447Y-808024D01*
X2584500Y-806399D01*
X2578150Y-799795D01*
X2573223Y-796696D01*
X2567787Y-794816D01*
X2561437Y-794105D01*
X2508605Y-794105D01*
X2502255Y-794816D01*
X2496769Y-796696D01*
X2491892Y-799795D01*
X2487828Y-803910D01*
X2484729Y-808786D01*
X2483002Y-813765D01*
X2480919Y-817270D01*
X2477617Y-819658D01*
X2473604Y-820572D01*
X2469642Y-819861D01*
X2466238Y-817625D01*
X2464816Y-816203D01*
X2459939Y-813155D01*
X2454452Y-811225D01*
X2448153Y-810514D01*
X2424277Y-810514D01*
X2417978Y-811225D01*
X2414574Y-812444D01*
X2411222Y-813003D01*
X2407869Y-812444D01*
X2404465Y-811225D01*
X2398115Y-810514D01*
X2374290Y-810514D01*
X2367940Y-811225D01*
X2364587Y-812444D01*
X2361234Y-813003D01*
X2357831Y-812444D01*
X2354478Y-811225D01*
X2348128Y-810514D01*
X2324303Y-810514D01*
X2317953Y-811225D01*
X2312517Y-813155D01*
X2307590Y-816203D01*
X2303526Y-820318D01*
X2300427Y-825195D01*
X2298446Y-830681D01*
X2297785Y-836980D01*
X2297785Y-887984D01*
X2298446Y-894283D01*
X2299766Y-897788D01*
X2300325Y-901141D01*
X2300325Y-924001D01*
X2301087Y-932027D01*
X2304745Y-950417D01*
X2307082Y-958087D01*
X2314295Y-975461D01*
X2318054Y-982522D01*
X2328468Y-998118D01*
X2333599Y-1004366D01*
X2351278Y-1022045D01*
X2357475Y-1027125D01*
X2369870Y-1035405D01*
X2376932Y-1039164D01*
X2390698Y-1044854D01*
X2398369Y-1047191D01*
X2403246Y-1048156D01*
X2407056Y-1049782D01*
X2409850Y-1052728D01*
X2413254Y-1058113D01*
X2417368Y-1062177D01*
X2422245Y-1065276D01*
X2427681Y-1067206D01*
X2434031Y-1067917D01*
X2489454Y-1067917D01*
X2495753Y-1067206D01*
X2501646Y-1065123D01*
X2504998Y-1064564D01*
X2510028Y-1065682D01*
X2513584Y-1067866D01*
X2515971Y-1071219D01*
X2516835Y-1075283D01*
X2516835Y-1083818D01*
X2516022Y-1087729D01*
X2513838Y-1091031D01*
X2510536Y-1093216D01*
X2506675Y-1093978D01*
X2503322Y-1093978D01*
X2496972Y-1094689D01*
X2491536Y-1096619D01*
X2486609Y-1099667D01*
X2482545Y-1103782D01*
X2479446Y-1108659D01*
X2477566Y-1114145D01*
X2476855Y-1120444D01*
X2476855Y-1179322D01*
X2477566Y-1185672D01*
X2479446Y-1191107D01*
X2482545Y-1195984D01*
X2486609Y-1200099D01*
X2491536Y-1203198D01*
X2496972Y-1205077D01*
G37*
G36*
X-838606Y-1061770D02*
G01*
X-824992Y-1060856D01*
X-811631Y-1058164D01*
X-798728Y-1053693D01*
X-786587Y-1047546D01*
X-775309Y-1039825D01*
X-765200Y-1030681D01*
X-756412Y-1020267D01*
X-749046Y-1008786D01*
X-743305Y-996391D01*
X-739292Y-983386D01*
X-737006Y-969924D01*
X-736549Y-956310D01*
X-737920Y-942746D01*
X-741070Y-929436D01*
X-745998Y-916736D01*
X-752551Y-904748D01*
X-760628Y-893775D01*
X-770128Y-883970D01*
X-780796Y-875537D01*
X-793038Y-868324D01*
X-796188Y-865378D01*
X-797864Y-861364D01*
X-797712Y-857097D01*
X-795782Y-853236D01*
X-792429Y-850493D01*
X-786587Y-847547D01*
X-775309Y-839825D01*
X-765200Y-830681D01*
X-756412Y-820267D01*
X-749046Y-808786D01*
X-743305Y-796391D01*
X-739292Y-783386D01*
X-737006Y-769924D01*
X-736549Y-756310D01*
X-737920Y-742746D01*
X-741070Y-729437D01*
X-745998Y-716737D01*
X-752551Y-704748D01*
X-760628Y-693775D01*
X-770128Y-683971D01*
X-780796Y-675538D01*
X-792530Y-668578D01*
X-805129Y-663244D01*
X-818235Y-659638D01*
X-831799Y-657860D01*
X-845413Y-657860D01*
X-858977Y-659638D01*
X-872134Y-663244D01*
X-884631Y-668578D01*
X-896366Y-675538D01*
X-907084Y-683971D01*
X-916584Y-693775D01*
X-924661Y-704748D01*
X-931214Y-716737D01*
X-936091Y-729437D01*
X-939241Y-742746D01*
X-940612Y-756310D01*
X-940155Y-769924D01*
X-937920Y-783386D01*
X-933856Y-796391D01*
X-928116Y-808786D01*
X-920800Y-820267D01*
X-911961Y-830681D01*
X-901852Y-839825D01*
X-890625Y-847547D01*
X-884732Y-850493D01*
X-881430Y-853236D01*
X-879500Y-857097D01*
X-879348Y-861364D01*
X-881024Y-865378D01*
X-884174Y-868324D01*
X-896366Y-875537D01*
X-907084Y-883970D01*
X-916584Y-893775D01*
X-924661Y-904748D01*
X-931214Y-916736D01*
X-936091Y-929436D01*
X-939241Y-942746D01*
X-940612Y-956310D01*
X-940155Y-969924D01*
X-937920Y-983386D01*
X-933856Y-996391D01*
X-928116Y-1008786D01*
X-920800Y-1020267D01*
X-911961Y-1030681D01*
X-901852Y-1039825D01*
X-890625Y-1047546D01*
X-878484Y-1053693D01*
X-865581Y-1058164D01*
X-852220Y-1060856D01*
G37*
G36*
X803757Y-872388D02*
G01*
X812495Y-871626D01*
X820978Y-869340D01*
X828903Y-865632D01*
X836117Y-860602D01*
X842314Y-854354D01*
X847344Y-847191D01*
X851052Y-839216D01*
X853338Y-830732D01*
X854151Y-821537D01*
X854151Y-780440D01*
X853338Y-771245D01*
X851052Y-762762D01*
X847344Y-754786D01*
X842314Y-747623D01*
X836117Y-741426D01*
X828903Y-736396D01*
X820978Y-732688D01*
X812495Y-730402D01*
X803757Y-729640D01*
X796950Y-730199D01*
X792581Y-729640D01*
X788873Y-727303D01*
X736701Y-674979D01*
X730554Y-667867D01*
X726440Y-661060D01*
X722934Y-652373D01*
X719836Y-645718D01*
X714400Y-637692D01*
X707694Y-630732D01*
X699922Y-624992D01*
X691337Y-620623D01*
X682091Y-617829D01*
X672541Y-616559D01*
X662889Y-617016D01*
X653491Y-619048D01*
X644499Y-622604D01*
X636320Y-627684D01*
X629056Y-634034D01*
X623011Y-641553D01*
X618286Y-649986D01*
X615086Y-659079D01*
X613460Y-668578D01*
X613460Y-678230D01*
X615086Y-687730D01*
X618286Y-696823D01*
X623011Y-705256D01*
X629056Y-712774D01*
X636320Y-719124D01*
X644652Y-724255D01*
X657606Y-729640D01*
X665734Y-734822D01*
X671982Y-740410D01*
X750722Y-818997D01*
X752754Y-821893D01*
X753668Y-825296D01*
X754126Y-830732D01*
X756412Y-839216D01*
X760120Y-847191D01*
X765149Y-854354D01*
X771347Y-860602D01*
X778560Y-865632D01*
X786485Y-869340D01*
X794969Y-871626D01*
G37*
G36*
X993749Y-566369D02*
G01*
X1002487Y-565607D01*
X1010970Y-563321D01*
X1018895Y-559612D01*
X1026109Y-554583D01*
X1032306Y-548386D01*
X1037336Y-541172D01*
X1041044Y-533247D01*
X1043330Y-524764D01*
X1044092Y-515569D01*
X1044092Y-474421D01*
X1043330Y-465226D01*
X1039672Y-451459D01*
X1039672Y-429869D01*
X1038809Y-420573D01*
X1033932Y-396189D01*
X1031290Y-387197D01*
X1021791Y-364236D01*
X1017422Y-356006D01*
X1003604Y-335330D01*
X997712Y-328066D01*
X982624Y-312978D01*
X980440Y-309676D01*
X979678Y-305816D01*
X979678Y-224129D01*
X978966Y-217779D01*
X977036Y-212344D01*
X973988Y-207416D01*
X969822Y-203352D01*
X964946Y-200253D01*
X959510Y-198323D01*
X953211Y-197612D01*
X841095Y-197612D01*
X834745Y-198323D01*
X829310Y-200253D01*
X824382Y-203352D01*
X820318Y-207416D01*
X817219Y-212344D01*
X815289Y-217779D01*
X814578Y-224129D01*
X814578Y-360680D01*
X815289Y-366979D01*
X817219Y-372465D01*
X820318Y-377342D01*
X824382Y-381457D01*
X829310Y-384505D01*
X834745Y-386435D01*
X841095Y-387146D01*
X922375Y-387146D01*
X925677Y-387705D01*
X928573Y-389229D01*
X930859Y-391668D01*
X937920Y-402285D01*
X938885Y-404063D01*
X944321Y-417118D01*
X944880Y-419049D01*
X947623Y-432917D01*
X947826Y-434898D01*
X947826Y-451459D01*
X944118Y-465226D01*
X943305Y-474421D01*
X943305Y-515569D01*
X944118Y-524764D01*
X946403Y-533247D01*
X950112Y-541172D01*
X955141Y-548386D01*
X961339Y-554583D01*
X968552Y-559612D01*
X976528Y-563321D01*
X985012Y-565607D01*
G37*
G36*
X641045Y-387146D02*
G01*
X753160Y-387146D01*
X759510Y-386435D01*
X764946Y-384505D01*
X769874Y-381457D01*
X773938Y-377342D01*
X777036Y-372465D01*
X778967Y-366979D01*
X779678Y-360680D01*
X779678Y-224129D01*
X778967Y-217779D01*
X777036Y-212344D01*
X773938Y-207416D01*
X769874Y-203352D01*
X764946Y-200253D01*
X759510Y-198323D01*
X756158Y-197967D01*
X752652Y-196900D01*
X749706Y-194665D01*
X747826Y-191516D01*
X747115Y-187858D01*
X747115Y-169418D01*
X747979Y-165354D01*
X750417Y-161950D01*
X753922Y-159816D01*
X757428Y-158597D01*
X762355Y-155498D01*
X766419Y-151434D01*
X769518Y-146507D01*
X771448Y-141071D01*
X772160Y-134721D01*
X772160Y-55880D01*
X771448Y-49530D01*
X769518Y-44094D01*
X766419Y-39217D01*
X762355Y-35102D01*
X757428Y-32004D01*
X751992Y-30124D01*
X745642Y-29413D01*
X646785Y-29413D01*
X640486Y-30124D01*
X635000Y-32004D01*
X630123Y-35102D01*
X626008Y-39217D01*
X622960Y-44094D01*
X621030Y-49530D01*
X620318Y-55880D01*
X620318Y-134721D01*
X621030Y-141071D01*
X622960Y-146507D01*
X626008Y-151434D01*
X630123Y-155498D01*
X635000Y-158597D01*
X638505Y-159816D01*
X642061Y-161950D01*
X644499Y-165354D01*
X645312Y-169418D01*
X645312Y-188061D01*
X644652Y-191719D01*
X642772Y-194868D01*
X639826Y-197104D01*
X634746Y-198323D01*
X629310Y-200253D01*
X624382Y-203352D01*
X620318Y-207416D01*
X617169Y-212344D01*
X615289Y-217779D01*
X614578Y-224129D01*
X614578Y-360680D01*
X615289Y-366979D01*
X617169Y-372465D01*
X620318Y-377342D01*
X624382Y-381457D01*
X629310Y-384505D01*
X634746Y-386435D01*
G37*
G36*
X-102920Y-80010D02*
G01*
X-91135Y-79603D01*
X-79502Y-77470D01*
X-68326Y-73660D01*
X-57861Y-68224D01*
X-48209Y-61366D01*
X-39725Y-53187D01*
X-32512Y-43840D01*
X-26720Y-33528D01*
X-22504Y-22504D01*
X-19964Y-10972D01*
X-19100Y812D01*
X-19761Y9753D01*
X-19100Y14122D01*
X-16662Y17780D01*
X-12954Y20116D01*
X-8534Y20574D01*
X-2946Y19964D01*
X9245Y20421D01*
X13614Y19608D01*
X17170Y17018D01*
X19354Y13208D01*
X19659Y8788D01*
X19354Y6705D01*
X19354Y-5130D01*
X21082Y-16764D01*
X24485Y-28092D01*
X29514Y-38811D01*
X36017Y-48615D01*
X43891Y-57404D01*
X52984Y-64973D01*
X63042Y-71120D01*
X73914Y-75742D01*
X85344Y-78740D01*
X97078Y-80010D01*
X108864Y-79603D01*
X120497Y-77470D01*
X131622Y-73660D01*
X142138Y-68224D01*
X151790Y-61366D01*
X160477Y-52984D01*
X163728Y-50850D01*
X167538Y-50139D01*
X386486Y-50139D01*
X389839Y-50698D01*
X392785Y-52324D01*
X396036Y-56388D01*
X400100Y-60502D01*
X405028Y-63601D01*
X410464Y-65481D01*
X416814Y-66192D01*
X515670Y-66192D01*
X521919Y-65481D01*
X527456Y-63601D01*
X532333Y-60502D01*
X536448Y-56388D01*
X539496Y-51511D01*
X541426Y-46024D01*
X542137Y-39725D01*
X542137Y39116D01*
X541426Y45466D01*
X539496Y50901D01*
X536448Y55829D01*
X532333Y59893D01*
X527456Y62991D01*
X521919Y64922D01*
X515670Y65633D01*
X416814Y65633D01*
X410464Y64922D01*
X405028Y62991D01*
X400151Y59943D01*
X395071Y54762D01*
X391769Y52476D01*
X387807Y51714D01*
X167538Y51714D01*
X163779Y52425D01*
X160528Y54559D01*
X151790Y62941D01*
X142138Y69850D01*
X131622Y75234D01*
X120497Y79044D01*
X108864Y81178D01*
X97078Y81635D01*
X91490Y81026D01*
X87122Y81483D01*
X83312Y83820D01*
X80822Y87477D01*
X80264Y91846D01*
X80924Y100787D01*
X80060Y112572D01*
X77419Y124053D01*
X72542Y136652D01*
X59537Y162814D01*
X56794Y169214D01*
X54711Y175209D01*
X53187Y181559D01*
X51968Y189179D01*
X51206Y198780D01*
X50952Y211277D01*
X50952Y378256D01*
X51511Y381609D01*
X53136Y384606D01*
X55676Y386842D01*
X59334Y389128D01*
X63449Y393242D01*
X66497Y398119D01*
X68427Y403606D01*
X69138Y409905D01*
X69138Y489407D01*
X68427Y495757D01*
X66497Y501192D01*
X63449Y506120D01*
X59334Y510184D01*
X54457Y513283D01*
X48361Y515416D01*
X44805Y517550D01*
X42418Y520954D01*
X41554Y525018D01*
X42418Y529082D01*
X44805Y532434D01*
X48361Y534568D01*
X54457Y536702D01*
X59334Y539800D01*
X63449Y543864D01*
X66497Y548792D01*
X68427Y554228D01*
X69138Y560578D01*
X69138Y640080D01*
X68427Y646379D01*
X66497Y651865D01*
X63449Y656742D01*
X59334Y660857D01*
X54457Y663905D01*
X48971Y665835D01*
X42672Y666546D01*
X10007Y666546D01*
X6096Y667308D01*
X2844Y669544D01*
X-141427Y813765D01*
X-145491Y817473D01*
X-158394Y828090D01*
X-162814Y831342D01*
X-176733Y840638D01*
X-181457Y843432D01*
X-196189Y851306D01*
X-201117Y853694D01*
X-216560Y860044D01*
X-221742Y861923D01*
X-237744Y866749D01*
X-243078Y868121D01*
X-259435Y871372D01*
X-264871Y872185D01*
X-281482Y873810D01*
X-286969Y874064D01*
X-397510Y874064D01*
X-415290Y874776D01*
X-428599Y876604D01*
X-438962Y879246D01*
X-447700Y882599D01*
X-456133Y886815D01*
X-476097Y898804D01*
X-490524Y907135D01*
X-504901Y914603D01*
X-510184Y917041D01*
X-523240Y921562D01*
X-536600Y924255D01*
X-550164Y925169D01*
X-563778Y924255D01*
X-577138Y921562D01*
X-590042Y917092D01*
X-602234Y910945D01*
X-613460Y903224D01*
X-623570Y894080D01*
X-632358Y883666D01*
X-639724Y872185D01*
X-645464Y859790D01*
X-649478Y846785D01*
X-651764Y833323D01*
X-652221Y819708D01*
X-650849Y806145D01*
X-647700Y792835D01*
X-642772Y780135D01*
X-636219Y768146D01*
X-628142Y757174D01*
X-618642Y747369D01*
X-607974Y738936D01*
X-596239Y731977D01*
X-583692Y726643D01*
X-570534Y723087D01*
X-557022Y721258D01*
X-543407Y721258D01*
X-529844Y723087D01*
X-516635Y726694D01*
X-503834Y732129D01*
X-488848Y740003D01*
X-476605Y747115D01*
X-465124Y754176D01*
X-455472Y759815D01*
X-446684Y764184D01*
X-437743Y767486D01*
X-427431Y769975D01*
X-414324Y771601D01*
X-397154Y772261D01*
X-289763Y772261D01*
X-276606Y770940D01*
X-264668Y768553D01*
X-252984Y764946D01*
X-241757Y760222D01*
X-230987Y754430D01*
X-220878Y747623D01*
X-211480Y739851D01*
X-72034Y600405D01*
X-69850Y597103D01*
X-69088Y593242D01*
X-69088Y560578D01*
X-68376Y554228D01*
X-66446Y548792D01*
X-63398Y543864D01*
X-59334Y539800D01*
X-54457Y536702D01*
X-48310Y534568D01*
X-44754Y532434D01*
X-42367Y529082D01*
X-41503Y525018D01*
X-42367Y520954D01*
X-44754Y517550D01*
X-48310Y515416D01*
X-54457Y513283D01*
X-59334Y510184D01*
X-63398Y506120D01*
X-66446Y501192D01*
X-68376Y495757D01*
X-69088Y489407D01*
X-69088Y409905D01*
X-68376Y403606D01*
X-66446Y398119D01*
X-63398Y393242D01*
X-59334Y389128D01*
X-55626Y386842D01*
X-53086Y384606D01*
X-51460Y381609D01*
X-50901Y378256D01*
X-50901Y211023D01*
X-51206Y198221D01*
X-52019Y188417D01*
X-53289Y180695D01*
X-54914Y174345D01*
X-56997Y168554D01*
X-59690Y162356D01*
X-72593Y136499D01*
X-75488Y129844D01*
X-78892Y118364D01*
X-80619Y106680D01*
X-80619Y94894D01*
X-80314Y92811D01*
X-80670Y88392D01*
X-82804Y84531D01*
X-86410Y81991D01*
X-90728Y81178D01*
X-102920Y81635D01*
X-114655Y80314D01*
X-126085Y77368D01*
X-137007Y72745D01*
X-147015Y66598D01*
X-156108Y59029D01*
X-163982Y50241D01*
X-170484Y40386D01*
X-175514Y29667D01*
X-178917Y18389D01*
X-180644Y6705D01*
X-180644Y-5130D01*
X-178917Y-16764D01*
X-175514Y-28092D01*
X-170484Y-38811D01*
X-163982Y-48615D01*
X-156108Y-57404D01*
X-147015Y-64973D01*
X-137007Y-71120D01*
X-126085Y-75742D01*
X-114655Y-78740D01*
G37*
G36*
X3504539Y774141D02*
G01*
X3522624Y775563D01*
X3540404Y778814D01*
X3557828Y783844D01*
X3574592Y790702D01*
X3590544Y799185D01*
X3605580Y809294D01*
X3619500Y820877D01*
X3632149Y833882D01*
X3643376Y848055D01*
X3653078Y863346D01*
X3661206Y879551D01*
X3667556Y896518D01*
X3672179Y913993D01*
X3674973Y931875D01*
X3675887Y949960D01*
X3674973Y968095D01*
X3672179Y985977D01*
X3667556Y1003452D01*
X3661206Y1020419D01*
X3653078Y1036624D01*
X3643376Y1051915D01*
X3632149Y1066088D01*
X3619500Y1079093D01*
X3605580Y1090676D01*
X3590544Y1100785D01*
X3574592Y1109268D01*
X3557828Y1116126D01*
X3540404Y1121156D01*
X3522624Y1124407D01*
X3504539Y1125829D01*
X3486454Y1125372D01*
X3468471Y1123035D01*
X3450844Y1118870D01*
X3433775Y1112926D01*
X3417366Y1105255D01*
X3401822Y1095908D01*
X3387344Y1085037D01*
X3374034Y1072743D01*
X3362096Y1059129D01*
X3351580Y1044397D01*
X3342690Y1028649D01*
X3335426Y1012037D01*
X3329940Y994765D01*
X3326231Y977036D01*
X3324351Y959053D01*
X3324351Y940917D01*
X3326231Y922934D01*
X3329940Y905205D01*
X3335426Y887933D01*
X3342690Y871321D01*
X3351580Y855573D01*
X3362096Y840841D01*
X3374034Y827227D01*
X3387344Y814933D01*
X3401822Y804062D01*
X3417366Y794715D01*
X3433775Y787044D01*
X3450844Y781100D01*
X3468471Y776935D01*
X3486454Y774598D01*
G37*
G36*
X-1395425Y774141D02*
G01*
X-1377391Y775563D01*
X-1359560Y778814D01*
X-1342186Y783844D01*
X-1325422Y790702D01*
X-1309420Y799185D01*
X-1294384Y809294D01*
X-1280515Y820877D01*
X-1267866Y833882D01*
X-1256588Y848055D01*
X-1246886Y863346D01*
X-1238808Y879551D01*
X-1232408Y896518D01*
X-1227785Y913993D01*
X-1224991Y931875D01*
X-1224076Y949960D01*
X-1224991Y968095D01*
X-1227785Y985977D01*
X-1232408Y1003452D01*
X-1238808Y1020419D01*
X-1246886Y1036624D01*
X-1256588Y1051915D01*
X-1267866Y1066088D01*
X-1280515Y1079093D01*
X-1294384Y1090676D01*
X-1309420Y1100785D01*
X-1325422Y1109268D01*
X-1342186Y1116126D01*
X-1359560Y1121156D01*
X-1377391Y1124407D01*
X-1395425Y1125829D01*
X-1413560Y1125372D01*
X-1431493Y1123035D01*
X-1449120Y1118870D01*
X-1466240Y1112926D01*
X-1482648Y1105255D01*
X-1498142Y1095908D01*
X-1512671Y1085037D01*
X-1525930Y1072743D01*
X-1537919Y1059129D01*
X-1548384Y1044397D01*
X-1557324Y1028649D01*
X-1564538Y1012037D01*
X-1570075Y994765D01*
X-1573784Y977036D01*
X-1575612Y959053D01*
X-1575612Y940917D01*
X-1573784Y922934D01*
X-1570075Y905205D01*
X-1564538Y887933D01*
X-1557324Y871321D01*
X-1548384Y855573D01*
X-1537919Y840841D01*
X-1525930Y827227D01*
X-1512671Y814933D01*
X-1498142Y804062D01*
X-1482648Y794715D01*
X-1466240Y787044D01*
X-1449120Y781100D01*
X-1431493Y776935D01*
X-1413560Y774598D01*
G37*
G36*
X-557022Y977239D02*
G01*
X-543407Y977239D01*
X-529844Y979068D01*
X-516686Y982675D01*
X-504139Y988009D01*
X-492404Y994968D01*
X-481685Y1003401D01*
X-472236Y1013206D01*
X-464159Y1024178D01*
X-457606Y1036116D01*
X-452678Y1048867D01*
X-449529Y1062126D01*
X-448157Y1075690D01*
X-448614Y1089304D01*
X-450900Y1102766D01*
X-454914Y1115822D01*
X-460654Y1128166D01*
X-468020Y1139647D01*
X-476808Y1150061D01*
X-486918Y1159205D01*
X-498144Y1166926D01*
X-510336Y1173073D01*
X-523240Y1177544D01*
X-536600Y1180287D01*
X-550164Y1181201D01*
X-563778Y1180287D01*
X-577138Y1177544D01*
X-590042Y1173073D01*
X-602234Y1166926D01*
X-613460Y1159205D01*
X-623570Y1150061D01*
X-632358Y1139647D01*
X-639724Y1128166D01*
X-645464Y1115822D01*
X-649478Y1102766D01*
X-651764Y1089304D01*
X-652221Y1075690D01*
X-650849Y1062126D01*
X-647700Y1048867D01*
X-642772Y1036116D01*
X-636219Y1024178D01*
X-628142Y1013206D01*
X-618642Y1003401D01*
X-607974Y994968D01*
X-596239Y988009D01*
X-583692Y982675D01*
X-570534Y979068D01*
G37*

%LPD*%
G36*
X-453085Y-1560931D02*
G01*
X-456996Y-1560169D01*
X-460298Y-1557985D01*
X-512826Y-1505407D01*
X-524611Y-1491081D01*
X-534314Y-1476451D01*
X-542594Y-1460906D01*
X-549249Y-1444650D01*
X-554329Y-1427835D01*
X-557682Y-1410563D01*
X-559358Y-1393088D01*
X-559358Y-763016D01*
X-559714Y-756056D01*
X-562000Y-732637D01*
X-563016Y-725728D01*
X-567639Y-702614D01*
X-569315Y-695858D01*
X-576173Y-673303D01*
X-578510Y-666750D01*
X-587502Y-645007D01*
X-590499Y-638708D01*
X-601573Y-617931D01*
X-605180Y-611987D01*
X-618286Y-592378D01*
X-622452Y-586740D01*
X-638302Y-567182D01*
X-640130Y-563829D01*
X-640537Y-560070D01*
X-639572Y-556412D01*
X-637336Y-553364D01*
X-634136Y-551332D01*
X-630377Y-550621D01*
X-421030Y-550621D01*
X-419049Y-550824D01*
X-408432Y-552907D01*
X-406552Y-553516D01*
X-396544Y-557631D01*
X-394766Y-558596D01*
X-385775Y-564591D01*
X-384251Y-565861D01*
X-376631Y-573481D01*
X-375361Y-575056D01*
X-369316Y-584047D01*
X-368401Y-585774D01*
X-364286Y-595782D01*
X-363677Y-597662D01*
X-361594Y-608279D01*
X-361391Y-610260D01*
X-361391Y-712978D01*
X-360527Y-721410D01*
X-357581Y-730910D01*
X-357174Y-735076D01*
X-358495Y-739038D01*
X-361340Y-742137D01*
X-365150Y-743864D01*
X-375208Y-746048D01*
X-384200Y-749604D01*
X-391769Y-754278D01*
X-395884Y-755751D01*
X-400100Y-755345D01*
X-403809Y-753262D01*
X-406349Y-749858D01*
X-407263Y-745642D01*
X-407263Y-714349D01*
X-407974Y-708050D01*
X-409905Y-702564D01*
X-413004Y-697687D01*
X-417068Y-693572D01*
X-421944Y-690524D01*
X-427431Y-688594D01*
X-433730Y-687882D01*
X-486613Y-687882D01*
X-492912Y-688594D01*
X-498398Y-690524D01*
X-503275Y-693572D01*
X-507390Y-697687D01*
X-510438Y-702564D01*
X-512368Y-708050D01*
X-513130Y-714349D01*
X-513130Y-753059D01*
X-513537Y-756005D01*
X-514807Y-758698D01*
X-520547Y-767283D01*
X-524357Y-774344D01*
X-528828Y-785266D01*
X-531164Y-792988D01*
X-533450Y-804570D01*
X-534263Y-812546D01*
X-534263Y-906322D01*
X-533450Y-914298D01*
X-529590Y-933703D01*
X-527304Y-941374D01*
X-519734Y-959662D01*
X-515924Y-966724D01*
X-504951Y-983183D01*
X-499872Y-989380D01*
X-491134Y-998118D01*
X-488899Y-1001420D01*
X-488137Y-1005332D01*
X-488950Y-1009243D01*
X-491185Y-1012545D01*
X-494487Y-1014730D01*
X-498500Y-1016304D01*
X-506679Y-1021384D01*
X-513943Y-1027734D01*
X-519988Y-1035253D01*
X-524713Y-1043686D01*
X-527913Y-1052779D01*
X-529539Y-1062278D01*
X-529539Y-1071930D01*
X-527913Y-1081430D01*
X-524713Y-1090523D01*
X-519988Y-1098956D01*
X-513943Y-1106474D01*
X-506679Y-1112824D01*
X-498500Y-1117904D01*
X-489508Y-1121460D01*
X-480110Y-1123492D01*
X-470458Y-1123950D01*
X-467614Y-1123543D01*
X-463194Y-1124000D01*
X-459384Y-1126236D01*
X-456895Y-1129944D01*
X-456184Y-1134313D01*
X-457454Y-1138580D01*
X-461213Y-1145286D01*
X-464413Y-1154379D01*
X-466039Y-1163878D01*
X-466039Y-1173530D01*
X-464413Y-1183030D01*
X-461213Y-1192123D01*
X-456488Y-1200556D01*
X-450443Y-1208074D01*
X-443179Y-1214424D01*
X-435000Y-1219504D01*
X-426008Y-1223060D01*
X-416610Y-1225092D01*
X-406958Y-1225550D01*
X-397408Y-1224280D01*
X-388162Y-1221486D01*
X-379577Y-1217117D01*
X-371805Y-1211376D01*
X-365099Y-1204417D01*
X-359714Y-1196441D01*
X-355701Y-1187551D01*
X-354025Y-1181658D01*
X-353212Y-1178001D01*
X-350469Y-1157681D01*
X-349656Y-1154734D01*
X-348030Y-1152245D01*
X-342392Y-1145844D01*
X-338937Y-1143304D01*
X-334772Y-1142441D01*
X-329742Y-1142441D01*
X-325831Y-1143203D01*
X-322630Y-1145387D01*
X-320344Y-1148689D01*
X-319582Y-1152601D01*
X-319582Y-1210919D01*
X-318871Y-1217269D01*
X-317550Y-1222095D01*
X-317754Y-1224788D01*
X-319328Y-1232763D01*
X-319887Y-1234643D01*
X-323900Y-1244346D01*
X-324866Y-1246124D01*
X-330708Y-1254861D01*
X-331978Y-1256385D01*
X-408584Y-1332992D01*
X-413613Y-1339189D01*
X-424637Y-1355648D01*
X-428396Y-1362710D01*
X-435965Y-1380998D01*
X-438302Y-1388668D01*
X-442163Y-1408074D01*
X-442925Y-1416050D01*
X-442925Y-1550771D01*
X-443738Y-1554683D01*
X-445922Y-1557985D01*
X-449224Y-1560169D01*
G37*

%LPD*%
G36*
X1503172Y-3311550D02*
G01*
X1499616Y-3310178D01*
X1497736Y-3309010D01*
X1487982Y-3305911D01*
X1485036Y-3303676D01*
X1483106Y-3300526D01*
X1482445Y-3296920D01*
X1482445Y-2749346D01*
X1482242Y-2744825D01*
X1481074Y-2732735D01*
X1478026Y-2716377D01*
X1476908Y-2712008D01*
X1473403Y-2700375D01*
X1471879Y-2696159D01*
X1465326Y-2680868D01*
X1459585Y-2670149D01*
X1457248Y-2666288D01*
X1450492Y-2656179D01*
X1447800Y-2652522D01*
X1440129Y-2643174D01*
X1437081Y-2639822D01*
X641553Y-1844293D01*
X636473Y-1838909D01*
X631850Y-1833321D01*
X630631Y-1831441D01*
X627532Y-1825243D01*
X626465Y-1821434D01*
X626922Y-1817522D01*
X628853Y-1814118D01*
X631901Y-1811680D01*
X635711Y-1810562D01*
X639572Y-1810969D01*
X643737Y-1812289D01*
X649376Y-1814626D01*
X651662Y-1815947D01*
X657047Y-1820164D01*
X661568Y-1824431D01*
X768451Y-1931314D01*
X775055Y-1936750D01*
X793496Y-1949094D01*
X801116Y-1953158D01*
X821690Y-1961642D01*
X829868Y-1964131D01*
X851662Y-1968449D01*
X860196Y-1969312D01*
X1546707Y-1969312D01*
X1555242Y-1968449D01*
X1577035Y-1964131D01*
X1585214Y-1961642D01*
X1605788Y-1953158D01*
X1613306Y-1949094D01*
X1631848Y-1936750D01*
X1638452Y-1931314D01*
X1683613Y-1886153D01*
X1685137Y-1884883D01*
X1696516Y-1877314D01*
X1698243Y-1876348D01*
X1710842Y-1871167D01*
X1712772Y-1870557D01*
X1726133Y-1867916D01*
X1728114Y-1867712D01*
X2745282Y-1867712D01*
X2753817Y-1866849D01*
X2772714Y-1863140D01*
X2780893Y-1860651D01*
X2798673Y-1853285D01*
X2806242Y-1849221D01*
X2822244Y-1838553D01*
X2828848Y-1833118D01*
X2842463Y-1819503D01*
X2844546Y-1816862D01*
X2847848Y-1814271D01*
X2851810Y-1813153D01*
X2855874Y-1813763D01*
X2859430Y-1815896D01*
X2861818Y-1819249D01*
X2862630Y-1823313D01*
X2862630Y-1878228D01*
X2863342Y-1884527D01*
X2865272Y-1890014D01*
X2867914Y-1894281D01*
X2869184Y-1897075D01*
X2869488Y-1900174D01*
X2868879Y-1903171D01*
X2866339Y-1910130D01*
X2865628Y-1916379D01*
X2865628Y-2005228D01*
X2866339Y-2011527D01*
X2868269Y-2017014D01*
X2869438Y-2018893D01*
X2870809Y-2022398D01*
X2870809Y-2026157D01*
X2869438Y-2029714D01*
X2868269Y-2031593D01*
X2866339Y-2037029D01*
X2865628Y-2043379D01*
X2865628Y-2132228D01*
X2866339Y-2138527D01*
X2868269Y-2144014D01*
X2869438Y-2145893D01*
X2870809Y-2149398D01*
X2870809Y-2153158D01*
X2869438Y-2156714D01*
X2868269Y-2158593D01*
X2866339Y-2164029D01*
X2865628Y-2170379D01*
X2865628Y-2259228D01*
X2866339Y-2265527D01*
X2868269Y-2271014D01*
X2869438Y-2272893D01*
X2870809Y-2276398D01*
X2870809Y-2280158D01*
X2869438Y-2283714D01*
X2868269Y-2285593D01*
X2866339Y-2291029D01*
X2865628Y-2297379D01*
X2865628Y-2386228D01*
X2866339Y-2392527D01*
X2868269Y-2398014D01*
X2869438Y-2399893D01*
X2870809Y-2403398D01*
X2870809Y-2407158D01*
X2869438Y-2410714D01*
X2868269Y-2412593D01*
X2866339Y-2418029D01*
X2865628Y-2424379D01*
X2865628Y-2513228D01*
X2866339Y-2519527D01*
X2868269Y-2525014D01*
X2869438Y-2526893D01*
X2870809Y-2530398D01*
X2870809Y-2534158D01*
X2869438Y-2537714D01*
X2868269Y-2539593D01*
X2866339Y-2545029D01*
X2865628Y-2551379D01*
X2865628Y-2640228D01*
X2866339Y-2646527D01*
X2868269Y-2652014D01*
X2869438Y-2653893D01*
X2870809Y-2657398D01*
X2870809Y-2661158D01*
X2869438Y-2664714D01*
X2868269Y-2666593D01*
X2866339Y-2672029D01*
X2865628Y-2678379D01*
X2865628Y-2767228D01*
X2866339Y-2773527D01*
X2868269Y-2779014D01*
X2869438Y-2780893D01*
X2870809Y-2784398D01*
X2870809Y-2788158D01*
X2869438Y-2791714D01*
X2868269Y-2793593D01*
X2866339Y-2799029D01*
X2865628Y-2805379D01*
X2865628Y-2894228D01*
X2866339Y-2900527D01*
X2868269Y-2906014D01*
X2869438Y-2907893D01*
X2870809Y-2911398D01*
X2870809Y-2915158D01*
X2869438Y-2918714D01*
X2868269Y-2920593D01*
X2866339Y-2926029D01*
X2865628Y-2932379D01*
X2865628Y-3021228D01*
X2866339Y-3027527D01*
X2868269Y-3033014D01*
X2869438Y-3034893D01*
X2870809Y-3038398D01*
X2870809Y-3042158D01*
X2869438Y-3045714D01*
X2868269Y-3047593D01*
X2866339Y-3053029D01*
X2865628Y-3059379D01*
X2865628Y-3148228D01*
X2866339Y-3154527D01*
X2868269Y-3160014D01*
X2869438Y-3161893D01*
X2870809Y-3165398D01*
X2870809Y-3169158D01*
X2869438Y-3172714D01*
X2868269Y-3174593D01*
X2866339Y-3180029D01*
X2865628Y-3186379D01*
X2865628Y-3275228D01*
X2866339Y-3281527D01*
X2868269Y-3287014D01*
X2870657Y-3290824D01*
X2872130Y-3294837D01*
X2871774Y-3299155D01*
X2869692Y-3302914D01*
X2866237Y-3305454D01*
X2862072Y-3306368D01*
X2794101Y-3306368D01*
X2787802Y-3307079D01*
X2782316Y-3309010D01*
X2780436Y-3310178D01*
X2776931Y-3311550D01*
X2773172Y-3311550D01*
X2769616Y-3310178D01*
X2767736Y-3309010D01*
X2762300Y-3307079D01*
X2755950Y-3306368D01*
X2667101Y-3306368D01*
X2660802Y-3307079D01*
X2655316Y-3309010D01*
X2653436Y-3310178D01*
X2649931Y-3311550D01*
X2646172Y-3311550D01*
X2642616Y-3310178D01*
X2640736Y-3309010D01*
X2635300Y-3307079D01*
X2628950Y-3306368D01*
X2540101Y-3306368D01*
X2533802Y-3307079D01*
X2528316Y-3309010D01*
X2526436Y-3310178D01*
X2522931Y-3311550D01*
X2519172Y-3311550D01*
X2515616Y-3310178D01*
X2513736Y-3309010D01*
X2508300Y-3307079D01*
X2503068Y-3306521D01*
X2499512Y-3305454D01*
X2496616Y-3303168D01*
X2494686Y-3300018D01*
X2494026Y-3296412D01*
X2494026Y-2018080D01*
X2494178Y-2004263D01*
X2494838Y-1994916D01*
X2496667Y-1987143D01*
X2501646Y-1975154D01*
X2504186Y-1965706D01*
X2504998Y-1956104D01*
X2504186Y-1946503D01*
X2501747Y-1937156D01*
X2497785Y-1928368D01*
X2492400Y-1920392D01*
X2485694Y-1913432D01*
X2477922Y-1907692D01*
X2469337Y-1903323D01*
X2460091Y-1900529D01*
X2450541Y-1899259D01*
X2440889Y-1899716D01*
X2431491Y-1901748D01*
X2422499Y-1905304D01*
X2414320Y-1910384D01*
X2407056Y-1916734D01*
X2401011Y-1924253D01*
X2396286Y-1932686D01*
X2393086Y-1941779D01*
X2391460Y-1951278D01*
X2391460Y-1960930D01*
X2393086Y-1970379D01*
X2396744Y-1980539D01*
X2400147Y-1988921D01*
X2401671Y-1996439D01*
X2402128Y-2004771D01*
X2402230Y-3300323D01*
X2401468Y-3304184D01*
X2399284Y-3307486D01*
X2396032Y-3309670D01*
X2392222Y-3310483D01*
X2388311Y-3309772D01*
X2382875Y-3307638D01*
X2379522Y-3305454D01*
X2377236Y-3302152D01*
X2376474Y-3298190D01*
X2376474Y-2389530D01*
X2376220Y-2384552D01*
X2374798Y-2370175D01*
X2374087Y-2365248D01*
X2371242Y-2351074D01*
X2370023Y-2346248D01*
X2365857Y-2332431D01*
X2364181Y-2327706D01*
X2358644Y-2314397D01*
X2356510Y-2309876D01*
X2349703Y-2297125D01*
X2347112Y-2292858D01*
X2339136Y-2280869D01*
X2336139Y-2276856D01*
X2326995Y-2265680D01*
X2323642Y-2261971D01*
X2019452Y-1957628D01*
X2013254Y-1950516D01*
X2009089Y-1943709D01*
X2005584Y-1934972D01*
X2002536Y-1928418D01*
X1997100Y-1920392D01*
X1990394Y-1913432D01*
X1982622Y-1907692D01*
X1974037Y-1903323D01*
X1964791Y-1900529D01*
X1955241Y-1899259D01*
X1945589Y-1899716D01*
X1936191Y-1901748D01*
X1927199Y-1905304D01*
X1919020Y-1910384D01*
X1911756Y-1916734D01*
X1905711Y-1924253D01*
X1900986Y-1932686D01*
X1897786Y-1941779D01*
X1896160Y-1951278D01*
X1896160Y-1960930D01*
X1897786Y-1970430D01*
X1900986Y-1979523D01*
X1905711Y-1987956D01*
X1911756Y-1995474D01*
X1919020Y-2001824D01*
X1927352Y-2006955D01*
X1940407Y-2012391D01*
X1948484Y-2017522D01*
X1954733Y-2023059D01*
X2256942Y-2325116D01*
X2264156Y-2333955D01*
X2269896Y-2342642D01*
X2274773Y-2351836D01*
X2278735Y-2361488D01*
X2281682Y-2371445D01*
X2283663Y-2381656D01*
X2284628Y-2392019D01*
X2284628Y-3298190D01*
X2283815Y-3302254D01*
X2281377Y-3305657D01*
X2277821Y-3307791D01*
X2274316Y-3309010D01*
X2272436Y-3310178D01*
X2268931Y-3311550D01*
X2265172Y-3311550D01*
X2261616Y-3310178D01*
X2259736Y-3309010D01*
X2254300Y-3307079D01*
X2247950Y-3306368D01*
X2159101Y-3306368D01*
X2152802Y-3307079D01*
X2147316Y-3309010D01*
X2145436Y-3310178D01*
X2141931Y-3311550D01*
X2138172Y-3311550D01*
X2134616Y-3310178D01*
X2132736Y-3309010D01*
X2127300Y-3307079D01*
X2120950Y-3306368D01*
X2032101Y-3306368D01*
X2025802Y-3307079D01*
X2020316Y-3309010D01*
X2018436Y-3310178D01*
X2014931Y-3311550D01*
X2011172Y-3311550D01*
X2007616Y-3310178D01*
X2005736Y-3309010D01*
X2000300Y-3307079D01*
X1993950Y-3306368D01*
X1905101Y-3306368D01*
X1898802Y-3307079D01*
X1893316Y-3309010D01*
X1891436Y-3310178D01*
X1887931Y-3311550D01*
X1884172Y-3311550D01*
X1880616Y-3310178D01*
X1878736Y-3309010D01*
X1873300Y-3307079D01*
X1866950Y-3306368D01*
X1778101Y-3306368D01*
X1771802Y-3307079D01*
X1766316Y-3309010D01*
X1764436Y-3310178D01*
X1760931Y-3311550D01*
X1757172Y-3311550D01*
X1753616Y-3310178D01*
X1751736Y-3309010D01*
X1746300Y-3307079D01*
X1739950Y-3306368D01*
X1651101Y-3306368D01*
X1644802Y-3307079D01*
X1639316Y-3309010D01*
X1637436Y-3310178D01*
X1633931Y-3311550D01*
X1630172Y-3311550D01*
X1626616Y-3310178D01*
X1624736Y-3309010D01*
X1619300Y-3307079D01*
X1612950Y-3306368D01*
X1524101Y-3306368D01*
X1517802Y-3307079D01*
X1512316Y-3309010D01*
X1510436Y-3310178D01*
X1506931Y-3311550D01*
G37*

%LPD*%
G36*
X470204Y-3876395D02*
G01*
X453491Y-3874770D01*
X438048Y-3871620D01*
X422960Y-3866997D01*
X408381Y-3860901D01*
X394512Y-3853434D01*
X381406Y-3844645D01*
X369214Y-3834587D01*
X231292Y-3696665D01*
X229108Y-3693363D01*
X228346Y-3689451D01*
X228346Y-3457448D01*
X227634Y-3451148D01*
X225704Y-3445662D01*
X222656Y-3440785D01*
X218541Y-3436670D01*
X213664Y-3433622D01*
X208178Y-3431692D01*
X201879Y-3430981D01*
X93472Y-3430981D01*
X89611Y-3430219D01*
X86309Y-3428034D01*
X84124Y-3424732D01*
X83312Y-3420821D01*
X83312Y-3137154D01*
X83921Y-3133801D01*
X85547Y-3130804D01*
X88087Y-3128518D01*
X93522Y-3125114D01*
X97637Y-3120999D01*
X100736Y-3116122D01*
X102616Y-3110636D01*
X103327Y-3104337D01*
X103327Y-2855468D01*
X102616Y-2849168D01*
X100736Y-2843682D01*
X97637Y-2838805D01*
X95300Y-2836468D01*
X93065Y-2833166D01*
X92303Y-2829255D01*
X92303Y-2813050D01*
X92710Y-2810205D01*
X94234Y-2807106D01*
X96113Y-2801670D01*
X96824Y-2795320D01*
X96824Y-2742488D01*
X96113Y-2736138D01*
X94234Y-2730703D01*
X91084Y-2725724D01*
X89916Y-2723134D01*
X89509Y-2720289D01*
X89509Y-2679446D01*
X89916Y-2676652D01*
X91948Y-2672689D01*
X93827Y-2667254D01*
X94538Y-2660904D01*
X94589Y-2198014D01*
X96418Y-2179523D01*
X99872Y-2162302D01*
X105054Y-2145538D01*
X111810Y-2129282D01*
X120142Y-2113838D01*
X129946Y-2099259D01*
X141122Y-2085695D01*
X786333Y-1440484D01*
X789635Y-1438300D01*
X793496Y-1437487D01*
X827836Y-1437487D01*
X831697Y-1438300D01*
X834999Y-1440484D01*
X837234Y-1443837D01*
X837946Y-1447749D01*
X837184Y-1451610D01*
X834948Y-1454912D01*
X831596Y-1457096D01*
X822299Y-1460804D01*
X814120Y-1465884D01*
X806856Y-1472234D01*
X800811Y-1479753D01*
X796086Y-1488186D01*
X792886Y-1497279D01*
X791260Y-1506778D01*
X791260Y-1516430D01*
X792886Y-1525930D01*
X796086Y-1535023D01*
X800811Y-1543456D01*
X806856Y-1550974D01*
X814120Y-1557324D01*
X822299Y-1562404D01*
X831291Y-1565960D01*
X840689Y-1567992D01*
X850341Y-1568450D01*
X859891Y-1567180D01*
X869340Y-1564284D01*
X886358Y-1556258D01*
X893622Y-1553819D01*
X895705Y-1553413D01*
X903681Y-1552651D01*
X910234Y-1552498D01*
X1239469Y-1552498D01*
X1243736Y-1553413D01*
X1247190Y-1556004D01*
X1249222Y-1559763D01*
X1249629Y-1564030D01*
X1248156Y-1568094D01*
X1246276Y-1571091D01*
X1244346Y-1576527D01*
X1243634Y-1582877D01*
X1243634Y-1731721D01*
X1244346Y-1738020D01*
X1246276Y-1743506D01*
X1249324Y-1748383D01*
X1253439Y-1752498D01*
X1262278Y-1757781D01*
X1264666Y-1761083D01*
X1265580Y-1764995D01*
X1264869Y-1769008D01*
X1262735Y-1772412D01*
X1259382Y-1774698D01*
X1255420Y-1775510D01*
X948182Y-1775510D01*
X938631Y-1774545D01*
X930198Y-1772818D01*
X921969Y-1770278D01*
X913993Y-1766925D01*
X906424Y-1762810D01*
X899312Y-1757984D01*
X892657Y-1752498D01*
X806551Y-1666341D01*
X801573Y-1661109D01*
X796950Y-1655521D01*
X795782Y-1653743D01*
X792378Y-1646986D01*
X787704Y-1633931D01*
X783285Y-1623568D01*
X777900Y-1615592D01*
X771194Y-1608632D01*
X763422Y-1602892D01*
X754837Y-1598523D01*
X745591Y-1595729D01*
X736041Y-1594459D01*
X726389Y-1594916D01*
X716991Y-1596948D01*
X707999Y-1600504D01*
X699820Y-1605584D01*
X692556Y-1611934D01*
X686511Y-1619453D01*
X681786Y-1627886D01*
X678586Y-1636979D01*
X676960Y-1646478D01*
X676960Y-1656130D01*
X678586Y-1665630D01*
X681786Y-1674723D01*
X686511Y-1683156D01*
X692556Y-1690674D01*
X699820Y-1697024D01*
X708101Y-1702155D01*
X715365Y-1705203D01*
X729234Y-1710029D01*
X736092Y-1713484D01*
X737819Y-1714652D01*
X744016Y-1719732D01*
X836421Y-1811934D01*
X839724Y-1814982D01*
X849121Y-1822653D01*
X852779Y-1825345D01*
X862837Y-1832102D01*
X866698Y-1834438D01*
X877417Y-1840128D01*
X881532Y-1842058D01*
X892708Y-1846732D01*
X896975Y-1848256D01*
X908608Y-1851761D01*
X912977Y-1852879D01*
X924864Y-1855216D01*
X929335Y-1855876D01*
X941425Y-1857095D01*
X945896Y-1857298D01*
X1494891Y-1857298D01*
X1503883Y-1856435D01*
X1518564Y-1853488D01*
X1527200Y-1850898D01*
X1541068Y-1845157D01*
X1548993Y-1840890D01*
X1561439Y-1832559D01*
X1568399Y-1826869D01*
X1578965Y-1816252D01*
X1584706Y-1809292D01*
X1593037Y-1796846D01*
X1597304Y-1788922D01*
X1603044Y-1775104D01*
X1605940Y-1765249D01*
X1607769Y-1761743D01*
X1610715Y-1759204D01*
X1614525Y-1758035D01*
X1619300Y-1757476D01*
X1624736Y-1755597D01*
X1626616Y-1754378D01*
X1630172Y-1753006D01*
X1633931Y-1753006D01*
X1637436Y-1754378D01*
X1639316Y-1755597D01*
X1644802Y-1757476D01*
X1651101Y-1758188D01*
X1739950Y-1758188D01*
X1746300Y-1757476D01*
X1751736Y-1755597D01*
X1753616Y-1754378D01*
X1757172Y-1753006D01*
X1760931Y-1753006D01*
X1764436Y-1754378D01*
X1766316Y-1755597D01*
X1771802Y-1757476D01*
X1778101Y-1758188D01*
X1866950Y-1758188D01*
X1873300Y-1757476D01*
X1878736Y-1755597D01*
X1880616Y-1754378D01*
X1884172Y-1753006D01*
X1887931Y-1753006D01*
X1891436Y-1754378D01*
X1893316Y-1755597D01*
X1898802Y-1757476D01*
X1905101Y-1758188D01*
X1993950Y-1758188D01*
X2000300Y-1757476D01*
X2005736Y-1755597D01*
X2007616Y-1754378D01*
X2011172Y-1753006D01*
X2014931Y-1753006D01*
X2018436Y-1754378D01*
X2020316Y-1755597D01*
X2025802Y-1757476D01*
X2032101Y-1758188D01*
X2120950Y-1758188D01*
X2127300Y-1757476D01*
X2132736Y-1755597D01*
X2134616Y-1754378D01*
X2138172Y-1753006D01*
X2141931Y-1753006D01*
X2145436Y-1754378D01*
X2147316Y-1755597D01*
X2152802Y-1757476D01*
X2159101Y-1758188D01*
X2247950Y-1758188D01*
X2254300Y-1757476D01*
X2259736Y-1755597D01*
X2261616Y-1754378D01*
X2265172Y-1753006D01*
X2268931Y-1753006D01*
X2272436Y-1754378D01*
X2274316Y-1755597D01*
X2279802Y-1757476D01*
X2286101Y-1758188D01*
X2374950Y-1758188D01*
X2381300Y-1757476D01*
X2386736Y-1755597D01*
X2388616Y-1754378D01*
X2392172Y-1753006D01*
X2395931Y-1753006D01*
X2399436Y-1754378D01*
X2401316Y-1755597D01*
X2406802Y-1757476D01*
X2413101Y-1758188D01*
X2501950Y-1758188D01*
X2508300Y-1757476D01*
X2513736Y-1755597D01*
X2515616Y-1754378D01*
X2519172Y-1753006D01*
X2522931Y-1753006D01*
X2526436Y-1754378D01*
X2528316Y-1755597D01*
X2533802Y-1757476D01*
X2540101Y-1758188D01*
X2628950Y-1758188D01*
X2635300Y-1757476D01*
X2640736Y-1755597D01*
X2642616Y-1754378D01*
X2646172Y-1753006D01*
X2649931Y-1753006D01*
X2653436Y-1754378D01*
X2655316Y-1755597D01*
X2660802Y-1757476D01*
X2667101Y-1758188D01*
X2755950Y-1758188D01*
X2762300Y-1757476D01*
X2768092Y-1755444D01*
X2770428Y-1754174D01*
X2774391Y-1753006D01*
X2778455Y-1753463D01*
X2782011Y-1755546D01*
X2784449Y-1758848D01*
X2785414Y-1762810D01*
X2784703Y-1766874D01*
X2782417Y-1770329D01*
X2777286Y-1775460D01*
X2775762Y-1776730D01*
X2766923Y-1782622D01*
X2765145Y-1783588D01*
X2755341Y-1787652D01*
X2753410Y-1788210D01*
X2742946Y-1790293D01*
X2741015Y-1790496D01*
X1723796Y-1790496D01*
X1715262Y-1791360D01*
X1693468Y-1795678D01*
X1685289Y-1798167D01*
X1664716Y-1806651D01*
X1657197Y-1810715D01*
X1638655Y-1823059D01*
X1632051Y-1828495D01*
X1586890Y-1873656D01*
X1585315Y-1874926D01*
X1573987Y-1882495D01*
X1572260Y-1883460D01*
X1559661Y-1888642D01*
X1557731Y-1889252D01*
X1544370Y-1891893D01*
X1542389Y-1892096D01*
X864514Y-1892096D01*
X862533Y-1891893D01*
X849172Y-1889252D01*
X847242Y-1888642D01*
X834644Y-1883460D01*
X832916Y-1882495D01*
X821537Y-1874926D01*
X820013Y-1873656D01*
X715975Y-1769618D01*
X711200Y-1764487D01*
X707745Y-1759966D01*
X706424Y-1757680D01*
X703834Y-1751228D01*
X698449Y-1734210D01*
X694385Y-1725168D01*
X689000Y-1717192D01*
X682294Y-1710232D01*
X674522Y-1704492D01*
X665937Y-1700123D01*
X656691Y-1697329D01*
X647141Y-1696059D01*
X637489Y-1696516D01*
X628091Y-1698548D01*
X619099Y-1702104D01*
X610920Y-1707184D01*
X603656Y-1713534D01*
X597611Y-1721053D01*
X592886Y-1729486D01*
X589686Y-1738579D01*
X588060Y-1748078D01*
X588060Y-1757730D01*
X588670Y-1761337D01*
X588619Y-1765096D01*
X587197Y-1768551D01*
X584555Y-1771294D01*
X581152Y-1772869D01*
X577392Y-1773123D01*
X570941Y-1772259D01*
X561289Y-1772716D01*
X551891Y-1774748D01*
X542899Y-1778304D01*
X534720Y-1783384D01*
X527456Y-1789734D01*
X521411Y-1797253D01*
X516686Y-1805686D01*
X513486Y-1814779D01*
X511860Y-1824278D01*
X511860Y-1833930D01*
X513486Y-1843430D01*
X516686Y-1852523D01*
X521411Y-1860956D01*
X527456Y-1868474D01*
X534720Y-1874824D01*
X543001Y-1879955D01*
X550265Y-1883003D01*
X564134Y-1887829D01*
X570992Y-1891284D01*
X572719Y-1892452D01*
X578916Y-1897532D01*
X1377645Y-2696057D01*
X1383741Y-2703525D01*
X1388465Y-2710688D01*
X1392529Y-2718308D01*
X1395780Y-2726283D01*
X1398219Y-2734564D01*
X1399844Y-2743047D01*
X1400657Y-2751632D01*
X1400657Y-3296920D01*
X1399997Y-3300526D01*
X1398066Y-3303676D01*
X1395171Y-3305911D01*
X1390802Y-3307079D01*
X1385316Y-3309010D01*
X1383436Y-3310178D01*
X1379931Y-3311550D01*
X1376172Y-3311550D01*
X1372616Y-3310178D01*
X1370736Y-3309010D01*
X1365300Y-3307079D01*
X1358950Y-3306368D01*
X1270101Y-3306368D01*
X1263802Y-3307079D01*
X1258316Y-3309010D01*
X1253439Y-3312058D01*
X1249324Y-3316173D01*
X1246276Y-3321050D01*
X1244346Y-3326536D01*
X1243634Y-3332835D01*
X1243634Y-3481730D01*
X1244346Y-3488029D01*
X1246276Y-3493515D01*
X1249324Y-3498392D01*
X1252474Y-3501542D01*
X1254556Y-3504539D01*
X1255420Y-3508044D01*
X1255014Y-3511651D01*
X1253388Y-3514902D01*
X1250137Y-3517696D01*
X1246022Y-3521811D01*
X1242872Y-3526688D01*
X1241044Y-3532174D01*
X1240332Y-3538474D01*
X1240332Y-3591356D01*
X1241044Y-3597656D01*
X1242872Y-3603142D01*
X1246022Y-3608019D01*
X1250137Y-3612134D01*
X1255014Y-3615182D01*
X1257300Y-3615994D01*
X1260856Y-3618128D01*
X1263243Y-3621532D01*
X1264107Y-3626408D01*
X1263345Y-3630320D01*
X1261110Y-3633622D01*
X1257808Y-3635806D01*
X1253947Y-3636568D01*
X1245108Y-3636568D01*
X1238758Y-3637279D01*
X1233322Y-3639210D01*
X1228394Y-3642309D01*
X1224330Y-3646373D01*
X1221232Y-3651300D01*
X1219352Y-3656736D01*
X1218641Y-3663086D01*
X1218641Y-3796944D01*
X1219352Y-3803243D01*
X1221232Y-3808729D01*
X1224330Y-3813606D01*
X1228394Y-3817721D01*
X1233322Y-3820769D01*
X1235456Y-3821531D01*
X1238656Y-3823360D01*
X1240942Y-3826205D01*
X1242161Y-3829710D01*
X1242009Y-3833368D01*
X1240586Y-3836771D01*
X1237030Y-3841953D01*
X1231646Y-3848404D01*
X1225499Y-3854500D01*
X1218946Y-3859834D01*
X1211884Y-3864457D01*
X1204417Y-3868420D01*
X1196594Y-3871620D01*
X1188466Y-3874008D01*
X1180185Y-3875633D01*
X1171752Y-3876395D01*
G37*

%LPD*%
G36*
X-24993Y210769D02*
G01*
X-25298Y197154D01*
X-26263Y185674D01*
X-27787Y175920D01*
X-29971Y167335D01*
X-32715Y159461D01*
X-36068Y151739D01*
X-49479Y124764D01*
X0Y73304D01*
X49479Y124764D01*
X36068Y151739D01*
X32715Y159461D01*
X29971Y167335D01*
X27838Y175920D01*
X26263Y185674D01*
X25298Y197154D01*
X24993Y210769D01*
G37*
G36*
X1991715Y-886815D02*
G01*
X1962708Y-914704D01*
X1991715Y-942594D01*
X1996744Y-940308D01*
X2001418Y-938530D01*
X2005888Y-937158D01*
X2010359Y-936142D01*
X2020265Y-935024D01*
X2040229Y-934719D01*
X2040229Y-894689D01*
X2020265Y-894384D01*
X2010410Y-893267D01*
X2005888Y-892251D01*
X2001418Y-890879D01*
X1996744Y-889101D01*
G37*
G36*
X1958035Y-853135D02*
G01*
X1957527Y-868273D01*
X1956866Y-874166D01*
X1956003Y-879398D01*
X1954936Y-884275D01*
X1948434Y-906018D01*
X1980793Y-929995D01*
X2003450Y-896721D01*
X1997151Y-887730D01*
X1994662Y-883818D01*
X1992579Y-879906D01*
X1990902Y-875842D01*
X1989632Y-871321D01*
X1988718Y-866190D01*
X1988210Y-860196D01*
X1988007Y-853135D01*
G37*
G36*
X2783027Y-852627D02*
G01*
X2783840Y-892860D01*
X2793593Y-896823D01*
X2797708Y-899058D01*
X2801569Y-901496D01*
X2805430Y-904392D01*
X2813608Y-911606D01*
X2823718Y-921562D01*
X2851962Y-893318D01*
X2842006Y-883208D01*
X2834792Y-875030D01*
X2831896Y-871169D01*
X2829458Y-867308D01*
X2827223Y-863193D01*
X2823260Y-853440D01*
G37*
G36*
X2784297Y-834136D02*
G01*
X2780233Y-835202D01*
X2775915Y-835812D01*
X2771292Y-836015D01*
X2760726Y-835660D01*
X2747924Y-834898D01*
X2732278Y-834491D01*
X2732278Y-884529D01*
X2745943Y-884428D01*
X2757170Y-884631D01*
X2761945Y-884936D01*
X2766314Y-885545D01*
X2770225Y-886409D01*
X2773730Y-887730D01*
X2776931Y-889457D01*
X2809341Y-865632D01*
G37*
G36*
X74472Y-712927D02*
G01*
X34239Y-713689D01*
X30226Y-726795D01*
X28752Y-730605D01*
X26924Y-733958D01*
X24536Y-736752D01*
X21386Y-738886D01*
X17272Y-740257D01*
X12090Y-740714D01*
X12090Y-766114D01*
X21640Y-765962D01*
X29667Y-765454D01*
X36525Y-764641D01*
X42570Y-763524D01*
X48158Y-762101D01*
X59537Y-758291D01*
X73660Y-753211D01*
G37*
G36*
X-795731Y-2379573D02*
G01*
X-886561Y-2472334D01*
X-790295Y-2559507D01*
X-767283Y-2547823D01*
X-729386Y-2529433D01*
X-712876Y-2520950D01*
X-696925Y-2511653D01*
X-680669Y-2500731D01*
X-663295Y-2487269D01*
X-643991Y-2470353D01*
X-621893Y-2449068D01*
X-678535Y-2392527D01*
X-692048Y-2403754D01*
X-704951Y-2410053D01*
X-717448Y-2412187D01*
X-729792Y-2410917D01*
X-742086Y-2406954D01*
X-754684Y-2401112D01*
X-781253Y-2386685D01*
G37*
G36*
X-761695Y-445820D02*
G01*
X-884123Y-489000D01*
X-836168Y-609701D01*
X-802640Y-608076D01*
X-787958Y-607669D01*
X-774242Y-608330D01*
X-761136Y-610616D01*
X-748385Y-615137D01*
X-735685Y-622503D01*
X-722630Y-633374D01*
X-708964Y-648258D01*
X-647141Y-597509D01*
X-665276Y-574954D01*
X-680110Y-555752D01*
X-692404Y-539089D01*
X-722884Y-495909D01*
X-733755Y-481076D01*
X-746404Y-464667D01*
G37*
G36*
X-795020Y-419709D02*
G01*
X-888593Y-509727D01*
X-795020Y-599694D01*
X-774395Y-588365D01*
X-757529Y-576783D01*
X-743153Y-565454D01*
X-729996Y-554685D01*
X-716838Y-544982D01*
X-702411Y-536752D01*
X-685393Y-530352D01*
X-664565Y-526186D01*
X-638606Y-524713D01*
X-638606Y-494690D01*
X-664565Y-493217D01*
X-685393Y-489102D01*
X-702411Y-482701D01*
X-716838Y-474421D01*
X-729996Y-464718D01*
X-757529Y-442620D01*
X-774395Y-431088D01*
G37*
G36*
X-550214Y607212D02*
G01*
X-618794Y535838D01*
X-606653Y510336D01*
X-601980Y499211D01*
X-598170Y488391D01*
X-595172Y477266D01*
X-592937Y465124D01*
X-591362Y451408D01*
X-590499Y435457D01*
X-590194Y416712D01*
X-510184Y416712D01*
X-509879Y435457D01*
X-509016Y451408D01*
X-507441Y465175D01*
X-505206Y477266D01*
X-502208Y488442D01*
X-498398Y499262D01*
X-493725Y510336D01*
X-481634Y535889D01*
G37*
G36*
X-583336Y637692D02*
G01*
X-598881Y629310D01*
X-611682Y620928D01*
X-632764Y605129D01*
X-642924Y598271D01*
X-654100Y592531D01*
X-667156Y588060D01*
X-683006Y585165D01*
X-702614Y584149D01*
X-702614Y554177D01*
X-683006Y553161D01*
X-667156Y550265D01*
X-654151Y545795D01*
X-642975Y540004D01*
X-632815Y533196D01*
X-611733Y517398D01*
X-598982Y508965D01*
X-583488Y500532D01*
X-512114Y569061D01*
G37*
G36*
X2207056Y22301D02*
G01*
X2208682Y-55575D01*
X2221382Y-59182D01*
X2232964Y-61366D01*
X2253538Y-64008D01*
X2262886Y-65938D01*
X2271826Y-69189D01*
X2280615Y-74523D01*
X2289352Y-82600D01*
X2298242Y-94183D01*
X2323185Y-77470D01*
X2314651Y-64008D01*
X2308250Y-52374D01*
X2303576Y-42113D01*
X2300122Y-32613D01*
X2297430Y-23469D01*
X2292502Y-3911D01*
X2289302Y7569D01*
X2284984Y20878D01*
G37*
G36*
X2207056Y22301D02*
G01*
X2208682Y-55575D01*
X2221687Y-59537D01*
X2233168Y-62128D01*
X2253132Y-65836D01*
X2262378Y-68122D01*
X2271522Y-71475D01*
X2281072Y-76555D01*
X2291283Y-83972D01*
X2302611Y-94284D01*
X2323846Y-73050D01*
X2313482Y-61772D01*
X2306116Y-51511D01*
X2300986Y-41960D01*
X2297582Y-32816D01*
X2295296Y-23571D01*
X2291588Y-3606D01*
X2288946Y7873D01*
X2284984Y20878D01*
G37*
G36*
X-80924Y-522732D02*
G01*
X-121158Y-523493D01*
X-123240Y-529945D01*
X-127152Y-545592D01*
X-128676Y-550164D01*
X-130708Y-554736D01*
X-133553Y-559511D01*
X-137515Y-564692D01*
X-142849Y-570433D01*
X-128676Y-584555D01*
X-122986Y-579272D01*
X-117805Y-575310D01*
X-113030Y-572465D01*
X-108458Y-570433D01*
X-103885Y-568960D01*
X-88239Y-565048D01*
X-81788Y-563016D01*
G37*
G36*
X1941830Y-1945132D02*
G01*
X1942642Y-1985365D01*
X1947824Y-1987296D01*
X1952396Y-1989328D01*
X1956511Y-1991512D01*
X1960372Y-1994001D01*
X1964232Y-1996897D01*
X1972360Y-2004110D01*
X1982520Y-2014067D01*
X2010765Y-1985822D01*
X2000808Y-1975662D01*
X1993595Y-1967534D01*
X1990699Y-1963674D01*
X1988261Y-1959813D01*
X1986025Y-1955698D01*
X1984044Y-1951126D01*
X1982114Y-1945944D01*
G37*
G36*
X659180Y-662432D02*
G01*
X659892Y-702665D01*
X665073Y-704596D01*
X669645Y-706628D01*
X673760Y-708863D01*
X677621Y-711352D01*
X681482Y-714197D01*
X689660Y-721461D01*
X699770Y-731418D01*
X728065Y-703122D01*
X718108Y-693013D01*
X710844Y-684885D01*
X707999Y-681024D01*
X705510Y-677164D01*
X703326Y-673049D01*
X701344Y-668477D01*
X699414Y-663295D01*
G37*
G36*
X557530Y-1818132D02*
G01*
X558342Y-1858365D01*
X574141Y-1863902D01*
X578459Y-1865782D01*
X582625Y-1867916D01*
X586841Y-1870608D01*
X591312Y-1873961D01*
X596188Y-1878228D01*
X601726Y-1883562D01*
X622960Y-1862328D01*
X617626Y-1856790D01*
X613410Y-1851914D01*
X610006Y-1847443D01*
X607364Y-1843227D01*
X605180Y-1839061D01*
X603300Y-1834743D01*
X597814Y-1818944D01*
G37*
G36*
X173990Y-1305915D02*
G01*
X161899Y-1312062D01*
X142849Y-1322222D01*
X130556Y-1327962D01*
X122478Y-1331366D01*
X132232Y-1354836D01*
X138277Y-1352702D01*
X143560Y-1351584D01*
X148234Y-1351330D01*
X152501Y-1351838D01*
X156514Y-1353007D01*
X160477Y-1354734D01*
X173990Y-1361694D01*
X202996Y-1333804D01*
G37*
G36*
X-376224Y-1114704D02*
G01*
X-382270Y-1120343D01*
X-387654Y-1124610D01*
X-392582Y-1127760D01*
X-397256Y-1130147D01*
X-417474Y-1138174D01*
X-423926Y-1141323D01*
X-418541Y-1181201D01*
X-378917Y-1174292D01*
X-375970Y-1152601D01*
X-374904Y-1148181D01*
X-373227Y-1143711D01*
X-370687Y-1139139D01*
X-367030Y-1134262D01*
X-362051Y-1128826D01*
G37*
G36*
X223875Y-1475232D02*
G01*
X183642Y-1476044D01*
X176885Y-1497076D01*
X175006Y-1501444D01*
X172618Y-1505813D01*
X169519Y-1510436D01*
X165404Y-1515465D01*
X160070Y-1521053D01*
X178054Y-1539036D01*
X183692Y-1533702D01*
X188671Y-1529588D01*
X193294Y-1526489D01*
X197662Y-1524101D01*
X202031Y-1522222D01*
X223062Y-1515465D01*
G37*
G36*
X633780Y-1741932D02*
G01*
X634492Y-1782165D01*
X655523Y-1788972D01*
X659892Y-1790801D01*
X664260Y-1793189D01*
X668883Y-1796338D01*
X673912Y-1800453D01*
X679500Y-1805736D01*
X697484Y-1787804D01*
X692200Y-1782165D01*
X688086Y-1777187D01*
X684936Y-1772564D01*
X682548Y-1768195D01*
X680720Y-1763826D01*
X674014Y-1742795D01*
G37*
G36*
X861415Y-1483715D02*
G01*
X832408Y-1511604D01*
X861415Y-1539494D01*
X876503Y-1532229D01*
X880871Y-1530502D01*
X885342Y-1529080D01*
X890219Y-1528013D01*
X895756Y-1527200D01*
X902258Y-1526743D01*
X909929Y-1526590D01*
X909929Y-1496618D01*
X902258Y-1496466D01*
X895756Y-1496009D01*
X890219Y-1495196D01*
X885342Y-1494129D01*
X880871Y-1492707D01*
X876503Y-1490980D01*
G37*
G36*
X-344068Y-773023D02*
G01*
X-374091Y-799795D01*
X-346151Y-828802D01*
X-333146Y-822248D01*
X-329184Y-820572D01*
X-325374Y-819505D01*
X-321564Y-819200D01*
X-317652Y-820013D01*
X-313639Y-822045D01*
X-309473Y-825601D01*
X-295300Y-811428D01*
X-307594Y-799185D01*
X-316992Y-790498D01*
X-321310Y-786942D01*
X-325882Y-783640D01*
X-331012Y-780338D01*
G37*
G36*
X722630Y-1640332D02*
G01*
X723442Y-1680565D01*
X739241Y-1686102D01*
X743559Y-1687982D01*
X747725Y-1690116D01*
X751941Y-1692808D01*
X756412Y-1696161D01*
X761288Y-1700428D01*
X766826Y-1705762D01*
X788060Y-1684528D01*
X782726Y-1678990D01*
X778510Y-1674114D01*
X775106Y-1669643D01*
X772464Y-1665427D01*
X770280Y-1661261D01*
X768400Y-1656943D01*
X762914Y-1641144D01*
G37*
G36*
X-435356Y-873810D02*
G01*
X-462178Y-903782D01*
X-454863Y-916838D01*
X-451612Y-921969D01*
X-448309Y-926541D01*
X-444754Y-930910D01*
X-436067Y-940257D01*
X-423773Y-952550D01*
X-409600Y-938428D01*
X-413156Y-934212D01*
X-415188Y-930198D01*
X-416001Y-926337D01*
X-415696Y-922528D01*
X-414629Y-918667D01*
X-412953Y-914755D01*
X-406450Y-901801D01*
G37*
G36*
X-472389Y-1036116D02*
G01*
X-486968Y-1073658D01*
X-448868Y-1086713D01*
X-439420Y-1074674D01*
X-436473Y-1071575D01*
X-433324Y-1068933D01*
X-429666Y-1066850D01*
X-425348Y-1065276D01*
X-420116Y-1064361D01*
X-413766Y-1064006D01*
X-413766Y-1044041D01*
X-422757Y-1043736D01*
X-430225Y-1043076D01*
X-436524Y-1042060D01*
X-452577Y-1038301D01*
X-458266Y-1037234D01*
X-464718Y-1036472D01*
G37*
G36*
X-517093Y891692D02*
G01*
X-588314Y823061D01*
X-516940Y754532D01*
X-502158Y762254D01*
X-468172Y782421D01*
X-457606Y787755D01*
X-446074Y792073D01*
X-432816Y795375D01*
X-417017Y797458D01*
X-397814Y798169D01*
X-397814Y848156D01*
X-417017Y848868D01*
X-432866Y850950D01*
X-446125Y854252D01*
X-457657Y858570D01*
X-468223Y863853D01*
X-502259Y884021D01*
G37*
G36*
X-803402Y-2852216D02*
G01*
X-874674Y-2920847D01*
X-803351Y-2989376D01*
X-787704Y-2980842D01*
X-774852Y-2972155D01*
X-753872Y-2955696D01*
X-743813Y-2948482D01*
X-732739Y-2942386D01*
X-719734Y-2937662D01*
X-703884Y-2934563D01*
X-684174Y-2933496D01*
X-684174Y-2908096D01*
X-703884Y-2907030D01*
X-719785Y-2903931D01*
X-732739Y-2899206D01*
X-743813Y-2893110D01*
X-753922Y-2885897D01*
X-774903Y-2869438D01*
X-787755Y-2860802D01*
G37*
G36*
X-801217Y-2653334D02*
G01*
X-874674Y-2719628D01*
X-805535Y-2790444D01*
X-792378Y-2783687D01*
X-780338Y-2776220D01*
X-769162Y-2768854D01*
X-758494Y-2762300D01*
X-748182Y-2757424D01*
X-737920Y-2754985D01*
X-727456Y-2755696D01*
X-716483Y-2760421D01*
X-704850Y-2769870D01*
X-686866Y-2751937D01*
X-702919Y-2735478D01*
X-737158Y-2699004D01*
X-746912Y-2689555D01*
X-757275Y-2680716D01*
X-769213Y-2672029D01*
X-783590Y-2663088D01*
G37*
G36*
X2448102Y-1940610D02*
G01*
X2420213Y-1969617D01*
X2422499Y-1974646D01*
X2424277Y-1979320D01*
X2425649Y-1983790D01*
X2426665Y-1988261D01*
X2427782Y-1998116D01*
X2428087Y-2018080D01*
X2468118Y-2018080D01*
X2468422Y-1998116D01*
X2469540Y-1988261D01*
X2470556Y-1983790D01*
X2471928Y-1979320D01*
X2473706Y-1974646D01*
X2475992Y-1969617D01*
G37*
G36*
X2123287Y-1347978D02*
G01*
X2122982Y-1367942D01*
X2121865Y-1377797D01*
X2120849Y-1382318D01*
X2119477Y-1386789D01*
X2117699Y-1391462D01*
X2115413Y-1396492D01*
X2143302Y-1425498D01*
X2171192Y-1396492D01*
X2168906Y-1391462D01*
X2167128Y-1386789D01*
X2165756Y-1382318D01*
X2164740Y-1377797D01*
X2163622Y-1367942D01*
X2163318Y-1347978D01*
G37*
D10*
X0Y449681D02*
G01*
X0Y100799D01*
X5Y100797D01*
X1314983Y-3719990D02*
G01*
X1314983Y-3564915D01*
D11*
X-541299Y-2311704D02*
G01*
X-552429Y-2322852D01*
X-552429Y-2322852D01*
X-657832Y-2428422D01*
X-670328Y-2438694D01*
X-683773Y-2447688D01*
X-698035Y-2455321D01*
X-712975Y-2461516D01*
X-728454Y-2466218D01*
X-744316Y-2469375D01*
X-760415Y-2470962D01*
X-836701Y-2470962D01*
D12*
X2336195Y-862479D02*
G01*
X2336195Y-924514D01*
X2340051Y-943902D01*
X2347617Y-962164D01*
X2358598Y-978601D01*
X2376998Y-997000D01*
X2390190Y-1005814D01*
X2404851Y-1011887D01*
X2420414Y-1014984D01*
X2461717Y-1014984D01*
D13*
X2797535Y-867135D02*
G01*
X2887855Y-957455D01*
X2897393Y-971730D01*
X2903961Y-987590D01*
X2907311Y-1004427D01*
X2907311Y-1049111D01*
D10*
X2794005Y-863597D02*
G01*
X2789918Y-859510D01*
X2654985Y-859510D01*
D12*
X2329992Y-578281D02*
G01*
X2336195Y-584484D01*
X2336195Y-672490D01*
D11*
X1978129Y-914707D02*
G01*
X1737291Y-914707D01*
X1713359Y-917064D01*
X1689770Y-921755D01*
X1666755Y-928738D01*
X1644538Y-937940D01*
X1623326Y-949279D01*
X1603329Y-962639D01*
X1584739Y-977897D01*
X1254229Y-1308407D01*
X1235638Y-1323665D01*
X1215641Y-1337025D01*
X1194429Y-1348364D01*
X1172212Y-1357566D01*
X1149197Y-1364548D01*
X1125608Y-1369240D01*
X1101676Y-1371597D01*
X782538Y-1371597D01*
X769973Y-1374096D01*
X758134Y-1379001D01*
X747481Y-1386118D01*
X723900Y-1409700D01*
D14*
X63474Y-723950D02*
G01*
X41668Y-745756D01*
X23182Y-753414D01*
X-91973Y-753414D01*
D13*
X987612Y-949086D02*
G01*
X866411Y-949086D01*
X852200Y-951913D01*
X838814Y-957458D01*
X826767Y-965507D01*
X800100Y-992174D01*
D11*
X-550189Y582879D02*
G01*
X-550189Y217073D01*
X-547832Y193141D01*
X-543140Y169552D01*
X-536158Y146537D01*
X-526956Y124320D01*
X-515617Y103108D01*
X-502257Y83111D01*
X-486999Y64521D01*
X334825Y-757303D01*
X348300Y-773722D01*
X360100Y-791380D01*
X370116Y-810110D01*
X378249Y-829731D01*
X384421Y-850054D01*
X388571Y-870884D01*
X390659Y-892020D01*
X390702Y-992174D01*
X800100Y-992174D02*
G01*
X390702Y-992174D01*
X390702Y-1409532D01*
X388345Y-1433464D01*
X383654Y-1457053D01*
X376671Y-1480068D01*
X367469Y-1502285D01*
X356130Y-1523497D01*
X342770Y-1543494D01*
X327512Y-1562084D01*
X-138107Y-2027704D01*
X-153365Y-2046295D01*
X-166725Y-2066292D01*
X-178064Y-2087504D01*
X-187266Y-2109721D01*
X-194249Y-2132736D01*
X-198940Y-2156325D01*
X-201297Y-2180257D01*
X-201297Y-2311694D01*
X-407060Y-1841500D02*
G01*
X-407060Y-2088121D01*
X-409417Y-2112053D01*
X-414108Y-2135642D01*
X-421091Y-2158657D01*
X-430293Y-2180874D01*
X-441632Y-2202086D01*
X-454992Y-2222083D01*
X-470250Y-2240673D01*
X-552429Y-2322852D01*
X-407060Y-1841500D02*
G01*
X-407060Y-1704431D01*
X-562107Y-1549384D01*
X-577364Y-1530794D01*
X-590725Y-1510797D01*
X-602063Y-1489585D01*
X-611266Y-1467368D01*
X-618248Y-1444353D01*
X-622940Y-1420764D01*
X-625297Y-1396832D01*
X-625297Y-762756D01*
X-627654Y-738825D01*
X-632345Y-715236D01*
X-639328Y-692221D01*
X-648530Y-670001D01*
X-659866Y-648792D01*
X-673229Y-628794D01*
X-688484Y-610204D01*
X-788972Y-509714D01*
X-838616Y-509714D01*
D16*
X2568752Y-578281D02*
G01*
X2568752Y-578281D01*
X2450012Y-578281D01*
X2487889Y-491718D02*
G01*
X2540993Y-491718D01*
X2554300Y-486206D01*
X2569997Y-470509D01*
X2228321Y1219D02*
G01*
X2329992Y-100451D01*
X2416794Y-187256D01*
X2424813Y-197027D01*
X2431836Y-207538D01*
X2437795Y-218686D01*
X2442634Y-230365D01*
X2446301Y-242463D01*
X2448768Y-254861D01*
X2450007Y-267439D01*
X2450007Y-453837D01*
X2457206Y-471218D01*
X2470508Y-484520D01*
X2487889Y-491718D01*
D12*
X2450007Y-578281D02*
G01*
X2436195Y-592094D01*
X2436195Y-672490D01*
D16*
X2228321Y1219D02*
G01*
X2296779Y-67241D01*
X2304798Y-77012D01*
X2311821Y-87523D01*
X2317780Y-98671D01*
X2322619Y-110350D01*
X2326286Y-122448D01*
X2328753Y-134846D01*
X2329992Y-147424D01*
X2329992Y-491718D01*
D12*
X-91973Y-533704D02*
G01*
X-157843Y-599574D01*
X-169382Y-616844D01*
X-177330Y-636031D01*
X-181381Y-656399D01*
X-181381Y-883970D01*
X-231419Y-883970D02*
G01*
X-231419Y-766368D01*
X-244373Y-753414D01*
X-181340Y-884011D02*
G01*
X-181340Y-994953D01*
X-187810Y-1010572D01*
X-206232Y-1028994D01*
D13*
X803630Y-800912D02*
G01*
X803630Y-807008D01*
X670026Y-673404D01*
D14*
X187426Y-1333804D02*
G01*
X149829Y-1333804D01*
X127292Y-1343139D01*
X93357Y-1377073D01*
X71495Y-1386128D01*
X35026Y-1386128D01*
D12*
X-351307Y-1103934D02*
G01*
X-409473Y-1162100D01*
X-409473Y-1168704D01*
D14*
X644626Y-1752904D02*
G01*
X796089Y-1904367D01*
X815411Y-1917278D01*
X836881Y-1926170D01*
X859673Y-1930704D01*
X1547180Y-1930704D01*
X1569971Y-1926170D01*
X1591442Y-1917278D01*
X1610763Y-1904367D01*
X1659689Y-1855442D01*
X1679011Y-1842531D01*
X1700481Y-1833638D01*
X1723273Y-1829104D01*
X2745780Y-1829104D01*
X2765635Y-1825155D01*
X2784337Y-1817408D01*
X2801167Y-1806163D01*
X2815483Y-1791848D01*
X2826727Y-1775018D01*
X2834474Y-1756316D01*
X2838424Y-1736460D01*
X2838424Y-1657400D01*
D12*
X154660Y-1143304D02*
G01*
X227418Y-1216253D01*
X238942Y-1233538D01*
X246880Y-1252738D01*
X250926Y-1273114D01*
X250926Y-1387970D01*
X244325Y-1403906D01*
X232128Y-1416103D01*
X216192Y-1422704D01*
X135084Y-1422704D01*
X112135Y-1432209D01*
X85064Y-1459280D01*
X85064Y-1256080D02*
G01*
X43578Y-1297566D01*
X26309Y-1309105D01*
X7122Y-1317053D01*
X-13246Y-1321104D01*
X-84917Y-1321104D01*
X-105636Y-1329687D01*
X-130073Y-1354124D01*
X-281183Y-1174003D02*
G01*
X-281183Y-1224983D01*
X-285003Y-1244193D01*
X-292498Y-1262291D01*
X-303382Y-1278577D01*
X-383522Y-1358719D01*
X-395061Y-1375989D01*
X-403009Y-1395176D01*
X-407060Y-1415544D01*
X-407060Y-1674431D01*
X-137012Y-1440484D02*
G01*
X-164294Y-1440484D01*
X-183522Y-1432567D01*
X-198282Y-1417929D01*
X-206273Y-1398750D01*
X-206273Y-1354391D01*
X-202222Y-1334023D01*
X-194274Y-1314836D01*
X-182735Y-1297566D01*
X-150782Y-1265613D01*
X-141254Y-1251353D01*
X-134688Y-1235506D01*
X-131343Y-1218681D01*
X-131343Y-1174038D01*
X56507Y-1154818D02*
G01*
X-9385Y-1220711D01*
X-14879Y-1233975D01*
X-14879Y-1256106D01*
X-61201Y-1103998D02*
G01*
X7528Y-1103998D01*
X20492Y-1106576D01*
X38930Y-1114214D01*
X56507Y-1131790D01*
X56507Y-1154818D01*
X-14884Y-1459306D02*
G01*
X-104360Y-1459306D01*
X-116169Y-1454414D01*
X-125204Y-1445376D01*
X-137012Y-1440484D01*
D14*
X212902Y-1486204D02*
G01*
X129931Y-1569176D01*
X115166Y-1579041D01*
X98762Y-1585836D01*
X81346Y-1589300D01*
X35128Y-1589300D01*
D12*
X-358597Y-800404D02*
G01*
X-330390Y-800404D01*
X-313484Y-807407D01*
X-289366Y-831524D01*
X-281343Y-850897D01*
X-281343Y-883211D01*
X-131353Y-884011D02*
G01*
X-131353Y-814029D01*
X-128765Y-801014D01*
X-123687Y-788756D01*
X-116314Y-777722D01*
X-91894Y-753303D01*
X-460273Y-753414D02*
G01*
X-483852Y-776993D01*
X-490971Y-787646D01*
X-495874Y-799482D01*
X-498373Y-812050D01*
X-498373Y-906818D01*
X-494322Y-927186D01*
X-486374Y-946373D01*
X-474835Y-963642D01*
X-456747Y-981730D01*
X-440326Y-992703D01*
X-422081Y-1000259D01*
X-402711Y-1004112D01*
X-351307Y-1004112D01*
D16*
X-763971Y-509714D02*
G01*
X-416029Y-509714D01*
X-395556Y-513786D01*
X-376270Y-521774D01*
X-358914Y-533372D01*
X-344154Y-548131D01*
X-332557Y-565487D01*
X-324568Y-584774D01*
X-320497Y-605246D01*
X-320497Y-713491D01*
X-312930Y-731761D01*
X-298945Y-745746D01*
X-280675Y-753313D01*
X-244297Y-753313D01*
X847902Y-1511604D02*
G01*
X1647916Y-1511604D01*
X1669760Y-1520652D01*
X1686481Y-1537373D01*
X1695528Y-1559217D01*
X1695528Y-1657296D01*
X733602Y-1651304D02*
G01*
X865479Y-1783181D01*
X875250Y-1791200D01*
X885761Y-1798223D01*
X896909Y-1804182D01*
X908588Y-1809021D01*
X920686Y-1812688D01*
X933084Y-1815155D01*
X945662Y-1816394D01*
X1495389Y-1816394D01*
X1511063Y-1813278D01*
X1525828Y-1807161D01*
X1539115Y-1798284D01*
X1550415Y-1786986D01*
X1559295Y-1773699D01*
X1565409Y-1758937D01*
X1568528Y-1743262D01*
X1568528Y-1657296D01*
D11*
X723900Y-1409700D02*
G01*
X91869Y-2041730D01*
X76611Y-2060321D01*
X63251Y-2080318D01*
X51912Y-2101529D01*
X42710Y-2123747D01*
X35727Y-2146762D01*
X31036Y-2170351D01*
X28679Y-2194283D01*
X28679Y-2616507D01*
D12*
X-434797Y-889304D02*
G01*
X-434797Y-917602D01*
X-427878Y-934308D01*
X-415089Y-947097D01*
X-398383Y-954016D01*
X-351193Y-954016D01*
X-351193Y-1054016D02*
G01*
X-459808Y-1054016D01*
X-472897Y-1067104D01*
D13*
X993716Y-801009D02*
G01*
X993716Y-942982D01*
X987612Y-949086D01*
X897102Y-292384D02*
G01*
X965154Y-360436D01*
X979154Y-381391D01*
X988799Y-404675D01*
X993716Y-429392D01*
X993716Y-494987D01*
D10*
X696214Y-291492D02*
G01*
X696214Y-291492D01*
X696214Y-95300D01*
X0Y600328D02*
G01*
X-177632Y777961D01*
X-190931Y788875D01*
X-205237Y798433D01*
X-220411Y806543D01*
X-236306Y813127D01*
X-252768Y818123D01*
X-269643Y821479D01*
X-286763Y823165D01*
X-550189Y823165D01*
D14*
X-836701Y-2920796D02*
G01*
X-650427Y-2920796D01*
X-627636Y-2925330D01*
X-606165Y-2934223D01*
X-586844Y-2947134D01*
X-562810Y-2971167D01*
X-549899Y-2990489D01*
X-541007Y-3011959D01*
X-536473Y-3034751D01*
X-536473Y-3557158D01*
X-531939Y-3579949D01*
X-523046Y-3601420D01*
X-510136Y-3620742D01*
X-29410Y-4101467D01*
X-10088Y-4114378D01*
X11381Y-4123270D01*
X34173Y-4127804D01*
X2398080Y-4127804D01*
X2420871Y-4123270D01*
X2442342Y-4114378D01*
X2461663Y-4101467D01*
X2812087Y-3751044D01*
X2824998Y-3731722D01*
X2833890Y-3710251D01*
X2838424Y-3687460D01*
X2838424Y-3407206D01*
X-836701Y-2720644D02*
G01*
X-773363Y-2720644D01*
X-750572Y-2725178D01*
X-729101Y-2734071D01*
X-709780Y-2746982D01*
X-502104Y-2954657D01*
X-489193Y-2973979D01*
X-480301Y-2995449D01*
X-475767Y-3018241D01*
X-475767Y-3541664D01*
X-471233Y-3564455D01*
X-462340Y-3585926D01*
X-449430Y-3605248D01*
X-8074Y-4046603D01*
X11247Y-4059514D01*
X32717Y-4068406D01*
X55509Y-4072940D01*
X2378776Y-4072940D01*
X2401564Y-4068404D01*
X2423033Y-4059509D01*
X2442347Y-4046593D01*
X2685097Y-3803634D01*
X2698003Y-3784305D01*
X2706893Y-3762832D01*
X2711424Y-3740035D01*
X2711424Y-3407206D01*
D16*
X568502Y-1829104D02*
G01*
X1408315Y-2668917D01*
X1416334Y-2678689D01*
X1423357Y-2689199D01*
X1429316Y-2700347D01*
X1434155Y-2712026D01*
X1437822Y-2724124D01*
X1440289Y-2736522D01*
X1441528Y-2749100D01*
X1441528Y-3407280D01*
X-1054887Y486359D02*
G01*
X-1001013Y540400D01*
X-979965Y554497D01*
X-956566Y564210D01*
X-931720Y569163D01*
X-550189Y569163D01*
X3280008Y-2223896D02*
G01*
X2975622Y-2223896D01*
X2966516Y-2214791D01*
X2838526Y-1657286D02*
G01*
X2841434Y-1660194D01*
X3259785Y-1660194D01*
D13*
X3259785Y-1660194D02*
G01*
X3257194Y-1657604D01*
X3257194Y-1536992D01*
X3032226Y-1339138D02*
G01*
X2689326Y-1337614D01*
X2689402Y-1337513D02*
G01*
X2560078Y-1337513D01*
X2557701Y-1339890D01*
X1998129Y-914704D02*
G01*
X2069838Y-914704D01*
X2083661Y-917453D01*
X2096681Y-922848D01*
X2108398Y-930676D01*
X2118365Y-940643D01*
X2126193Y-952360D01*
X2131588Y-965380D01*
X2134336Y-979203D01*
X2134336Y-1029004D01*
D16*
X1978202Y-914704D02*
G01*
X1973018Y-909520D01*
X1973018Y-736894D01*
X2059584Y-674194D02*
G01*
X2189988Y-674194D01*
X2189988Y-680516D01*
D12*
X2189988Y-680516D02*
G01*
X2198014Y-672490D01*
X2286177Y-672490D01*
D16*
X2059584Y-736897D02*
G01*
X2059584Y-674194D01*
X2059584Y-609897D01*
D12*
X2435981Y-862482D02*
G01*
X2386182Y-862482D01*
X2435981Y-862482D02*
G01*
X2438956Y-859510D01*
X2519994Y-859510D01*
D10*
X2654985Y-859510D02*
G01*
X2534993Y-859510D01*
D16*
X2134311Y-1155997D02*
G01*
X2134311Y-1149896D01*
X2134311Y-1034006D01*
X2134311Y-1155997D02*
G01*
X2140412Y-1149896D01*
X2134311Y-1149896D01*
X2557701Y-1149898D02*
G01*
X2557701Y-1024404D01*
X2548280Y-1014984D01*
D13*
X2143302Y-1410004D02*
G01*
X2143302Y-1303530D01*
X2145802Y-1290962D01*
X2150704Y-1279126D01*
X2157823Y-1268473D01*
X2166881Y-1259415D01*
X2177534Y-1252296D01*
X2189370Y-1247394D01*
X2201938Y-1244894D01*
X2287701Y-1244894D01*
X1952802Y-1956104D02*
G01*
X2291321Y-2294623D01*
X2300787Y-2306157D01*
X2309078Y-2318565D01*
X2316111Y-2331725D01*
X2321824Y-2345512D01*
X2326154Y-2359792D01*
X2329065Y-2374430D01*
X2330528Y-2389278D01*
X2330528Y-3407280D01*
D17*
X1314983Y-3729989D02*
G01*
X1314983Y-3797790D01*
X1313573Y-3812098D01*
X1310769Y-3826200D01*
X1306596Y-3839959D01*
X1301094Y-3853240D01*
X1294315Y-3865920D01*
X1286329Y-3877876D01*
X1277208Y-3888988D01*
X1266830Y-3899367D01*
X1255669Y-3908526D01*
X1243662Y-3916550D01*
X1230927Y-3923357D01*
X1217584Y-3928882D01*
X1203766Y-3933075D01*
X1189603Y-3935892D01*
X1175232Y-3937307D01*
X466686Y-3937307D01*
X445025Y-3935173D01*
X423674Y-3930926D01*
X402844Y-3924607D01*
X382732Y-3916278D01*
X363534Y-3906017D01*
X345434Y-3893921D01*
X328609Y-3880114D01*
X79595Y-3631100D01*
X79595Y-3631100D02*
G01*
X65788Y-3614272D01*
X53693Y-3596172D01*
X43431Y-3576975D01*
X35102Y-3556863D01*
X28783Y-3536033D01*
X24536Y-3514681D01*
X22402Y-3493020D01*
X22402Y-2979894D01*
X28600Y-2621506D02*
G01*
X28600Y-2766090D01*
X31394Y-2768884D01*
X31394Y-2768884D02*
G01*
X31394Y-2970903D01*
X22402Y-2979894D01*
X-202483Y-2768904D02*
G01*
X-202483Y-2974784D01*
X-207594Y-2979894D01*
X-202483Y-2768904D02*
G01*
X-202483Y-2619286D01*
X-199669Y-2616471D01*
X-199669Y-2616471D02*
G01*
X-201193Y-2311704D01*
D13*
X2448102Y-1956104D02*
G01*
X2448102Y-3397854D01*
X2457528Y-3407280D01*
D16*
X3729710Y-2499410D02*
G01*
X3729710Y-2336327D01*
X3724930Y-2312235D01*
X3715547Y-2289533D01*
X3701933Y-2269096D01*
X3684597Y-2251702D01*
X3664201Y-2238034D01*
X3641526Y-2228621D01*
X3617450Y-2223820D01*
X3366490Y-2223820D01*
D10*
X1305712Y-3564915D02*
G01*
X1314528Y-3556099D01*
X1314528Y-3564915D01*
X1196690Y-3564910D02*
G01*
X1187526Y-3555743D01*
X1187526Y-3574074D01*
X1196690Y-3564910D02*
G01*
X1187526Y-3574074D01*
X1137452Y-3624148D01*
X1126436Y-3640632D01*
X1118852Y-3658948D01*
X1114983Y-3678392D01*
X1114983Y-3729989D01*
D16*
X1507185Y-3641115D02*
G01*
X1466550Y-3600480D01*
X1454282Y-3582121D01*
X1445834Y-3561722D01*
X1441526Y-3540069D01*
X1441526Y-3407295D01*
X1646910Y-3642664D02*
G01*
X1507210Y-3641140D01*
X1507210Y-3727757D02*
G01*
X1504977Y-3729989D01*
X1314983Y-3729989D01*
X-1141577Y486410D02*
G01*
X-1627990Y486410D01*
X-1631723Y490143D01*
X1794484Y-3709720D02*
G01*
X1794484Y-3669522D01*
X1789379Y-3657201D01*
X1779948Y-3647770D01*
X1767626Y-3642664D01*
X1646910Y-3642664D01*
D10*
X1314528Y-3564915D02*
G01*
X1305712Y-3564915D01*
D16*
X2140412Y-1149896D02*
G01*
X2140412Y-1149896D01*
X2287701Y-1149896D01*
D10*
X1314528Y-3556099D02*
G01*
X1314528Y-3407293D01*
X1187526Y-3555743D02*
G01*
X1187526Y-3407295D01*
X465127Y784D02*
G01*
X465127Y784D01*
X100004Y784D01*
D18*
G01*
X2449995Y-578283D03*
D19*
G01*
X2450007Y-491718D03*
D20*
G01*
X987605Y-949088D03*
D21*
G01*
X987602Y-1058113D03*
D20*
G01*
X-460194Y-753300D03*
D21*
G01*
X-460197Y-644296D03*
D20*
G01*
X-91894Y-644288D03*
D21*
G01*
X-91897Y-753313D03*
D20*
G01*
X-244294Y-753300D03*
D21*
G01*
X-244297Y-644296D03*
D22*
G01*
X35102Y-1386103D03*
G01*
X85115Y-1256106D03*
G01*
X-14884Y-1256106D03*
G01*
X35102Y-1589303D03*
G01*
X85115Y-1459306D03*
G01*
X-14884Y-1459306D03*
D18*
G01*
X-129994Y-1354011D03*
D19*
G01*
X-129997Y-1440586D03*
D23*
G01*
X154588Y-1143294D03*
G01*
X68022Y-1143294D03*
D24*
G01*
X-131343Y-884021D03*
G01*
X-181330Y-884021D03*
G01*
X-231343Y-884021D03*
G01*
X-281330Y-883996D03*
D25*
G01*
X-351180Y-954023D03*
G01*
X-351180Y-1004011D03*
G01*
X-351180Y-1054023D03*
G01*
X-351180Y-1104011D03*
D24*
G01*
X-281177Y-1173987D03*
G01*
X-231190Y-1173987D03*
G01*
X-181203Y-1173987D03*
G01*
X-131267Y-1173987D03*
D25*
G01*
X-61213Y-1104011D03*
G01*
X-61213Y-1054023D03*
G01*
X-61213Y-1004011D03*
G01*
X-61213Y-954023D03*
D26*
G01*
X-206222Y-1029004D03*
D27*
G01*
X-199694Y-2616504D03*
G01*
X-339699Y-2616504D03*
G01*
X28600Y-2616504D03*
G01*
X168605Y-2616504D03*
D28*
G01*
X800100Y-992197D03*
D29*
G01*
X800100Y-1192199D03*
D30*
G01*
X1114993Y-3729992D03*
G01*
X1314998Y-3729992D03*
D20*
G01*
X1646887Y-3751600D03*
D21*
G01*
X1646885Y-3642588D03*
D31*
G01*
X1196695Y-3564905D03*
G01*
X1305707Y-3564905D03*
D20*
G01*
X2654995Y-859505D03*
D21*
G01*
X2654985Y-750493D03*
D31*
G01*
X3257199Y-1536994D03*
G01*
X3366211Y-1536994D03*
D32*
G01*
X2134311Y-1028994D03*
G01*
X2025299Y-1028994D03*
D20*
G01*
X2534996Y-859505D03*
D21*
G01*
X2534996Y-750493D03*
D32*
G01*
X2134311Y-1155994D03*
G01*
X2025299Y-1155994D03*
D20*
G01*
X2689405Y-1228488D03*
D21*
G01*
X2689402Y-1337513D03*
D20*
G01*
X2569994Y-579506D03*
D21*
G01*
X2569997Y-470484D03*
D20*
G01*
X2189995Y-680491D03*
D21*
G01*
X2189988Y-789508D03*
D32*
G01*
X-202488Y-2768894D03*
G01*
X-311500Y-2768894D03*
D31*
G01*
X31399Y-2768894D03*
G01*
X140411Y-2768894D03*
D33*
G01*
X-407050Y-1841500D03*
G01*
X-710549Y-1841500D03*
D34*
G01*
X3729685Y-2659506D03*
G01*
X3729685Y-2499487D03*
D35*
G01*
X696214Y94716D03*
G01*
X466217Y-279D03*
G01*
X696214Y-95300D03*
D18*
G01*
X1507187Y-3727677D03*
D19*
G01*
X1507185Y-3641115D03*
D36*
G01*
X3280004Y-2223894D03*
G01*
X3366570Y-2223894D03*
D18*
G01*
X2329995Y-578283D03*
D19*
G01*
X2329992Y-491718D03*
D23*
G01*
X2059588Y-736894D03*
G01*
X1973022Y-736894D03*
D36*
G01*
X-1141581Y486394D03*
G01*
X-1055015Y486394D03*
D23*
G01*
X2059588Y-609894D03*
G01*
X1973022Y-609894D03*
G01*
X2548279Y-1014996D03*
G01*
X2461713Y-1014996D03*
D37*
G01*
X697100Y-292394D03*
G01*
X897110Y-292394D03*
D38*
G01*
X1Y449672D03*
D39*
G01*
X0Y600328D03*
D40*
G01*
X3259785Y-2000199D03*
G01*
X3259785Y-1660194D03*
D41*
G01*
X1794383Y-3709796D03*
G01*
X2134387Y-3709796D03*
D42*
G01*
X2557703Y-1149908D03*
G01*
X2557703Y-1244904D03*
G01*
X2557703Y-1339900D03*
G01*
X2287701Y-1339900D03*
G01*
X2287701Y-1244904D03*
G01*
X2287701Y-1149908D03*
D43*
G01*
X252399Y-2979902D03*
G01*
X22402Y-2979902D03*
G01*
X-207594Y-2979902D03*
D44*
G01*
X22405Y-3573896D03*
D45*
G01*
X1187526Y-3407282D03*
G01*
X1314526Y-3407282D03*
G01*
X1441526Y-3407282D03*
G01*
X1568526Y-3407282D03*
G01*
X1695526Y-3407282D03*
G01*
X1822526Y-3407282D03*
G01*
X1949526Y-3407282D03*
G01*
X2076526Y-3407282D03*
G01*
X2203526Y-3407282D03*
G01*
X2330526Y-3407282D03*
G01*
X2457526Y-3407282D03*
G01*
X2584526Y-3407282D03*
G01*
X2711526Y-3407282D03*
G01*
X2838526Y-3407282D03*
D46*
G01*
X2966516Y-3230778D03*
G01*
X2966516Y-3103778D03*
G01*
X2966516Y-2976778D03*
G01*
X2966516Y-2849778D03*
G01*
X2966516Y-2722778D03*
G01*
X2966516Y-2595778D03*
G01*
X2966516Y-2468778D03*
G01*
X2966516Y-2341778D03*
G01*
X2966516Y-2214778D03*
G01*
X2966516Y-2087778D03*
G01*
X2966516Y-1960778D03*
G01*
X2963519Y-1833778D03*
D45*
G01*
X2838526Y-1657299D03*
G01*
X2711526Y-1657299D03*
G01*
X2584526Y-1657299D03*
G01*
X2457526Y-1657299D03*
G01*
X2330526Y-1657299D03*
G01*
X2203526Y-1657299D03*
G01*
X2076526Y-1657299D03*
G01*
X1949526Y-1657299D03*
G01*
X1822526Y-1657299D03*
G01*
X1695526Y-1657299D03*
G01*
X1568526Y-1657299D03*
G01*
X1441526Y-1657299D03*
G01*
X1314526Y-1657299D03*
G01*
X1187526Y-1657299D03*
D47*
G01*
X2099538Y-2542311D03*
G01*
X2099538Y-2682290D03*
G01*
X2099538Y-2822295D03*
G01*
X1819529Y-2822295D03*
G01*
X1819529Y-2682290D03*
G01*
X1819529Y-2542311D03*
G01*
X1959533Y-2542311D03*
G01*
X1959533Y-2822295D03*
G01*
X1959533Y-2682290D03*
D48*
G01*
X-201294Y-2311704D03*
G01*
X-541273Y-2311704D03*
D49*
G01*
X2436190Y-672490D03*
G01*
X2386203Y-672490D03*
G01*
X2336190Y-672490D03*
G01*
X2286203Y-672490D03*
G01*
X2286203Y-862482D03*
G01*
X2336190Y-862482D03*
G01*
X2386203Y-862482D03*
G01*
X2436190Y-862482D03*
D50*
G01*
X2361184Y-767486D03*
D51*
G01*
X803732Y-801014D03*
G01*
X898728Y-801014D03*
G01*
X993724Y-801014D03*
G01*
X993724Y-494995D03*
G01*
X898728Y-494995D03*
G01*
X803732Y-494995D03*
D52*
G01*
X898709Y-647997D03*
D53*
G01*
X3157296Y-1049096D03*
G01*
X2907309Y-1049096D03*
D54*
G01*
X3032302Y-1339087D03*
D34*
G01*
X-1631695Y490143D03*
G01*
X-1631695Y330225D03*
D16*
G75*
G01*
X1377648Y-3729990D02*
G03*
X1334882Y-3772654I0J-42766D01*
G75*
G01*
X1930319Y-889709D02*
G03*
X1973019Y-847009I0J42700D01*
D12*
G75*
G01*
X-67864Y-756115D02*
G03*
X-113688Y-775096I0J-64803D01*
D16*
G75*
G01*
X-689818Y-509715D02*
G03*
X-708579Y-554919I-1J-26494D01*
D12*
G75*
G01*
X-440182Y-1628882D02*
G03*
X-407060Y-1615163I13719J13722D01*
G75*
G01*
X-407060Y-1635163D02*
G03*
X-388079Y-1680985I64803J2D01*
D11*
G75*
G01*
X-407060Y-1773700D02*
G03*
X-456042Y-1655450I-167229J0D01*
G75*
G01*
X-753869Y-544820D02*
G03*
X-838617Y-509715I-84749J-84744D01*
G75*
G01*
X390662Y-899493D02*
G03*
X483385Y-992175I92723J41D01*
D13*
G75*
G01*
X941017Y-949086D02*
G03*
X993717Y-896386I0J52700D01*
D11*
G75*
G01*
X483385Y-992175D02*
G03*
X390660Y-1084857I-3J-92722D01*
D16*
G75*
G01*
X-575160Y526471D02*
G03*
X-617875Y569163I-42715J-23D01*
D10*
G75*
G01*
X1153546Y-3608055D02*
G03*
X1187526Y-3526020I-82034J82035D01*
D16*
G75*
G01*
X1483299Y-3617229D02*
G03*
X1541026Y-3641509I58631J58633D01*
D14*
G75*
G01*
X2876525Y-1662495D02*
G03*
X2838425Y-1700595I0J-38100D01*
D16*
G75*
G01*
X3209494Y-1660195D02*
G03*
X3252194Y-1617495I0J42700D01*
G75*
G01*
X2059584Y-631495D02*
G03*
X2102284Y-674195I42700J0D01*
G75*
G01*
X2102284Y-674195D02*
G03*
X2059584Y-716895I0J-42700D01*
D55*
G01*
X-836574Y-2470861D03*
D56*
G01*
X-836574Y-2720847D03*
G01*
X-836574Y-2920847D03*
D55*
G01*
X-836574Y-3170859D03*
D57*
G01*
X-1076578Y-3478352D03*
G01*
X-1076578Y-2163343D03*
D55*
G01*
X-838606Y-509727D03*
D56*
G01*
X-838606Y-759713D03*
G01*
X-838606Y-959713D03*
D55*
G01*
X-838606Y-1209725D03*
D57*
G01*
X-1078610Y-1517218D03*
G01*
X-1078610Y-202209D03*
D58*
G01*
X2228316Y1117D03*
D59*
G01*
X2101316Y128117D03*
G01*
X1974316Y1117D03*
D56*
G01*
X-550214Y1079093D03*
G01*
X-550214Y569087D03*
G01*
X-550214Y823087D03*
D60*
G01*
X-99999Y787D03*
D61*
G01*
X0Y100787D03*
D60*
G01*
X99999Y787D03*
D62*
G01*
X-1357299Y-2608249D03*
G01*
X-1357299Y-2745714D03*
G01*
X-1357299Y-3020644D03*
G01*
X-1357299Y-2883179D03*
G01*
X-1357299Y-2470810D03*
G01*
X-1357299Y-3158109D03*
G01*
X-1357299Y-516915D03*
G01*
X-1357299Y-654354D03*
G01*
X-1357299Y-791819D03*
G01*
X-1357299Y-929284D03*
G01*
X-1357299Y-1066749D03*
G01*
X-1357299Y-1204213D03*
G01*
X3257804Y-2091715D03*
G01*
X3727704Y-2764815D03*
G01*
X2168702Y-3848404D03*
G01*
X1644904Y-3857015D03*
G01*
X984504Y-3374415D03*
G01*
X1073404Y-3374415D03*
G01*
X984504Y-3463315D03*
G01*
X1073404Y-3463315D03*
G01*
X1073404Y-3552215D03*
G01*
X994994Y-3674998D03*
G01*
X994994Y-3764991D03*
G01*
X924991Y-3674998D03*
G01*
X924991Y-3764991D03*
G01*
X1962404Y-2421915D03*
G01*
X2102104Y-2421915D03*
G01*
X2216404Y-2536215D03*
G01*
X2216404Y-2675915D03*
G01*
X2216404Y-2815615D03*
G01*
X2102104Y-2942615D03*
G01*
X1962404Y-2942615D03*
G01*
X1822704Y-2942615D03*
G01*
X1695704Y-2828315D03*
G01*
X1695704Y-2688615D03*
G01*
X1695704Y-2536215D03*
G01*
X1822704Y-2421915D03*
G01*
X974902Y-1702104D03*
G01*
X1063802Y-1702104D03*
G01*
X974902Y-1613204D03*
G01*
X1063802Y-1613204D03*
G01*
X-1631695Y194284D03*
G01*
X-1399997Y-4254804D03*
G01*
X-1093596Y-4254804D03*
G01*
X-787222Y-4254804D03*
G01*
X-480821Y-4254804D03*
G01*
X-174447Y-4254804D03*
G01*
X131953Y-4254804D03*
G01*
X438327Y-4254804D03*
G01*
X744728Y-4254804D03*
G01*
X1051102Y-4254804D03*
G01*
X1357503Y-4254804D03*
G01*
X1663877Y-4254804D03*
G01*
X1970278Y-4254804D03*
G01*
X2276652Y-4254804D03*
G01*
X2583053Y-4254804D03*
G01*
X2889427Y-4254804D03*
G01*
X3195828Y-4254804D03*
G01*
X3502202Y-4254804D03*
G01*
X3807002Y-3932529D03*
G01*
X3807002Y-3626154D03*
G01*
X3807002Y-3319754D03*
G01*
X3807002Y-3013379D03*
G01*
X3807002Y-2706979D03*
G01*
X3807002Y-2400604D03*
G01*
X3807002Y-2094204D03*
G01*
X3807002Y-1787829D03*
G01*
X3807002Y-1481429D03*
G01*
X3807002Y-1175054D03*
G01*
X3807002Y-868654D03*
G01*
X3807002Y-562279D03*
G01*
X3807002Y-255879D03*
G01*
X3807002Y50495D03*
G01*
X3807002Y356895D03*
G01*
X3807002Y663270D03*
G01*
X3807002Y969670D03*
G01*
X-1399997Y1256995D03*
G01*
X-1093596Y1256995D03*
G01*
X-787222Y1256995D03*
G01*
X-480821Y1256995D03*
G01*
X-174447Y1256995D03*
G01*
X131953Y1256995D03*
G01*
X438327Y1256995D03*
G01*
X744728Y1256995D03*
G01*
X1051102Y1256995D03*
G01*
X1357503Y1256995D03*
G01*
X1663877Y1256995D03*
G01*
X1970278Y1256995D03*
G01*
X2276652Y1256995D03*
G01*
X2583053Y1256995D03*
G01*
X2889427Y1256995D03*
G01*
X3195828Y1256995D03*
G01*
X3502202Y1256995D03*
G01*
X-1704797Y-3950004D03*
G01*
X-1704797Y-3643604D03*
G01*
X-1704797Y-3337229D03*
G01*
X-1704797Y-3030829D03*
G01*
X-1704797Y-2724454D03*
G01*
X-1704797Y-2418054D03*
G01*
X-1704797Y-2111679D03*
G01*
X-1704797Y-1805279D03*
G01*
X-1704797Y-1498904D03*
G01*
X-1704797Y-1192504D03*
G01*
X-1704797Y-886129D03*
G01*
X-1704797Y-579729D03*
G01*
X-1704797Y-273354D03*
G01*
X-1704797Y33045D03*
G01*
X-1704797Y339420D03*
G01*
X-1704797Y645820D03*
G01*
X-1704797Y952195D03*
G01*
X-1615897Y-4165904D03*
G01*
X3718102Y-4165904D03*
G01*
X3718102Y1155395D03*
G01*
X-1615897Y1168095D03*
G01*
X1127302Y1383995D03*
G01*
X1952802Y-1956104D03*
G01*
X2448102Y-1956104D03*
G01*
X670102Y-673404D03*
G01*
X2143302Y-1410004D03*
G01*
X847902Y-1511604D03*
G01*
X733602Y-1651304D03*
G01*
X1978202Y-914704D03*
G01*
X568502Y-1829104D03*
G01*
X2794000Y-863600D03*
G01*
X-358597Y-800404D03*
G01*
X-434797Y-889304D03*
G01*
X-472897Y-1067104D03*
G01*
X-409397Y-1168704D03*
G01*
X723900Y-1409700D03*
G01*
X63500Y-723900D03*
G01*
X187502Y-1333804D03*
G01*
X212902Y-1486204D03*
G01*
X644702Y-1752904D03*
G01*
X-244297Y-533704D03*
G01*
X-91897Y-533704D03*
G01*
X-536397Y-597204D03*
G01*
X-520700Y-1155700D03*
G01*
X-431800Y-1270000D03*
G01*
X-939800Y-863600D03*
G01*
X50800Y-1676400D03*
G01*
X495300Y-1905000D03*
G01*
X1866900Y-1981200D03*
G01*
X2032000Y-1905000D03*
G01*
X596900Y-609600D03*
G01*
X584200Y-723900D03*
G01*
X685800Y-571500D03*
G01*
X685800Y-482600D03*
G01*
X1079500Y-546100D03*
G01*
X1079500Y-635000D03*
G01*
X1079500Y-723900D03*
G01*
X698500Y190500D03*
G01*
X800100Y190500D03*
G01*
X800100Y88900D03*
G01*
X-876300Y-1714500D03*
G01*
X-876300Y-1803400D03*
G01*
X-876300Y-1892300D03*
G01*
X-876300Y-1981200D03*
G01*
X-965200Y-1892300D03*
G01*
X-965200Y-1803400D03*
G01*
X-444500Y-2590800D03*
G01*
X-444500Y-2667000D03*
G01*
X-520700Y-2590800D03*
G01*
X-520700Y-2667000D03*
G01*
X-406400Y-2743200D03*
G01*
X-406400Y-2819400D03*
G01*
X266700Y-2578100D03*
G01*
X342900Y-2578100D03*
G01*
X266700Y-2654300D03*
G01*
X342900Y-2654300D03*
G01*
X241300Y-2730500D03*
G01*
X241300Y-2806700D03*
G01*
X355600Y-2857500D03*
G01*
X355600Y-2933700D03*
G01*
X355600Y-3009900D03*
G01*
X355600Y-3086100D03*
G01*
X3454400Y-1536700D03*
G01*
X3124200Y-927100D03*
G01*
X3200400Y-927100D03*
G01*
X2768600Y-723900D03*
G01*
X2260600Y-927100D03*
G01*
X1943100Y-1028700D03*
G01*
X1943100Y-1104900D03*
G01*
X1943100Y-1181100D03*
G01*
X2286000Y-1409700D03*
G01*
X2692400Y-1117600D03*
G01*
X2781300Y-1219200D03*
G01*
X1968500Y-533400D03*
G01*
X2349500Y-1955800D03*
G01*
X2540000Y-1955800D03*
G01*
X2057400Y-1422400D03*
G01*
X2057400Y-1346200D03*
G01*
X2921000Y-3543300D03*
G01*
X2641600Y-3543300D03*
G01*
X2705100Y-3263900D03*
G01*
X2832100Y-3263900D03*
G01*
X2463800Y-3543300D03*
G01*
X2336800Y-3543300D03*
G01*
X1752600Y-1447800D03*
G01*
X1752600Y-1149350D03*
G01*
X1752600Y-812800D03*
G01*
X1752600Y-552450D03*
G01*
X1752600Y-254000D03*
G01*
X1752600Y44450D03*
G01*
X1752600Y342900D03*
G01*
X2070100Y342900D03*
G01*
X2374900Y342900D03*
G01*
X2679700Y342900D03*
G01*
X2984500Y66675D03*
G01*
X2984500Y-209550D03*
G01*
X3378200Y-1358900D03*
G01*
X3378200Y-1060450D03*
G01*
X3378200Y-762000D03*
G01*
X2984500Y-762000D03*
G01*
X3181350Y-762000D03*
G01*
X2984500Y-485775D03*
G01*
X2984500Y342900D03*
G01*
X654989Y-1124991D03*
G01*
X654989Y-1199997D03*
G01*
X949985Y-1170000D03*
G01*
X1024991Y-1170000D03*
G01*
X2529992Y-675004D03*
G01*
X2610002Y-675004D03*
G01*
X2689987Y-675004D03*
M02*
